<svg width="25" height="25" viewBox="0 0 25 25" fill="none" xmlns="http://www.w3.org/2000/svg">
<path d="M6.4208 2.64156C6.91396 2.64332 7.38985 2.82344 7.76055 3.1487L10.4643 5.85246C11.429 6.81817 11.0433 8.45905 9.78812 8.84575C8.91856 9.13525 8.33955 10.101 8.62588 10.9695C9.10874 12.9971 11.7153 15.5075 13.6467 15.9903C13.7744 16.0186 13.9048 16.0328 14.0356 16.0326C14.7857 16.0326 15.5243 15.5719 15.7705 14.8312C15.8843 14.4738 16.1101 14.1625 16.4146 13.9433C16.719 13.7241 17.0859 13.6086 17.461 13.6141C17.7027 13.6137 17.9421 13.6614 18.1653 13.7544C18.3884 13.8475 18.5907 13.9841 18.7606 14.1561L21.4643 16.8589C22.1406 17.5351 22.1406 18.6931 21.4643 19.4654L19.6301 21.3007C19.1452 21.7846 18.4605 22.0139 17.6343 22.0139C15.1682 22.0139 11.4438 19.9694 8.04371 16.5693C3.50043 12.0313 1.47814 6.91432 3.31236 4.9829L5.14764 3.1487C5.31506 2.98469 5.51329 2.85547 5.7309 2.76842C5.94851 2.68138 6.18119 2.63826 6.41553 2.64156H6.4208ZM6.41553 0.000121574C5.8343 -0.00419999 5.25796 0.106732 4.71988 0.326536C4.18179 0.54634 3.69262 0.870616 3.28065 1.28065L1.44645 3.11594L1.42215 3.13921L1.39891 3.16351C0.447991 4.16831 -0.897035 6.49486 0.841034 10.7898C1.85429 13.2929 3.74873 16.0094 6.17675 18.4374C10.0702 22.3309 14.3546 24.6553 17.6353 24.6553C19.5995 24.6553 20.8198 23.8471 21.4982 23.1677L23.3334 21.3334L23.3958 21.2711L23.4528 21.2056C25.0483 19.383 24.9954 16.6528 23.3334 14.9908L20.6297 12.2881C20.2147 11.8699 19.7208 11.5384 19.1767 11.3126C18.6326 11.0868 18.049 10.9712 17.4599 10.9726C16.6909 10.967 15.9338 11.1636 15.2646 11.5427C14.5954 11.9217 14.0375 12.4699 13.6467 13.1323C13.2108 12.863 12.8076 12.5439 12.4454 12.1814C12.0729 11.8197 11.7462 11.4137 11.4723 10.9726C11.9781 10.677 12.419 10.2824 12.7687 9.81236C13.1183 9.34232 13.3695 8.8066 13.5073 8.23719C13.6968 7.48696 13.6873 6.70026 13.4798 5.95482C13.2722 5.20937 12.8738 4.53096 12.3239 3.98658L9.62117 1.28277L9.55885 1.22153L9.49227 1.16339C8.64095 0.415311 7.54671 0.00224419 6.41342 0.00115339L6.41553 0.000121574Z" fill="#342B1D"/>
</svg>
