<svg width="81" height="80" viewBox="0 0 81 80" fill="none" xmlns="http://www.w3.org/2000/svg">
<path d="M62.5398 43.019V42.9724C62.5125 42.9275 62.4812 42.8851 62.4464 42.8457C62.4451 42.8803 62.453 42.9147 62.4694 42.9451C62.4858 42.9756 62.5101 43.0012 62.5398 43.019Z" fill="#342B1D"/>
<path d="M61.4668 41.4872C60.8002 40.3405 58.7268 39.4339 58.0735 39.1739L57.5802 38.9739C57.5063 38.9486 57.4414 38.9023 57.3935 38.8405L57.2868 38.7005L57.3402 38.5872L56.9068 38.5539C56.5819 38.5364 56.2586 38.494 55.9401 38.4272L55.8469 38.3939L55.8002 38.3139C55.8002 38.2606 55.6802 38.2606 55.4335 38.3139C55.2142 38.3644 54.9862 38.3644 54.7669 38.3139C49.1669 36.9806 44.2002 44.1205 42.8135 46.3539C41.0068 49.2805 39.8068 52.6805 38.6535 55.9672C36.8135 61.1939 34.9068 66.6339 30.4735 70.3272C26.5268 73.4139 22.9802 74.2739 20.4735 72.7472C17.7335 71.0672 16.6735 66.6539 17.7202 61.2272C18.1112 58.7569 18.7822 56.3391 19.7202 54.0205C20.0268 53.1605 20.3468 52.2872 20.6468 51.3539C20.6598 51.2362 20.6843 51.1201 20.7202 51.0072C20.6635 50.9907 20.6141 50.9555 20.5802 50.9072C20.4602 50.7405 20.5802 50.5672 20.6735 50.4006C20.748 50.2927 20.8043 50.1733 20.8402 50.0472L20.7469 49.8872L20.8735 49.7672C21.1093 49.4616 21.2486 49.0925 21.2735 48.7072C21.2862 48.4723 21.3548 48.2437 21.4735 48.0406C21.4715 47.9905 21.4852 47.9411 21.5127 47.8993C21.5402 47.8575 21.5801 47.8253 21.6268 47.8072C21.6892 47.7831 21.7583 47.7826 21.8209 47.806C21.8836 47.8293 21.9354 47.8748 21.9668 47.9339L22.1268 47.9939C23.4601 48.5139 23.8802 48.5005 23.9868 48.4539C24.0935 48.4072 24.0268 48.4005 24.0668 48.2872C24.1602 47.9805 24.3202 47.6205 25.0002 47.6205C26.3335 47.8072 29.4068 47.6205 30.6335 46.6739C33.9335 45.0405 36.1402 40.1272 36.7669 37.4072V37.3472C38.0772 34.7175 39.1914 31.9945 40.1002 29.2005C40.4802 28.1272 40.8535 27.0605 41.2535 26.0072C42.0041 24.467 42.5338 22.8287 42.8268 21.1405C42.9735 20.4739 43.1202 19.8072 43.3002 19.1405C43.7268 17.6072 43.8868 15.4605 43.0602 14.0072C42.8551 13.6423 42.578 13.3229 42.2456 13.0685C41.9133 12.8141 41.5326 12.6299 41.1268 12.5272C40.9832 12.5225 40.8421 12.4881 40.7124 12.4261C40.5828 12.3642 40.4674 12.276 40.3735 12.1672C40.2938 12.0167 40.2462 11.8514 40.2336 11.6816C40.221 11.5117 40.2436 11.3412 40.3002 11.1805C40.3658 10.9349 40.3794 10.6784 40.3402 10.4272C40.1341 10.1901 39.9552 9.93075 39.8068 9.65387C39.5735 9.26054 39.2868 8.76722 39.0335 8.71389C38.9967 8.70598 38.9586 8.70732 38.9226 8.71779C38.8865 8.72827 38.8536 8.74754 38.8268 8.77389L38.7469 8.83388H38.6468C38.3629 8.78737 38.0724 8.80006 37.7936 8.8712C37.5149 8.94233 37.2537 9.07035 37.0268 9.24721C36.3227 9.88448 35.8967 10.7725 35.8402 11.7205C35.5802 12.5739 36.0002 13.0539 36.5069 13.5405C36.6706 13.7044 36.8242 13.878 36.9668 14.0605C38.5468 14.5472 39.1935 13.8672 39.5802 13.4606C39.7735 13.2606 39.9402 13.0872 40.1802 13.1405C40.4202 13.1939 40.5135 13.4139 40.6201 13.7539C42.1668 17.5206 40.2001 22.6272 38.4601 27.1339C37.9001 28.5672 37.3801 29.9272 37.0201 31.1339L36.7469 31.8606C35.829 34.5258 34.7401 37.1289 33.4868 39.6539C32.0402 43.4739 28.6869 47.1206 24.5002 46.6472C24.4246 46.6609 24.3469 46.6571 24.273 46.6363C24.1991 46.6155 24.1309 46.5782 24.0735 46.5272C23.8935 46.3472 23.9335 46.0739 23.9735 45.8072C24.0027 45.6732 24.0027 45.5345 23.9735 45.4006H23.9202L23.8268 45.3539C23.4406 45.1521 23.024 45.0147 22.5935 44.9472C22.2425 44.9293 21.8989 44.8389 21.5846 44.6817C21.2702 44.5245 20.9918 44.3039 20.7669 44.0339C20.4269 43.7605 20.2601 43.7406 20.1868 43.7539C20.1135 43.7672 19.9668 43.9539 19.8868 44.1072C19.8068 44.2606 19.6669 44.5272 19.4202 44.5339C19.1735 44.5339 18.9935 44.3072 18.8535 44.0805C14.7268 39.2672 16.0602 32.1672 17.3935 27.2272C17.7935 25.3805 18.3735 23.5072 18.9335 21.6939C19.6296 19.6028 20.2016 17.4724 20.6468 15.3139V15.2139L20.7268 15.1539C21.1067 14.8384 21.3734 14.4078 21.4868 13.9272C21.5268 13.8028 21.5735 13.6761 21.6268 13.5472C21.7205 13.3435 21.8771 13.1753 22.0735 13.0672C22.0896 12.8396 22.1811 12.6237 22.3335 12.4539C22.3896 12.3785 22.4386 12.2982 22.4802 12.2139V12.1472C22.8123 11.5393 23.2127 10.9712 23.6735 10.4539C23.7669 10.2672 23.9735 10.2606 24.4269 10.2539H24.8135C24.8935 9.99389 25.2335 10.0072 25.4802 10.0205C25.5953 10.0349 25.7117 10.0349 25.8268 10.0205L25.8935 9.93388H25.9802C25.9802 9.93388 25.9802 9.93387 26.0735 9.86721C26.1414 9.78811 26.2251 9.7241 26.3193 9.67932C26.4134 9.63454 26.5159 9.60999 26.6201 9.60722H26.7335L26.8068 9.68722C27.0664 10.0036 27.1995 10.4051 27.1802 10.8139L27.2602 10.8539C27.4904 10.9384 27.6964 11.078 27.8601 11.2605C28.1064 11.4763 28.4008 11.63 28.7185 11.7088C29.0363 11.7877 29.3682 11.7894 29.6868 11.7139C30.5868 11.3406 30.9801 9.71389 31.2801 8.25389C31.3432 7.62489 31.1749 6.99446 30.8068 6.48055C30.5468 6.36722 30.2802 6.22054 30.0135 6.07387C29.6513 5.82536 29.2434 5.65091 28.8135 5.56055C28.2923 5.95359 27.885 6.47819 27.6335 7.08055C27.5862 7.17829 27.5503 7.28119 27.5268 7.38721C27.5072 7.56879 27.4219 7.73691 27.2867 7.85976C27.1516 7.98261 26.9761 8.05166 26.7935 8.05387C23.0335 7.90721 20.8801 8.8472 20.1268 10.9472C18.1026 16.3572 16.3931 21.8797 15.0069 27.4872C13.6724 31.809 13.6423 36.4284 14.9202 40.7672C15.222 41.1584 15.5025 41.5657 15.7602 41.9872C16.1619 42.6719 16.6479 43.3035 17.2068 43.8672L17.2535 43.9339C17.474 44.254 17.7548 44.528 18.0802 44.7405C18.5254 45.0026 18.8756 45.3995 19.0802 45.8739C19.1854 46.1818 19.3585 46.4621 19.5869 46.6939H19.6468C19.7402 46.6939 19.8801 46.7472 19.9401 46.9672H20.1802V47.2405C20.022 48.0273 19.7191 48.7778 19.2868 49.4539C19.0336 49.9005 18.8108 50.3638 18.6201 50.8405L18.5268 51.0939C16.3335 56.6605 14.2668 61.9206 15.5401 67.6872C16.7868 71.6872 20.7268 75.2805 25.1468 74.3539C29.8668 72.9472 33.2335 70.6939 35.1468 67.6872C36.6135 65.8939 37.4735 63.5205 38.3068 61.2272C38.5802 60.4805 38.8468 59.7406 39.1335 59.0272C39.1735 58.9406 39.2268 58.8205 39.2801 58.6872C39.5735 57.9739 39.6868 57.7005 39.9468 57.7605C40.0993 57.3874 40.2263 57.0043 40.3268 56.6139C40.4335 56.2539 40.5401 55.8805 40.6868 55.5139C41.1001 54.5405 41.3935 53.5739 41.6868 52.6472C42.1092 51.0864 42.7134 49.5805 43.4868 48.1605C43.5648 48.0255 43.6612 47.9021 43.7735 47.7939C43.7765 47.7228 43.7923 47.6528 43.8202 47.5872C43.8202 47.4739 43.9868 46.9606 44.2935 46.9606C44.3473 46.9596 44.4003 46.9734 44.4468 47.0005C45.4432 45.3439 46.7226 43.8749 48.2268 42.6605C49.0654 41.5802 50.1444 40.7104 51.3781 40.1202C52.6118 39.5299 53.9661 39.2356 55.3335 39.2605C56.2564 39.2443 57.1682 39.462 57.9842 39.8933C58.8002 40.3246 59.4938 40.9555 60.0002 41.7272C61.3335 43.7672 61.7135 46.7205 61.0002 49.8205C60.844 50.2525 60.7323 50.6992 60.6669 51.1539C60.4802 52.2205 60.2668 53.4339 59.0735 53.3672C54.9135 52.9472 53.2335 54.4539 50.8135 58.2205C49.2535 61.7472 51.2668 65.7272 53.9535 67.6606L54.0002 67.7072C56.2669 70.4805 60.5535 69.2606 61.8135 68.8272C65.3868 67.1139 66.9335 65.0072 66.8068 61.9939C66.9402 58.3739 64.0335 55.1539 61.2202 53.9406C61.1378 53.9445 61.0569 53.9172 60.9938 53.864C60.9308 53.8108 60.8902 53.7358 60.8801 53.6539C60.8801 53.3805 61.2335 53.1205 61.4002 53.0939C61.6297 52.862 61.823 52.5968 61.9735 52.3072C62.1054 52.0741 62.2548 51.8512 62.4202 51.6405C62.74 50.8987 62.964 50.119 63.0869 49.3205C63.1778 48.7419 63.3138 48.1713 63.4935 47.6139C63.4998 46.1003 63.1839 44.6026 62.5668 43.2205C62.5115 43.2159 62.4585 43.196 62.4138 43.1631C62.369 43.1301 62.3343 43.0854 62.3135 43.0339L62.2335 42.8806V42.8205L62.0535 42.7272L62.1068 42.5539C62.0429 42.5528 61.9806 42.5334 61.9274 42.4979C61.8742 42.4625 61.8324 42.4125 61.8068 42.3539C61.7795 42.2908 61.7659 42.2226 61.7669 42.1539C61.6838 42.1093 61.6112 42.0477 61.5537 41.973C61.4963 41.8983 61.4553 41.8122 61.4335 41.7205C61.4139 41.6792 61.3915 41.6391 61.3668 41.6005L61.4668 41.4872ZM38.6068 12.7872C38.5382 12.8885 38.4484 12.9738 38.3437 13.0371C38.239 13.1004 38.1218 13.1402 38.0002 13.1539H37.6468L37.7402 12.8139C37.8048 12.4684 37.8427 12.1185 37.8535 11.7672C37.9201 10.6605 38.0069 9.28054 38.9269 9.17387H39.1602L39.2068 9.40721C39.3935 10.2205 39.1735 12.0405 38.6068 12.7872ZM28.6068 10.4072C28.6276 9.7063 28.7512 9.01224 28.9735 8.34721C28.8931 8.2343 28.8499 8.09915 28.8499 7.96055C28.8499 7.82195 28.8931 7.68678 28.9735 7.57387C29.0054 7.51632 29.0321 7.4561 29.0535 7.39388C29.1402 6.90721 29.2268 6.52721 29.5535 6.38721C29.7066 6.35226 29.8658 6.35462 30.0178 6.39406C30.1697 6.43351 30.3101 6.50889 30.4269 6.61387C30.9802 7.03387 31.0268 8.14055 30.8868 9.04055C30.7468 9.94055 30.3535 10.9939 29.6735 11.2272C29.5858 11.2584 29.4933 11.2742 29.4002 11.2739C29.1131 11.2625 28.8422 11.1378 28.6468 10.9272L28.5602 10.8472L28.6068 10.4072ZM16.7268 23.1739L16.9002 23.0939L17.0268 23.2339C17.0698 23.2808 17.0979 23.3395 17.1074 23.4024C17.1169 23.4653 17.1074 23.5297 17.0802 23.5872L17.0135 23.7605H16.8135H16.6201L16.5802 23.5539C16.5539 23.4836 16.5543 23.4061 16.5813 23.336C16.6084 23.266 16.6601 23.2083 16.7268 23.1739ZM62.7268 56.6005L62.9535 56.8672C63.8158 57.7562 64.3889 58.8855 64.5971 60.1064C64.8054 61.3273 64.639 62.5826 64.1201 63.7072C63.5238 65.0426 62.558 66.1796 61.3366 66.9841C60.1152 67.7885 58.6892 68.2268 57.2268 68.2472C55.0002 68.1405 53.8935 65.9072 52.9401 64.1206C52.7668 63.7806 52.6002 63.4539 52.4335 63.1606C51.3535 61.3272 52.2935 59.0539 55.2268 56.3939C55.824 55.8202 56.5868 55.4493 57.4068 55.3339C57.5268 55.2739 57.6668 55.1939 57.8135 55.1072C58.216 54.8022 58.7022 54.6277 59.2068 54.6072C59.3073 54.5844 59.4125 54.594 59.5071 54.6347C59.6017 54.6755 59.681 54.7452 59.7335 54.8339C59.8759 54.7327 60.0455 54.6769 60.2202 54.6739C61.0335 54.6872 61.9468 55.6805 62.7268 56.6005Z" fill="#342B1D"/>
<path d="M55.6866 60.9795C55.9854 60.147 56.4202 59.3698 56.9733 58.6795C57.036 58.6216 57.1149 58.5842 57.1995 58.5723C57.2841 58.5604 57.3703 58.5745 57.4466 58.6129C57.4466 58.6129 57.4466 58.5462 57.4866 58.4995L57.5399 58.3529H57.6866C58.1332 58.2995 58.2133 58.1929 58.2133 58.1929C57.985 58.0872 57.738 58.0283 57.4866 58.0195C56.9953 58.0652 56.5237 58.2355 56.1166 58.5143C55.7094 58.7932 55.3802 59.1713 55.1599 59.6129C54.8327 60.1716 54.6459 60.8014 54.6157 61.4482C54.5855 62.095 54.7128 62.7395 54.9866 63.3262C55.1851 63.7969 55.4798 64.2209 55.8518 64.571C56.2237 64.9212 56.6648 65.1898 57.1466 65.3595C57.6624 65.572 58.2166 65.6752 58.7743 65.6626C59.332 65.65 59.881 65.5218 60.3866 65.2862C61.2666 64.6196 61.7199 62.3929 61.2333 61.1929C61.126 60.9556 60.9553 60.7526 60.7399 60.6062C61.0664 61.121 61.1877 61.7396 61.08 62.3395C60.9 63.6729 60.2999 64.5795 59.3999 64.9195C58.9559 65.0644 58.4811 65.0877 58.025 64.9869C57.5689 64.886 57.1482 64.6648 56.8066 64.3462C56.3287 63.9421 55.9713 63.4141 55.7737 62.8202C55.5761 62.2263 55.546 61.5894 55.6866 60.9795Z" fill="#342B1D"/>
</svg>
