<svg width="80" height="80" viewBox="0 0 80 80" fill="none" xmlns="http://www.w3.org/2000/svg">
<path d="M40.3398 39.4534C40.3981 39.5258 40.4604 39.5948 40.5264 39.6601C40.5745 39.5973 40.6169 39.5304 40.6531 39.4601C40.701 39.3834 40.7328 39.2977 40.7466 39.2083C40.7603 39.1189 40.7558 39.0277 40.7331 38.9401C40.6997 38.8836 40.682 38.8191 40.682 38.7535C40.682 38.6878 40.6997 38.6233 40.7331 38.5668C40.7628 38.5164 40.806 38.4753 40.8579 38.4482C40.9097 38.4211 40.9681 38.4091 41.0265 38.4134C41.1135 38.2993 41.154 38.1563 41.1398 38.0135C41.2389 37.0658 41.3903 36.1244 41.5931 35.1934C41.8063 34.3483 41.9027 33.4781 41.8798 32.6068C41.8502 32.5324 41.8043 32.4656 41.7455 32.4114C41.6866 32.3571 41.6163 32.3168 41.5398 32.2935C41.4582 32.2661 41.3725 32.2526 41.2865 32.2535C41.0312 32.2613 40.7837 32.3423 40.5731 32.4868C40.0598 32.9068 39.8998 38.9001 40.3398 39.4534Z" fill="#342B1D"/>
<path d="M40.4666 45.2667L40.28 44.5L40.1333 44.9933C40.0021 45.418 39.8952 45.8498 39.8133 46.2867C39.8133 46.76 38.7133 50.9133 38.2067 50.9133C37.7592 51.1879 37.3604 51.5348 37.0266 51.94C36.5533 52.46 35.86 53.08 35.2666 53.08C34.5266 53.08 33.2666 52.1934 33.2666 51.52C33.2104 51.273 33.0935 51.0439 32.9266 50.8534C32.3333 50.1867 31.64 47.52 31.64 45.9C31.64 44.6733 31.5467 44.6733 31.2933 44.6733C30.8467 44.6733 30.7533 44.7533 30.3533 47.2667C30.06 49.1 30.2133 51.2067 30.7133 52.1667C31.1056 53.0327 31.7273 53.7749 32.5111 54.3131C33.2948 54.8513 34.2108 55.1649 35.16 55.22C36.68 55.22 37.4066 54.8667 38.5533 53.6C40.6733 51.28 41.28 48.62 40.4666 45.2667Z" fill="#342B1D"/>
<path d="M30.3866 23.88C29.4269 24.1983 28.5499 24.7259 27.8189 25.4246C27.0879 26.1232 26.5213 26.9756 26.16 27.92C25.8734 28.5625 25.8284 29.2869 26.0333 29.96C26.0333 29.96 26.0333 30.0133 26.0933 30.0133C27.2046 29.0234 28.1939 27.9043 29.04 26.68C29.3732 26.1281 29.8171 25.6513 30.3438 25.2795C30.8704 24.9077 31.4684 24.6491 32.1 24.52C32.1745 24.5031 32.2442 24.4698 32.3042 24.4225C32.3642 24.3752 32.4129 24.3151 32.4467 24.2466C32.4075 24.2057 32.3595 24.1743 32.3064 24.1546C32.2533 24.135 32.1964 24.1277 32.14 24.1333C31.9 24.1333 31.7067 24.1333 31.66 23.9666C31.6133 23.8 31.7133 23.74 31.86 23.6333H31.7867C31.3146 23.6809 30.8466 23.7633 30.3866 23.88V23.88Z" fill="#342B1D"/>
<path d="M31.1201 39.2932C31.2068 39.4332 31.2468 39.4532 31.2535 39.4532C31.2868 39.4532 31.3735 39.4065 31.6135 39.1932C31.8535 38.9799 32.0802 38.3532 32.1268 37.2999C32.1268 36.4399 32.2468 34.9132 32.3201 33.8999L32.4335 32.2532H31.8535C31.5772 32.2422 31.3014 32.2829 31.0401 32.3732C30.8135 32.9332 30.8801 38.8466 31.1201 39.2932Z" fill="#342B1D"/>
<path d="M45.6333 28.8867C45.7921 29.4497 46.0325 29.9865 46.3466 30.48C46.6279 30.2552 46.8557 29.9705 47.0133 29.6467L47.54 28.6933L46.94 27.0267C46.7258 26.3125 46.3673 25.65 45.8866 25.08C45.3911 24.7521 44.8232 24.5499 44.232 24.4907C43.6408 24.4314 43.0441 24.517 42.4933 24.74C42.2607 24.818 42.0372 24.9208 41.8267 25.0467C42.1648 25.2103 42.5174 25.342 42.88 25.44C44.3133 25.8467 44.8333 26.4934 45.6333 28.8867Z" fill="#342B1D"/>
<path d="M56.3398 42.6933C56.4798 42.7733 57.1199 42.6933 58.2065 42.0266L59.5399 41.26L60.3865 42.2666C60.5732 42.4866 60.6932 42.62 60.7799 42.7066C60.6838 42.3246 60.5658 41.9484 60.4265 41.58C59.9798 40.3066 60.0732 39.7333 61.1732 36.8733C61.2265 36.74 61.2599 36.6333 61.2865 36.5466C61.0322 36.8531 60.7983 37.176 60.5865 37.5133C59.6465 38.96 59.5665 38.96 59.4799 38.96C59.3932 38.96 59.3265 38.9599 58.3398 37.8999C58.1298 37.6659 57.9073 37.4433 57.6732 37.2333C57.6696 37.2598 57.6696 37.2868 57.6732 37.3133C57.7658 37.8833 57.9601 38.432 58.2465 38.9333L58.9132 40.2066L57.5399 41.3933C57.0861 41.7737 56.6827 42.2105 56.3398 42.6933V42.6933Z" fill="#342B1D"/>
<path d="M64.36 33.1733C63.7933 32.8333 63.8733 32.5799 64.2667 31.6599C64.7533 30.5066 64.6333 30.0066 63.6 28.9933L62.7267 28.0866L63.2267 27.0133C63.64 26.1333 63.64 26.1133 63.1133 25.18C62.631 24.4498 62.0159 23.8166 61.3 23.3133L59.9 22.38V20.6133C59.9 18.4199 59.3667 17.7333 56.5667 16.2866C54.1667 15.0399 53.82 14.7933 53.82 13.76C53.6526 13.2557 53.3422 12.811 52.9267 12.48C52.1 11.7533 51.9267 11.7 50.8133 11.8133C49.2795 12.001 47.7588 12.2838 46.26 12.6599C45.94 12.7799 45.4 12.3666 45.04 11.9933C44.4267 11.3266 44.3334 11.2799 42.3734 11.3266C41.1658 11.3568 39.9661 11.5314 38.8 11.8466C37.2533 12.34 37.16 12.3666 36.44 11.6999C35.72 11.0333 35.1533 11.0333 33.3 11.5733C32.7746 11.7329 32.2404 11.8621 31.7 11.96C31.0456 12.4496 30.4243 12.9818 29.84 13.5533C28.08 15.1933 27.9933 15.2399 26.68 15.0799C25.5867 14.9466 25.4 14.9999 24.68 15.6533C23.58 16.6266 23.3467 17.4533 23.4467 19.5133C23.5467 21.5733 23.3933 22.1133 22.0533 23.5533C21.0867 24.5933 20.4867 26.1333 20.72 26.9266C20.799 27.5379 20.6572 28.1573 20.32 28.6733C20.0215 29.2345 19.8336 29.8479 19.7667 30.48C19.7667 31.36 19.56 31.4466 18.5733 31.4533C16.9897 31.6349 15.5059 32.3195 14.34 33.4066C13.6733 34.0733 13.4 35.3133 13.5 36.8533C13.66 39.3866 14.8333 42.0466 16.3867 43.3133C17.5933 44.3066 20.2933 45.6133 20.7267 45.5133H20.7733C20.8288 45.5147 20.8823 45.5333 20.9267 45.5666C21.1067 45.7133 21.1333 46.1599 21.1333 46.4066C21.3721 48.5007 21.9343 50.545 22.8 52.4666C24.6 55.7084 27.5532 58.1547 31.0733 59.3199L33.0733 59.92V64.6733C33.0258 66.0453 33.0614 67.4189 33.18 68.7866V68.7866C33.2667 68.6999 33.5533 68.28 33.6867 66.4733C33.7378 65.4805 33.9194 64.4987 34.2267 63.5533C34.4076 63.1848 34.5334 62.7917 34.6 62.3866C34.6109 62.1078 34.7141 61.8405 34.8933 61.6266C35.1471 61.0722 35.2439 60.4589 35.1733 59.8533C34.7189 59.5762 34.2273 59.3652 33.7133 59.2266C29.3933 57.8933 26.1267 55.5 24.76 52.6866C23.32 49.74 22.1267 43.2466 22.0933 38.2066C22.0918 35.5625 22.241 32.9204 22.54 30.2933C23.1875 26.7244 24.9085 23.438 27.4733 20.8733C27.8326 20.5273 28.1382 20.1296 28.38 19.6933C28.3797 19.6564 28.3903 19.6203 28.4104 19.5895C28.4306 19.5586 28.4595 19.5344 28.4934 19.52C28.68 19.4266 29.16 19.6733 29.9267 20.2533C31.1133 21.1533 31.1867 21.1733 32.64 21.0266C33.4946 20.9425 34.3361 20.7567 35.1467 20.4733C36.16 20.0533 36.3 20.0799 37.04 20.7866C37.78 21.4933 38.58 21.54 40.92 21.1866C42.1067 21.0066 42.3067 21.08 43.28 22.0466C44.2533 23.0133 44.9334 23.2666 47.6267 23.38L49.4134 23.4466L49.3334 27.2666C49.2934 29.3066 49.2 31.8733 49.1267 32.9999C48.96 35.6666 49.6333 39.0333 50.26 39.6133C50.8867 40.1933 53.2 40.8866 54.3 40.8866C54.66 40.8866 54.9067 40.7999 54.9067 40.6666C55.0492 40.0145 55.2732 39.3828 55.5733 38.7866C55.94 37.9799 56.4 36.9266 56.62 36.3933C56.7824 36.0049 57.0248 35.6551 57.3315 35.3668C57.6382 35.0784 58.0023 34.858 58.4 34.72C59.0932 34.3942 59.8297 34.1697 60.5867 34.0533C61.038 34.0174 61.4846 33.937 61.92 33.8133C62.111 33.7505 62.3162 33.7448 62.5104 33.7969C62.7046 33.849 62.8794 33.9567 63.0133 34.1066C63.84 34.9333 64.06 37.0066 63.5 38.72C62.22 42.6466 60.8333 44.9933 59.34 45.6999C58.34 46.1733 56.2334 46.3266 53.8334 46.1L52.9134 46.0133L52.4534 47.3466C52.1734 48.18 51.3734 50.1733 50.6667 51.7933C49.5334 54.4066 49.18 54.9399 47.7667 56.2333C46.726 57.1706 45.5393 57.9317 44.2534 58.4866C41.2134 59.7533 41.2134 59.7533 41.2934 63.7333C41.3534 66.5266 41.5667 68.0333 41.96 68.22C42.0239 67.664 42.0239 67.1026 41.96 66.5466C41.8388 65.4627 41.9479 64.3654 42.28 63.3266C42.5225 62.6026 42.666 61.8491 42.7067 61.0866V59.9466L44.7067 59.48C47.6934 58.8133 50.76 56.5533 51.9867 54.1466C52.6133 52.9066 53.9867 49.78 54.62 48.0533C54.9067 47.2933 55.1133 47.28 56.8933 47.3866C59.56 47.5333 61.34 46.9466 62.6867 45.4866C64.84 43.1533 66.8067 37.8933 66.38 35.6066C66.2867 34.7533 65.5467 33.8866 64.36 33.1733ZM20.74 44.3C20.7035 44.328 20.6593 44.3443 20.6133 44.3466C20.46 44.3466 20.24 44.1933 19.76 43.8599C18.8118 43.2909 18.0013 42.5192 17.3867 41.6L16.5067 40.18V40.0066C16.2571 39.3133 16.1242 38.5834 16.1133 37.8466C16.042 37.4328 16.0694 37.0079 16.1933 36.6066L16.42 34.14V34.1999C16.4388 33.6957 16.6513 33.2181 17.0133 32.8666C17.5627 32.5882 18.1991 32.5356 18.7867 32.72L19.9 32.8999L19.9667 34.7933C19.9667 35.1133 19.9667 35.3733 19.9667 35.6V35.8999L20.0267 36.7933C20.1533 36.7933 20.28 36.96 20.28 38.4666C20.302 38.8743 20.2819 39.2831 20.22 39.6866V41.1266C20.293 41.3965 20.3509 41.6703 20.3933 41.9466C20.5 42.6866 20.6467 43.5133 20.7267 43.7933C20.8067 44.0733 20.8867 44.2 20.74 44.3Z" fill="#342B1D"/>
<path d="M19.8999 36.0867C19.8332 36.18 19.7533 36.2933 19.6666 36.4267C18.9999 37.4067 18.9999 37.4067 18.8866 37.4067C18.7732 37.4067 18.7666 37.4067 18.0932 36.6867C18.0266 36.62 17.8733 36.4533 17.7533 36.3467C17.8338 36.6832 17.957 37.0081 18.1199 37.3134L18.5866 38.2L17.6399 39.0067C17.3657 39.2382 17.1114 39.4925 16.8799 39.7667C17.29 39.715 17.6814 39.5639 18.0199 39.3267L18.9399 38.7933L19.5332 39.5C19.5632 39.5427 19.5967 39.5828 19.6332 39.62C19.5932 39.5 19.5399 39.3267 19.4599 39.1C19.1866 38.32 19.2332 37.88 19.7466 36.5067L19.8999 36.0867Z" fill="#342B1D"/>
</svg>
