<svg width="80" height="80" viewBox="0 0 80 80" fill="none" xmlns="http://www.w3.org/2000/svg">
<path d="M58.9137 62.7132C57.2757 63.3751 55.5732 63.8644 53.8337 64.1732C52.9687 64.3569 52.0903 64.4706 51.207 64.5132C49.8737 64.6266 48.5404 64.7399 47.1604 64.7332C46.3024 64.6942 45.4499 64.5759 44.6137 64.3799C42.7137 64.0199 40.887 63.6199 39.2804 62.2799C37.4553 60.7855 35.5382 59.4073 33.5404 58.1532C33.2683 58.0051 32.9685 57.9149 32.6598 57.8885C32.3512 57.8621 32.0403 57.9001 31.7471 57.9999C28.1591 59.2895 24.427 60.1358 20.6337 60.5199C19.3004 60.6866 17.9671 60.7866 16.6737 61.0332C16.2737 61.1132 15.9538 61.5799 15.5938 61.8666C15.9804 62.0599 16.3671 62.4066 16.7604 62.4199C17.842 62.4411 18.9238 62.3988 20.0004 62.2932C23.8451 62.0537 27.6352 61.2611 31.2537 59.9399C31.683 59.7143 32.173 59.6315 32.6525 59.7034C33.1321 59.7754 33.5762 59.9983 33.9204 60.3399C34.5004 60.8866 35.147 61.3666 35.7004 61.9399C37.7737 64.1266 40.1404 65.7199 43.2471 65.9999C45.3404 66.1866 47.4203 66.5332 49.5203 66.6666C50.607 66.7266 51.7203 66.3399 52.8537 66.3532C54.8889 66.3467 56.9029 65.939 58.7804 65.1532C60.7864 64.3615 62.4804 62.9388 63.607 61.0999C64.2004 60.1466 64.6937 59.0999 64.0804 57.9599C63.4671 56.8199 62.2938 56.6266 61.0938 56.6799H59.967C62.9337 53.5732 62.7204 51.8466 58.9004 49.8399C60.4937 49.2132 61.0738 47.7466 61.6738 46.4332C62.5204 44.5732 62.127 42.3932 59.8537 41.4066L57.5871 40.4399C58.2658 39.9459 58.8994 39.3926 59.4804 38.7866C59.9396 38.1785 60.3038 37.5041 60.5604 36.7866C61.2271 34.9866 60.6737 31.4532 58.1471 30.2732C56.2471 29.4066 54.3271 29.6066 52.4071 30.0132C48.7271 30.8132 45.327 32.3732 41.967 34.0132C40.9404 34.5132 39.9671 35.1199 39.0737 35.6132C39.3871 32.9999 39.8204 30.4332 39.9804 27.8532C40.1471 25.1132 40.2071 22.3399 39.4204 19.6599C38.7537 17.3332 37.7204 15.2466 35.3604 14.1399C33.0004 13.0332 30.5737 13.1599 28.1137 14.1399C25.0937 15.3732 23.1004 18.9599 23.287 22.1399C23.3854 23.884 23.642 25.6156 24.0537 27.3132C24.8337 30.5199 25.667 33.7266 27.467 36.5732C27.6751 36.9849 27.8426 37.4158 27.967 37.8599C27.5937 37.9732 27.3004 38.0666 27.0604 38.1266C25.0604 38.5399 23.0604 38.9666 21.0604 39.3599C20.4471 39.4799 19.8004 39.4732 19.1937 39.6199C18.1577 39.8598 17.1361 40.1581 16.1337 40.5132C15.9945 40.6048 15.8791 40.7281 15.7968 40.873C15.7145 41.0178 15.6678 41.1801 15.6604 41.3466C15.6604 41.5066 16.1137 41.7932 16.387 41.8132C17.4633 41.9529 18.5501 41.9931 19.6337 41.9332C22.8792 41.6145 26.0564 40.7983 29.0537 39.5132C30.2737 38.9999 30.5737 37.9266 29.867 36.7999C29.5815 36.417 29.3358 36.006 29.1337 35.5732C28.067 32.5532 26.887 29.5732 26.0404 26.4732C25.5107 24.6707 25.3275 22.784 25.5004 20.9132C25.8471 18.1199 27.6271 16.3066 30.4937 15.6866C33.0804 15.1266 35.4471 16.0999 36.4937 18.2666C37.325 20.0242 37.7791 21.9363 37.8271 23.8799C38.0227 28.0759 37.5433 32.276 36.4071 36.3199C36.1985 37.2677 36.0471 38.2272 35.9537 39.1932C36.3469 39.2288 36.7433 39.1995 37.127 39.1066C38.227 38.5466 39.2537 37.8199 40.3804 37.3199C43.5737 35.9066 46.7604 34.4399 50.0404 33.2599C51.8444 32.6511 53.7302 32.3184 55.6337 32.2732C57.6337 32.2066 58.7604 33.8799 58.0537 35.7466C57.5673 36.8391 56.8376 37.8059 55.9204 38.5732C54.6412 39.6289 53.3059 40.6148 51.9204 41.5266C51.6538 41.6774 51.4524 41.9217 51.3551 42.2122C51.2579 42.5027 51.2716 42.8189 51.3937 43.0999C51.6737 43.8732 52.6404 44.0799 53.7604 43.5866C54.5407 43.2406 55.3873 43.0696 56.2407 43.0858C57.0942 43.1019 57.9337 43.3047 58.7004 43.6799C58.8689 43.7327 59.0242 43.8209 59.1559 43.9387C59.2876 44.0564 59.3927 44.2008 59.464 44.3624C59.5354 44.524 59.5713 44.699 59.5695 44.8756C59.5677 45.0522 59.5283 45.2264 59.4537 45.3866C59.25 46.0891 58.8773 46.731 58.3683 47.2562C57.8593 47.7815 57.2294 48.1742 56.5337 48.3999C55.5804 48.7532 54.647 49.1599 53.707 49.5399C53.5751 49.58 53.4539 49.6492 53.3523 49.7424C53.2507 49.8356 53.1714 49.9505 53.1202 50.0785C53.069 50.2065 53.0472 50.3444 53.0565 50.482C53.0657 50.6195 53.1059 50.7532 53.1738 50.8732C53.2136 51.0136 53.2809 51.1446 53.3716 51.2588C53.4623 51.373 53.5747 51.4682 53.7023 51.5388C53.8299 51.6095 53.9703 51.6542 54.1152 51.6704C54.2602 51.6866 54.407 51.674 54.547 51.6332C55.9925 51.3024 57.5095 51.5235 58.8004 52.2532C60.0604 52.8732 60.1338 53.6599 59.0071 54.4732C57.4538 55.5799 55.8804 56.6666 54.2537 57.6732C53.5871 58.0999 53.3337 58.5732 53.6604 59.2399C53.723 59.3739 53.8132 59.4931 53.9251 59.5897C54.0371 59.6862 54.1683 59.758 54.3101 59.8002C54.4518 59.8424 54.6008 59.8541 54.7474 59.8345C54.894 59.8149 55.0347 59.7645 55.1604 59.6866C56.6498 58.9374 58.321 58.6253 59.9804 58.7866C60.7404 58.7866 61.5071 58.7866 62.4071 58.7866C61.8075 60.5058 60.5515 61.9176 58.9137 62.7132V62.7132Z" fill="#342B1D"/>
</svg>
