<svg width="80" height="80" viewBox="0 0 80 80" fill="none" xmlns="http://www.w3.org/2000/svg">
<path d="M63.7134 49.8799C63.7186 49.889 63.7214 49.8994 63.7214 49.91C63.7214 49.9205 63.7186 49.9308 63.7134 49.9399C63.7048 49.9603 63.6896 49.9773 63.6703 49.9882C63.651 49.999 63.6287 50.0032 63.6068 50C63.5865 50.0064 63.5681 50.0179 63.5534 50.0333C63.5306 50.0557 63.5034 50.0731 63.4736 50.0846C63.4438 50.0961 63.412 50.1013 63.38 50.0999C63.3288 50.1465 63.2919 50.2066 63.2734 50.2733C63.2734 50.2733 63.2734 50.32 63.4067 50.4533C63.5455 50.5967 63.7138 50.7082 63.9001 50.7799C63.8963 50.7624 63.8963 50.7442 63.9001 50.7266C63.9401 50.6799 64.0001 50.6666 64.1401 50.6666C64.2592 50.6631 64.3758 50.6311 64.4801 50.5733C64.6334 50.4933 64.6401 50.4866 64.6667 50.3733C64.7019 50.2265 64.7019 50.0734 64.6667 49.9266H64.62C64.5859 49.931 64.5513 49.9244 64.5212 49.9076C64.4912 49.8907 64.4674 49.8647 64.4534 49.8333L64.3468 49.7666C64.3468 49.7666 64.2334 49.8266 64.04 49.8333C63.9293 49.8311 63.819 49.8469 63.7134 49.8799Z" fill="#342B1D"/>
<path d="M62.147 48.2203C62.047 48.1562 61.9571 48.0776 61.8803 47.987L61.5536 47.6403C61.3803 47.4736 61.367 47.4736 61.2403 47.4736C61.1278 47.4842 61.0188 47.5183 60.9203 47.5736C60.8532 47.6249 60.7759 47.6613 60.6936 47.6803C60.619 47.7334 60.5498 47.7937 60.487 47.8603C60.3739 47.987 60.2537 48.1072 60.127 48.2203C60.0812 48.2573 60.0428 48.3025 60.0137 48.3536C60.1256 48.5084 60.2553 48.6493 60.4003 48.7736L61.1203 49.4403C61.3669 49.687 61.4203 49.727 61.487 49.727C61.5315 49.7274 61.5745 49.7107 61.607 49.6803C61.7003 49.567 61.7537 49.5737 61.9137 49.6203C62.0737 49.667 62.027 49.6203 62.0603 49.6203C62.0917 49.5883 62.1314 49.5656 62.175 49.555C62.2187 49.5444 62.2644 49.5462 62.307 49.5603C62.3085 49.547 62.3128 49.5341 62.3197 49.5226C62.3266 49.5111 62.3359 49.5012 62.347 49.4936C62.3673 49.4819 62.3903 49.4758 62.4137 49.4758C62.4371 49.4758 62.46 49.4819 62.4803 49.4936H62.5203C62.5296 49.4507 62.5518 49.4117 62.584 49.3818C62.6162 49.352 62.6568 49.3329 62.7003 49.327C62.7047 49.247 62.7379 49.1712 62.7936 49.1136V49.1136C62.7912 49.0914 62.7942 49.0689 62.8023 49.048C62.8104 49.0271 62.8235 49.0085 62.8403 48.9937C62.8438 48.9716 62.8438 48.949 62.8403 48.927C62.6413 48.662 62.4081 48.4244 62.147 48.2203V48.2203Z" fill="#342B1D"/>
<path d="M62.1397 50.9065C62.0331 50.8065 61.8797 50.6865 61.7997 50.6265C61.6964 50.5584 61.5984 50.4827 61.5064 50.3998C61.4498 50.3518 61.387 50.3114 61.3197 50.2798C61.0464 50.2198 60.9998 50.2265 60.9331 50.2798C60.8634 50.3185 60.7859 50.3413 60.7064 50.3465C60.5771 50.4071 60.4665 50.5016 60.3864 50.6198C60.3864 50.6932 60.3064 50.7598 60.2331 50.7865C60.1936 50.7954 60.1525 50.7954 60.113 50.7865C60.1208 50.8953 60.1049 51.0045 60.0664 51.1065C60.0664 51.1065 60.0664 51.1465 60.1731 51.2265C60.3257 51.3385 60.4664 51.4658 60.5931 51.6065C60.6868 51.7279 60.811 51.8222 60.953 51.8798C61.0264 51.8798 61.0397 51.8798 61.1464 51.8798C61.2312 51.835 61.3242 51.8078 61.4198 51.7998C61.4415 51.8065 61.4647 51.8065 61.4864 51.7998C61.5122 51.764 61.5485 51.737 61.5903 51.7227C61.6321 51.7083 61.6773 51.7074 61.7197 51.7198H61.7731C61.7917 51.6928 61.8166 51.6708 61.8456 51.6557C61.8747 51.6406 61.907 51.6328 61.9398 51.6332C62.0297 51.5932 62.1045 51.5254 62.1531 51.4398C62.1536 51.4147 62.1592 51.39 62.1695 51.367C62.1798 51.3441 62.1946 51.3235 62.2131 51.3065C62.2175 51.2845 62.2175 51.2618 62.2131 51.2398C62.2119 51.1767 62.2281 51.1145 62.2598 51.0598C62.2266 51.0037 62.1862 50.9522 62.1397 50.9065V50.9065Z" fill="#342B1D"/>
<path d="M60.1265 50.4331L60.0133 50.2865C59.9643 50.2185 59.906 50.1579 59.8399 50.1064C59.7493 50.0785 59.6621 50.0405 59.5799 49.9931C59.4884 49.9423 59.3924 49.8999 59.2932 49.8665C59.1671 49.8253 59.0528 49.7544 58.9599 49.6598C58.9049 49.6077 58.8471 49.5587 58.7865 49.5131C58.7865 49.5131 58.7132 49.5131 58.6466 49.3931C58.5972 49.3421 58.5307 49.3112 58.4599 49.3064C58.3199 49.3064 58.2332 49.2198 58.2199 49.1464C58.2066 49.0731 58.3466 48.8731 58.3999 48.8331L58.2132 48.7198C58.0695 48.6511 57.9369 48.5613 57.8199 48.4531C57.7646 48.3927 57.7044 48.3369 57.6399 48.2865L57.2666 48.0198C57.0769 47.8658 56.8438 47.7749 56.5999 47.7598H56.5666C56.5395 47.7855 56.506 47.8034 56.4696 47.8116C56.4333 47.8198 56.3953 47.818 56.3599 47.8064C56.3457 47.7982 56.3296 47.7939 56.3132 47.7939C56.2968 47.7939 56.2808 47.7982 56.2666 47.8064C56.2273 47.8626 56.1674 47.9009 56.0999 47.9131C56.0202 47.9899 55.9547 48.0801 55.9066 48.1798C55.8861 48.2526 55.8384 48.3147 55.7733 48.3531C55.7215 48.4229 55.6789 48.4991 55.6466 48.5798C55.8466 48.7284 56.0339 48.8935 56.2065 49.0731C56.45 49.3271 56.7231 49.5509 57.0199 49.7398C57.0199 49.5998 57.1799 49.5998 57.3199 49.5998C57.4599 49.5998 57.5532 49.5998 57.5799 49.6998C57.6066 49.7998 57.5199 49.8531 57.4199 49.9198C57.3881 49.9386 57.3626 49.9665 57.3466 49.9998C57.3469 50.018 57.3428 50.0359 57.3346 50.0521C57.3265 50.0684 57.3146 50.0824 57.2999 50.0931C57.2399 50.1331 57.1733 50.0931 56.9999 50.0398C56.9118 50.0021 56.8203 49.9731 56.7266 49.9531C56.6395 49.9753 56.5593 50.0188 56.4932 50.0798C56.4932 50.1198 56.4399 50.1664 56.2733 50.1931C56.2284 50.1958 56.1849 50.2096 56.1466 50.2331C56.1045 50.2852 56.0523 50.3283 55.9932 50.3598C55.957 50.3853 55.9254 50.4169 55.8999 50.4531C55.84 50.5483 55.7658 50.6338 55.6799 50.7065C55.6235 50.7549 55.5741 50.811 55.5332 50.8731C55.5845 50.9492 55.6449 51.0186 55.7132 51.0798L56.3333 51.6731C56.6933 52.0264 56.7465 52.0598 56.8665 52.0798H56.9066C56.8988 52.0605 56.8988 52.039 56.9066 52.0198C56.9599 51.9264 57.0865 51.9531 57.2932 52.0198L57.4866 52.0664C57.4979 52.0338 57.5184 52.0052 57.5456 51.9839C57.5728 51.9626 57.6055 51.9496 57.6399 51.9465C57.7505 51.9327 57.856 51.8915 57.9465 51.8265C58.0044 51.7665 58.0786 51.7248 58.1599 51.7065V51.7065C58.1398 51.6322 58.1398 51.554 58.1599 51.4798C58.2266 51.3331 58.2932 51.3264 58.4532 51.3464C58.6132 51.3664 58.5733 51.3464 58.5866 51.3464C58.5999 51.3464 58.7532 51.2531 58.8999 51.2664C59.0466 51.2798 59.0466 51.2664 59.0599 51.2664C59.0917 51.235 59.1314 51.2128 59.1749 51.2023C59.2183 51.1917 59.2639 51.1932 59.3066 51.2065C59.3305 51.2133 59.3559 51.2133 59.3799 51.2065C59.4212 51.1724 59.473 51.1535 59.5265 51.1531C59.565 51.1359 59.6009 51.1134 59.6332 51.0864C59.6858 51.0345 59.7466 50.9917 59.8132 50.9598C59.8151 50.9465 59.8151 50.933 59.8132 50.9198C59.8132 50.8264 59.8599 50.7531 59.9266 50.7465C59.9266 50.6798 59.9265 50.5931 60.0265 50.5131L60.1265 50.4331Z" fill="#342B1D"/>
<path d="M55.233 50.1202C55.1797 50.0736 54.9463 49.8536 54.7463 49.6536C54.333 49.2402 54.2197 49.1802 53.993 49.1802C53.9467 49.1717 53.8993 49.1717 53.853 49.1802C53.7978 49.2104 53.736 49.2265 53.673 49.2269C53.6533 49.2221 53.6327 49.2221 53.613 49.2269C53.5549 49.2803 53.4835 49.3172 53.4063 49.3336C53.3101 49.3665 53.2216 49.4186 53.1463 49.4869C53.0772 49.547 53.0011 49.5985 52.9197 49.6402C52.9178 49.6669 52.9178 49.6936 52.9197 49.7202C52.8813 49.8223 52.8223 49.9153 52.7463 49.9936L52.6797 50.0669C52.7738 50.1284 52.861 50.1999 52.9397 50.2802C53.011 50.3536 53.0867 50.4227 53.1663 50.4869C53.1908 50.4933 53.2127 50.507 53.2293 50.526C53.246 50.545 53.2565 50.5685 53.2597 50.5935C53.2977 50.654 53.3424 50.7099 53.393 50.7602C53.753 51.1535 53.753 51.1536 53.873 51.1536H53.9463C53.9478 51.1402 53.9522 51.1273 53.9591 51.1158C53.966 51.1043 53.9753 51.0945 53.9863 51.0869C54.0167 51.0731 54.0497 51.0659 54.083 51.0659C54.1164 51.0659 54.1493 51.0731 54.1797 51.0869C54.2634 51.0926 54.345 51.1153 54.4197 51.1536C54.4197 51.0336 54.5263 51.0202 54.6396 51.0469H54.6797C54.7197 50.9669 54.853 50.9402 54.8796 50.9336H54.953C54.9535 50.9191 54.9574 50.9049 54.9644 50.8922C54.9713 50.8794 54.9811 50.8685 54.993 50.8602C55.0126 50.845 55.0352 50.8341 55.0594 50.8283C55.0836 50.8226 55.1086 50.8221 55.133 50.8269C55.1814 50.8241 55.2269 50.8026 55.2597 50.7669C55.2562 50.729 55.2622 50.6908 55.2773 50.6558C55.2925 50.6208 55.3163 50.5903 55.3463 50.5669C55.3997 50.5069 55.3997 50.5069 55.3463 50.3402C55.293 50.1735 55.233 50.1336 55.233 50.1202Z" fill="#342B1D"/>
<path d="M58.6797 53.3335C58.5685 53.2465 58.4736 53.1404 58.3997 53.0201C58.3211 52.9748 58.2494 52.9187 58.1864 52.8535C58.1137 52.7901 58.0301 52.7404 57.9397 52.7068C57.8673 52.6898 57.7992 52.658 57.7397 52.6135C57.653 52.6224 57.5659 52.6012 57.493 52.5535C57.4317 52.518 57.3669 52.489 57.2996 52.4668C57.2626 52.5134 57.2109 52.5463 57.153 52.5601C57.1036 52.5789 57.0566 52.6036 57.013 52.6335C56.9863 52.6597 56.9531 52.6785 56.9168 52.6879C56.8805 52.6972 56.8424 52.6969 56.8063 52.6868C56.6844 52.7742 56.5706 52.8724 56.4663 52.9801C56.4046 53.0362 56.3467 53.0964 56.293 53.1602L56.413 53.2268C56.6689 53.3777 56.8948 53.5743 57.0797 53.8068C57.1626 53.9127 57.2615 54.0049 57.373 54.0802C57.4796 54.1602 57.6197 54.2668 57.6864 54.3268C57.753 54.3868 57.7797 54.4135 57.993 54.4135C58.2063 54.4135 58.2197 54.4135 58.2597 54.3535C58.2916 54.3197 58.3316 54.2946 58.376 54.2806C58.4203 54.2666 58.4675 54.2642 58.513 54.2735C58.553 54.2735 58.5663 54.2735 58.673 54.1801C58.7797 54.0868 58.8663 53.9335 58.8663 53.8535C58.8669 53.8185 58.8765 53.7842 58.894 53.7539C58.9115 53.7236 58.9363 53.6982 58.9663 53.6801V53.6801C58.8816 53.556 58.7857 53.44 58.6797 53.3335Z" fill="#342B1D"/>
<path d="M52.7129 48.8005C52.7129 48.8005 52.7129 48.6405 52.7929 48.6005C52.7929 48.6005 52.7396 48.5205 52.7062 48.4538C52.6832 48.4094 52.6564 48.367 52.6262 48.3271C52.5062 48.3271 52.3796 48.1071 52.3329 47.9671C52.3265 47.9355 52.3128 47.9058 52.2929 47.8805C52.2098 47.8433 52.1315 47.7963 52.0596 47.7405C52.0098 47.6933 51.9508 47.6569 51.8862 47.6338H51.7529H51.7062C51.7062 47.7605 51.5396 47.7605 51.4596 47.7605C51.3796 47.7605 51.3262 47.7605 51.1262 47.9471C51.0772 48.002 51.0117 48.0394 50.9396 48.0538V48.0538C50.8929 48.0871 50.8542 48.1304 50.8263 48.1805C50.8101 48.2414 50.7854 48.2998 50.7529 48.3538V48.4005L50.8662 48.5071C50.9729 48.6071 51.0595 48.7005 51.0329 48.8205C51.0329 48.8205 51.0329 48.8205 51.1063 48.8205C51.1796 48.8205 51.3396 48.9005 51.5996 49.0871C51.7731 49.1464 51.9585 49.1624 52.1396 49.1338C52.1571 49.1073 52.1808 49.0856 52.2087 49.0705C52.2366 49.0554 52.2678 49.0473 52.2996 49.0471C52.4015 49.0323 52.4942 48.98 52.5596 48.9005C52.6023 48.8557 52.6547 48.8215 52.7129 48.8005V48.8005Z" fill="#342B1D"/>
<path d="M39.1064 20.8066L39.1464 20.8266L39.1131 20.8066H39.1064Z" fill="#342B1D"/>
<path d="M43.527 18.2731L43.5137 18.2598V18.2664L43.527 18.2731Z" fill="#342B1D"/>
<path d="M41.7667 19.48C40.9 20.3933 40.18 20.4066 38.94 21.2133C38.52 21.3066 38.18 21.84 37.72 21.6466C28.08 18.3666 18.9933 30.86 23.7667 39.6466C23.8867 40.3133 25.0533 41.4733 24.84 42.1066C24.1733 43.06 23.36 43.6533 22.76 42.96C19.92 41.2 21.3467 42.16 19.1867 44.22C15.3334 47.8533 11.1867 52.3333 6.84668 55.04C7.14001 56.1467 11.3267 60.28 12.6533 59.7067C14.58 55.1667 22.3733 51.38 25.8733 46.9666C25.1466 45.4666 24.8333 46.9667 24.1933 46.4533C23.7399 45.44 22.1933 44.8267 21.9067 43.9067C21.9067 41.9067 26.0866 46.9733 26.6333 46.6866C22.2333 40.2533 31.9 47.56 35.7933 46.56C36.46 47.6866 37.2867 48.8133 37.8467 49.9533C38.4905 50.687 39.0767 51.4693 39.6 52.2933V52.2933C42.9333 56.96 47.5333 59.0733 52.1933 61.72C55.4399 60.72 58.6 58.5333 61.6266 56.5133C65.18 54.0133 70.1133 51.62 73.2266 48.8133C72.945 48.7014 72.7098 48.4968 72.56 48.2333C71.5 47.3866 70.0466 47.1266 68.62 46.52C64.4933 44.52 61.52 41.4067 59.1067 37.74C54.9334 30.9533 51.92 20.0533 43.3534 18.3066C43.1667 18.8466 42.2667 19.2733 41.7667 19.48ZM22.1333 45.26C26.96 47.5533 13.34 55.74 11.56 58.5333C10.6333 58.4267 9.26664 56.66 8.72664 55.8667C12.2933 53.2533 15.1534 49.7 18.8534 47.1333C18.9284 47.3355 19.0466 47.519 19.1997 47.671C19.3528 47.8229 19.5372 47.9397 19.74 48.0133C19.5667 47.4066 18.8133 46.7133 19.6933 46.1333C20.1533 46.3066 21.0266 47.9733 21.6266 47.88C22.2 47.4133 20.2133 46.2933 20.2933 45.74C20.8266 45.1467 21.4933 44.32 22.1333 45.26ZM39.0466 21.9733C39.0466 21.9733 39.0466 22.06 39.0466 22.0533V22.1333C39.0466 22.1333 39.0533 21.98 39.0466 21.9733V21.9733ZM38.5 21.8333V21.7533C38.5533 21.7533 38.5 21.82 38.5 21.84C38.4733 21.9533 38.4933 21.9066 38.5 21.8133V21.8333ZM24.9666 39.54C22.9666 34.0067 30.3 24.7733 37.8534 25.04C37.8529 25.0185 37.8582 24.9972 37.8687 24.9784C37.8793 24.9597 37.8947 24.9441 37.9133 24.9333C30.3867 24.8733 27.1799 28.2666 24.0333 34.76C24.0333 26.52 33.6 19.8067 40.96 24.4067C50.3133 32.3 31.9466 49.9467 24.9666 39.54V39.54ZM34.3 45.4333C32.66 45.3 30.3 45.1933 28.9666 44.04C37.5066 45.84 45.7334 38.7066 45.2734 29.7133C45.2734 29.6266 45.3266 29.4133 45.4 29.42C45.44 29.42 45.5333 29.42 45.4666 29.4867C45.5133 29.3667 45.5666 29.5267 45.6133 29.5733C47.9466 36.8133 42.1533 45.22 34.2933 45.4333H34.3ZM46.1266 28.48C45.8133 28.5866 46.38 28.2666 46.1266 28.48V28.48ZM42.2667 21.2867C43.1667 20.9867 44.38 19.2867 45.1067 20.04C51.2067 23.8333 53.34 31.3733 56.6733 37.1133C57.1467 37.9133 58.0733 38.6733 58.2667 39.5C58.4133 39.5667 58.3199 39.7667 58.4466 39.8333C58.7733 39.5867 58.88 40.4533 59.1533 40.5733C59.24 40.54 59.3066 40.76 59.2866 40.7867C59.3666 40.7867 59.5133 40.8333 59.4933 40.92C59.7133 41.3866 60.2466 41.6933 60.3733 42.0866C62.3066 43.8266 64.52 45.88 66.9666 47.08C68.4666 48.2533 72.7333 47.7467 69.34 49.7467C68.6067 49.7467 68.58 50.36 67.9533 50.56C67.3266 50.76 66.58 51.7066 65.8066 51.8C65.24 52.4666 64.4733 52.5333 63.8066 53.1733C63.14 53.24 62.6667 53.9866 62.0733 54.1866C61.48 54.3866 60.9734 55.1666 60.2734 55.4666C60.22 55.6466 60.02 55.72 59.9933 55.4666C58.2393 56.6931 56.4187 57.8214 54.54 58.8466C53.3133 59.3866 52.0866 60.4866 50.7799 59.5133C46.4399 57.2266 42.3533 54.0666 39.7799 49.7933C38.9526 48.698 38.2062 47.5438 37.5466 46.34C41.9466 45.5333 44.2133 41.62 47.2866 38.82C49.0466 37.84 51.1334 37.0533 52.8534 35.96C51.66 34.46 51.96 34.94 50.64 35.7333C49.7866 36.06 49.3867 36.36 48.42 36.8066C48.0467 37.02 47.16 37.1533 47.16 37.78C47.26 36.3067 47.9333 34.88 47.6999 33.42C47.8999 33.2733 48.5133 33.24 48.3267 33.02C47.06 32.2266 47.3 30.3533 46.38 29.2133V28.7467C46.7 29.3133 47.9266 28.08 48.3 27.88C48.6733 27.68 48.3 27.6333 48.42 27.4666C47.8 26.9133 47.6267 26.8667 46.9333 27.3267C46.6067 27.6067 45.76 27.5933 45.7866 28.06C44.31 25.755 42.2702 23.8644 39.8599 22.5667C40.6599 22.0867 41.44 21.7666 42.2667 21.2533V21.2867Z" fill="#342B1D"/>
<path d="M57.1465 37.9275C57.1499 37.9122 57.1499 37.8962 57.1465 37.8809V37.8809V37.9275Z" fill="#342B1D"/>
<path d="M54.3463 46.9204C54.2576 46.817 54.1543 46.7272 54.0396 46.6537C53.9819 46.6537 53.9257 46.635 53.8796 46.6004C53.8608 46.5878 53.8388 46.5811 53.8162 46.5811C53.7937 46.5811 53.7716 46.5878 53.7529 46.6004C53.6129 46.747 53.4929 46.8337 53.3529 46.807C53.3529 46.807 53.2796 46.807 53.1462 46.9337L52.9462 47.1204C52.9014 47.1643 52.8496 47.2003 52.7929 47.2271C52.6978 47.2853 52.6178 47.3653 52.5596 47.4604H52.6129C52.8474 47.6558 53.07 47.865 53.2795 48.087C53.7329 48.5404 53.8262 48.6204 53.9462 48.6337C53.9415 48.6244 53.9391 48.6141 53.9391 48.6037C53.9391 48.5933 53.9415 48.583 53.9462 48.5737C53.9462 48.5137 54.0463 48.5137 54.1063 48.5137C54.1882 48.5044 54.271 48.5044 54.3529 48.5137H54.3996C54.4254 48.483 54.4583 48.4591 54.4955 48.444C54.5327 48.4289 54.5729 48.4231 54.6129 48.427C54.6502 48.435 54.6889 48.435 54.7262 48.427C54.7505 48.399 54.7819 48.378 54.8171 48.3663C54.8523 48.3546 54.89 48.3525 54.9263 48.3604C54.9424 48.3283 54.9671 48.3012 54.9977 48.2824C55.0283 48.2636 55.0637 48.2536 55.0996 48.2537C55.0996 48.2004 55.1662 48.1071 55.1995 48.0404C55.2995 47.8337 55.2462 47.7871 55.1995 47.7671C55.1692 47.7384 55.1483 47.7012 55.1396 47.6604C55.0673 47.5773 54.9893 47.4993 54.9062 47.427C54.7529 47.327 54.4996 47.0804 54.3463 46.9204Z" fill="#342B1D"/>
<path d="M48.0734 42.7135C48.0024 42.6829 47.9387 42.6375 47.8867 42.5802C47.8134 42.4935 47.7334 42.4668 47.5334 42.5335L47.2067 42.6202C46.9286 42.674 46.6562 42.7544 46.3934 42.8602C46.3267 42.912 46.2446 42.9402 46.1601 42.9401C46.1324 42.9388 46.105 42.9457 46.0813 42.9599C46.0576 42.9742 46.0385 42.9951 46.0267 43.0201C45.9981 43.0635 45.9597 43.0994 45.9145 43.1249C45.8693 43.1504 45.8186 43.1648 45.7668 43.1668C45.6782 43.1852 45.597 43.2292 45.5334 43.2935C45.3674 43.4059 45.1883 43.4977 45.0001 43.5668C44.8476 43.6171 44.7002 43.6819 44.5601 43.7601C44.3199 43.9412 44.0578 44.0913 43.78 44.2068C43.6975 44.2357 43.6128 44.258 43.5267 44.2735C43.3561 44.3376 43.1912 44.4157 43.0334 44.5068C42.9725 44.5467 42.9078 44.5802 42.8401 44.6068C42.596 44.728 42.3619 44.8685 42.1401 45.0268L41.8201 45.2335L41.4467 45.5868C41.1067 45.9135 41.1068 45.9268 41.1068 46.0201C41.1068 46.1135 41.1068 46.0735 41.1068 46.0868V46.1202C41.1167 46.1398 41.1219 46.1615 41.1219 46.1835C41.1219 46.2055 41.1167 46.2272 41.1068 46.2468C41.1014 46.2583 41.0986 46.2708 41.0986 46.2835C41.0986 46.2962 41.1014 46.3087 41.1068 46.3202V46.3202C41.1468 46.3202 41.2268 46.3201 41.3534 46.4735L41.4867 46.6001H41.7734C41.9041 46.6054 42.0341 46.5803 42.1534 46.5268C42.2383 46.4706 42.3302 46.4257 42.4268 46.3935C42.684 46.3095 42.9285 46.1907 43.1534 46.0402C43.5534 45.7741 43.9802 45.5506 44.4268 45.3735C44.5952 45.3069 44.758 45.2266 44.9134 45.1335C45.3127 44.8821 45.7293 44.6593 46.1601 44.4668C46.2371 44.4172 46.3173 44.3727 46.4001 44.3335C46.4535 44.3063 46.5047 44.2751 46.5534 44.2402C46.5634 44.2133 46.5817 44.1904 46.6057 44.1748C46.6297 44.1592 46.6582 44.1517 46.6868 44.1535C46.6868 44.1535 46.8734 44.0801 47.0868 43.9801C47.2567 43.8958 47.4327 43.8245 47.6134 43.7668C47.7335 43.7443 47.846 43.6915 47.9401 43.6135C47.9401 43.5602 47.94 43.4801 48.0467 43.3935C48.021 43.3819 47.9991 43.3632 47.9837 43.3396C47.9684 43.3159 47.9601 43.2883 47.96 43.2601C47.96 43.1868 48.0401 43.1535 48.0934 43.1268C48.1115 43.1167 48.1274 43.1031 48.1401 43.0868C48.1198 43.0284 48.0929 42.9725 48.0601 42.9201C48.0544 42.851 48.0589 42.7813 48.0734 42.7135Z" fill="#342B1D"/>
<path d="M39.4199 48.9129L39.4466 48.9062L39.4199 48.9129Z" fill="#342B1D"/>
<path d="M30.6466 34.2461C31.8733 34.9127 32.56 32.9127 33.2333 32.0527C34.6933 35.5927 35.9 36.2127 32.9866 38.6661C33.9133 39.0794 43.82 32.7061 37.4267 35.5994C36.86 32.6594 34.76 25.5461 31.9866 31.1327C32.0266 32.2261 29.7733 33.7661 30.6466 34.2461Z" fill="#342B1D"/>
</svg>
