<svg width="80" height="80" viewBox="0 0 80 80" fill="none" xmlns="http://www.w3.org/2000/svg">
<path d="M72.8001 44.8534C72.0334 44.7801 71.2601 44.7734 70.4934 44.7734C69.5268 44.7734 68.5601 44.7734 67.6001 44.7734C65.4468 44.8067 63.2934 44.8201 61.1401 44.8801C60.6134 44.8801 60.0601 45.1801 59.5734 45.0801C58.9067 44.9401 58.3201 45.0801 58.2401 45.7467C58.0294 47.1237 57.5781 48.4529 56.9067 49.6734C55.9265 51.3941 54.6171 52.905 53.0534 54.1201C50.9618 55.7755 48.6037 57.0628 46.0801 57.9267C45.6841 58.0708 45.2722 58.1671 44.8534 58.2134C42.98 58.3801 41.1067 58.5067 39.2334 58.6534C38.4401 58.7201 37.6534 58.8201 36.86 58.8867C35.4067 59.0134 33.9534 59.1334 32.5001 59.2334C31.5401 59.3001 30.56 59.2334 29.62 59.3934C28.0184 59.7277 26.3757 59.8198 24.7468 59.6667C23.1734 59.4667 21.5734 59.4867 19.9934 59.3401C19.3268 59.2801 18.6134 59.2467 18.1934 58.5667C17.9067 58.1001 17.9667 57.5801 18.3801 57.4467C19.0034 57.2443 19.6378 57.0774 20.28 56.9467C21.4934 56.7067 22.7134 56.5067 23.9334 56.2801C25.4734 56.0134 27.0134 55.7334 28.5601 55.5201C29.8934 55.3334 31.3134 55.2401 32.6867 55.0734C32.9295 54.9929 33.1554 54.8687 33.3534 54.7067L33.2534 54.4134C28.1263 54.2499 23.0024 54.827 18.0401 56.1267C17.7914 55.9456 17.5203 55.7977 17.2334 55.6867C16.5667 55.5401 15.9001 55.5001 15.2334 55.3667C13.9001 55.0934 12.6334 54.8201 11.3534 54.4667C10.6493 54.2858 9.9755 54.0028 9.35336 53.6267C9.18473 53.4994 9.04478 53.3381 8.94256 53.1532C8.84034 52.9683 8.77821 52.7639 8.7601 52.5534C8.7601 52.0134 9.20673 51.7734 9.72006 51.7067C10.2334 51.6401 10.6467 51.6067 11.1134 51.5601C12.7934 51.4134 14.4467 51.2201 16.1467 51.1267C17.8467 51.0334 19.6867 51.0667 21.4801 50.9667C24.6201 50.7867 27.7601 50.5667 30.8934 50.3401C31.4822 50.2605 32.0655 50.1448 32.6401 49.9934C32.6401 49.9067 32.6401 49.8201 32.6401 49.7334C32.481 49.6643 32.3124 49.6193 32.1401 49.6001C31.2267 49.6001 30.3134 49.6867 29.4001 49.6867C26.2801 49.6867 23.1601 49.6867 20.0667 49.6867C17.146 49.6446 14.2253 49.7759 11.3201 50.0801C10.456 50.1624 9.58447 50.1175 8.73341 49.9467C8.06674 49.8201 7.94672 49.1201 8.46005 48.8534C9.16282 48.4541 9.92627 48.1726 10.7201 48.0201C11.5966 47.9894 12.4742 48.0183 13.3468 48.1067C14.1868 48.1067 15.0267 48.0001 15.86 47.9534C17.5067 47.8601 19.1467 47.8067 20.7867 47.6801C22.7867 47.5267 24.84 47.3267 26.86 47.1134C27.3459 47.0497 27.8211 46.9219 28.2734 46.7334C28.4267 46.6667 28.5401 46.3934 28.5868 46.1934C28.5868 46.1334 28.3401 45.9134 28.2134 45.9201C26.4601 45.9801 24.7001 45.9734 22.9601 46.1801C20.7598 46.3648 18.5465 46.329 16.3534 46.0734C14.7134 45.9467 13.08 45.7534 11.4467 45.5801C10.3804 45.4099 9.36896 44.992 8.49342 44.3601C8.73105 44.1311 9.02574 43.9699 9.34677 43.8934C10.6401 43.7201 11.9468 43.5334 13.2534 43.4534C15.0268 43.3401 16.8001 43.3267 18.5868 43.2734L27.0334 43.0267C27.5969 43.0259 28.1599 42.9948 28.7201 42.9334C29.6734 42.8001 30.6201 42.6134 31.3867 42.4801C30.8063 43.5964 30.2899 44.745 29.8401 45.9201C29.7384 46.2156 29.7042 46.5302 29.7399 46.8408C29.7757 47.1513 29.8805 47.4499 30.0467 47.7146C30.213 47.9793 30.4364 48.2034 30.7005 48.3705C30.9647 48.5375 31.263 48.6433 31.5734 48.6801C31.8801 48.7201 32.28 48.4734 32.5267 48.5934C33.2734 48.9734 33.76 48.5267 34.2067 48.1134C35.0267 47.3534 35.7534 46.4867 36.5868 45.7334C37.8068 44.6134 38.3468 43.1334 38.9334 41.6534C39.4068 41.4267 40.2268 41.7667 40.4134 40.8201C39.9468 40.7534 39.5334 40.7067 39.1267 40.6201C38.9538 40.5936 38.7981 40.5002 38.6934 40.3601C38.5975 40.0965 38.4437 39.8578 38.2433 39.6616C38.0429 39.4654 37.801 39.3168 37.5355 39.2265C37.27 39.1363 36.9875 39.1069 36.7091 39.1404C36.4306 39.1739 36.1633 39.2694 35.9268 39.4201C35.1199 39.975 34.2548 40.44 33.3468 40.8067C32.0914 41.2448 30.7809 41.5051 29.4534 41.5801C23.4534 41.7334 17.4934 41.6467 11.5267 42.1934C10.5529 42.2782 9.59028 42.4613 8.65341 42.7401C8.26894 42.8185 7.9217 43.0231 7.66684 43.3214C7.41198 43.6198 7.26411 43.9947 7.24676 44.3867C7.26805 44.7306 7.39751 45.0589 7.61663 45.3247C7.83575 45.5905 8.13328 45.7802 8.46673 45.8667C9.03339 46.0934 9.58676 46.3467 10.1668 46.5934C9.61791 46.7409 9.08263 46.935 8.56674 47.1734C7.82008 47.5934 6.94674 47.9667 6.81341 48.9534C6.75705 49.4134 6.84561 49.8795 7.06674 50.2867C7.35818 50.6566 7.70179 50.9822 8.08676 51.2534C7.69591 51.5198 7.41983 51.9237 7.31357 52.3846C7.2073 52.8454 7.27868 53.3295 7.51344 53.7401C8.10011 54.7401 9.12671 55.0334 10.12 55.3601C12.4928 56.1117 14.9645 56.505 17.4534 56.5267C17.3799 56.7589 17.2816 56.9824 17.1601 57.1934C16.9574 57.4896 16.8528 57.8421 16.8612 58.2009C16.8695 58.5598 16.9904 58.9069 17.2067 59.1934C17.4666 59.6004 17.8186 59.9405 18.2345 60.1861C18.6503 60.4316 19.1182 60.5758 19.6001 60.6067C20.8269 60.7946 22.0657 60.8926 23.3067 60.9001C24.7867 60.9001 26.2734 60.8267 27.7534 60.7734C28.9001 60.7334 30.0534 60.6267 31.2 60.6534C32.5334 60.6867 33.8667 60.9867 35.2 60.8934C37.6467 60.7267 40.08 60.3601 42.5334 60.0667C44.8237 59.869 47.0711 59.3274 49.2 58.4601C51.5448 57.4513 53.6916 56.0337 55.5401 54.2734C57.5529 52.3906 58.9653 49.9555 59.6001 47.2734C59.8734 46.1401 59.8801 46.1401 61.0734 46.1534H61.5001C63.6534 46.1534 65.8067 46.1867 67.9667 46.1534C69.6067 46.1201 71.2467 46.0201 72.8801 45.8867C73.1134 45.8867 73.3201 45.4734 73.5467 45.2534C73.1534 45.1401 72.9867 44.8667 72.8001 44.8534ZM36.3867 40.1867C37.2734 39.9134 37.7201 40.2867 37.7201 41.2334C37.7281 41.805 37.6186 42.3721 37.3984 42.8996C37.1783 43.4272 36.852 43.9038 36.44 44.3001C36.08 42.7734 35.0067 42.2334 33.52 42.1667C34.2569 41.2328 35.2547 40.539 36.3867 40.1734V40.1867ZM35.1401 43.9201C35.4217 44.3167 35.6778 44.7309 35.9067 45.1601C35.2801 45.8267 34.7334 46.4934 34.1134 47.0467C33.7988 47.3672 33.4084 47.6031 32.9784 47.7325C32.5483 47.8618 32.0926 47.8805 31.6534 47.7867C31.4949 47.7412 31.3506 47.6561 31.234 47.5395C31.1174 47.4229 31.0323 47.2786 30.9867 47.1201C30.9452 46.527 31.0084 45.9312 31.1734 45.3601C31.3715 44.8822 31.6339 44.4336 31.9534 44.0267C32.1179 43.7572 32.3465 43.5326 32.6189 43.3729C32.8913 43.2133 33.199 43.1235 33.5145 43.1116C33.83 43.0997 34.1436 43.1661 34.4273 43.3049C34.7109 43.4436 34.9558 43.6504 35.1401 43.9067V43.9201Z" fill="#342B1D"/>
<path d="M33.2132 28.6672C34.5466 28.9605 35.9532 29.2205 37.3199 29.5139C39.6866 30.0272 42.0666 30.5072 44.4266 31.0872C45.7561 31.3884 46.9877 32.0214 48.0066 32.9272C48.4933 33.3739 48.9199 34.8272 48.6132 35.2205C48.1333 35.8559 47.6051 36.4532 47.0332 37.0072C46.4065 37.5939 45.6999 38.0805 45.0332 38.6605C44.8532 38.8272 44.8333 39.1739 44.7466 39.4339C45.0139 39.5085 45.2892 39.551 45.5666 39.5605C45.7724 39.5192 45.9647 39.4275 46.1265 39.2939C47.4546 38.4607 48.5599 37.3166 49.3466 35.9605C49.7498 35.2473 49.8906 34.4154 49.7445 33.6092C49.5983 32.8031 49.1745 32.0735 48.5466 31.5472C48.0528 31.1496 47.529 30.7907 46.9799 30.4739C44.9781 29.5024 42.8367 28.85 40.6332 28.5405C38.2479 28.2606 35.8906 27.7788 33.5866 27.1005C33.2795 26.9892 33.0027 26.8072 32.7787 26.5694C32.5547 26.3316 32.3898 26.0445 32.297 25.7312C32.2043 25.4179 32.1864 25.0873 32.2448 24.7658C32.3032 24.4444 32.4362 24.1411 32.6332 23.8805C33.5282 22.6929 34.6969 21.7391 36.0399 21.1005C36.8962 20.7325 37.8149 20.5312 38.7466 20.5072C39.6595 20.5447 40.5663 20.6743 41.4532 20.8939C44.2022 21.3556 46.8462 22.3062 49.2599 23.7005C51.0866 24.7605 52.4999 26.0472 53.1265 28.1205C53.4466 29.1872 53.9865 30.1939 54.2732 31.2672C54.5999 32.4939 55.0066 33.7405 54.7199 35.0605C54.6579 35.4664 54.6289 35.8766 54.6332 36.2872C55.1799 36.2872 55.5999 36.2005 56.0133 36.2205C56.9333 36.2672 57.8466 36.4339 58.7599 36.4072C61.8933 36.3272 65.0199 36.2139 68.1466 36.0339C68.9199 35.9872 69.8133 36.0339 70.4999 35.1605C70.13 34.9922 69.7402 34.8712 69.3399 34.8005C67.3866 34.8005 65.4399 34.8005 63.4932 34.8005H55.9999C56.0446 34.6662 56.0759 34.5277 56.0933 34.3872C56.0998 32.0256 55.5901 29.6912 54.5999 27.5472C53.3355 24.7476 51.0794 22.5153 48.2666 21.2805C45.238 19.7823 41.8986 19.0194 38.5199 19.0539C37.109 19.0501 35.7177 19.3826 34.4609 20.0237C33.2042 20.6648 32.1183 21.5961 31.2932 22.7405C29.4132 25.2205 30.3999 28.0472 33.2132 28.6672Z" fill="#342B1D"/>
<path d="M43.3068 50.8201C41.9874 50.503 40.6522 50.256 39.3068 50.0801C38.1734 50.2467 37.2534 50.3001 36.3734 50.5267C35.3601 50.7867 34.2934 51.2401 34.2001 52.4267C34.1067 53.6134 35.0001 54.2934 35.9534 54.7734C37.5668 55.5934 39.2134 56.2267 41.1067 55.8934C42.4325 55.7661 43.7198 55.3763 44.8934 54.7467C45.9934 54.0467 46.3001 52.8867 45.4401 52.0801C44.8297 51.5091 44.1015 51.079 43.3068 50.8201ZM37.8468 54.3801C36.8801 54.0334 35.9601 53.8534 35.3601 52.9801C34.9867 52.4267 35.2201 52.0734 35.6668 51.9467C36.6135 51.6801 37.5934 51.5401 38.5601 51.3534L38.6468 51.5934C38.2789 51.9457 38.0111 52.3892 37.8706 52.8787C37.73 53.3683 37.7218 53.8863 37.8468 54.3801ZM43.9467 53.9467C42.9934 54.3801 41.9468 54.6601 40.9734 55.0067C40.9734 54.9334 40.9268 54.8601 40.9001 54.7867C40.5746 54.7534 40.2473 54.74 39.9201 54.7467C39.1801 54.8067 38.9135 54.2801 38.7535 53.7467C38.5401 53.0201 39.9268 51.4067 40.6735 51.5001C41.8386 51.5798 42.9688 51.9314 43.9734 52.5267C44.8401 53.1001 44.8934 53.5267 43.9467 53.9467Z" fill="#342B1D"/>
<path d="M46.1865 43.261C46.1166 42.2398 45.742 41.2631 45.1108 40.4573C44.4797 39.6514 43.6212 39.0535 42.6466 38.741C42.3566 38.656 42.0512 38.6377 41.7532 38.6877C40.8332 38.8543 40.3799 39.6277 40.4199 41.3543C40.5266 41.8343 40.7132 42.7677 40.9465 43.6943C41.1082 44.5393 41.4953 45.3249 42.0668 45.968C42.6383 46.6111 43.373 47.0878 44.1932 47.3477C45.3465 47.7277 46.1932 47.1676 46.1932 45.961C46.2265 45.081 46.2265 44.1743 46.1865 43.261ZM41.4799 40.5943C41.5866 39.681 41.9266 39.4876 42.6799 39.981C43.3547 40.4996 43.9897 41.0678 44.5799 41.681L41.5599 42.1743C41.4839 41.6446 41.4571 41.109 41.4799 40.5743V40.5943ZM45.3066 46.0943C45.2399 46.5743 44.9733 46.8343 44.4266 46.4943C43.5466 45.9543 42.6332 45.461 42.2199 44.421C42.1361 44.2513 42.0981 44.0627 42.1095 43.8739C42.121 43.685 42.1816 43.5024 42.2853 43.3441C42.389 43.1858 42.5322 43.0574 42.7008 42.9715C42.8694 42.8856 43.0576 42.8452 43.2466 42.8543C43.4866 42.8543 43.7199 42.8543 43.9532 42.8543C45.2865 42.8543 45.3466 42.9476 45.3399 44.2943C45.3668 44.8789 45.3557 45.4645 45.3066 46.0477V46.0943Z" fill="#342B1D"/>
</svg>
