<svg width="80" height="80" viewBox="0 0 80 80" fill="none" xmlns="http://www.w3.org/2000/svg">
<path d="M71.7062 32.8728C71.5862 32.7528 71.6129 32.5661 71.6329 32.3328C71.6536 32.1467 71.6536 31.9588 71.6329 31.7727C71.6258 31.7132 71.6426 31.6533 71.6796 31.6061C71.7596 31.5194 71.8929 31.5261 72.0395 31.5327C72.1862 31.5394 72.3262 31.5327 72.3862 31.4794C72.4015 31.4483 72.4095 31.4141 72.4095 31.3794C72.4095 31.3448 72.4015 31.3105 72.3862 31.2794C72.3481 30.7537 72.171 30.2475 71.8729 29.8127L71.6663 29.4328C71.4046 28.7278 71.1042 28.0378 70.7663 27.3661C70.2753 26.446 69.8906 25.4731 69.6195 24.4661C69.5431 24.2237 69.483 23.9765 69.4396 23.7261C69.396 23.2069 69.1855 22.7157 68.8396 22.3261C68.433 22.1956 68.0418 22.0213 67.6729 21.8061C67.1863 21.5049 66.6447 21.3032 66.0796 21.2128H66.0395C65.8194 21.0943 65.5803 21.0153 65.3329 20.9794C64.9793 20.9425 64.6415 20.8138 64.3529 20.6061C63.8098 20.5346 63.2743 20.4141 62.7529 20.2461C61.9468 19.9533 61.0888 19.8307 60.2329 19.8861C60.011 19.9021 59.7882 19.9021 59.5662 19.8861C59.211 19.8387 58.8503 19.8522 58.4996 19.9261C58.432 19.95 58.3597 19.9569 58.2888 19.9465C58.2179 19.936 58.1507 19.9084 58.0929 19.8661C57.9663 19.7994 57.8996 19.7661 57.8129 19.8194C53.4129 20.5261 50.0663 21.8661 47.5796 23.9128C47.4263 24.0461 47.3463 24.0994 47.2729 24.0528C47.1996 24.0061 47.2196 23.9328 47.2329 23.8461C47.2462 23.7594 47.2329 23.6194 47.1863 23.5928C46.9857 23.7006 46.8263 23.8717 46.7329 24.0794C46.6929 24.1594 46.6596 24.2261 46.5796 24.2394C46.4996 24.2527 46.3396 24.1661 45.8329 23.7394C45.7329 23.6461 45.6129 23.5461 45.4729 23.4328C45.3821 23.3655 45.2863 23.3054 45.1863 23.2528C44.8996 23.0994 44.5796 22.9194 44.5196 22.6927C41.5729 21.1194 38.0729 20.6394 34.1262 21.2727C30.5728 21.8947 27.1661 23.172 24.0796 25.0394C24.0263 25.0511 23.9769 25.0762 23.936 25.1124C23.8952 25.1486 23.8643 25.1946 23.8463 25.2461C23.8388 25.3155 23.8482 25.3858 23.8738 25.4508C23.8993 25.5158 23.9402 25.5736 23.9929 25.6194V25.6194H24.0929C24.1153 25.6158 24.1382 25.6182 24.1593 25.6264C24.1804 25.6346 24.1989 25.6483 24.2129 25.6661V25.6994C24.2737 25.7274 24.3394 25.7433 24.4062 25.7461C24.4369 25.7424 24.4679 25.7481 24.4953 25.7624C24.5226 25.7767 24.545 25.7989 24.5596 25.8261C24.5901 25.9041 24.6001 25.9886 24.5884 26.0715C24.5767 26.1544 24.5438 26.2329 24.4929 26.2994C24.4788 26.32 24.4599 26.3368 24.4378 26.3484C24.4158 26.36 24.3912 26.3661 24.3662 26.3661C24.3244 26.5962 24.2207 26.8105 24.0662 26.9861C22.3929 30.0727 20.3129 33.1728 18.2996 36.1728C14.2662 42.1728 10.0929 48.4128 8.53955 55.2594C8.53955 55.3194 8.53959 55.4128 8.57959 55.4528C8.61959 55.4928 8.86623 55.4528 9.0529 55.4128C9.23956 55.3728 9.58623 55.2794 9.71956 55.4128V55.4594L9.79956 55.4194L9.8929 55.3728C10.8039 54.8626 11.7762 54.4706 12.7862 54.2061C14.9684 53.8333 17.1736 53.6106 19.3862 53.5394C19.5315 53.5324 19.6731 53.4913 19.7996 53.4194C19.9009 53.3609 20.0159 53.3301 20.1329 53.3301C20.2499 53.3301 20.3649 53.3609 20.4662 53.4194V53.4194C20.5552 53.4824 20.6582 53.5227 20.7663 53.5366C20.8744 53.5506 20.9843 53.5378 21.0863 53.4994C21.198 53.4611 21.3175 53.4514 21.434 53.4712C21.5505 53.491 21.6601 53.5396 21.7529 53.6127C22.0206 53.7426 22.3154 53.8066 22.6129 53.7994C22.9218 53.7993 23.2278 53.8604 23.5129 53.9794C24.0263 53.8527 24.1263 53.9127 24.2596 54.0194C24.3865 54.1249 24.548 54.1795 24.7129 54.1728H24.7729C25.5596 54.1728 30.9196 54.9594 31.0196 55.5061C31.0196 55.6994 30.7263 55.7594 30.5796 55.7861C24.3373 55.1553 18.0436 55.2358 11.8196 56.0261C11.13 56.158 10.4252 56.1917 9.72624 56.1261C9.54624 56.1261 9.33957 56.0861 9.05957 56.0727H9.0262C8.94209 56.0622 8.85707 56.0622 8.77295 56.0727C8.51962 56.0727 8.21295 56.1061 8.10628 55.9128C8.0631 55.8341 8.04045 55.7458 8.04045 55.6561C8.04045 55.5663 8.0631 55.4781 8.10628 55.3994C8.10628 54.8527 7.98624 54.5461 7.81291 54.5461C7.41291 54.5461 6.71289 55.7861 6.71289 56.4927V56.5327C6.71289 56.5994 6.71288 56.6728 6.86621 56.7861C6.94086 56.8514 7.00202 56.9306 7.04622 57.0194C7.08387 56.9923 7.12722 56.9741 7.17293 56.9661C7.20848 56.9684 7.24304 56.9785 7.27417 56.9958C7.3053 57.0131 7.33224 57.0371 7.35295 57.0661C7.51226 57.1451 7.69526 57.1617 7.86621 57.1127C8.00267 57.0858 8.14308 57.0858 8.27954 57.1127C8.35161 57.0828 8.43041 57.0726 8.50773 57.0832C8.58505 57.0937 8.65813 57.1246 8.71956 57.1728C8.76122 57.2059 8.81076 57.2277 8.86336 57.2358C8.91596 57.244 8.96986 57.2384 9.01961 57.2194C9.41088 57.1277 9.81636 57.1141 10.2129 57.1794C10.6078 57.2574 11.0167 57.2227 11.3929 57.0794L14.0596 56.9394C18.9929 56.6594 24.0596 56.3794 29.0729 57.0327C29.3426 57.0727 29.6166 57.0727 29.8862 57.0327H30.2529C30.6663 57.0327 31.0196 57.1528 31.0929 57.8061C31.8063 60.9128 36.0996 60.3861 39.5529 59.9594C40.5188 59.8215 41.4912 59.7347 42.4662 59.6994C46.7329 58.9661 46.7063 58.1594 46.6796 57.5128C46.6796 56.6594 46.8596 56.1194 51.4996 55.9328C52.2396 55.9328 52.9729 55.8461 53.6729 55.7994C55.6317 55.6077 57.6033 55.5832 59.5662 55.7261C63.5662 56.3928 66.4463 56.6594 69.8329 54.7394C70.1665 54.3147 70.4113 53.8273 70.5529 53.3061C70.6688 52.9291 70.8229 52.565 71.0129 52.2194C71.0129 52.0794 71.0795 51.9394 71.1195 51.7861C71.2269 51.2224 71.3899 50.6709 71.6063 50.1394C71.5819 50.0549 71.5871 49.9645 71.621 49.8833C71.6549 49.802 71.7156 49.7348 71.7929 49.6927C71.8662 49.6394 71.8995 49.6194 71.8729 49.5061C71.9195 48.7794 71.9929 48.0528 72.0863 47.3328C72.0803 47.3109 72.0803 47.2879 72.0863 47.2661C72.0863 47.2661 72.0862 47.1328 72.1462 47.0994C72.2196 46.4994 72.3129 45.8928 72.3996 45.3061C72.8418 42.9648 72.9984 40.5785 72.8662 38.1994C72.8167 38.1698 72.7808 38.1219 72.7663 38.0661C72.7493 37.893 72.7968 37.7197 72.8996 37.5794C73.0062 37.3794 73.0729 37.2394 72.9929 37.1794C72.9204 37.0121 72.8831 36.8317 72.8831 36.6494C72.8831 36.4671 72.9204 36.2867 72.9929 36.1194C73.0666 35.9046 73.107 35.6798 73.1129 35.4528C73.1129 35.2661 73.1129 35.1994 73.1995 35.1728H73.2396C73.2396 34.4061 72.8662 33.2927 72.2262 33.0727C72.1303 33.0789 72.0341 33.0642 71.9443 33.0297C71.8546 32.9952 71.7733 32.9416 71.7062 32.8728ZM69.7062 27.8328H69.7729L69.8129 27.8994C70.4796 29.0327 70.0663 30.2461 69.6796 31.4194C69.5529 31.7928 69.4329 32.1528 69.3463 32.5061C68.9863 34.3461 68.6796 36.2594 68.3929 38.1127C67.7796 42.0127 67.1396 46.0461 65.8529 49.7661C65.7463 50.0061 65.6596 50.1061 65.5596 50.1127C65.4462 50.1127 65.3796 50.0061 65.3062 49.8928C65.2329 49.7794 65.1462 49.6594 65.0662 49.6661H65.0129V49.6194C64.9916 49.559 64.9916 49.4932 65.0129 49.4328C65.0129 49.3861 65.0129 49.2927 65.0129 49.2727C64.8463 49.0194 65.0129 48.7994 65.1195 48.6061C65.2037 48.5117 65.2612 48.3967 65.2862 48.2727C65.3795 47.8927 65.4595 47.4061 65.5395 46.9394C65.5995 46.5727 65.6529 46.2261 65.7196 45.9394C65.8306 45.5549 65.9618 45.1767 66.1129 44.8061C66.302 44.3474 66.4558 43.8749 66.5729 43.3928V43.3527C66.5743 42.4828 66.8017 41.6283 67.2329 40.8728C67.3411 40.5054 67.3796 40.121 67.3463 39.7394C67.297 39.2715 67.3681 38.7988 67.5529 38.3661C67.7613 37.4061 67.9193 36.4359 68.0262 35.4594C68.1478 33.8653 68.4865 32.2953 69.0329 30.7928C69.1173 30.4032 69.151 30.0043 69.1329 29.6061C69.1596 28.8727 69.1595 28.0661 69.6929 27.8194L69.7062 27.8328ZM64.1929 49.9061C64.5395 50.0194 64.9129 50.8528 64.9662 50.9728C65.273 51.3221 65.5433 51.7018 65.7729 52.1061V52.2061H65.6663C57.4129 50.3928 49.7729 50.9594 43.5729 53.8594C43.5024 53.9316 43.4071 53.9745 43.3062 53.9794H43.2329C43.0262 53.9394 42.8996 53.6928 42.7929 53.4928C42.7792 53.4553 42.7613 53.4196 42.7396 53.3861C42.5452 53.246 42.3799 53.0694 42.2529 52.8661C42.1856 52.8645 42.1214 52.8375 42.0732 52.7905C42.0249 52.7435 41.9963 52.68 41.9929 52.6127L41.8996 52.5594C41.804 52.5252 41.7166 52.4713 41.6431 52.4013C41.5697 52.3312 41.5117 52.2466 41.4729 52.1527C41.4729 52.0661 41.1063 51.9327 40.9263 51.8594C40.5796 51.7261 40.4129 51.6527 40.4062 51.5327C40.3996 51.4127 40.4063 51.4394 40.5196 51.3994C41.1503 51.1009 41.7488 50.7391 42.3062 50.3194C42.6662 50.0661 43.0463 49.8061 43.4329 49.5727C44.3412 49.2885 45.2069 48.8826 46.0063 48.3661C46.4011 48.1121 46.8774 48.0169 47.3396 48.0994C47.6789 48.1382 48.0226 48.1018 48.3463 47.9928C49.0487 47.7203 49.8003 47.5977 50.5529 47.6328C50.8329 47.6328 51.0996 47.6328 51.3062 47.5994H51.3662C52.1207 47.4322 52.8966 47.3827 53.6663 47.4528H53.8729C56.6529 47.4994 63.1129 47.7061 64.1796 49.8928L64.1929 49.9061ZM58.9662 47.0594C58.9566 47.0381 58.9554 47.0138 58.9628 46.9916C58.9702 46.9694 58.9857 46.9507 59.0063 46.9394C59.0796 46.8861 59.1996 46.9394 59.2729 46.9928C59.3463 47.0461 59.3729 47.0594 59.3463 47.1394C59.3356 47.1597 59.3191 47.1763 59.2989 47.187C59.2787 47.1977 59.2556 47.202 59.2329 47.1994H59.1329C59.0796 47.1594 58.9595 47.1328 58.9529 47.0461L58.9662 47.0594ZM61.1729 47.3594C61.207 47.3707 61.2371 47.3915 61.2596 47.4194C61.3604 47.3956 61.4654 47.3956 61.5662 47.4194L61.7996 47.4728C62.6262 47.6528 62.8729 47.7461 62.8929 47.8928C62.8926 47.9244 62.8829 47.9551 62.8651 47.9812C62.8474 48.0073 62.8222 48.0276 62.7929 48.0394C62.2528 47.9435 61.7281 47.7753 61.2329 47.5394H61.1596C61.1196 47.5394 60.9795 47.5394 60.9462 47.4528C60.944 47.4373 60.944 47.4216 60.9462 47.4061V47.4061C60.8729 47.4861 60.6863 47.4061 60.6063 47.4061C60.5263 47.4061 60.5195 47.3728 60.5262 47.3061V47.2461H60.5863C60.6329 47.2461 60.8863 47.2461 60.9396 47.2928L60.9796 47.3394C60.9996 47.2794 61.0863 47.3194 61.1596 47.3461L61.1729 47.3594ZM66.6929 21.4994C66.7395 21.4461 66.8262 21.4594 66.9862 21.4994C67.1183 21.5718 67.2566 21.6321 67.3996 21.6794C67.9262 21.8861 68.1529 21.9928 68.1329 22.1394C68.1129 22.2861 67.9862 22.2861 67.8595 22.3061C67.417 22.1465 67.0112 21.8994 66.6663 21.5794C66.6606 21.564 66.6589 21.5474 66.6612 21.5311C66.6635 21.5148 66.6699 21.4993 66.6796 21.4861L66.6929 21.4994ZM41.8595 21.7461C41.9129 21.6994 41.9596 21.7461 42.0929 21.7794C42.2263 21.8127 42.2529 21.8394 42.2329 21.9394C42.2129 22.0394 42.1596 22.0261 42.0796 22.0261C41.9663 22.0261 41.8862 21.9594 41.8729 21.8794C41.8526 21.8616 41.8389 21.8374 41.8341 21.8107C41.8292 21.7841 41.8335 21.7566 41.8463 21.7327L41.8595 21.7461ZM41.0596 21.6261C41.096 21.6014 41.139 21.5883 41.1829 21.5883C41.2269 21.5883 41.2698 21.6014 41.3062 21.6261H41.3929C41.4729 21.6261 41.5529 21.6927 41.5462 21.7727C41.5434 21.7948 41.5334 21.8152 41.5177 21.8309C41.502 21.8466 41.4816 21.8566 41.4596 21.8594H41.3796C41.2596 21.8594 41.0663 21.8594 41.0129 21.7394C41.0047 21.7174 41.0035 21.6935 41.0094 21.6708C41.0154 21.6481 41.0282 21.6278 41.0462 21.6127L41.0596 21.6261ZM12.7463 49.3527C12.776 49.328 12.8144 49.316 12.8529 49.3194V49.3194C14.4196 46.5194 16.1329 43.6861 17.7795 40.9461C20.4462 36.5327 23.1929 31.9727 25.4196 27.4461C25.5729 27.3861 25.5796 26.9261 25.5796 26.5861C25.5796 26.2461 25.5796 25.9194 25.7463 25.8127C25.7792 25.792 25.8174 25.781 25.8563 25.781C25.8952 25.781 25.9333 25.792 25.9662 25.8127C26.0729 25.8127 26.1329 25.8128 26.2729 25.6594C26.4817 25.4535 26.7255 25.2864 26.9929 25.1661C32.1663 22.4994 41.8529 19.7794 45.3329 26.3394C45.4929 26.5261 45.3729 26.7728 45.2663 27.0061C45.2133 27.0981 45.1729 27.1967 45.1462 27.2994C45.2495 27.3766 45.3227 27.4874 45.3529 27.6127C45.3493 27.9079 45.235 28.191 45.0329 28.4061C44.9416 28.5263 44.8633 28.6559 44.7996 28.7928C42.7329 33.2994 40.4462 38.6661 39.1462 44.3594C39.1159 44.8932 39.0127 45.4203 38.8396 45.9261C38.6194 46.5889 38.5002 47.2811 38.4862 47.9794C38.4822 48.1223 38.4688 48.2649 38.4462 48.4061C38.4407 48.4904 38.4407 48.5751 38.4462 48.6594C38.6056 48.5518 38.7364 48.4069 38.8271 48.2373C38.9177 48.0677 38.9654 47.8784 38.9662 47.6861C39.0097 47.5112 39.0365 47.3327 39.0462 47.1527C39.0417 46.5586 39.2235 45.9781 39.5662 45.4928C39.8129 45.3128 39.8529 44.8661 39.8862 44.4394C39.8809 44.1243 39.947 43.812 40.0796 43.5261C40.172 43.2504 40.3194 42.9964 40.5129 42.7794C40.5919 42.6004 40.6371 42.4083 40.6462 42.2128C40.6573 41.9674 40.7115 41.726 40.8062 41.4994C40.8929 41.2861 40.9929 41.0728 41.0996 40.8328C41.4187 40.2721 41.6227 39.6533 41.6995 39.0128C41.6803 38.8222 41.7006 38.6297 41.7591 38.4473C41.8176 38.265 41.9131 38.0966 42.0395 37.9528C42.1624 37.8045 42.2614 37.6381 42.3329 37.4594C43.0364 35.2802 43.8964 33.1547 44.9062 31.0994C45.4462 29.9394 45.9996 28.7461 46.4729 27.5727C46.4601 27.5492 46.4534 27.5229 46.4534 27.4961C46.4534 27.4693 46.4601 27.4429 46.4729 27.4194C46.5129 27.3128 46.6795 27.2994 46.8662 27.2861C46.9395 27.2901 47.013 27.2901 47.0863 27.2861C47.0716 27.2572 47.064 27.2252 47.064 27.1927C47.064 27.1603 47.0716 27.1284 47.0863 27.0994C47.1329 26.9728 47.2929 26.9127 47.4462 26.8527C47.5995 26.7927 47.6529 26.7727 47.6663 26.7394C49.3929 23.2327 56.7529 21.0194 60.6596 21.4061C60.7063 21.429 60.7576 21.441 60.8096 21.441C60.8616 21.441 60.9129 21.429 60.9596 21.4061C61.0375 21.3714 61.121 21.3511 61.2062 21.3461V21.3461C61.4068 21.3959 61.6129 21.4205 61.8196 21.4194C62.1082 21.4256 62.3949 21.4682 62.6729 21.5461C62.7836 21.5598 62.889 21.6011 62.9796 21.6661C63.1129 21.7394 63.1863 21.7728 63.2729 21.7194H63.3062C63.6862 21.7238 64.0602 21.815 64.3996 21.9861C64.5486 22.051 64.7024 22.1045 64.8595 22.1461C65.0917 22.2188 65.3276 22.2789 65.5662 22.3261C66.4129 22.5128 67.4662 22.7527 67.7196 23.3661C67.7721 23.525 67.785 23.6943 67.7571 23.8593C67.7292 24.0243 67.6614 24.1799 67.5596 24.3127C67.4966 25.0978 67.3673 25.8762 67.1729 26.6394C67.0663 27.1061 66.9663 27.5461 66.9129 27.9061C65.4663 34.4461 63.4396 44.2461 63.5796 45.2394C63.8561 44.7327 64.0795 44.1987 64.2463 43.6461C64.7396 41.3727 65.3329 39.1061 65.9062 36.9128C66.1129 36.1261 66.3196 35.3394 66.5196 34.5461C66.7181 33.1312 67.0076 31.7304 67.3862 30.3527C67.6143 28.8027 67.9304 27.2669 68.3329 25.7528C68.3627 25.6166 68.3627 25.4756 68.3329 25.3394C68.3329 25.1861 68.2929 25.0928 68.3729 25.0528C68.4529 25.0128 68.5262 25.0928 68.5662 25.1394C68.6716 25.55 68.8214 25.9479 69.0129 26.3261C69.1782 26.6596 69.3121 27.0078 69.4129 27.3661V27.4328H69.3529L69.2795 27.4728C69.1462 27.5394 69.0863 27.5661 69.0996 27.7928C68.9929 28.2661 68.8796 28.7327 68.7729 29.1994C68.0529 32.2727 67.3796 35.1994 66.8929 38.2794C66.5135 40.2006 66.035 42.1009 65.4596 43.9728C65.0929 45.2461 64.7129 46.5661 64.3996 47.8728C64.3988 47.8976 64.3899 47.9214 64.3743 47.9407C64.3586 47.96 64.337 47.9736 64.3129 47.9794C64.2329 47.9794 64.1596 47.8794 64.0529 47.7194C64.0014 47.6337 63.9386 47.5552 63.8662 47.4861C63.3329 47.0661 63.0795 47.0194 62.9529 47.0528C62.8262 47.0861 62.7929 47.2128 62.7463 47.3328C62.6996 47.4528 62.6662 47.5394 62.5729 47.5661C62.543 47.575 62.5113 47.576 62.481 47.569C62.4506 47.562 62.4225 47.5472 62.3996 47.5261C53.8262 44.9061 45.2729 46.0994 39.5063 50.7194H39.4462C39.2929 51.2928 38.6796 51.4261 38.1863 51.5394L38.0329 51.5727C37.7794 51.4496 37.5528 51.2773 37.3662 51.0661C37.0621 50.741 36.6975 50.4784 36.2929 50.2928V50.2928C36.2929 50.2461 36.1796 50.1194 36.2929 50.0461C36.4062 49.9728 37.2062 50.3661 37.3196 50.4394C37.1109 50.12 36.852 49.8364 36.5529 49.5994C28.4996 45.1261 17.4462 47.9661 13.0596 49.3994C13.0663 49.4211 13.0663 49.4444 13.0596 49.4661C13.0508 49.4942 13.0329 49.5186 13.0088 49.5355C12.9847 49.5524 12.9557 49.5608 12.9263 49.5594V49.5594C12.8971 49.5589 12.8689 49.5488 12.846 49.5308C12.8232 49.5127 12.8068 49.4876 12.7996 49.4594C12.7752 49.4517 12.7548 49.435 12.7424 49.4127C12.73 49.3904 12.7266 49.3642 12.7329 49.3394L12.7463 49.3527ZM11.1396 53.4394C10.8897 53.7184 10.5764 53.9333 10.2262 54.0661L10.0863 54.1328H10.0462H10.0063C9.96988 54.1095 9.94062 54.0767 9.92179 54.0378C9.90296 53.999 9.89527 53.9557 9.89958 53.9128C9.91863 53.8146 9.96142 53.7226 10.0242 53.6447C10.0869 53.5669 10.1677 53.5056 10.2596 53.4661C10.2984 53.4506 10.3407 53.4461 10.3819 53.4532C10.4231 53.4603 10.4615 53.4786 10.4929 53.5061C10.5668 53.4841 10.6365 53.4504 10.6995 53.4061C10.8329 53.3327 10.9529 53.2661 11.0462 53.2928C11.0651 53.2957 11.083 53.3033 11.0981 53.3149C11.1133 53.3266 11.1252 53.3419 11.1329 53.3594V53.3994L11.1396 53.4394ZM13.3595 52.6661C13.3373 52.7054 13.304 52.7372 13.2636 52.7574C13.2232 52.7776 13.1777 52.7852 13.1329 52.7794H13.0396C12.9196 52.7794 12.8996 52.6861 12.8996 52.6527C12.8996 52.6194 13.0529 52.5128 13.1262 52.4994C13.1996 52.4861 13.3129 52.4994 13.3595 52.4994C13.4062 52.4994 13.3596 52.6127 13.3463 52.6527L13.3595 52.6661ZM14.5596 52.4728C14.3837 52.5882 14.1765 52.6464 13.9662 52.6394H13.8595C13.839 52.6325 13.8208 52.6202 13.8067 52.6038C13.7926 52.5874 13.7832 52.5674 13.7795 52.5461C13.7795 52.4661 13.8596 52.4261 13.8996 52.4061H13.9396C13.993 52.3925 14.0445 52.3724 14.0929 52.3461C14.2596 52.2794 14.4862 52.1794 14.5729 52.3461C14.5812 52.3641 14.585 52.3838 14.5838 52.4036C14.5827 52.4234 14.5766 52.4426 14.5662 52.4594L14.5596 52.4728ZM17.7329 52.1927C17.3078 52.1704 16.8816 52.2063 16.4662 52.2994C15.6529 52.4328 15.4596 52.4461 15.4129 52.2994C15.3663 52.1528 15.4862 52.1261 15.5396 52.0861C15.9931 51.7962 16.5301 51.6649 17.0662 51.7128C17.3027 51.705 17.5386 51.6849 17.7729 51.6527C20.5682 51.3596 23.3845 51.324 26.1863 51.5461C26.8623 51.7565 27.565 51.8688 28.2729 51.8794C28.6063 51.7728 29.6063 52.1128 31.2529 52.6794C32.3063 53.0461 33.9195 53.5994 34.0395 53.4461C34.0395 53.4461 34.0396 53.3661 33.7596 53.0861C33.6396 52.8194 33.4596 52.7594 33.0929 52.6328L32.9729 52.5794C32.5131 52.0818 31.9353 51.7081 31.2929 51.4928C27.2462 50.3528 22.7663 50.1594 16.7596 50.8261C16.5017 50.8295 16.2483 50.8935 16.0196 51.0128C15.7584 51.1659 15.4516 51.2225 15.1529 51.1728V51.1728L15.0462 51.2194C14.9529 51.2661 14.8396 51.3261 14.7463 51.2661C13.7296 51.4903 12.7459 51.8443 11.8196 52.3194C11.3796 52.5194 10.9262 52.7261 10.4862 52.9061L10.3463 52.9594V52.8127C10.6929 50.9394 11.0529 50.8127 12.0262 50.8127C12.4764 50.7978 12.9236 50.733 13.3595 50.6194C13.5114 50.5204 13.6813 50.4524 13.8595 50.4194C14.0543 50.3882 14.2378 50.3079 14.3929 50.1861C14.5075 50.0931 14.6522 50.0457 14.7996 50.0528C14.9596 50.0528 15.0596 50.0528 15.1063 49.9328C15.1529 49.8128 15.4996 49.7727 16.0462 49.7394C16.3482 49.7421 16.6491 49.7017 16.9396 49.6194V49.6194C20.5065 48.8211 24.1512 48.4231 27.8062 48.4328C29.4596 48.4328 36.3596 49.6594 36.8329 51.5061C36.9663 52.0394 36.5729 52.5728 35.6529 53.0794C35.2791 53.3361 34.9726 53.6791 34.7596 54.0794C34.5263 54.4461 34.3263 54.7461 34.0063 54.8261C33.9643 54.833 33.9215 54.833 33.8796 54.8261C33.6779 54.8131 33.4839 54.7438 33.3196 54.6261C28.2877 52.9686 23.0171 52.151 17.7196 52.2061L17.7329 52.1927ZM36.7729 53.5994C36.7729 53.5994 36.7729 53.6594 36.6863 53.7261C36.6562 53.7511 36.6186 53.7652 36.5796 53.7661C36.5641 53.7661 36.5487 53.7625 36.5348 53.7555C36.5209 53.7486 36.5089 53.7385 36.4996 53.7261C36.4529 53.6661 36.4996 53.5661 36.5596 53.5261C36.5715 53.512 36.5863 53.5008 36.6029 53.493C36.6196 53.4853 36.6378 53.4813 36.6562 53.4813C36.6746 53.4813 36.6929 53.4853 36.7096 53.493C36.7262 53.5008 36.741 53.512 36.7529 53.5261L36.7729 53.5994ZM71.2862 36.1794C71.2195 36.7728 71.1729 37.0728 71.1396 37.2661C71.0554 37.8779 71.0375 38.4971 71.0863 39.1127V39.3061C71.0863 41.6461 71.0329 41.8061 70.9329 42.2261C70.8227 42.7275 70.7425 43.2351 70.6929 43.7461C70.6156 44.2199 70.5778 44.6994 70.5796 45.1794C70.6168 45.9656 70.5198 46.7524 70.2929 47.5061C70.2677 47.7847 70.2118 48.0597 70.1262 48.3261C69.9584 48.7493 69.91 49.2105 69.9862 49.6594V49.6594C69.9462 49.8594 69.9062 50.0794 69.8595 50.3261C69.6195 51.6594 69.2929 53.4394 68.4329 54.2528C66.5063 54.9194 64.4329 54.5661 62.4329 54.1994C60.8718 53.8212 59.2577 53.7107 57.6596 53.8728C57.2501 53.9528 56.8291 53.9528 56.4196 53.8728C56.0803 53.8177 55.7355 53.8043 55.3929 53.8328C54.1615 53.9875 52.9203 54.0499 51.6796 54.0194H51.0129C50.4536 54.1635 49.8858 54.2727 49.3129 54.3461C48.0421 54.435 46.818 54.8607 45.7663 55.5794C45.6728 55.6752 45.6081 55.7953 45.5796 55.9261C45.4863 56.2128 45.3795 56.4061 44.7795 56.4661C44.7985 56.7296 44.7576 56.994 44.6596 57.2394C44.5867 57.412 44.5547 57.5991 44.5662 57.7861V57.8661L44.0796 57.9661C40.8764 58.5977 37.6238 58.9458 34.3595 59.0061C33.5529 58.6861 33.2129 58.2794 33.3529 57.7928C33.3527 57.6739 33.3392 57.5553 33.3129 57.4394C33.2729 57.1661 33.2262 56.8861 33.3595 56.7261C33.3885 56.6904 33.4252 56.6617 33.4667 56.6421C33.5083 56.6225 33.5537 56.6125 33.5996 56.6127C34.2547 56.6287 34.9056 56.7205 35.5395 56.8861C36.47 57.1705 37.4593 57.2027 38.4062 56.9794H38.5596C39.5669 56.8776 40.5546 56.633 41.4929 56.2528C41.5863 56.0328 41.9663 55.8994 42.2729 55.7994C42.3411 55.7794 42.4079 55.7549 42.4729 55.7261C42.5735 55.6476 42.6693 55.563 42.7596 55.4728C43.0263 55.2194 43.0796 55.2127 43.5729 55.4394C43.8596 55.3127 43.8595 55.2261 43.8595 55.1261C43.8543 55.0575 43.8699 54.9889 43.9045 54.9294C43.939 54.8699 43.9907 54.8222 44.0529 54.7928C44.3952 54.5068 44.8028 54.3099 45.2396 54.2194C51.3796 51.7661 57.7862 51.4594 65.3862 53.2661L65.5262 53.3461C65.5489 53.3344 65.5741 53.3283 65.5996 53.3283C65.6251 53.3283 65.6503 53.3344 65.6729 53.3461C65.7106 53.3495 65.7467 53.3623 65.7782 53.3832C65.8096 53.4042 65.8353 53.4327 65.8529 53.4661V53.4661C65.8566 53.4814 65.8566 53.4974 65.8529 53.5128L66.1995 53.6661C66.4911 53.776 66.7741 53.9075 67.0462 54.0594C67.0667 54.0768 67.0927 54.0863 67.1195 54.0863C67.1464 54.0863 67.1724 54.0768 67.1929 54.0594C67.2943 53.9452 67.3701 53.8104 67.415 53.6643C67.4598 53.5183 67.4727 53.3643 67.4529 53.2128C67.4529 53.1728 67.4529 53.1194 67.3862 53.1127C67.1462 53.1127 67.0529 52.9194 66.9662 52.7461C66.9118 52.6002 66.8112 52.4761 66.6796 52.3928C66.5263 52.2928 66.4729 52.2327 66.4596 52.0727C66.4632 52.044 66.4632 52.0148 66.4596 51.9861C66.4596 51.9861 66.4196 51.9861 66.4062 51.9861C66.1262 51.8927 65.9929 51.4728 65.8729 51.0994C65.8307 50.9533 65.7772 50.8106 65.7129 50.6728L65.6796 50.6127L65.7262 50.5727C66.3072 49.8683 66.6668 49.0078 66.7596 48.0994C66.8502 47.7485 66.9683 47.4051 67.1129 47.0727C67.3806 46.5164 67.5088 45.9031 67.4862 45.2861C67.4797 44.7054 67.5908 44.1294 67.8129 43.5928C67.8796 43.4261 67.9463 43.2394 68.0196 43.0194C68.0929 42.7994 68.0796 42.3528 68.1063 41.9594C68.1223 41.2846 68.214 40.6138 68.3796 39.9594V39.9594C68.7181 38.7202 68.9589 37.4563 69.0996 36.1794C69.6863 32.3928 70.1063 29.9128 70.5996 29.8394C70.7063 29.8394 70.7929 29.8928 70.8729 30.0528C70.5773 32.8979 70.0693 35.7168 69.3529 38.4861C68.2063 43.4727 67.0263 48.6261 67.9196 52.8861C68.1196 52.9661 68.2663 52.9861 68.3396 52.9328C68.3697 52.9039 68.3927 52.8683 68.4066 52.8289C68.4205 52.7896 68.4249 52.7475 68.4196 52.7061C68.259 52.3853 68.2303 52.0144 68.3396 51.6728C68.4306 51.3866 68.4601 51.0844 68.4263 50.7861C68.383 50.3405 68.4078 49.8909 68.4996 49.4528C68.5661 49.1126 68.5929 48.7658 68.5796 48.4194V48.4194C68.5796 48.3461 68.6262 48.2728 68.6262 48.2528C68.5742 48.2058 68.5357 48.1459 68.5146 48.0791C68.4935 48.0123 68.4906 47.941 68.5063 47.8728C68.5086 47.8287 68.5212 47.7858 68.5432 47.7476C68.5652 47.7094 68.5959 47.6768 68.6329 47.6527C69.0654 45.6233 69.3837 43.5712 69.5863 41.5061C70.2544 39.7609 70.7501 37.9545 71.0662 36.1127C71.0662 35.9194 71.1196 35.7994 71.2129 35.7994C71.2329 35.8061 71.2929 35.9061 71.2729 36.1661L71.2862 36.1794Z" fill="#342B1D"/>
<path d="M72.1405 47.1668L72.1338 47.1602L72.1405 47.1668Z" fill="#342B1D"/>
<path d="M27.193 30.3066C27.2676 30.4925 27.317 30.6876 27.3397 30.8866V30.8866C27.3064 31.0133 27.3396 31.0466 27.4663 31.1199C27.5148 31.1444 27.5581 31.1782 27.5936 31.2193C27.6291 31.2605 27.656 31.3083 27.673 31.3599C27.673 31.4933 27.673 31.4999 27.993 31.5466C28.393 31.5999 28.453 31.6266 28.4863 31.6933H28.573C28.6226 31.6866 28.673 31.6936 28.7188 31.7136C28.7647 31.7335 28.8042 31.7658 28.833 31.8066C28.833 31.8466 28.8796 31.86 28.9596 31.8066C29.009 31.7926 29.0608 31.7896 29.1115 31.7976C29.1621 31.8057 29.2104 31.8246 29.253 31.8533C29.2791 31.8692 29.3091 31.8776 29.3397 31.8776C29.3703 31.8776 29.4002 31.8692 29.4264 31.8533C29.4681 31.8444 29.5112 31.8444 29.553 31.8533C29.6244 31.8591 29.6944 31.8771 29.7597 31.9066C29.8397 31.9466 29.8664 31.9599 29.933 31.9066C32.5153 31.0626 34.8755 29.6501 36.8397 27.7733V27.7733C36.633 27.6066 36.793 27.2999 36.933 27.0266C36.9993 26.9248 37.0467 26.8119 37.073 26.6933C36.963 26.2807 36.7305 25.9112 36.4063 25.6333C36.1863 25.3933 36.0263 25.2133 36.0797 25.06C36.1013 24.8523 36.0415 24.6444 35.913 24.4799C35.8987 24.455 35.8784 24.4341 35.8539 24.4189C35.8295 24.4038 35.8017 24.395 35.773 24.3933V24.3933C35.6089 24.3704 35.4592 24.2872 35.353 24.1599C35.233 24.0399 35.153 23.9733 35.0663 23.9933C34.8879 24.0459 34.6981 24.0459 34.5197 23.9933C34.3807 23.9502 34.232 23.9502 34.093 23.9933V23.9933C32.2557 24.4638 30.592 25.4518 29.2996 26.8399L29.0663 27.0333C28.7025 27.2952 28.3713 27.5995 28.0797 27.9399C28.0108 28.0314 27.9115 28.0953 27.7996 28.1199L27.6996 28.1599V28.2066C27.6403 28.4181 27.5279 28.6109 27.373 28.7666C27.2364 28.8928 27.1368 29.0538 27.0851 29.2324C27.0334 29.411 27.0316 29.6003 27.0797 29.7799C27.0905 29.9602 27.1287 30.1378 27.193 30.3066V30.3066ZM31.933 26.1733C32.1733 25.9646 32.4585 25.814 32.7664 25.7333C32.9325 25.6766 33.095 25.6098 33.253 25.5333C33.2997 25.4266 33.4797 25.4133 33.673 25.3999C33.7485 25.4052 33.8242 25.4052 33.8997 25.3999V25.3999H33.953C34.0448 25.3821 34.1328 25.3482 34.213 25.2999C34.2869 25.2434 34.3736 25.2058 34.4655 25.1907C34.5574 25.1756 34.6515 25.1834 34.7397 25.2133C35.0067 25.2888 35.2417 25.4495 35.409 25.671C35.5763 25.8924 35.6667 26.1624 35.6663 26.4399C35.6275 26.7672 35.4909 27.0752 35.2745 27.3237C35.0581 27.5722 34.7718 27.7498 34.453 27.8333C34.3466 27.9073 34.2503 27.9947 34.1663 28.0933C33.9797 28.3 33.7663 28.5266 33.4997 28.5266H33.4063H33.353V28.4733C33.2712 28.1482 33.1129 27.8474 32.8914 27.5958C32.67 27.3442 32.3917 27.149 32.0797 27.0266C31.8197 26.8866 31.633 26.7866 31.6263 26.6199C31.6196 26.4533 31.7197 26.3133 31.933 26.2066V26.1733ZM28.1864 30.2533C28.1864 29.9533 28.1863 29.3333 28.573 29.1599C28.8797 28.8466 29.2863 28.4933 29.6463 28.2133C29.8397 28.0533 30.0264 27.9066 30.1797 27.7666C30.2336 27.6322 30.3358 27.5228 30.4663 27.4599C30.5215 27.4338 30.5819 27.4203 30.643 27.4203C30.7041 27.4203 30.7644 27.4338 30.8197 27.4599C30.9463 27.6199 31.153 27.6333 31.3863 27.6533C31.5518 27.6538 31.716 27.6808 31.873 27.7333C32.113 27.7733 32.1663 28.0799 32.2063 28.2999C32.215 28.3709 32.233 28.4403 32.2597 28.5066H32.293C32.5663 29.0666 32.113 29.3066 31.7463 29.4999C31.6358 29.5552 31.5289 29.6176 31.4264 29.6866C31.1958 29.889 30.9186 30.0311 30.6196 30.1C30.4809 30.1339 30.3449 30.1784 30.213 30.2333C30.0424 30.2711 29.8784 30.334 29.7263 30.4199C29.4837 30.5722 29.1986 30.6424 28.913 30.6199H28.8397C28.6019 30.6441 28.3637 30.5775 28.173 30.4333C28.1537 30.4054 28.1403 30.3739 28.1334 30.3407C28.1265 30.3075 28.1264 30.2732 28.133 30.2399L28.1864 30.2533Z" fill="#342B1D"/>
<path d="M49.5932 27.5408C53.5398 25.9208 57.8798 26.1609 62.0732 26.3942L63.2798 26.4609C63.2916 26.3647 63.2835 26.2671 63.2559 26.1742C63.2284 26.0813 63.1821 25.9951 63.1198 25.9209C62.5598 25.2542 60.8065 25.3142 59.8731 25.3342H59.5132C59.1829 25.37 58.8489 25.3474 58.5265 25.2675C58.1833 25.171 57.8218 25.1595 57.4731 25.2342C57.2347 25.3131 56.9804 25.3314 56.7332 25.2875H56.6065C56.5711 25.267 56.5308 25.2563 56.4898 25.2563C56.4489 25.2563 56.4086 25.267 56.3731 25.2875C56.2819 25.3402 56.1785 25.3679 56.0732 25.3679C55.9678 25.3679 55.8644 25.3402 55.7732 25.2875C55.5915 25.2466 55.4014 25.2678 55.2332 25.3475C55.0809 25.4093 54.9175 25.4389 54.7532 25.4342C54.4545 25.4977 54.1514 25.5378 53.8465 25.5542C53.3901 25.5663 52.9392 25.6565 52.5132 25.8208C52.1514 26.0404 51.7545 26.196 51.3398 26.2808C50.7805 26.3598 50.2614 26.617 49.8598 27.0142C49.8136 27.066 49.7623 27.1129 49.7065 27.1542C49.5998 27.2408 49.4932 27.3342 49.4932 27.4142C49.5146 27.4646 49.5491 27.5083 49.5932 27.5408V27.5408Z" fill="#342B1D"/>
<path d="M55.7129 30.3401C58.4796 30.1868 61.9196 30.0001 62.0863 29.7201C62.0863 29.7201 61.8662 29.5334 60.2129 29.2734C59.0507 29.3999 57.8819 29.4556 56.7129 29.4401C55.4028 29.4251 54.0931 29.4986 52.7929 29.6601L52.0129 29.7468C50.8762 29.8128 49.7543 30.0372 48.6796 30.4135C47.994 30.5452 47.3708 30.899 46.9062 31.4201C46.9062 31.4201 47.0396 31.5734 48.3129 31.1468C48.6596 30.7534 51.3596 30.5801 55.7129 30.3401Z" fill="#342B1D"/>
<path d="M33.8002 32.4604H33.8869C34.1624 32.4877 34.4298 32.5693 34.6736 32.7004C34.8227 32.7834 34.9851 32.8398 35.1536 32.867V32.867C35.4764 32.972 35.8241 32.972 36.1469 32.867C36.4261 32.8372 36.7077 32.8372 36.9869 32.867C37.1733 32.8827 37.3606 32.8827 37.5469 32.867V32.867C37.6402 32.8137 37.7936 32.7137 37.767 32.6337C37.607 32.1671 34.4336 31.8604 33.9003 31.9271C33.7936 31.9871 33.7936 32.2937 33.8002 32.4604Z" fill="#342B1D"/>
<path d="M46.6605 34.9742C46.9885 34.8149 47.3493 34.735 47.7138 34.7408C50.0841 34.5044 52.4697 34.4598 54.8472 34.6075C56.8193 34.7199 58.7965 34.7088 60.7672 34.5741C60.4959 34.4362 60.1979 34.3589 59.8938 34.3475C59.6421 34.3312 59.3946 34.2749 59.1605 34.1808L58.7739 34.0341C58.2343 33.7866 57.6474 33.6593 57.0538 33.6608V33.6608C56.8389 33.58 56.602 33.58 56.3872 33.6608C56.2375 33.7149 56.077 33.7323 55.9192 33.7114C55.7614 33.6905 55.611 33.632 55.4805 33.5408C54.8555 33.6604 54.2122 33.6445 53.5939 33.4941C53.0938 33.6371 52.5705 33.6801 52.0538 33.6208C51.8097 33.6044 51.5647 33.6044 51.3205 33.6208C51.1304 33.6128 50.9401 33.6285 50.7539 33.6675C50.4642 33.751 50.1568 33.751 49.8671 33.6675C48.4671 33.6675 46.7272 33.8675 45.5672 34.7875C45.5272 34.9475 45.5072 35.1408 45.5672 35.2208C45.6272 35.3008 46.2072 35.1408 46.6605 34.9742Z" fill="#342B1D"/>
<path d="M36.5664 36.1536C36.0464 35.2402 34.6397 35.1336 33.2797 35.0269C32.618 35.0017 31.9609 34.9056 31.3197 34.7402C30.5189 34.8339 29.7125 34.8717 28.9064 34.8536C26.8197 34.8536 24.2397 34.9069 23.873 35.7203C23.873 35.7203 23.873 35.7669 23.873 35.7802C23.873 35.7936 24.4064 35.8402 24.6597 35.8269C24.8529 35.7833 25.0533 35.7833 25.2464 35.8269C25.7931 35.8269 26.3531 35.8269 26.8864 35.8269H27.6331C28.1597 35.8269 28.6931 35.8269 29.2131 35.8869C31.5141 36.0002 33.8067 36.245 36.0798 36.6202C36.3198 36.6202 36.7464 36.4336 36.8064 36.3002C36.8664 36.1669 36.6931 36.2069 36.5664 36.1536Z" fill="#342B1D"/>
<path d="M60.7601 39.4341C60.7601 39.3608 60.8001 39.3207 60.6601 39.2074C60.2005 38.9357 59.8512 38.5109 59.6734 38.0074C59.4934 37.6407 59.32 37.2874 59.0467 37.1807C58.98 37.1807 58.92 37.1007 58.8 36.9607C58.7423 36.8859 58.6776 36.8167 58.6068 36.7541V36.7541C58.4039 36.741 58.204 36.6983 58.0134 36.6274C57.7835 36.5333 57.5329 36.5011 57.2867 36.5341C56.8432 36.714 56.4679 37.0294 56.2141 37.4352C55.9603 37.841 55.841 38.3165 55.8734 38.7941C55.8734 40.9807 57.7667 43.7408 59.28 44.3941C59.5652 44.4308 59.855 44.3879 60.1173 44.2702C60.3797 44.1526 60.6044 43.9648 60.7667 43.7274C61.4334 42.7808 61.4734 41.0141 61.04 39.9407C60.7134 39.7207 60.7201 39.5808 60.7601 39.4341ZM57.3 40.2074C57.2508 40.2056 57.2037 40.1867 57.1667 40.1541L57.1267 40.1207V40.0674C57.1536 39.8753 57.1282 39.6796 57.0534 39.5007C56.9812 39.3593 56.9487 39.2009 56.9593 39.0424C56.9699 38.884 57.0231 38.7314 57.1133 38.6008C57.2867 38.4674 57.2667 38.2274 57.2467 37.9941C57.2267 37.7607 57.2067 37.6074 57.3267 37.5141C57.3776 37.4855 57.435 37.4704 57.4934 37.4704C57.5518 37.4704 57.6092 37.4855 57.6601 37.5141C57.969 37.5702 58.2615 37.6945 58.5163 37.8778C58.7712 38.0612 58.9819 38.299 59.1334 38.5741C59.2544 38.7505 59.3857 38.9197 59.5267 39.0807C59.82 39.3474 59.8801 39.4074 59.8334 39.4874C59.7867 39.5674 59.7067 39.5341 59.5467 39.4874C59.3822 39.4219 59.2095 39.3792 59.0333 39.3607C58.769 39.3419 58.5079 39.4282 58.3067 39.6008C58.1748 39.6979 58.0315 39.7785 57.88 39.8407V39.8407C57.88 39.8407 57.7267 39.9607 57.6867 40.0141C57.6467 40.0674 57.42 40.2074 57.3 40.2074ZM60.04 41.5407C60.0766 41.8492 60.0144 42.1612 59.8622 42.432C59.71 42.7028 59.4758 42.9183 59.1933 43.0474C59.1447 43.0537 59.0954 43.0537 59.0467 43.0474C58.7267 43.0474 58.4334 42.7941 58.2267 42.3341C58.1739 42.1494 58.0643 41.9861 57.9134 41.8674C57.7134 41.6674 57.4867 41.4407 57.5867 41.0941L57.6467 41.0141C57.96 40.5807 58.4267 39.9207 58.9467 39.8607C59.1201 39.8397 59.2949 39.8876 59.4334 39.9941L59.6133 39.9274C59.7533 39.8741 59.8867 39.8141 59.98 39.8941C60.0734 39.9741 60.0467 40.0741 60.0333 40.1741C60.1565 40.6323 60.1588 41.1147 60.04 41.5741V41.5407Z" fill="#342B1D"/>
<path d="M44.9138 40.3939C45.3526 40.1105 45.8648 39.9621 46.3871 39.9672C46.7308 39.9511 47.0701 39.8837 47.3938 39.7672C47.7461 39.5853 48.1373 39.4915 48.5338 39.4939C48.803 39.48 49.0695 39.433 49.3272 39.3539C49.5051 39.3024 49.6887 39.2733 49.8738 39.2672C50.1008 39.2609 50.3255 39.2204 50.5405 39.1472C50.6665 39.0644 50.8169 39.0268 50.9671 39.0406C51.0745 39.0519 51.1829 39.0335 51.2804 38.9872C51.3585 38.9311 51.4478 38.8925 51.5422 38.874C51.6365 38.8556 51.7337 38.8579 51.8272 38.8806C51.914 38.9077 52.007 38.9077 52.0938 38.8806C52.3764 38.7684 52.6766 38.7074 52.9805 38.7005C53.1793 38.7002 53.3762 38.6618 53.5605 38.5872V38.5539C53.6235 38.4858 53.6638 38.3998 53.6758 38.3078C53.6877 38.2159 53.6707 38.1224 53.6271 38.0406C53.5024 37.9056 53.349 37.8003 53.1783 37.7322C53.0076 37.6642 52.8238 37.6351 52.6405 37.6472H52.4538C51.587 37.9179 50.6925 38.0902 49.7871 38.1605C49.3338 38.2072 48.8672 38.2606 48.3472 38.3472C47.2605 38.5672 44.1271 39.5339 44.1338 40.0406C44.1738 40.1206 44.2538 40.2739 44.9138 40.3939Z" fill="#342B1D"/>
<path d="M34.3135 39.5004C34.3168 39.4802 34.3134 39.4594 34.3037 39.4413C34.2941 39.4233 34.2788 39.4089 34.2602 39.4003C34.2226 39.3746 34.1952 39.3364 34.183 39.2925C34.1708 39.2486 34.1745 39.2018 34.1935 39.1604C34.1935 39.1604 34.2335 39.107 34.1935 39.0937C34.1535 39.0804 33.7201 38.8937 32.0401 38.987H31.8268C31.4178 38.9676 31.0115 38.9096 30.6135 38.8137C29.9826 38.6303 29.3164 38.6051 28.6735 38.7404C28.5869 38.7404 28.2669 38.8804 28.0869 38.707C27.4255 38.6009 26.7529 38.5829 26.0869 38.6537C25.5346 38.8032 24.9656 38.8816 24.3935 38.887C23.3935 38.9537 22.3935 39.0204 21.9468 39.5137C21.8726 39.6066 21.8178 39.7135 21.7857 39.828C21.7537 39.9426 21.745 40.0624 21.7602 40.1804C21.9402 40.3204 22.1935 40.2204 22.4601 40.1137C22.5934 40.0502 22.7347 40.0053 22.8802 39.9803H22.9202C23.3008 39.9647 23.6796 39.9201 24.0535 39.847C24.3421 39.7936 24.6338 39.758 24.9269 39.7404C26.8312 39.5538 28.7492 39.5538 30.6535 39.7404C31.6735 39.807 32.6535 39.867 33.5535 39.8737H33.7468L33.7001 39.9204C33.9201 39.9804 34.3668 40.0604 34.4802 39.9204C34.5419 39.8608 34.5956 39.7936 34.6402 39.7204C34.6402 39.7204 34.6068 39.7204 34.5468 39.7204C34.4002 39.707 34.3268 39.6804 34.3135 39.5004Z" fill="#342B1D"/>
<path d="M43.5866 44.5203C44.4123 44.1538 45.289 43.9155 46.1866 43.8136V43.8136C46.4887 43.816 46.788 43.757 47.0666 43.6403C47.4663 43.4582 47.918 43.4251 48.3399 43.547C48.4933 43.6137 48.5133 43.5936 48.5799 43.487L48.6332 43.4203C49.0874 43.2412 49.5717 43.1507 50.0599 43.1536C50.9866 43.0803 51.9333 43.007 52.1399 42.3737C51.812 42.4085 51.4812 42.4085 51.1533 42.3737C50.9191 42.3411 50.683 42.3233 50.4466 42.3203H50.2132C48.4599 42.507 43.3599 43.2736 42.9799 44.3203C42.959 44.3919 42.9585 44.468 42.9785 44.5398C42.9986 44.6117 43.0383 44.6765 43.0933 44.727L43.5866 44.5203Z" fill="#342B1D"/>
<path d="M33.0069 43.1328C30.9007 42.745 28.7616 42.5641 26.6202 42.5928L26.1003 42.6661C21.6003 43.2594 19.2802 43.8194 19.2002 44.3194C19.2002 44.4394 19.3536 44.5528 19.5136 44.6328C20.3469 44.5528 21.1869 44.4261 22.0002 44.3061C23.8546 43.9604 25.7429 43.8328 27.6269 43.9261C29.4345 43.8228 31.2481 43.9414 33.0269 44.2794C33.1645 44.3184 33.2985 44.3697 33.4269 44.4328C33.5822 44.5292 33.765 44.5714 33.9469 44.5528C34.1069 44.0061 34.2269 43.5794 34.0535 43.3594C33.8802 43.1394 33.5669 43.0994 33.0069 43.1328Z" fill="#342B1D"/>
<path d="M44.7531 51.7799C44.8319 51.6983 44.9273 51.6346 45.033 51.5933C49.2664 49.38 53.9531 49.52 58.4797 49.6666C59.5731 49.6666 60.6997 49.7333 61.8131 49.7333C59.4811 48.7466 56.9549 48.3043 54.4264 48.4399C51.9798 48.5599 45.2531 49.7733 44.5664 51.7733C44.5664 51.8999 44.5664 51.9266 44.5664 51.9266C44.6326 51.883 44.6951 51.834 44.7531 51.7799Z" fill="#342B1D"/>
</svg>
