<svg width="80" height="80" viewBox="0 0 80 80" fill="none" xmlns="http://www.w3.org/2000/svg">
<path d="M35.6995 29.7741C36.0462 31.9475 36.3662 32.6275 36.9929 32.2675C37.4396 32.0008 37.4462 30.3475 36.9929 28.9341C36.7919 28.255 36.6711 27.5547 36.6329 26.8475C36.6329 25.9808 36.4662 25.8408 35.1396 25.4608C32.8129 24.7941 25.5063 20.7941 23.9263 19.3275C23.5741 18.9429 23.1286 18.6559 22.6329 18.4941C22.4329 18.4941 20.7729 19.0675 18.9263 19.7208C17.0796 20.3741 15.3063 21.0541 14.9263 21.2341C12.4868 22.1871 9.99624 23.0039 7.46622 23.6808C7.31977 23.7036 7.18018 23.7584 7.05737 23.8414C6.93456 23.9243 6.83156 24.0334 6.75577 24.1608C6.67999 24.2881 6.6333 24.4307 6.61897 24.5782C6.60464 24.7257 6.62307 24.8746 6.67293 25.0141C7.07293 26.6008 7.46623 30.8475 7.80623 37.3475C7.99956 41.0008 8.21287 44.4875 8.27954 45.0941C8.3462 45.7008 8.40626 47.4075 8.41959 48.9141V51.6341L13.6195 54.2675C18.3929 56.6808 22.3729 58.3341 23.1663 58.2341C23.4979 58.1675 23.8218 58.067 24.1329 57.9341L27.4662 56.6541C29.1329 55.9875 30.1996 55.4275 30.2596 55.1141C30.3796 54.5008 29.8863 54.5808 26.0796 55.7808L23.5996 56.5608L21.4862 55.8941C20.6508 55.6478 19.837 55.3334 19.0529 54.9541C18.8796 54.8208 17.5262 54.1808 16.0462 53.5341C10.7129 51.1808 10.7129 51.1808 10.5262 50.0941C10.4395 49.5408 10.2863 46.8875 10.1863 44.1675C10.1353 40.9254 9.8232 37.6927 9.25292 34.5008C9.18626 34.1541 9.02624 32.9275 8.89957 31.8341C8.79081 30.784 8.56725 29.7489 8.2329 28.7475C7.48624 26.9675 7.77958 24.1675 8.57958 25.4541C9.29108 26.0145 10.0706 26.4827 10.8996 26.8475C12.0529 27.4275 14.8129 28.8475 16.9862 30.0341C19.1596 31.2208 21.2129 32.0941 21.5196 32.0341C21.8263 31.9741 22.0796 31.9941 22.0796 32.1208C22.0796 32.2475 22.2795 33.8608 22.5329 35.6741C22.7862 37.4875 23.0662 40.8408 23.1995 43.1075C23.3329 45.3741 23.4596 48.8075 23.5529 50.7341C23.7196 54.0008 24.0196 55.4008 24.4662 54.9475C24.9129 54.4941 25.2995 39.6808 24.9462 33.5741L24.7996 31.0341L29.2396 29.5675C35.8996 27.3208 35.2995 27.2941 35.6995 29.7741ZM23.2463 29.7741C23.1846 29.7479 23.1183 29.7342 23.0513 29.7338C22.9843 29.7334 22.9179 29.7462 22.8559 29.7716C22.7939 29.7971 22.7375 29.8345 22.6901 29.8819C22.6427 29.9292 22.6051 29.9855 22.5796 30.0475C22.4729 30.3141 22.2729 30.5141 22.0929 30.5141C21.6996 30.5141 18.6796 29.0341 15.4263 27.2608C14.3825 26.6245 13.2625 26.1228 12.0929 25.7675C11.4263 25.7675 9.7796 24.6808 10.0929 24.4341C10.2463 24.3008 11.4262 23.8808 18.0395 21.4741C21.1129 20.3608 21.6929 20.4408 25.0796 22.4408C26.7063 23.4075 29.1396 24.7208 30.4862 25.3675C31.3473 25.7227 32.1677 26.1697 32.9329 26.7008C32.8929 27.0808 23.7596 29.9608 23.2329 29.7608L23.2463 29.7741Z" fill="#342B1D"/>
<path d="M67.8468 51.1525C68.0801 51.5925 69.32 53.3124 70.6334 54.9991C73.0734 58.1458 74.2067 58.9124 72.5601 56.3324C72.174 55.7852 71.8582 55.1917 71.62 54.5658C71.3297 53.9704 70.9548 53.4203 70.5068 52.9325C70.0357 52.4341 69.6565 51.8563 69.3867 51.2258C69.1862 50.7006 68.8773 50.2236 68.4801 49.8258C67.8128 48.997 67.23 48.1037 66.7401 47.1591L65.9134 45.5258L66.36 42.0791C66.8934 37.9391 68 31.8991 68.36 31.0191C68.5134 30.6724 68.8867 29.7525 69.1934 28.9658C69.5 28.1791 69.9534 27.0725 70.2 26.4925C71.0734 24.4325 70.5801 23.0925 68.8134 22.7525C67.9067 22.5791 67.6401 22.7524 65.7334 24.6458L63.6467 26.7325V25.0658C63.6507 24.1415 63.7557 23.2205 63.96 22.3191C64.42 20.7191 63.8134 19.6524 62.38 19.5191C61.4734 19.4391 61.0468 19.6191 60.2734 20.4791C58.8896 22.1869 58.0078 24.2458 57.7267 26.4258C57.6267 27.3058 57.4401 27.9991 57.3067 27.9991C56.6332 27.2481 56.0576 26.4148 55.5934 25.5191C53.5068 21.9858 51.7667 20.0858 50.6267 20.0858C50.1044 20.1185 49.6158 20.3546 49.2655 20.7434C48.9153 21.1323 48.7315 21.6429 48.7534 22.1658C48.7534 23.0924 50.4334 27.6058 51.7734 30.2658L52.8934 32.4991L51.8334 32.3324C49.9601 32.0258 49.56 32.0191 48.3 32.2658C45.2467 32.8591 43.04 35.3258 43.04 38.1525C43.04 39.6658 42.7401 39.7391 40.5667 38.7658C38.6934 37.9325 38.7467 38.0124 39.5067 37.1858C39.7897 36.9151 40.0163 36.5911 40.1734 36.2325C39.8488 35.7973 39.4436 35.4284 38.9801 35.1458C38.3021 34.6559 37.6746 34.0999 37.1068 33.4858C36.7201 33.0325 36.2667 32.7858 36.0601 32.9125C35.5734 33.2191 36.2734 34.1258 37.9334 35.3258C39.2668 36.2858 39.2668 36.3191 38.6001 36.7791C38.2401 37.0258 37.7668 37.1458 37.5934 37.0325C37.4201 36.9191 37.0134 37.0324 36.7134 37.3124C36.18 37.7991 33.4801 38.9458 31.0667 39.7191C29.7734 40.1325 29.6867 40.1191 28.0867 39.1325C27.1801 38.5791 26.3601 38.2058 26.2601 38.3058C26.1601 38.4058 26.6068 39.0258 27.2601 39.6925C28.1134 40.5725 28.3401 40.9925 28.0867 41.2325C27.8334 41.4725 28 41.7725 28.6334 42.2791C29.12 42.6658 30.1 43.5125 30.7934 44.1525C31.4867 44.7925 33.06 46.0724 34.3 47.0191C37.1667 49.2124 37.0334 49.0591 37.3 50.4791L37.5267 51.7191L36.1401 52.0858C34.6867 52.4658 34.3934 52.9191 35.3867 53.2325C36.0534 53.4325 39.1267 52.5658 39.6734 52.0658C39.8867 51.8658 39.7534 51.5725 39.3 51.2658C38.9542 51.0669 38.6987 50.742 38.5867 50.3591C38.5867 49.9325 40 48.3058 40.3734 48.3058C40.6449 48.2053 40.8908 48.0459 41.0934 47.8391C41.6068 47.3791 43.6601 46.7591 43.2668 47.1725C42.8734 47.5858 43.74 49.8391 44.7134 51.4058C45.3056 52.2834 46.0375 53.058 46.88 53.6991C48.06 54.5391 48.4401 54.6391 50.5801 54.6391C52.7201 54.6391 53.2867 54.4858 55.4934 53.4591L58.0134 52.2791L58.4867 52.9925C59.1586 54.2932 59.7617 55.6284 60.2934 56.9925C61.5867 60.1658 62.8201 62.0324 63.0868 61.2258C62.912 60.2552 62.5881 59.3174 62.1267 58.4458C60.2867 54.3925 60.2067 54.1991 59.7267 53.0058C59.4846 52.4426 59.3751 51.8313 59.4067 51.2191C59.6867 50.1325 58.9534 50.1591 57.4734 51.2924C55.6267 52.6924 53.1867 53.4991 51.4001 53.2924C48.6934 52.9791 45.48 49.8258 45.0467 47.0458C44.8734 45.9591 44.9334 45.7458 45.3867 45.7458C46.1328 46.0146 46.8142 46.4371 47.3867 46.9858C49.2867 48.5725 50.5068 49.1858 52.1001 49.3458C54.2801 49.5658 56.1534 48.1658 56.8667 45.7791C57.4734 43.7791 56.8667 39.6125 55.8134 38.5525C54.3934 37.1391 51.4601 37.1591 48.5934 38.6058C46.7468 39.5325 46.3001 39.6525 45.6601 39.3591C44.0867 38.6391 44.9334 35.1658 46.9934 33.8058C48.5201 32.8125 51.2867 33.0258 53.9134 34.3391C56.7267 35.7458 56.5801 35.6725 56.5801 35.3858C56.1147 34.6252 55.5472 33.9321 54.8934 33.3258C52.4534 30.7991 49.9334 25.3258 49.9334 22.5991C49.9334 21.6925 50.0734 21.3324 50.4201 21.3324C51.6801 21.3324 56.8934 30.0325 56.9001 32.1525C56.9001 33.3591 57.3668 34.2925 57.7601 33.8991C57.9879 32.9501 58.0843 31.9743 58.0467 30.9991C57.9898 28.4543 58.4928 25.9281 59.5201 23.5991C60.3134 21.9658 61.2668 20.6991 61.6868 20.6991C62.1068 20.6991 62.0201 24.6991 61.6868 29.2191C61.5468 31.2191 61.5934 32.3658 61.8267 32.6925C62.1401 33.1258 62.2067 33.1191 62.4934 32.5725C62.7638 31.8662 62.9473 31.1297 63.04 30.3791C63.1695 29.4866 63.4514 28.6229 63.8734 27.8258C64.7334 26.4925 67.5068 23.8724 68.1001 23.8724C68.8401 23.8724 68.7667 24.7191 67.62 27.8724C65.54 33.7591 64.1934 39.8724 64.1801 43.4591C64.2275 45.7131 65.0732 47.877 66.5667 49.5658C67.0527 50.0439 67.4822 50.5763 67.8468 51.1525V51.1525ZM49.0801 39.4391C52.2867 37.9858 53.0334 37.9858 54.4801 39.4391C55.7267 40.6991 56.3268 44.1058 55.5934 45.7591C54.8601 47.4125 54.2601 47.9991 53.2534 48.0258C52.2467 48.0525 49.8734 47.0191 48.9001 46.1058C48.5599 45.7923 48.1731 45.5337 47.7534 45.3391C46.8667 45.0058 47.0867 44.5991 48.4201 44.0658C50.2934 43.3258 50.38 42.6791 48.78 41.3058L47.4467 40.1658L49.0801 39.4391ZM45.6068 40.9391C45.6068 41.0924 46.1934 41.6058 46.8934 42.0725L48.1734 42.9191L45.8468 44.0658C44.9753 44.4592 44.1408 44.93 43.3534 45.4725C42.8648 45.8423 42.326 46.1408 41.7534 46.3591C40.9581 46.7139 40.199 47.1448 39.4867 47.6458C38.7334 48.2324 38.6134 48.2524 38.1534 47.8124C37.9541 47.5814 37.6926 47.4125 37.4001 47.3258C37.0867 47.3258 36.16 46.6125 32.96 43.9058C31.66 42.8125 30.3601 41.7925 30.0734 41.6325C29.7867 41.4725 29.6201 41.2658 29.7267 41.1658C29.8334 41.0658 36.5801 38.4991 36.9734 38.4591C37.3669 38.6189 37.7424 38.82 38.0934 39.0591C40.0052 40.01 42.0939 40.5527 44.2267 40.6525C45.0001 40.6525 45.6068 40.7791 45.6068 40.9391Z" fill="#342B1D"/>
<path d="M33.0665 34.8794C32.5247 35.0328 31.9945 35.2244 31.4798 35.4528C30.9598 35.6861 29.9532 36.1194 29.2598 36.4194C28.3532 36.8061 28.1464 37.0061 28.5331 37.0861C29.3134 37.0315 30.0718 36.8037 30.7531 36.4194C31.5759 36.016 32.4297 35.6794 33.3064 35.4128C33.7931 35.2928 34.1865 35.0794 34.1865 34.9261C34.1865 34.6328 34.0931 34.6261 33.0665 34.8794Z" fill="#342B1D"/>
<path d="M29.5867 48.8408C27.98 46.9075 27.2333 46.8408 28.18 48.6608C29.7474 51.4032 31.8408 53.8092 34.34 55.7408C36.2733 57.1208 39.4466 58.4075 40.8933 58.4075C42.0266 58.4075 41.38 57.3808 39.9867 56.9742C36.82 56.0608 33.2733 53.2808 29.5867 48.8408Z" fill="#342B1D"/>
<path d="M36.7538 41.5328C35.6671 40.8661 35.6671 40.8661 35.0005 41.3794C33.7138 42.3194 35.6071 45.0928 37.5404 45.0928C38.2071 45.0928 38.7004 44.9128 38.8071 44.6394C39.0604 43.9928 37.9005 42.1928 36.7538 41.5328ZM37.3604 44.1528C36.9871 44.1528 36.1671 43.3394 35.7471 42.5528C35.3271 41.7661 36.0005 41.7461 36.9338 42.6261C37.6938 43.3328 37.9004 44.1528 37.3604 44.1528Z" fill="#342B1D"/>
</svg>
