<svg width="80" height="80" viewBox="0 0 80 80" fill="none" xmlns="http://www.w3.org/2000/svg">
<path d="M13.6801 72.5999C13.8442 72.4482 13.9718 72.2613 14.0534 72.0532C14.2934 70.7199 14.4467 69.3866 14.6001 68.0532C14.7067 67.0799 14.8001 66.1466 14.8867 65.2132C15.0601 63.4266 15.2401 61.5799 15.5534 59.7799C16.0273 56.1436 17.0524 52.6008 18.5934 49.2732C19.4675 47.4464 20.4631 45.6802 21.5734 43.9866C22.7934 42.1999 24.2401 40.4999 25.5734 38.8666L25.9067 38.4666C26.4867 37.7999 27.1401 37.1332 27.7734 36.4666L28.6267 35.5999L29.2201 34.9799V35.8332C29.1808 37.3698 29.0225 38.9011 28.7467 40.4132C28.5667 41.4266 28.3601 42.4132 28.1534 43.4399C28.0001 44.1799 27.8467 44.9199 27.7067 45.6599C27.5067 46.7066 27.32 47.7599 27.1334 48.8066L26.7734 50.8532C26.7734 50.9666 26.7334 51.0932 26.7201 51.2199C26.7142 51.6117 26.6012 51.9944 26.3934 52.3266C26.0334 52.7866 25.6401 53.2132 25.2534 53.6599C24.7322 54.1848 24.2571 54.7535 23.8334 55.3599C23.3578 56.1419 22.9688 56.9735 22.6734 57.8399C22.5934 58.0599 22.5068 58.2799 22.4201 58.5066C22.4298 58.5294 22.441 58.5517 22.4534 58.5732C22.5039 58.5375 22.547 58.4922 22.5801 58.4399C22.7801 58.1466 22.9534 57.8466 23.1334 57.5466C23.467 56.9317 23.8696 56.3569 24.3334 55.8332C25.8801 54.2266 27.7267 52.3532 29.7001 50.6799C30.9072 49.6449 32.2708 48.8078 33.7401 48.1999C36.6273 47.0072 39.7047 46.3411 42.8267 46.2332C43.9749 46.1223 45.1281 46.3866 46.1134 46.9866C46.7801 47.4066 47.3467 47.8799 47.4467 48.5066C47.5067 49.0199 47.2334 49.5332 46.5134 50.2866C44.8133 51.9131 42.9003 53.3013 40.8267 54.4132L40.2667 54.7466C38.7334 55.6666 37.1334 56.5266 35.6001 57.3599C34.7201 57.8332 33.8334 58.3132 32.9334 58.7999C32.5234 59.0424 32.1392 59.3261 31.7867 59.6466C31.6277 59.764 31.5202 59.9384 31.4867 60.1332C31.4867 60.3132 31.6667 60.4932 31.8134 60.6199C32.0998 60.8081 32.3027 61.0994 32.38 61.4332C32.6867 63.4332 32.8601 65.2732 31.9001 67.0732C31.3886 68.0467 30.9432 69.0534 30.5667 70.0866C30.5588 70.269 30.5907 70.451 30.6601 70.6199C30.663 70.6487 30.663 70.6777 30.6601 70.7066H30.7401C30.9134 70.7027 31.0839 70.6618 31.2401 70.5866C31.7511 70.0655 32.1864 69.4753 32.5334 68.8332C33.3801 67.2399 34.3334 65.4399 33.9867 63.3666C33.9334 63.0266 33.9067 62.6999 33.8867 62.3599C33.8867 62.2132 33.8867 62.0732 33.8867 61.9332L33.8334 61.3599L34.3534 61.5999L34.7267 61.7866C34.9422 61.8971 35.1649 61.9929 35.3934 62.0732C35.6734 62.1666 35.9667 62.2399 36.2534 62.3199C36.7333 62.429 37.2036 62.5761 37.6601 62.7599C39.4934 63.5399 40.6001 65.0932 41.6601 66.5999C42.1181 67.1815 42.3936 67.8857 42.4517 68.6237C42.5098 69.3617 42.348 70.1004 41.9867 70.7466C41.8445 70.9943 41.6864 71.2326 41.5134 71.4599C41.3207 71.7178 41.1511 71.9922 41.0067 72.2799C40.9428 72.4822 40.9224 72.6958 40.9467 72.9066V72.9866H41.0734C41.2495 73.0214 41.4307 73.0214 41.6067 72.9866C43.1001 71.8799 43.8134 70.6932 43.8534 69.2599C43.9067 67.4266 43.1867 65.8332 41.4001 64.0999L40.9534 63.6466L40.4601 63.1399L40.8334 62.9266L40.9667 62.8399C41.0411 62.7721 41.1339 62.728 41.2334 62.7132C42.2401 62.7666 43.2334 62.8866 44.2334 62.9932C46.1695 63.2935 48.1347 63.3607 50.0867 63.1932C50.9134 63.0932 51.7401 63.0066 52.5667 62.9266C53.3934 62.8466 54.4134 62.7466 55.3334 62.6199C55.6069 62.5925 55.8641 62.4769 56.0662 62.2905C56.2682 62.1041 56.4041 61.857 56.4534 61.5866C56.5534 61.2066 56.6801 60.8399 56.8067 60.4799C57.0116 59.9546 57.1613 59.4095 57.2534 58.8532C57.4201 57.5199 58.2534 57.1266 59.1334 56.6799L59.2734 56.6066C60.9534 55.7466 61.8267 54.6066 61.9401 53.0332C61.971 52.8113 61.9205 52.5858 61.798 52.3982C61.6754 52.2107 61.489 52.0739 61.2734 52.0132C61.1478 51.9478 61.0083 51.9136 60.8667 51.9136C60.7251 51.9136 60.5857 51.9478 60.4601 52.0132C60.5134 52.1066 60.5734 52.1932 60.6268 52.2799C60.8601 52.6599 61.0668 52.9866 60.9201 53.3066C60.4299 54.3523 59.626 55.2192 58.6201 55.7866L58.0801 56.1132L58.1201 55.4799C58.1201 55.2666 58.1201 55.0666 58.1201 54.8666C58.1099 54.4348 58.1479 54.0032 58.2334 53.5799C58.4092 52.8234 58.6873 52.0945 59.0601 51.4132C59.1632 51.2871 59.2921 51.1844 59.4381 51.1119C59.5841 51.0395 59.7439 50.999 59.9067 50.9932C60.0329 50.9722 60.1576 50.9432 60.2801 50.9066C62.3607 50.1864 64.1646 48.8346 65.4401 47.0399C65.7617 46.4387 65.9116 45.7606 65.8734 45.0799C65.8734 44.2066 65.2867 43.8799 64.3267 43.4199C64.1401 43.3266 63.9467 43.2399 63.7667 43.1399L63.2867 42.8866L63.7334 42.5732C63.8801 42.4666 64.0267 42.3732 64.1667 42.2799C64.4461 42.1016 64.7154 41.9079 64.9734 41.6999C65.3695 41.3642 65.7415 41.0011 66.0868 40.6132C66.3146 40.3758 66.4913 40.0941 66.6059 39.7857C66.7206 39.4772 66.7708 39.1485 66.7534 38.8199C66.7328 38.5456 66.6559 38.2786 66.5274 38.0354C66.3989 37.7922 66.2217 37.5781 66.0067 37.4066C65.5981 37.1189 65.1487 36.8941 64.6734 36.7399C64.44 36.6399 64.2001 36.5399 63.9601 36.4199L63.5334 36.2132L63.88 35.8799C64.9 34.9132 66.0067 33.7466 66.2467 32.1466C66.5801 29.8466 66.0601 28.8132 64.2467 28.2866C63.8386 28.1776 63.4213 28.1062 63.0001 28.0732L62.3334 27.9932L61.9867 27.9466L62.0534 27.5999C62.1667 27.0266 62.2867 26.4466 62.4001 25.8732C62.6601 24.6066 62.9201 23.2999 63.1467 22.0132C63.4801 20.1132 63.8134 18.0999 64.0534 16.1066C64.2934 14.1132 64.4134 12.1999 64.5467 10.2866L64.6001 9.52657C64.6142 9.33396 64.565 9.14201 64.4601 8.9799C63.1419 8.08563 61.6041 7.5692 60.0134 7.48657L59.1734 7.41324C56.8334 7.19991 54.4134 6.99991 52.0467 6.98657C48.8734 6.98657 45.6867 7.21324 42.4267 7.45324C40.2215 7.63707 38.057 8.15405 36.0067 8.98657C34.7534 9.49324 33.4934 10.0932 33.1001 11.4399C32.6722 13.0327 32.3624 14.6549 32.1734 16.2932C31.9534 17.8599 31.7667 19.4599 31.5801 21.0066C31.4201 22.3866 31.2601 23.7666 31.0734 25.1466C30.7467 27.5732 30.3334 30.0866 30.0067 32.1066C29.9553 32.4334 29.8385 32.7465 29.6632 33.0272C29.4879 33.3078 29.2579 33.5502 28.9867 33.7399C27.5694 34.7645 26.2443 35.9111 25.0267 37.1666C23.4293 38.9598 21.9273 40.8357 20.5267 42.7866C19.3896 44.2401 18.4003 45.8034 17.5734 47.4532C16.5667 49.6389 15.7503 51.9073 15.1334 54.2332C14.4471 56.9472 13.9041 59.6955 13.5067 62.4666C13.288 64.1356 13.1722 65.8166 13.1601 67.4999V67.9399C13.1226 69.3433 13.1627 70.7476 13.2801 72.1466C13.3401 72.2599 13.5334 72.4599 13.6801 72.5999ZM44.5134 54.6332L44.1867 54.5732L44.5001 54.6932C44.2467 56.0999 44.0001 57.4332 42.5401 58.1532C42.0712 58.3937 41.5536 58.5237 41.0267 58.5332C40.2932 58.5198 39.5868 58.2537 39.0267 57.7799L38.6467 57.4799L44.6467 53.9066L44.5134 54.6332ZM61.9134 29.4999L62.1667 29.4666L62.5134 29.4066C62.7901 29.3381 63.0757 29.3134 63.3601 29.3332C63.6654 29.3292 63.9679 29.3928 64.2457 29.5196C64.5235 29.6464 64.7697 29.8332 64.9667 30.0666C65.1105 30.3111 65.1977 30.5847 65.222 30.8674C65.2462 31.15 65.2068 31.4345 65.1067 31.6999C64.5597 33.5706 63.3071 35.1554 61.6134 36.1199L61.0134 36.5066L61.9134 29.4999ZM60.4001 41.4599C60.5134 40.3799 60.6201 39.4132 60.7534 38.4399C60.7954 38.2684 60.8876 38.1133 61.0182 37.9945C61.1489 37.8758 61.312 37.7987 61.4867 37.7732L62.2401 37.7399C63.0509 37.658 63.869 37.6827 64.6734 37.8132C65.3867 37.9599 65.6201 38.3132 65.6934 38.5799C65.7667 38.8466 65.7734 39.2799 65.1467 39.8532C64.4561 40.4601 63.7231 41.017 62.9534 41.5199L62.5934 41.7732C62.2601 41.9999 61.9267 42.1932 61.4867 42.4399L60.7801 42.8266L60.2134 43.1532L60.4001 41.4599ZM60.1467 44.3466H61.3867C62.1067 44.3466 62.8534 44.3466 63.5934 44.3466C63.8482 44.3405 64.0997 44.4044 64.3207 44.5313C64.5417 44.6583 64.7236 44.8434 64.8467 45.0666C64.9328 45.304 64.9497 45.561 64.8954 45.8077C64.8411 46.0544 64.7179 46.2805 64.5401 46.4599C63.2976 47.986 61.6739 49.1566 59.8334 49.8532L59.2934 50.0732L60.1467 44.3466ZM35.2934 35.8599L36.2267 29.4132C36.7956 25.471 37.3601 21.5332 37.9201 17.5999C37.9501 17.2851 37.9501 16.9681 37.9201 16.6532C37.9201 16.4999 37.9201 16.3532 37.9201 16.2132V15.9332L38.2001 15.8866C45.0267 14.6932 51.1867 13.7932 57.4667 14.8332L57.7734 14.8799L57.4667 18.1466C57.2534 20.4732 57.0401 22.8132 56.8001 25.1999C56.5867 27.2732 56.3467 29.4932 56.0001 31.6666C55.8134 32.8732 55.5734 34.0932 55.3334 35.2666C55.1201 36.3266 54.9067 37.4199 54.7267 38.4932C54.6067 39.2399 54.5201 40.0132 54.4401 40.7599C54.3467 41.6532 54.2467 42.5799 54.0801 43.4866C53.8667 44.6066 53.5467 45.7199 53.2401 46.8199C53.1134 47.2732 52.9801 47.7266 52.8601 48.1532C52.836 48.2444 52.8048 48.3336 52.7667 48.4199C52.7409 48.4709 52.7208 48.5245 52.7067 48.5799C52.6537 48.759 52.6137 48.9417 52.5867 49.1266C52.4867 49.6399 52.3934 50.1732 52.0001 50.3666C51.6495 50.5192 51.2687 50.5899 50.8867 50.5732H50.3867C50.1867 50.5732 49.9801 50.5732 49.7867 50.5732C49.5934 50.5732 49.3467 50.5732 49.1201 50.5732H48.4001L48.5134 50.1532C49.1201 47.9266 48.5134 46.8199 46.1067 45.5399C44.5867 44.7466 43.0467 44.8732 41.4401 45.0666H41.3067C39.9381 45.2396 38.582 45.5002 37.2467 45.8466C36.7801 45.9599 36.3134 46.0732 35.8467 46.1732C35.5737 46.246 35.3081 46.3442 35.0534 46.4666L34.5467 46.6799L34.1534 46.8332L34.0934 46.4132C34.0804 46.3032 34.0604 46.194 34.0334 46.0866C33.9735 45.8538 33.9532 45.6127 33.9734 45.3732C34.4001 42.1955 34.8401 39.0243 35.2934 35.8599V35.8599Z" fill="#342B1D"/>
</svg>
