<svg width="420" height="420" viewBox="0 0 420 420" fill="none" xmlns="http://www.w3.org/2000/svg">
<path d="M364.314 126.595C353.127 118.26 339.183 114.505 325.324 116.095C324.153 116.185 322.976 116.114 321.824 115.885L320.004 115.64H319.024L332.534 103.215L332.814 103.635C333.934 105.315 334.809 106.12 335.649 106.19C336.489 106.26 337.469 105.665 338.834 104.265C341.563 101.545 344.438 98.9746 347.444 96.5648C348.494 95.6898 349.614 94.8848 350.734 94.1148C352.105 93.1698 353.425 92.1534 354.689 91.0698C358.189 88.0248 362.354 84.0698 366.274 79.6598C367.689 77.9633 368.663 75.9434 369.109 73.7798C369.733 69.8259 369.286 65.7771 367.814 62.0547L367.254 60.0248C367.09 59.015 366.687 58.0589 366.078 57.2368C365.469 56.4148 364.672 55.7505 363.754 55.2997C362.74 55.0276 361.675 55.0133 360.654 55.2578C359.633 55.5023 358.69 55.998 357.909 56.6998C356.943 57.4384 356.03 58.2455 355.179 59.1148C354.409 59.9241 353.579 60.6728 352.694 61.3546C341.537 69.8203 331.01 79.0848 321.194 89.0748C317.519 92.8898 313.459 96.4596 309.539 99.8896C307.509 101.675 305.409 103.39 303.379 105.42C300.089 108.43 299.879 108.465 296.134 106.435L295.224 106.085C290.849 103.74 286.334 101.325 281.714 99.3648C276.222 97.4101 270.347 96.7746 264.564 97.5097C263.362 97.5379 262.176 97.7871 261.064 98.2447C255.919 100.625 254.449 105.63 253.644 110.705C252.839 114.324 253.459 118.114 255.375 121.288C257.291 124.462 260.357 126.776 263.934 127.75L264.529 127.96L264.109 128.45L262.184 130.655C260.62 132.26 259.191 133.993 257.914 135.835C254.939 140.21 255.254 142.03 259.594 145.53C259.682 145.608 259.751 145.705 259.793 145.815C259.836 145.925 259.852 146.043 259.839 146.16C259.858 146.24 259.858 146.324 259.839 146.405V146.65L249.619 155.925L231.594 172.305V171.22C231.594 170.205 231.594 169.26 231.594 168.385C231.594 166.46 231.874 164.885 231.909 163.1C231.962 160.6 231.868 158.099 231.629 155.61C230.789 148.05 226.589 143.955 219.939 144.06C216.421 144.321 212.998 145.323 209.894 147C205.737 149.113 202.337 152.463 200.164 156.59C199.149 158.41 198.239 160.3 197.294 162.26C196.874 163.135 196.454 163.975 195.999 164.85L195.754 165.375L195.299 164.99C192.569 162.4 189.839 159.635 187.249 156.975C182.142 151.506 176.631 146.429 170.764 141.785C170.717 142.051 170.717 142.323 170.764 142.59C183.153 157.813 196.679 172.076 211.224 185.255L214.444 188.335L214.059 188.65L212.799 189.665C211.967 190.228 211.215 190.899 210.559 191.66C206.429 196.875 202.054 202.51 197.224 208.915C196.783 209.549 196.506 210.282 196.419 211.05L196.769 211.365C197.854 212.345 199.394 213.675 200.269 213.535C208.377 212.318 216.013 208.959 222.389 203.805C223.509 202.965 224.594 202.02 225.644 201.11L227.079 199.85L227.324 199.64L227.604 199.85L231.104 202.405C233.694 204.26 236.389 206.15 238.944 208.11C242.444 210.805 245.944 213.675 249.444 216.475L250.879 217.665L255.814 221.83L261.029 226.205C261.348 226.559 261.736 226.844 262.17 227.042C262.603 227.241 263.072 227.349 263.549 227.36C263.994 227.268 264.384 227.004 264.634 226.625C264.914 226.205 264.424 224.49 263.619 223.475C262.775 222.474 261.811 221.581 260.749 220.815L259.454 219.765L255.324 216.265C252.069 213.43 248.674 210.525 245.279 207.76C241.884 204.995 239.049 202.79 235.724 200.2L231.104 196.7L230.719 196.385L234.009 193.235L241.009 186.235L243.599 183.75L250.984 176.75C251.754 175.98 252.594 175.28 253.399 174.545C254.204 173.81 255.954 172.305 257.144 171.045C258.334 169.785 260.399 168.07 262.919 170.345C263.59 170.755 264.379 170.928 265.159 170.835C267.644 170.835 270.164 170.625 272.579 170.52L276.429 170.31L275.624 171.115L273.524 173.145C271.864 174.67 270.298 176.295 268.834 178.01C268.32 178.601 267.931 179.291 267.691 180.037C267.45 180.782 267.363 181.569 267.434 182.35C267.494 182.998 267.691 183.626 268.01 184.193C268.33 184.76 268.765 185.253 269.289 185.64C271.279 187.156 273.386 188.514 275.589 189.7C276.394 190.086 277.29 190.244 278.179 190.155H278.844C282.064 190.155 285.424 189.805 288.679 189.35C294.594 188.58 300.614 187.67 306.424 186.795L313.424 185.78L327.039 183.785L326.584 184.555C326.475 184.779 326.318 184.976 326.125 185.133C325.931 185.29 325.706 185.403 325.464 185.465L318.219 187.53C313.354 188.895 308.349 190.295 303.414 191.73L300.789 192.5C296.589 193.725 292.249 194.985 288.119 196.63C286.679 197.173 285.39 198.055 284.36 199.2C283.331 200.345 282.592 201.72 282.204 203.21C281.947 204.448 281.991 205.73 282.332 206.948C282.673 208.166 283.301 209.285 284.164 210.21C285.421 211.78 287.021 213.041 288.841 213.897C290.661 214.752 292.653 215.179 294.664 215.145H295.749C304.415 214.693 313.049 213.77 321.614 212.38C328.645 210.959 335.524 208.873 342.159 206.15C347.66 203.924 353.014 201.352 358.189 198.45L358.609 198.205C360.608 197.009 362.463 195.588 364.139 193.97L364.874 193.305C365.119 193.13 365.189 192.57 365.224 192.08C365.259 191.59 365.224 191.8 365.224 191.695C364.665 191.662 364.104 191.662 363.544 191.695C363.249 191.734 362.964 191.829 362.704 191.975H362.459L354.899 195.475C349.089 198.135 343.069 200.865 337.084 203.42C333.41 205.007 329.572 206.18 325.639 206.92C319.304 208.005 312.794 208.88 306.494 209.685L300.824 210.455C298.646 210.995 296.371 211.017 294.183 210.518C291.995 210.02 289.954 209.015 288.224 207.585C287.801 207.259 287.457 206.84 287.22 206.361C286.984 205.881 286.86 205.354 286.859 204.82C286.88 204.36 287.005 203.91 287.223 203.504C287.441 203.098 287.747 202.746 288.119 202.475C289.959 200.799 292.112 199.503 294.454 198.66C298.689 197.54 303.029 196.49 307.194 195.51C311.359 194.53 316.364 193.34 320.914 192.01C324.738 190.9 328.407 189.313 331.834 187.285L333.199 186.515C337.858 183.502 342.911 181.147 348.214 179.515H348.879C350.034 179.44 351.145 179.048 352.091 178.381C353.036 177.714 353.777 176.798 354.234 175.735H353.149C352.198 175.595 351.231 175.595 350.279 175.735C348.319 176.05 346.359 176.47 344.434 176.89C342.509 177.31 340.409 177.73 338.379 178.08L317.869 181.58L304.884 183.645C303.029 183.925 301.104 184.31 299.284 184.695C293.408 186.241 287.298 186.692 281.259 186.025C279.359 185.608 277.53 184.912 275.834 183.96L273.489 182.875H273.279L272.999 181.125C274.014 180.32 275.029 179.41 275.974 178.57C278.126 176.58 280.471 174.81 282.974 173.285C289.381 169.712 296.316 167.184 303.519 165.795C305.304 165.445 307.019 165.025 308.804 164.605C313.05 163.442 317.399 162.692 321.789 162.365C325.989 162.19 330.259 161.63 334.424 161.105L340.479 160.405L354.199 158.97L358.959 158.48C358.38 157.216 357.412 156.171 356.197 155.497C354.981 154.823 353.582 154.556 352.204 154.735C351.558 154.755 350.914 154.825 350.279 154.945C349.749 155.063 349.211 155.145 348.669 155.19L339.779 155.68C334.039 155.96 328.089 156.275 322.279 156.765H321.299C314.021 157.221 306.776 158.097 299.599 159.39C293.929 160.545 288.259 162.155 282.799 163.73C279.964 164.535 277.059 165.375 274.154 166.11L273.489 166.285C271.619 166.916 269.652 167.212 267.679 167.16C266.41 166.902 265.214 166.364 264.179 165.585C263.724 165.305 263.234 164.99 262.744 164.745L262.289 164.535L262.569 164.115C262.823 163.718 263.056 163.309 263.269 162.89C263.743 161.872 264.395 160.948 265.194 160.16C267.089 158.559 269.089 157.086 271.179 155.75L271.564 155.47C277.822 151.804 284.666 149.247 291.794 147.91H292.354C297.464 146.65 302.854 145.74 307.894 144.865L312.479 144.06L315.979 143.43C320.178 142.561 324.419 141.907 328.684 141.47C331.75 141.295 334.823 141.295 337.889 141.47C339.639 141.47 341.389 141.47 343.244 141.47C346.342 141.501 349.439 141.349 352.519 141.015C353.534 141.015 355.214 140.385 355.004 138.495C354.794 136.605 353.744 136.71 351.994 136.64H348.494C346.149 136.64 343.769 136.64 341.494 136.325C332.206 135.856 322.895 136.537 313.774 138.355L309.574 139.02C303.869 139.93 297.989 140.84 292.074 141.505C289.064 141.855 285.984 141.925 283.009 141.995H278.914L275.239 142.17C272.124 142.17 268.904 142.485 265.719 142.485C265.041 142.441 264.38 142.256 263.778 141.942C263.175 141.629 262.644 141.194 262.219 140.665C261.624 139.895 262.884 137.9 263.479 137.165C269.452 131.06 277.144 126.921 285.529 125.3C291.968 123.809 298.49 122.699 305.059 121.975L307.614 121.66C312.624 120.961 317.676 120.61 322.734 120.61C328.259 120.667 333.771 121.158 339.219 122.08C340.374 122.08 341.564 122.395 342.719 122.5C346.26 122.564 349.723 123.553 352.764 125.37L356.684 127.96C360 129.949 363.086 132.296 365.889 134.96C373.799 143.01 376.844 153.755 378.629 162.26C379.441 165.787 379.529 169.443 378.885 173.004C378.241 176.566 376.88 179.96 374.884 182.98C374.114 184.205 373.309 185.43 372.504 186.48C371.699 187.53 370.194 189.98 369.004 191.625C368.75 192.152 368.595 192.721 368.549 193.305C368.549 193.305 368.549 193.55 368.549 193.69H369.144C369.753 193.842 370.39 193.842 370.999 193.69C374.431 191.618 377.36 188.81 379.575 185.469C381.79 182.128 383.237 178.337 383.809 174.37C385.288 164.843 383.682 155.093 379.224 146.545C376.123 138.683 370.975 131.795 364.314 126.595ZM227.114 165.095C227.114 165.97 227.114 166.845 227.114 167.72C227.254 170.214 227.254 172.715 227.114 175.21C226.829 176.92 226.037 178.505 224.839 179.76C223.927 180.817 222.933 181.801 221.864 182.7C221.304 183.225 220.709 183.715 220.149 184.275C219.937 184.526 219.674 184.73 219.379 184.874C219.084 185.019 218.763 185.101 218.434 185.115C217.716 185.048 217.045 184.725 216.544 184.205C211.399 179.34 206.674 174.93 202.054 170.695C201.251 169.889 200.742 168.837 200.609 167.707C200.475 166.577 200.726 165.435 201.319 164.465C202.523 161.167 204.42 158.167 206.884 155.667C209.348 153.168 212.32 151.226 215.599 149.975C217.946 149.094 220.496 148.899 222.949 149.415C223.888 149.824 224.725 150.434 225.403 151.202C226.08 151.97 226.58 152.877 226.869 153.86C227.39 156.373 227.706 158.925 227.814 161.49C227.814 162.54 227.814 163.59 228.059 164.605V165.06L227.114 165.095ZM296.484 113.085L295.399 114.45C294.524 115.5 293.649 116.62 292.704 117.635C292.134 118.338 291.346 118.831 290.464 119.035C282.473 119.972 274.775 122.609 267.889 126.77L267.574 126.98L267.329 126.7L265.999 125.055C265.089 123.9 264.214 122.85 263.304 121.835C262.097 120.749 261.136 119.418 260.484 117.931C259.833 116.444 259.506 114.836 259.526 113.212C259.546 111.589 259.912 109.988 260.6 108.518C261.287 107.047 262.281 105.74 263.514 104.685C264.288 103.928 265.305 103.469 266.384 103.39H267.224C273.251 103.17 279.245 104.368 284.724 106.89L292.634 110.635L296.134 112.35L296.659 112.595L296.484 113.085Z" fill="#342B1D"/>
<path d="M252.28 234.325C252.648 234.061 252.948 233.713 253.155 233.31V233.135C252.745 233.006 252.305 233.006 251.895 233.135L247.135 235.06C242.677 236.706 238.338 238.659 234.15 240.905C227.15 244.895 220.15 249.27 213.5 253.505L203.98 259.49L187.18 269.78L179.725 274.085L168.245 263.9V263.585C168.245 262.885 168.56 262.185 168.735 261.52C169.085 259.98 169.435 258.51 169.715 257.005V256.06C170.123 254.098 170.392 252.11 170.52 250.11C170.52 246.295 167.02 240.87 163.52 240.52C160.667 240.438 157.835 241.038 155.26 242.27C153.491 243.169 151.835 244.273 150.325 245.56L148.12 247.24L147.105 247.975L147.455 246.785C147.735 245.77 148.05 244.755 148.365 243.775C149.051 241.687 149.612 239.56 150.045 237.405C150.903 233.187 151.372 228.899 151.445 224.595C151.512 223.042 151.059 221.511 150.159 220.244C149.259 218.976 147.963 218.044 146.475 217.595C144.347 216.884 142.068 216.76 139.875 217.234C137.683 217.708 135.659 218.764 134.015 220.29L131.6 222.215L129.115 224.175L129.36 222.425C129.675 220.36 129.885 218.925 130.095 217.315C130.874 212.827 130.057 208.208 127.785 204.26C126 201.25 122.535 199.36 120.54 200.305C118.327 201.394 116.267 202.771 114.415 204.4C113.501 205.221 112.691 206.149 112 207.165C111.685 207.585 111.405 207.97 111.09 208.32L110.11 209.51L110.32 208.005L110.845 204.085C111.265 201.18 111.685 198.17 111.965 195.16C112.108 194.258 112.056 193.335 111.815 192.454C111.573 191.573 111.147 190.754 110.565 190.05C109.926 189.395 109.157 188.882 108.307 188.544C107.456 188.206 106.544 188.052 105.63 188.09H105.42C103.611 188.183 101.844 188.67 100.242 189.516C98.64 190.363 97.2418 191.548 96.145 192.99C95.27 193.935 94.4301 194.915 93.5901 195.86L92.2251 197.4L91.9102 197.12L87.2199 193.13C79.2348 186.767 71.8003 179.742 64.995 172.13L64.5399 171.57L80.7099 167.86V168.42C80.7099 168.945 80.7099 169.4 80.7099 169.855C80.7099 170.31 80.7099 171.64 80.7099 172.515C80.4999 174.825 80.9201 175.77 82.2151 176.015C82.7051 176.015 83.9302 174.755 84.4552 173.565C84.9121 172.43 85.2748 171.26 85.5399 170.065C85.5399 169.365 85.855 168.7 86.03 168.035C86.205 167.37 86.5552 166.39 87.1152 166.215C89.9502 165.375 92.82 164.64 95.62 163.905L98.4552 163.135V163.625C98.4552 164.22 98.455 164.78 98.7 165.34C98.875 166.67 99.0502 167.93 99.3302 169.155C99.4294 169.391 99.5773 169.603 99.7642 169.778C99.9512 169.953 100.173 170.087 100.415 170.17C100.66 170.17 101.325 169.715 101.535 169.26C102.06 168 102.55 166.67 103.005 165.375L103.915 162.96V162.75C104.16 162.05 104.44 161.28 105.035 161.07C108.15 159.845 111.3 158.725 114.625 157.57L118.335 156.24V156.905C118.335 157.5 118.335 158.06 118.335 158.585C118.174 159.406 118.174 160.25 118.335 161.07C118.638 161.84 119.09 162.541 119.665 163.135C119.665 163.135 119.98 163.52 120.155 163.73L120.82 163.345C121.483 163.066 122.053 162.605 122.465 162.015C122.856 161.015 123.115 159.968 123.235 158.9C123.235 158.2 123.48 157.535 123.655 156.835C123.83 156.135 124.285 154.63 125.055 154.315C127.645 153.3 130.235 152.425 132.965 151.515L135.73 150.57H136.29V151.13C136.286 152.174 136.084 153.207 135.695 154.175C135.03 156.065 134.575 157.43 136.78 158.55C137.975 158.029 139.006 157.195 139.764 156.135C140.522 155.075 140.978 153.829 141.085 152.53C141.47 150.85 141.96 149.03 143.01 148.75C145.74 147.665 148.645 146.79 151.445 145.95L154.525 145.005L155.225 144.795V145.495C155.016 146.509 154.663 147.487 154.175 148.4C153.888 148.973 153.653 149.57 153.475 150.185C153.287 151.308 153.538 152.461 154.175 153.405C154.935 153.578 155.732 153.466 156.415 153.09L157.15 152.25C158.995 150.406 160.219 148.033 160.65 145.46C161.008 144.238 161.774 143.176 162.82 142.45C163.33 142.003 163.881 141.605 164.465 141.26C165.097 140.885 165.685 140.439 166.215 139.93C166.42 139.665 166.563 139.359 166.636 139.032C166.709 138.705 166.708 138.367 166.635 138.04C166.355 137.585 165.305 137.34 164.465 137.305C163.845 137.36 163.234 137.489 162.645 137.69L161.595 138.005H161.245V137.62C161.245 137.27 160.965 136.955 160.86 136.605C160.649 135.997 160.403 135.401 160.125 134.82C159.74 134.05 159.39 133.28 159.04 132.475C158.251 130.552 157.216 128.741 155.96 127.085C150.745 120.715 144.2 119.665 138.46 124.215C137.326 125.127 136.273 126.134 135.31 127.225L133.07 129.465C132.339 130.202 131.373 130.66 130.34 130.76C128.276 130.611 126.228 130.295 124.215 129.815C121.645 129.317 118.994 129.439 116.48 130.169C113.967 130.899 111.663 132.218 109.76 134.015C108.642 134.788 107.36 135.291 106.015 135.485C104.475 135.835 102.9 136.115 101.36 136.395C98.3498 136.837 95.3859 137.552 92.5049 138.53L92.0499 138.705C88.0349 140.635 83.57 141.433 79.1351 141.015C77.2525 140.834 75.354 141.108 73.5997 141.815C71.8454 142.522 70.2867 143.64 69.0551 145.075C68.2344 145.902 67.2283 146.52 66.1203 146.879C65.0124 147.238 63.8347 147.328 62.6853 147.14H61.8449C58.5877 147.153 55.4019 148.095 52.6616 149.856C49.9213 151.617 47.7406 154.123 46.3751 157.08C45.8468 158.605 45.4599 160.174 45.2199 161.77C45.0234 163.093 44.7428 164.403 44.3799 165.69C43.7522 167.899 43.5744 170.211 43.8569 172.489C44.1395 174.768 44.877 176.967 46.0252 178.955C46.5055 180.215 47.2854 181.339 48.2977 182.229C49.3101 183.119 50.5241 183.75 51.8349 184.065C52.5787 184.117 53.3257 184.034 54.0399 183.82H54.7402V183.33C54.6327 182.668 54.4445 182.022 54.1801 181.405C53.7601 180.425 53.27 179.48 52.78 178.535C51.8735 176.877 51.1123 175.144 50.5049 173.355C49.693 169.495 50.0214 165.482 51.45 161.805C51.45 161.35 51.6949 160.895 51.8349 160.475C52.3515 158.717 53.4499 157.187 54.95 156.135C56.1531 155.049 57.5914 154.257 59.1519 153.82C60.7125 153.383 62.3531 153.313 63.9452 153.615H64.2951V153.965C64.2951 155.225 63.9099 156.45 63.6649 157.675C62.8599 161.875 62.09 165.83 65.87 169.33L66.2899 169.715L65.7999 170.03L64.995 170.52C64.155 171.01 63.2448 171.535 63.1398 172.2C63.1161 172.485 63.1573 172.772 63.2603 173.038C63.3634 173.305 63.5258 173.545 63.735 173.74L65.7302 176.26C68.473 179.961 71.4665 183.469 74.69 186.76C78.19 190.26 82.0402 193.305 85.7852 196.315L90.6502 200.305L90.895 200.515V200.795C90.58 201.6 90.1953 202.44 89.8103 203.28C88.8406 205.229 88.0326 207.254 87.395 209.335C83.8033 221.956 82.047 235.029 82.1801 248.15C82.2514 249.538 82.427 250.919 82.7052 252.28L82.8799 253.155C83.1249 254.555 83.3351 255.99 83.5451 257.39C84.1401 261.1 84.7351 264.95 85.6801 268.625C86.3451 271.145 88.5501 272.825 92.2951 273.7C92.7368 273.723 93.1782 273.651 93.5901 273.49H93.8349C93.8349 273.49 93.8349 273.49 93.8349 273.245C93.691 272.796 93.5038 272.362 93.2752 271.95C92.7152 271.005 92.0852 270.06 91.4552 269.15C90.0933 267.276 88.9209 265.271 87.9552 263.165C87.4033 261.534 87.2004 259.805 87.36 258.09C87.36 257.425 87.36 256.795 87.36 256.165C87.36 254.695 87.3602 253.19 87.1152 251.72C86.8703 247.979 86.8703 244.226 87.1152 240.485C87.5702 234.08 88.55 227.64 89.495 221.375L89.7752 219.52C90.5773 211.959 93.4473 204.766 98.0702 198.73L98.735 197.925C99.511 196.566 100.604 195.414 101.92 194.567C103.236 193.72 104.737 193.203 106.295 193.06C106.711 192.994 107.136 193.025 107.538 193.153C107.939 193.281 108.304 193.501 108.605 193.795C108.83 194.104 108.981 194.46 109.047 194.836C109.114 195.212 109.095 195.598 108.99 195.965C108.99 197.225 108.64 198.485 108.5 199.745C108.22 201.845 107.975 204.05 107.485 206.185C106.295 211.435 105.035 216.685 103.985 221.9C102.375 228.55 100.765 235.375 99.2951 242.165C97.318 250.185 96.2727 258.406 96.1801 266.665C96.2997 270.963 97.7758 275.112 100.397 278.52C103.019 281.927 106.652 284.418 110.775 285.635H111.16V286.02C110.506 287.976 110.493 290.089 111.123 292.053C111.752 294.017 112.991 295.729 114.66 296.94C114.935 297.203 115.119 297.546 115.185 297.92C115.17 298.06 115.17 298.2 115.185 298.34C115.815 299.703 116.743 300.907 117.9 301.864C119.056 302.821 120.413 303.507 121.87 303.87C123.242 304.194 124.668 304.211 126.048 303.921C127.427 303.63 128.725 303.039 129.85 302.19L130.27 301.875L130.48 302.33C130.795 302.995 131.11 303.625 131.39 304.29C131.97 305.755 132.709 307.152 133.595 308.455C135.166 310.686 137.039 312.688 139.16 314.405C141.622 316.558 144.41 318.306 147.42 319.585C150.52 320.718 153.833 321.149 157.119 320.847C160.406 320.544 163.584 319.515 166.425 317.835C166.944 317.484 167.549 317.278 168.175 317.24C168.618 317.281 169.046 317.426 169.423 317.663C169.8 317.9 170.116 318.223 170.345 318.605L171.22 319.76C172.865 321.825 174.51 323.96 176.33 325.85L177.52 327.11C182.7 332.5 188.02 338.1 193.55 343.35C197.715 347.305 202.125 351.155 206.395 354.865L212.1 359.905L213.675 361.305C214.865 362.39 216.09 363.51 217.385 364.525C218.68 365.54 219.835 365.715 220.885 364.525C221.935 363.335 221.69 362.25 220.885 361.025C219.408 359.114 217.794 357.312 216.055 355.635C213.675 353.43 211.19 351.26 208.775 349.195L204.89 345.695L201.39 342.545C198.135 339.71 194.81 336.77 191.625 333.76C187.53 329.875 183.505 325.605 180.25 322.14C178.675 320.46 177.1 318.64 175.595 316.96C174.09 315.28 173.075 314.055 171.745 312.655C171.312 312.082 170.68 311.693 169.974 311.563C169.267 311.434 168.538 311.573 167.93 311.955C165.116 313.264 162.155 314.227 159.11 314.825C156.503 315.262 153.842 315.262 151.235 314.825C148.708 314.27 146.324 313.197 144.233 311.672C142.143 310.148 140.391 308.206 139.09 305.97C137.092 303.43 135.66 300.492 134.894 297.352C134.127 294.213 134.042 290.945 134.645 287.77C136.338 278.977 139.384 270.499 143.675 262.64C147.07 255.84 152.278 250.111 158.725 246.085C159.456 245.643 160.284 245.383 161.136 245.328C161.989 245.274 162.843 245.425 163.625 245.77C164.27 246.116 164.819 246.617 165.223 247.228C165.626 247.839 165.871 248.541 165.935 249.27C166.258 251.746 166.055 254.263 165.34 256.655C163.695 262.01 161.84 267.365 159.88 272.58L158.795 275.52C158.41 276.605 158.025 277.655 157.605 278.74C155.297 284.236 153.732 290.015 152.95 295.925C152.748 296.958 152.782 298.023 153.049 299.041C153.315 300.059 153.808 301.004 154.49 301.805L156.17 293.16L156.695 293.51L160.895 296.135C164.395 298.27 167.545 300.3 170.87 302.26C171.741 302.868 172.746 303.259 173.8 303.399C174.853 303.539 175.925 303.425 176.925 303.065C182.753 300.708 188.093 297.29 192.675 292.985L192.92 292.775C194.085 291.665 195.325 290.636 196.63 289.695L208.425 281.82L221.165 273.315L227.36 268.975C230.475 266.77 233.695 264.46 237.02 262.395C241.01 259.875 245.14 257.46 249.165 255.115C252.105 253.4 255.185 251.615 258.16 249.795C259.782 248.71 261.263 247.429 262.57 245.98C262.656 245.623 262.656 245.252 262.57 244.895V244.65C262.184 244.681 261.805 244.775 261.45 244.93L251.265 250.565L246.995 252.945L242.235 255.535C238.735 257.39 235.235 259.28 231.98 261.38C226.555 264.88 221.2 268.59 215.985 272.195L209.615 276.605L206.71 278.6L204.085 280.455L199.43 283.64L191.38 289.17C189.875 290.22 188.44 291.27 186.97 292.355C184.52 294.14 182.035 295.855 179.445 297.64C178.415 298.463 177.166 298.965 175.853 299.083C174.539 299.201 173.221 298.931 172.06 298.305C168.28 296.1 163.835 293.44 159.285 290.64C158.917 290.372 158.627 290.009 158.449 289.59C158.27 289.171 158.208 288.711 158.27 288.26C159.53 284.76 160.86 281.505 162.155 278.285L163.415 275.065L163.87 275.38C165.095 276.185 166.32 276.99 167.58 277.76C170.558 279.583 173.432 281.569 176.19 283.71C177.94 285.11 178.92 284.585 180.39 283.71L185.08 280.21C187.81 278.25 190.61 276.22 193.55 274.435C197.575 271.985 201.81 269.64 205.87 267.435C208.46 266.035 211.015 264.6 213.57 263.13C217.84 260.715 222.145 258.16 226.275 255.71L231.98 252.21L235.48 250.075C238.98 248.01 242.69 245.875 246.26 243.67C246.685 243.288 247.009 242.807 247.205 242.27C246.665 242.225 246.122 242.321 245.63 242.55C241.535 244.79 237.405 247.135 233.415 249.55L223.265 255.36C215.028 260.027 206.792 264.693 198.555 269.36C198.15 269.555 197.709 269.663 197.26 269.675C196.899 269.652 196.536 269.652 196.175 269.675L194.74 269.92L195.79 268.905L196.49 268.24C196.681 268.022 196.892 267.823 197.12 267.645L204.12 263.305C208.495 260.575 213.045 257.775 217.49 254.94C220.115 253.26 222.81 251.44 225.365 249.76C233.851 243.81 242.859 238.644 252.28 234.325ZM138.32 131.005L139.65 129.955C140.754 129.031 141.924 128.189 143.15 127.435C144.349 126.642 145.802 126.329 147.221 126.556C148.64 126.782 149.923 127.533 150.815 128.66C152.503 130.801 153.904 133.155 154.98 135.66L155.715 137.13C155.791 137.295 155.83 137.474 155.83 137.655C155.83 137.836 155.791 138.015 155.715 138.18C155.484 138.844 155.008 139.394 154.385 139.72C151.62 140.665 148.855 141.505 146.195 142.275L143.815 142.975H143.5V142.695C142.94 141.82 142.38 140.98 141.89 140.175C140.827 138.515 139.658 136.925 138.39 135.415C138.057 135.098 137.79 134.718 137.604 134.298C137.418 133.878 137.316 133.425 137.305 132.965C137.372 132.204 137.737 131.499 138.32 131.005ZM134.155 139.72L135.485 139.3L138.215 144.655L133 145.81L134.155 139.72ZM114.17 136.22C116.383 135.002 118.833 134.278 121.353 134.096C123.872 133.915 126.4 134.281 128.765 135.17H129.045V135.485C129.045 136.5 129.045 137.445 129.045 138.355C129.045 140.875 129.045 143.29 129.045 145.635C128.955 146.066 128.77 146.472 128.503 146.823C128.237 147.174 127.896 147.462 127.505 147.665C126.727 148.037 125.92 148.342 125.09 148.575L123.9 148.925H123.48V148.54C121.485 143.43 119.42 139.02 114.38 136.745L113.61 136.395L114.17 136.22ZM104.965 140.21V141.96C104.965 142.625 104.965 143.185 104.965 143.71C104.965 144.235 104.965 144.55 104.965 144.97C104.772 145.834 104.772 146.731 104.965 147.595C105.359 148.611 105.914 149.556 106.61 150.395L107.135 151.13L107.555 150.535C108.19 149.833 108.72 149.044 109.13 148.19C109.648 146.768 109.989 145.286 110.145 143.78V143.29C110.355 141.995 111.02 141.61 111.405 141.505C111.73 141.439 112.067 141.466 112.377 141.584C112.686 141.702 112.956 141.905 113.155 142.17C115.082 144.391 116.871 146.729 118.51 149.17C118.547 149.246 118.566 149.33 118.566 149.415C118.566 149.5 118.547 149.584 118.51 149.66C118.17 150.438 117.579 151.079 116.83 151.48C113.96 152.565 111.02 153.545 108.43 154.42L105.735 155.33L94.5352 142.24L104.965 140.21ZM85.8552 154.63L88.4452 146.825L88.9002 147.035L90.7549 147.91C92.2573 148.486 93.6807 149.25 94.9902 150.185C96.6022 151.653 97.9413 153.395 98.9452 155.33C99.0081 155.467 99.0405 155.617 99.0405 155.768C99.0405 155.919 99.0081 156.068 98.9452 156.205C98.7021 157.021 98.1979 157.734 97.5101 158.235C96.2974 158.816 95.0154 159.24 93.6952 159.495H93.065L92.0149 159.775C91.2632 160.065 90.4734 160.241 89.6701 160.3C89.5046 160.319 89.3371 160.3 89.1796 160.245C89.0222 160.191 88.8788 160.102 88.7601 159.985C87.8347 158.957 87.1 157.771 86.5901 156.485C86.3451 155.96 86.1002 155.435 85.8202 154.945L85.8552 154.63ZM73.1853 148.015C73.8736 147.231 74.7449 146.629 75.7218 146.263C76.6988 145.896 77.751 145.777 78.7852 145.915C79.8344 145.937 80.882 145.82 81.9002 145.565L82.6001 145.355L80.5702 154.945L72.94 148.365L73.1853 148.015ZM68.9149 153.58H69.44C73.4889 155.371 76.7656 158.548 78.6801 162.54L79.52 163.905L67.1299 168.595L68.9149 153.58ZM111.51 272.965C111.055 275.59 110.635 278.32 110.145 281.085V281.855L109.375 281.155C105.245 277.655 101.325 274.155 100.835 268.59C100.354 260.506 101.121 252.396 103.11 244.545C103.32 243.635 103.495 242.725 103.67 241.815C104.355 238.267 105.243 234.761 106.33 231.315C108.756 222.457 113.013 214.206 118.825 207.095C120.12 205.66 121.17 205.1 122.115 205.24C123.06 205.38 123.83 206.22 124.6 207.83C125.506 209.678 125.927 211.725 125.825 213.78C125.306 218.989 124.382 224.15 123.06 229.215C121.94 233.275 120.645 237.335 119.35 241.29C117.775 246.155 116.13 251.16 114.87 256.2C113.61 261.24 112.455 267.085 111.51 273.105V272.965ZM141.4 249.48C138.495 256.48 135.94 263.48 133.455 270.48L131.53 275.835C130.472 278.461 129.709 281.196 129.255 283.99C128.835 287.49 128.66 290.605 128.485 294.105C128.485 295.61 128.485 297.15 128.205 298.69V299.11H126.105C120.575 299.11 119.105 297.745 116.83 292.88C115.372 289.206 115.09 285.171 116.025 281.33V280.7C117.04 273.455 118.055 267.19 119.14 261.45C121.065 251.37 123.725 239.785 130.865 229.95C132.061 227.801 133.683 225.918 135.634 224.42C137.584 222.921 139.82 221.837 142.205 221.235C142.812 221.107 143.439 221.113 144.044 221.252C144.648 221.391 145.215 221.66 145.705 222.04C146.155 222.497 146.498 223.048 146.71 223.653C146.922 224.258 146.997 224.902 146.93 225.54C146.596 233.829 144.721 241.983 141.4 249.585V249.48ZM195.475 270.48L178.64 282.59L164.64 272.51L166.985 267.365L168.63 266.175L168.875 266.56L169.61 267.855C170.021 268.744 170.59 269.551 171.29 270.235C178.57 276.605 180.46 276.85 189.525 272.44L190.085 272.16C191.18 271.548 192.36 271.1 193.585 270.83L195.475 270.48Z" fill="#342B1D"/>
<path d="M107.414 297.956C106.924 295.891 104.894 296.136 103.914 296.311C103.415 296.38 102.909 296.38 102.409 296.311C101.944 296.255 101.474 296.255 101.009 296.311L89.3193 299.461L75.004 303.346C70.909 304.396 66.7093 305.411 62.6493 306.391L59.1493 307.266L48.2294 309.856L42.4543 311.221V310.836C42.3025 310.57 42.2295 310.266 42.2441 309.961L42.7691 304.641C43.2591 299.776 43.749 294.736 44.379 289.801C44.904 285.811 45.534 281.786 46.094 277.866C46.934 272.371 47.7741 266.701 48.4041 261.101C49.0341 255.501 49.349 249.481 49.629 243.811L49.9443 237.581C49.9443 235.691 50.1541 233.836 50.1891 231.946C50.1891 228.796 50.4343 225.576 50.7493 222.391C51.0643 219.206 51.6243 215.391 52.1143 211.891C52.4643 209.301 52.849 206.641 53.164 203.981C53.549 200.726 53.829 197.191 53.969 193.201C53.858 192.7 53.6304 192.232 53.3042 191.836L53.0594 191.451L52.709 191.661C52.289 191.906 51.7994 192.186 51.7294 192.466L51.3094 193.656C50.3018 196.441 49.4945 199.295 48.8941 202.196C47.0392 212.941 45.394 221.901 44.344 231.246C43.574 237.756 42.9442 244.371 42.3492 250.811C41.9292 255.431 41.4741 260.261 40.9841 264.811C40.7391 266.841 40.3544 268.906 39.9344 270.866C39.5144 272.826 39.1993 274.366 38.9893 276.256C37.9043 284.936 37.0292 292.916 36.2942 300.756C35.7592 305.402 35.5602 310.081 35.6991 314.756C35.6408 315.632 35.7951 316.51 36.1485 317.314C36.5019 318.118 37.0443 318.826 37.7294 319.376C38.6237 319.778 39.6007 319.963 40.5804 319.914C41.56 319.866 42.5143 319.585 43.3643 319.096C46.4775 317.829 49.669 316.766 52.9192 315.911C56.4192 315.001 59.9192 314.161 63.4192 313.321C67.7592 312.306 72.2393 311.256 76.6143 310.066C80.9893 308.876 85.6091 307.476 89.9491 306.111L96.2142 304.151L99.7142 303.136L105.069 301.526C105.909 301.211 108.009 300.266 107.414 297.956Z" fill="#342B1D"/>
<path d="M225.224 286.439C225.529 285.765 225.797 285.076 226.029 284.374C226.974 281.644 227.884 278.879 228.829 276.079L229.844 273.034L228.724 270.584L228.374 270.829C227.72 271.259 227.1 271.739 226.519 272.264C226.192 272.669 225.942 273.132 225.784 273.629C225.224 274.994 224.699 276.324 224.139 277.654C222.669 281.154 221.199 284.654 220.079 288.434C219.411 290.731 219.485 293.181 220.289 295.434C221.97 300.047 224.178 304.452 226.869 308.559C231.104 314.719 236.109 321.229 242.164 328.439C245.104 331.939 248.394 335.439 251.579 338.589C252.874 339.919 254.204 341.249 255.464 342.579C255.737 342.922 256.076 343.207 256.461 343.418C256.845 343.628 257.268 343.759 257.704 343.804C258.01 343.789 258.31 343.713 258.587 343.581C258.863 343.448 259.11 343.263 259.314 343.034C260.504 341.879 259.804 340.934 258.649 339.534L251.649 331.764C248.989 328.894 246.259 325.919 243.599 322.944L242.444 321.649C239.743 318.772 237.262 315.695 235.024 312.444C231.524 306.914 228.304 301.069 225.224 295.399L224.664 294.349C224.015 292.975 223.831 291.427 224.139 289.939C224.38 288.738 224.744 287.566 225.224 286.439Z" fill="#342B1D"/>
<path d="M199.955 274.751C198.31 275.696 196.7 276.886 195.125 278.006L191.975 280.211L186.936 283.466C184.346 285.146 181.651 286.966 179.061 288.611C178.629 289.037 178.315 289.567 178.151 290.151C178.137 290.255 178.137 290.361 178.151 290.466H178.43C178.971 290.596 179.535 290.596 180.075 290.466L181.335 289.731C185.5 287.246 189.805 284.726 193.83 281.926C201.14 276.664 208.76 271.849 216.651 267.506C223.231 264.006 229.635 259.911 235.795 255.921L243.32 251.126C243.652 250.861 243.936 250.541 244.16 250.181L244.37 249.901H243.88C243.349 250.001 242.832 250.165 242.34 250.391L240.276 251.441C237.196 253.051 234.01 254.696 231 256.516C229.39 257.461 227.85 258.546 226.345 259.596C224.84 260.646 223.055 261.941 221.34 263.096C217.84 265.196 213.99 267.261 210.385 269.256C206.78 271.251 203.35 272.791 199.955 274.751Z" fill="#342B1D"/>
<path d="M57.2251 185.536L56.8751 185.291C56.8818 185.373 56.8818 185.455 56.8751 185.536C56.5508 185.944 56.3016 186.406 56.1399 186.901C55.9898 187.522 55.9898 188.17 56.1399 188.791C58.4199 197.969 63.4079 206.249 70.4552 212.556C72.3004 214.082 74.3503 215.343 76.5451 216.301C77.4551 216.756 78.3652 217.211 79.2752 217.736L80.1502 217.246C80.5798 217.083 80.9637 216.819 81.27 216.476C81.3282 216.192 81.3273 215.9 81.267 215.617C81.2068 215.334 81.0887 215.066 80.9201 214.831C80.4173 214.279 79.8538 213.786 79.2402 213.361L78.2951 212.661C77.3851 211.891 76.3698 211.121 75.3898 210.421C73.0707 208.896 71.0041 207.019 69.2648 204.856C66.5349 200.971 64.1549 196.736 61.8449 192.676C60.7249 190.646 59.5349 188.546 58.3449 186.551C58.0372 186.147 57.6576 185.803 57.2251 185.536Z" fill="#342B1D"/>
<path d="M61.5294 185.045C62.6109 188.04 63.9336 190.943 65.4844 193.725C68.6668 198.95 72.8259 203.513 77.7344 207.165L78.2244 207.55C79.1694 208.32 80.0792 209.055 81.5142 208.425L78.0142 204.925C75.118 202.07 72.3839 199.055 69.8243 195.895C67.4072 192.611 65.1865 189.186 63.1743 185.64L60.7945 181.72C60.6727 182.226 60.6727 182.754 60.7945 183.26C61.0745 183.82 61.3194 184.45 61.5294 185.045Z" fill="#342B1D"/>
<path d="M65.52 185.151C67.6314 188.404 69.9706 191.503 72.52 194.426C74.8841 196.859 77.4227 199.116 80.1152 201.181L82.6701 203.246C82.6701 203.246 83.1599 203.526 84.2449 203.246L84.5602 202.826L84.735 202.616L84.0001 201.741C83.4187 200.987 82.7617 200.295 82.0399 199.676C75.8962 194.554 70.4274 188.674 65.7648 182.176C65.343 181.731 64.8122 181.405 64.225 181.23H63.9101V181.546C63.8208 182.103 63.8935 182.674 64.1199 183.191L65.52 185.151Z" fill="#342B1D"/>
<path d="M167.825 285.809C169.19 286.754 170.59 287.699 171.955 288.714C172.789 289.367 173.584 290.068 174.335 290.814L175.106 291.549H175.42V291.129C175.376 290.643 175.246 290.169 175.035 289.729C173.996 287.697 172.512 285.924 170.694 284.543C168.877 283.162 166.772 282.207 164.535 281.749C164.131 281.669 163.715 281.669 163.311 281.749C163.457 282.142 163.683 282.499 163.975 282.799L167.825 285.809Z" fill="#342B1D"/>
<path d="M163.939 184.486C163.694 183.697 163.248 182.985 162.644 182.421C161.803 181.656 161.268 180.611 161.139 179.481C160.904 177.866 160.198 176.356 159.109 175.141L158.024 173.601C157.437 172.728 156.91 171.816 156.449 170.871C156.162 170.219 155.81 169.597 155.399 169.016C155.254 168.939 155.091 168.899 154.927 168.899C154.762 168.899 154.6 168.939 154.454 169.016C154.156 169.205 153.902 169.457 153.709 169.752C153.516 170.048 153.388 170.381 153.334 170.731C154.447 174.132 156.411 177.192 159.039 179.621C160.289 181.022 161.458 182.495 162.539 184.031C162.994 184.941 163.694 185.116 164.009 184.941C164.324 184.766 164.009 184.416 164.009 184.241L163.939 184.486Z" fill="#342B1D"/>
<path d="M166.705 215.949C163.284 214.571 160.195 212.483 157.639 209.824C156.519 208.809 155.469 207.829 154.139 206.954C153.935 206.794 153.695 206.686 153.439 206.639C153.853 208.109 154.581 209.47 155.574 210.629C156.253 211.397 157.044 212.057 157.92 212.589C158.692 213.023 159.389 213.578 159.984 214.234V214.409L160.474 214.759C160.894 215.074 161.385 215.424 161.455 215.949C161.503 216.06 161.528 216.179 161.528 216.299C161.528 216.42 161.503 216.539 161.455 216.649C161.455 216.824 161.98 217.104 162.26 217.279C162.54 217.454 163.379 217.909 163.449 218.364C164.596 219.174 165.893 219.745 167.264 220.044L168.56 220.464C170.309 220.647 172.077 220.504 173.775 220.044C174.648 219.824 175.538 219.672 176.435 219.589C177.075 219.349 177.729 219.151 178.394 218.994C179.961 218.77 181.418 218.06 182.56 216.964C183.785 215.529 187.669 210.594 185.674 206.464C185.009 205.239 184.38 204.014 183.785 202.964C182.003 199.088 179.77 195.434 177.135 192.079C175.808 190.537 174.206 189.255 172.41 188.299C172.38 188.426 172.38 188.558 172.41 188.684C172.62 188.929 172.794 189.139 172.689 189.419C172.654 189.518 172.594 189.605 172.514 189.673C172.434 189.741 172.337 189.786 172.234 189.804L172.9 190.434C173.425 190.889 173.774 191.204 173.844 191.589C174.385 192.689 175.068 193.713 175.875 194.634C177.01 195.815 177.859 197.24 178.359 198.799C178.497 199.678 178.744 200.536 179.094 201.354C179.656 202.572 179.943 203.898 179.935 205.239C179.977 205.756 180.047 206.27 180.144 206.779C180.441 207.764 180.526 208.8 180.393 209.819C180.26 210.839 179.913 211.819 179.375 212.694C177.887 214.518 175.854 215.818 173.574 216.404C171.294 216.99 168.887 216.83 166.705 215.949Z" fill="#342B1D"/>
<path d="M140.175 191.625C139.786 190.305 138.959 189.157 137.831 188.37C136.741 187.469 135.734 186.474 134.821 185.395C134.224 184.709 133.581 184.066 132.895 183.47H132.651C131.531 183.47 130.866 184.1 130.761 184.87C130.735 185.445 130.886 186.015 131.192 186.502C131.498 186.99 131.946 187.373 132.476 187.6C134.517 189.703 136.769 191.591 139.196 193.235C139.609 193.409 139.962 193.701 140.21 194.075C140.464 194.48 140.866 194.769 141.331 194.88C141.553 194.932 141.761 195.031 141.942 195.169C142.123 195.308 142.272 195.484 142.38 195.685L142.661 195.965C142.54 195.865 142.45 195.733 142.401 195.585C142.351 195.436 142.344 195.277 142.38 195.125V194.95C142.125 194.734 141.856 194.535 141.575 194.355L141.085 193.97C140.643 193.249 140.335 192.455 140.175 191.625Z" fill="#342B1D"/>
</svg>
