<svg width="80" height="80" viewBox="0 0 80 80" fill="none" xmlns="http://www.w3.org/2000/svg">
<path d="M31.1733 12.2062C31.1309 12.2639 31.0742 12.3097 31.0087 12.3389C30.9433 12.3681 30.8713 12.3798 30.8 12.3728C30.7869 12.4514 30.7544 12.5254 30.7055 12.5882C30.6566 12.6511 30.5929 12.7008 30.52 12.7328C30.0904 12.9516 29.6721 13.1919 29.2667 13.4528C29.171 13.5324 29.056 13.5853 28.9334 13.6062C28.9334 13.6062 28.82 13.6728 28.6733 13.7795C28.5333 13.8876 28.372 13.9649 28.2 14.0062C28.1621 14.0216 28.1262 14.0417 28.0933 14.0662C27.7311 14.3101 27.3549 14.5327 26.9667 14.7328C26.8142 14.8258 26.6476 14.8934 26.4733 14.9329C26.4733 14.9329 26.4067 14.9795 26.32 15.0529C26.2107 15.1441 26.0799 15.206 25.94 15.2328C25.8223 15.3561 25.682 15.4557 25.5267 15.5262C25.2913 15.6441 25.068 15.7847 24.86 15.9462C24.7324 16.0393 24.5906 16.1114 24.44 16.1595C24.4051 16.1684 24.3715 16.1819 24.34 16.1995C23.9675 16.4485 23.5641 16.648 23.14 16.7928C23.14 16.7928 23.0733 16.8395 22.9667 16.9128C22.855 17.0004 22.7252 17.0619 22.5867 17.0929C22.2907 17.3376 21.9546 17.5292 21.5933 17.6595C21.36 17.7528 21.2 17.8128 21.0533 17.7328C20.9733 17.7862 20.8067 17.8862 20.4733 18.0595L19.1934 18.7262C18.7904 18.9726 18.3639 19.178 17.92 19.3395C17.8521 19.4183 17.7648 19.478 17.6667 19.5129C17.5892 19.5447 17.5154 19.5849 17.4467 19.6329C17.3189 19.7181 17.1765 19.7791 17.0267 19.8128C16.6558 19.9166 16.3029 20.0762 15.98 20.2862C15.8771 20.3758 15.7491 20.4316 15.6134 20.4462C15.1015 20.6406 14.6007 20.8631 14.1134 21.1128C13.9285 21.2153 13.7314 21.2937 13.5267 21.3462V21.3929C13.5168 21.4321 13.4968 21.4681 13.4688 21.4974C13.4407 21.5266 13.4055 21.548 13.3667 21.5595C13.3318 21.5692 13.2949 21.5692 13.26 21.5595C12.9984 21.729 12.7024 21.8383 12.3934 21.8795H12.3C11.8417 21.9893 11.3952 22.1434 10.9667 22.3395C10.2508 22.6249 9.52098 22.8741 8.78003 23.0862C8.49336 23.1795 8.11336 23.2995 7.94002 23.3662C7.75865 23.438 7.56775 23.4829 7.37337 23.4995C7.33155 23.4912 7.28852 23.4912 7.2467 23.4995C7.17449 23.5733 7.07653 23.6163 6.97335 23.6195C6.94069 23.6303 6.911 23.6485 6.88668 23.6729H6.84668C6.87851 23.7383 6.90098 23.8078 6.91337 23.8795C6.93884 24.0182 6.99336 24.15 7.07336 24.2662C7.33048 24.4147 7.54601 24.6257 7.70003 24.8795C7.75607 24.8788 7.81162 24.8897 7.86324 24.9115C7.91487 24.9333 7.96146 24.9655 8.00004 25.0062C8.02117 25.0281 8.04598 25.0462 8.07336 25.0595V25.0595C8.30003 25.0595 9.48002 26.3928 9.56002 26.4995C9.64002 26.6062 10 27.0662 10.1934 27.3328C10.3867 27.5995 10.6534 27.9995 10.82 28.1795C11.0189 28.4096 11.1932 28.6598 11.34 28.9262C11.3992 28.9428 11.4527 28.9751 11.495 29.0197C11.5373 29.0643 11.5667 29.1196 11.58 29.1795C11.5956 29.2118 11.6134 29.243 11.6333 29.2728C11.7953 29.5065 11.9401 29.7516 12.0667 30.0062C12.0667 30.0595 12.2067 30.2329 12.32 30.3929C12.4334 30.5529 12.7134 30.9729 12.94 31.3395L13.52 32.2662C13.5748 32.3654 13.642 32.4573 13.72 32.5395C13.7617 32.5722 13.7959 32.6136 13.82 32.6608C13.8442 32.708 13.8578 32.7599 13.86 32.8128C13.86 32.8128 14.0934 33.2395 14.44 33.8195L15.2734 35.2129C15.3757 35.4088 15.5035 35.5903 15.6534 35.7528C15.76 35.7528 15.8534 35.8262 16.1534 36.4195C16.32 36.7462 16.46 36.9995 16.4934 37.0395C16.6693 37.2541 16.7967 37.5043 16.8667 37.7728C16.8996 37.8336 16.9375 37.8916 16.98 37.9462C17.0599 38.0427 17.1251 38.1506 17.1733 38.2662C17.1956 38.3086 17.2249 38.347 17.26 38.3795C17.3302 38.4469 17.3849 38.5288 17.42 38.6195C17.4453 38.6845 17.4765 38.747 17.5133 38.8062C17.5541 38.7902 17.5993 38.7902 17.64 38.8062C17.6782 38.829 17.7098 38.8611 17.732 38.8997C17.7542 38.9382 17.7661 38.9817 17.7667 39.0262V39.1262C17.8228 39.2248 17.8719 39.3273 17.9134 39.4329C17.9722 39.5976 18.0553 39.7527 18.16 39.8929C18.1819 39.8993 18.2022 39.9104 18.2194 39.9254C18.2366 39.9403 18.2505 39.9588 18.26 39.9795L18.3134 40.0595V40.1329C18.327 40.1789 18.3448 40.2235 18.3667 40.2662C18.4734 40.4795 18.5267 40.6395 18.44 40.7395C18.4734 40.8128 18.52 40.8995 18.5734 40.9928C18.68 41.1928 18.8134 41.4528 18.8734 41.5795C18.9334 41.7062 19.0267 41.8995 19.0667 41.9729C19.0932 41.9548 19.1246 41.9452 19.1567 41.9452C19.1888 41.9452 19.2202 41.9548 19.2467 41.9729C19.2847 41.9984 19.3132 42.0357 19.3277 42.0792C19.3422 42.1226 19.3418 42.1696 19.3267 42.2129C19.3575 42.2511 19.3822 42.2938 19.4 42.3395C19.4465 42.4567 19.5094 42.5667 19.5867 42.6662C19.7095 42.8689 19.7847 43.0968 19.8067 43.3328C20.0667 43.4728 20.28 43.9995 20.2867 43.9995C20.3354 44.1282 20.398 44.2511 20.4733 44.3662C20.5423 44.4486 20.5944 44.5437 20.6267 44.6462C20.6815 44.6678 20.7276 44.7071 20.7578 44.7578C20.7879 44.8084 20.8005 44.8677 20.7934 44.9262C20.8141 44.9899 20.8508 45.0473 20.9 45.0929C20.9874 45.189 21.0533 45.3026 21.0933 45.4262C21.2249 45.5792 21.3308 45.7525 21.4067 45.9395C21.5267 46.1928 21.7134 46.5462 21.82 46.7195C21.9224 46.867 21.997 47.0319 22.04 47.2062C22.04 47.2062 22.0934 47.2995 22.1667 47.4128L22.4667 47.8662C22.5526 47.9862 22.6138 48.1222 22.6467 48.2662C22.6779 48.2952 22.7029 48.3303 22.7201 48.3692C22.7372 48.4082 22.7463 48.4502 22.7467 48.4928C22.7467 48.4928 22.7934 48.5662 22.8534 48.6528C23.0308 48.9097 23.189 49.1793 23.3267 49.4595C23.4535 49.7135 23.5937 49.9605 23.7467 50.1995C23.8834 50.4051 23.989 50.6297 24.06 50.8662C24.1123 50.9092 24.1613 50.956 24.2067 51.0062C24.3099 51.1232 24.3973 51.2532 24.4667 51.3929C24.4851 51.4362 24.5098 51.4767 24.54 51.5129C24.6467 51.5529 24.72 51.7395 24.74 51.7995C24.7375 51.8194 24.7375 51.8396 24.74 51.8595C24.7926 51.8791 24.8377 51.9148 24.8688 51.9615C24.8999 52.0081 24.9155 52.0634 24.9134 52.1195C25.0947 52.3168 25.2433 52.5419 25.3534 52.7862C25.3886 52.8744 25.4357 52.9573 25.4934 53.0328C25.56 53.1128 25.64 53.1995 25.6 53.2995C25.8358 53.4754 26.0275 53.7036 26.16 53.9662C26.1919 54.0346 26.2373 54.0958 26.2934 54.1462C26.4231 54.2654 26.5293 54.4079 26.6067 54.5662C26.6805 54.7116 26.7676 54.85 26.8667 54.9795C26.9679 55.0962 27.0593 55.2211 27.14 55.3528C27.1932 55.4431 27.2608 55.5242 27.34 55.5929C27.4356 55.6667 27.4999 55.7738 27.52 55.8929C27.52 55.8929 27.52 55.8929 27.52 55.8929C27.677 56.06 27.8094 56.2485 27.9134 56.4528C27.9373 56.4921 27.9665 56.528 28 56.5595C28.0867 56.6462 28.2734 56.8862 28.4134 57.0662C28.5534 57.2462 28.78 57.5328 28.8934 57.6662C28.9939 57.769 29.0792 57.8858 29.1467 58.0129C29.4161 58.3665 29.7102 58.7007 30.0267 59.0129C30.4867 59.4462 31.0667 60.0062 31.5867 60.5195C31.8534 60.7928 32.0534 60.9795 32.1134 61.0262C32.2051 61.0775 32.2883 61.1428 32.36 61.2195C32.9907 61.8596 33.6905 62.4275 34.4467 62.9128C34.4467 62.9128 34.5667 62.9129 34.8734 63.2129C34.9543 63.2934 35.0437 63.3649 35.14 63.4262C35.14 63.4262 35.26 63.4262 35.5933 63.7462C35.7368 63.8839 35.8957 64.0047 36.0667 64.1062C36.2186 64.1772 36.3637 64.262 36.5 64.3595C36.597 64.4319 36.6995 64.4966 36.8067 64.5529C36.9683 64.6489 37.1201 64.7606 37.26 64.8862C37.3341 64.9488 37.4121 65.0067 37.4934 65.0595C37.6032 65.0805 37.7009 65.1424 37.7667 65.2328C37.9112 65.3528 38.0676 65.4578 38.2334 65.5462C38.4316 65.6558 38.621 65.7806 38.8 65.9195C38.8468 65.9609 38.8983 65.9967 38.9534 66.0262C39.0437 66.0439 39.1256 66.0907 39.1867 66.1595C39.989 66.6624 40.8542 67.057 41.76 67.3328C42 67.4128 42.3 67.5262 42.4267 67.5728C42.4742 67.5996 42.5262 67.6176 42.58 67.6262C42.9159 67.6981 43.2252 67.862 43.4733 68.0995C43.5533 68.0995 43.68 68.1729 43.92 68.3795C44.2165 68.6372 44.5257 68.8797 44.8467 69.1062C44.8689 69.0342 44.9104 68.9696 44.9667 68.9195C45.0184 68.8806 45.0788 68.8548 45.1426 68.8444C45.2065 68.8339 45.272 68.8391 45.3334 68.8595C45.3794 68.8708 45.4274 68.8708 45.4733 68.8595C45.5248 68.8195 45.5882 68.7978 45.6534 68.7978C45.7186 68.7978 45.7819 68.8195 45.8334 68.8595C45.8334 68.8595 45.94 68.8595 46.0867 68.7662C46.2029 68.6829 46.3381 68.6302 46.48 68.6128H46.5533C46.5783 68.5836 46.6088 68.5597 46.6432 68.5425C46.6775 68.5253 46.715 68.5153 46.7534 68.5129H46.7867C46.9046 68.4749 47.0204 68.4304 47.1333 68.3795C47.58 68.1795 47.64 68.1795 47.6667 68.1862L48 68.0262L48.6 67.7462C48.6529 67.7246 48.7023 67.6954 48.7467 67.6595C48.7587 67.622 48.7792 67.5877 48.8067 67.5595C48.8638 67.5091 48.9371 67.4807 49.0133 67.4795C49.2235 67.3964 49.421 67.2842 49.6 67.1462C49.6 67.0862 49.6934 66.9862 49.9467 66.8795C50.0723 66.8261 50.1891 66.7542 50.2934 66.6662C50.4166 66.5667 50.5566 66.4899 50.7067 66.4395C50.8583 66.3784 51.0034 66.3025 51.14 66.2129C51.2867 66.1195 51.5334 65.9729 51.7067 65.8862C51.8731 65.803 52.0315 65.7048 52.18 65.5929C52.341 65.4673 52.5154 65.36 52.7 65.2728C52.8169 65.2211 52.9248 65.1514 53.02 65.0662C53.0738 64.9843 53.1576 64.9268 53.2534 64.9062V64.9062L53.64 64.7062C53.8005 64.6082 53.9676 64.5213 54.14 64.4462C54.1592 64.3844 54.1971 64.3301 54.2485 64.2907C54.2998 64.2513 54.362 64.2288 54.4267 64.2262C54.5112 64.1852 54.5916 64.136 54.6667 64.0795C54.821 63.9711 54.9838 63.8753 55.1534 63.7928C55.527 63.5832 55.8778 63.3352 56.2 63.0529C56.4134 62.8929 56.66 62.7195 56.7667 62.6528L56.8934 62.5662C56.9464 62.4795 57.0295 62.4155 57.1267 62.3862C57.1887 62.3588 57.2451 62.3204 57.2934 62.2728C57.3747 62.2213 57.4707 62.1979 57.5667 62.2062C57.6222 62.1588 57.68 62.1143 57.74 62.0728C57.8571 61.9811 57.9795 61.8965 58.1067 61.8195C58.2267 61.7528 58.3667 61.6662 59.2133 61.1195C59.42 60.9928 59.6934 60.8262 59.8334 60.7528C60.1231 60.5994 60.4016 60.4256 60.6667 60.2328C60.7645 60.1511 60.872 60.0817 60.9867 60.0262C61.1171 59.9534 61.2419 59.8709 61.36 59.7795C61.908 59.3909 62.4754 59.0304 63.06 58.6995C63.6267 58.3595 64.1134 58.0329 64.9 57.5462L65.4733 57.1662C65.6473 57.04 65.83 56.9264 66.02 56.8262L66.1667 56.7395C66.6417 56.4043 67.1359 56.0971 67.6467 55.8195C68.303 55.4535 68.9395 55.053 69.5533 54.6195L70.5667 53.9528C71.1297 53.6162 71.6568 53.2231 72.14 52.7795C72.6333 52.3195 72.8067 52.2062 72.9534 52.1862C72.935 52.1616 72.9219 52.1336 72.915 52.1037C72.9082 52.0739 72.9076 52.0429 72.9134 52.0129C72.9271 51.9771 72.9485 51.9448 72.9762 51.9183C73.0039 51.8918 73.037 51.8717 73.0734 51.8595V51.8595C72.8894 51.7901 72.7359 51.6578 72.64 51.4862L72.5867 51.4062C72.5311 51.416 72.4738 51.4041 72.4267 51.3728C72.3932 51.3463 72.3658 51.313 72.3463 51.2751C72.3267 51.2371 72.3155 51.1955 72.3134 51.1528C72.14 51.1528 71.9934 51.1529 71.9067 50.9329C71.8538 50.9136 71.8059 50.8826 71.7666 50.8422C71.7273 50.8018 71.6977 50.753 71.68 50.6995C71.6714 50.651 71.6714 50.6014 71.68 50.5529C71.4227 50.419 71.1525 50.3117 70.8734 50.2328C70.8084 50.229 70.7458 50.207 70.6927 50.1693C70.6397 50.1315 70.5983 50.0796 70.5734 50.0195C70.4594 49.9739 70.341 49.9404 70.22 49.9195C69.9696 49.8704 69.7225 49.8059 69.48 49.7262L69.1534 49.6329C68.4533 49.416 67.7675 49.1554 67.1 48.8528C66.3334 48.4662 65.9934 48.3062 65.8334 48.2462C65.6989 48.1955 65.5747 48.121 65.4667 48.0262C65.3794 47.9534 65.2857 47.8887 65.1867 47.8328C64.6062 47.546 64.0431 47.2255 63.5 46.8728C62.8934 46.4395 62.6267 46.2662 62.56 46.2062C62.4934 46.1462 62.4267 46.1462 62.2067 45.9195C62.0228 45.7422 61.8292 45.5753 61.6267 45.4195C61.1784 45.101 60.7549 44.7489 60.36 44.3662C60.18 44.1862 60.0467 44.0795 60 44.0395C59.9534 43.9995 59.88 43.9662 59.76 43.7862C59.6857 43.6871 59.5929 43.6033 59.4867 43.5395C59.3556 43.4701 59.2417 43.3721 59.1534 43.2528L59.1 43.1928C58.9467 43.1928 58.6534 42.8529 58.6 42.7595C58.596 42.7241 58.596 42.6883 58.6 42.6528C58.5784 42.6119 58.5489 42.5757 58.5133 42.5462C58.16 42.1795 57.5334 41.4795 57.4134 41.3262C57.3418 41.2442 57.2613 41.1704 57.1733 41.1062C57.0933 41.0662 56.9267 40.9462 56.9267 40.7928C56.8022 40.5962 56.6665 40.407 56.52 40.2262C56.46 40.2262 56.3933 40.1328 56.3 39.9395C56.2132 39.7868 56.1104 39.6438 55.9934 39.5129C55.6559 39.1455 55.3525 38.7483 55.0867 38.3262C55.0398 38.2307 54.9816 38.1412 54.9134 38.0595C54.8474 37.981 54.7893 37.8962 54.74 37.8062C54.6829 37.7085 54.6159 37.6169 54.54 37.5328C54.3886 37.3643 54.2607 37.1759 54.16 36.9729C54.1153 36.8953 54.064 36.8217 54.0067 36.7528C53.5826 36.1309 53.206 35.478 52.88 34.7995C52.731 34.4819 52.5571 34.1765 52.36 33.8862C52.3157 33.8555 52.2792 33.8147 52.2537 33.7672C52.2282 33.7197 52.2144 33.6668 52.2133 33.6128C52.1455 33.4384 52.0653 33.2691 51.9733 33.1062L51.4733 32.1329C51.3694 31.9138 51.2468 31.7041 51.1067 31.5062C50.9739 31.3513 50.8883 31.1616 50.86 30.9595C50.8137 30.761 50.7444 30.5686 50.6534 30.3862C50.56 30.2062 50.4267 29.9195 50.3534 29.7595C50.2789 29.5889 50.192 29.424 50.0933 29.2662C49.9067 28.9995 49.9067 28.9462 49.9067 28.9062C49.9067 28.8662 49.66 28.3795 49.3467 27.8062C49.1933 27.5262 49.0334 27.2195 48.9867 27.1395C48.8195 26.7578 48.6303 26.386 48.42 26.0262C48.3546 25.9544 48.3147 25.863 48.3067 25.7662C48.2114 25.5062 48.079 25.2614 47.9134 25.0395C47.8112 24.9288 47.74 24.7931 47.7067 24.6462C47.552 24.3044 47.3761 23.9727 47.18 23.6528C47.1267 23.5795 47.0134 23.3862 46.92 23.2195C46.8267 23.0529 46.7134 22.8595 46.6467 22.7662C46.5825 22.6827 46.5349 22.5876 46.5067 22.4862C46.5067 22.4862 46.42 22.3328 46.3134 22.1595C46.2067 21.9862 46.0267 21.7062 45.9467 21.5662C45.8705 21.4257 45.7859 21.2899 45.6934 21.1595C45.4531 20.8247 45.2306 20.4776 45.0267 20.1195C44.9134 19.9395 44.6867 19.6128 44.54 19.4128C44.22 18.9928 44.08 18.8062 43.8734 18.5328L43.7734 18.3995C43.72 18.3995 43.6534 18.3062 43.5334 18.1262C43.3884 17.9253 43.2231 17.7398 43.04 17.5728C42.8595 17.4029 42.6964 17.2154 42.5533 17.0129C42.5258 16.9606 42.4898 16.9133 42.4467 16.8728C42.3595 16.7996 42.2832 16.7143 42.22 16.6195C42.0355 16.3653 41.8304 16.1267 41.6067 15.9062C41.3315 15.7179 41.0826 15.4937 40.8667 15.2395C40.6734 15.0528 40.2734 14.6995 40.02 14.4795C39.7667 14.2595 38.8734 13.6195 38.7267 13.5328C38.6066 13.4786 38.4998 13.399 38.4134 13.2995C38.1821 13.0846 37.9271 12.8967 37.6534 12.7395C37.5289 12.6573 37.4108 12.566 37.3 12.4662C37.1238 12.3087 36.9235 12.1804 36.7067 12.0862C36.5838 12.0581 36.4695 12.001 36.3734 11.9195C36.3357 11.8845 36.293 11.8553 36.2467 11.8328C36.175 11.8058 36.1093 11.7651 36.0533 11.7128C35.6942 11.4639 35.3177 11.2411 34.9267 11.0462C34.8744 11.0395 34.8249 11.0186 34.7838 10.9856C34.7426 10.9527 34.7113 10.9091 34.6934 10.8595H34.36H34.0133C33.9953 10.8958 33.969 10.9273 33.9366 10.9516C33.9042 10.9759 33.8666 10.9923 33.8267 10.9995C33.7487 11.0187 33.667 11.017 33.5898 10.9948C33.5126 10.9726 33.4426 10.9305 33.3867 10.8728C33.3405 10.882 33.2929 10.882 33.2467 10.8728V10.8728H33.14C33.1105 10.8767 33.0806 10.8746 33.0519 10.8666C33.0233 10.8586 32.9965 10.8448 32.9733 10.8262C32.9733 11.1062 32.1134 11.6128 32.02 11.6528C31.9027 11.7047 31.7929 11.7719 31.6934 11.8528C31.5787 11.9398 31.4532 12.0115 31.32 12.0662C31.2875 12.0785 31.2577 12.0972 31.2325 12.1213C31.2073 12.1453 31.1872 12.1742 31.1733 12.2062V12.2062ZM32.2267 14.1329C32.5631 13.8891 32.9309 13.6918 33.32 13.5462C33.4098 13.4138 33.5228 13.2986 33.6534 13.2062L33.76 13.1128C33.7619 13.074 33.7759 13.0367 33.8 13.0062C33.8234 12.981 33.8528 12.9623 33.8855 12.9517C33.9182 12.9412 33.953 12.9393 33.9867 12.9462C34.1389 12.8798 34.2822 12.7947 34.4134 12.6928C34.4424 12.6471 34.485 12.6117 34.5352 12.5913C34.5854 12.571 34.6407 12.5669 34.6934 12.5795C34.7323 12.5872 34.7687 12.6047 34.7991 12.6303C34.8294 12.656 34.8527 12.689 34.8667 12.7262V12.7262C35.003 12.8022 35.1344 12.8868 35.26 12.9795C35.5067 13.1595 36.02 13.5262 36.5533 13.8929C37.0621 14.2408 37.5476 14.6215 38.0067 15.0328C38.0733 15.0995 38.3533 15.3529 38.6333 15.5929C38.9743 15.9027 39.2992 16.2298 39.6067 16.5728L40.5933 17.6995C40.8268 17.9524 41.0387 18.2245 41.2267 18.5129C41.2356 18.5395 41.2492 18.5643 41.2667 18.5862C41.362 18.6478 41.44 18.7327 41.4934 18.8328L41.84 19.3395L42.14 19.7728L42.4134 20.1528C42.74 20.5928 43.7867 22.2728 44.1333 22.9195C44.2133 23.0662 44.34 23.2862 44.42 23.4062C44.5734 23.6528 44.6067 23.7129 45.3 25.0129C46.4267 27.1329 46.4267 27.2528 46.4267 27.3195C46.4267 27.3862 46.5333 27.4129 47.0933 28.5129C47.22 28.7595 47.3467 29.0062 47.3867 29.0728C47.5802 29.412 47.7346 29.7721 47.8467 30.1462C47.9409 30.2619 48.0194 30.3897 48.08 30.5262L48.3067 30.9928C48.3067 31.0595 48.46 31.3462 48.58 31.6262C48.6667 31.8542 48.7668 32.0768 48.88 32.2928C48.9596 32.4075 48.993 32.548 48.9733 32.6862C48.9764 32.7248 48.9903 32.7617 49.0133 32.7928C49.0733 32.8795 49.22 33.1462 49.3267 33.3528C49.4144 33.536 49.5265 33.7065 49.66 33.8595C49.7693 33.9493 49.8561 34.0635 49.9134 34.1928C49.9134 34.2395 50.02 34.4528 50.14 34.6928C50.2325 34.8769 50.3019 35.0717 50.3467 35.2728C50.416 35.3912 50.4964 35.5029 50.5867 35.6062C50.8334 35.8995 50.8867 35.9862 50.8934 36.0395L50.96 36.1395C51.0181 36.2136 51.0632 36.297 51.0933 36.3862C51.1528 36.5538 51.2484 36.7063 51.3734 36.8328H51.42C51.6067 36.8328 51.8667 37.2395 52.0067 37.4995L52.12 37.6528C52.2272 37.7805 52.3087 37.9276 52.36 38.0862C52.411 38.1183 52.4561 38.1588 52.4934 38.2062C52.5481 38.2711 52.5849 38.3493 52.6 38.4329C52.6763 38.4982 52.7397 38.5774 52.7867 38.6662C52.8112 38.726 52.8112 38.793 52.7867 38.8528C52.9067 38.8528 52.98 38.9929 53.0067 39.0529C53.0265 39.0897 53.0369 39.131 53.0369 39.1729C53.0369 39.2147 53.0265 39.256 53.0067 39.2928C53.0385 39.3149 53.0651 39.3436 53.0846 39.377C53.1042 39.4104 53.1163 39.4476 53.12 39.4862V39.5395C53.1423 39.5629 53.1603 39.59 53.1733 39.6195L53.2534 39.5728C53.3097 39.5594 53.3687 39.5637 53.4224 39.5852C53.4761 39.6067 53.5219 39.6443 53.5533 39.6928V39.6928C53.6063 39.7691 53.6488 39.852 53.68 39.9395L53.8467 40.3462L53.9334 40.4395C54.0089 40.4535 54.0759 40.4966 54.12 40.5595C54.1387 40.5794 54.1544 40.6019 54.1667 40.6262V40.6262L54.28 40.7262C54.3306 40.7916 54.3607 40.8704 54.3667 40.9528C54.5734 40.9862 54.6267 41.0795 54.64 41.1395C54.6533 41.1995 54.6934 41.2328 54.7467 41.3128C54.786 41.3693 54.8195 41.4296 54.8467 41.4928C54.9201 41.5474 54.9872 41.61 55.0467 41.6795C55.1467 41.7795 55.2667 41.9128 55.2133 42.0328H55.2934C55.3338 42.0557 55.3694 42.0863 55.398 42.1229C55.4265 42.1595 55.4477 42.2014 55.46 42.2462C55.5467 42.2462 55.62 42.3395 55.7334 42.4662L55.88 42.6262L55.8134 42.6928C55.8489 42.69 55.8845 42.69 55.92 42.6928C55.9743 42.7035 56.0258 42.7249 56.0716 42.7558C56.1174 42.7867 56.1565 42.8265 56.1867 42.8728C56.3003 43.0405 56.4398 43.189 56.6 43.3128C56.7209 43.395 56.8232 43.5018 56.9 43.6262C56.9251 43.6685 56.9566 43.7067 56.9934 43.7395C57.2491 43.9418 57.4876 44.1647 57.7067 44.4062C58.0467 44.7528 58.28 44.9795 58.3734 45.0262C58.5213 45.1414 58.6616 45.2661 58.7934 45.3995C58.9561 45.5576 59.1349 45.6983 59.3267 45.8195C59.7365 46.078 60.1224 46.3725 60.48 46.6995C60.5267 46.7395 60.74 46.8995 60.9867 47.0662C61.2334 47.2328 61.5267 47.4395 61.6534 47.5529C61.7263 47.6129 61.8044 47.6665 61.8867 47.7129C62.0644 47.7945 62.2341 47.8927 62.3934 48.0062C62.6082 48.1494 62.8308 48.2806 63.06 48.3995C63.2067 48.4795 63.4134 48.6062 63.5334 48.6862C63.9043 48.9348 64.2918 49.1575 64.6934 49.3528C64.8383 49.3978 64.9771 49.4605 65.1067 49.5395C65.297 49.6415 65.4929 49.7327 65.6934 49.8128C65.86 49.8795 66.18 50.0195 66.4067 50.1262C66.6043 50.2192 66.8095 50.295 67.02 50.3528C67.16 50.3528 67.4467 50.4529 67.6867 50.5129L68.7267 50.7862C69.0261 50.8591 69.3202 50.9526 69.6067 51.0662C69.7467 51.1395 69.84 51.1862 69.84 51.3128C69.8355 51.3571 69.8188 51.3993 69.7917 51.4346C69.7646 51.4699 69.7283 51.497 69.6867 51.5129C69.6867 51.5129 69.6867 51.5128 69.6867 51.6462C69.6867 51.9128 69.6067 52.0062 69.3267 52.0262H69.2534C69.0935 52.2734 68.8604 52.4645 68.5867 52.5728C68.5867 52.5728 68.5 52.6395 68.3867 52.7328C68.264 52.8304 68.1349 52.9195 68 52.9995V53.0529C67.9467 53.1395 67.8533 53.1662 67.64 53.1528C67.446 53.1336 67.2522 53.191 67.1 53.3128C67.1008 53.3826 67.0784 53.4507 67.0361 53.5063C66.9938 53.5618 66.9342 53.6017 66.8667 53.6195H66.7934C66.7934 53.7795 66.6734 53.8595 66.4934 53.9729C66.3685 54.059 66.2282 54.1201 66.08 54.1528C65.9861 54.2462 65.8752 54.3208 65.7534 54.3728C65.6697 54.4089 65.5912 54.456 65.52 54.5129C65.4042 54.6018 65.2697 54.6633 65.1267 54.6928L64.98 54.7328C64.8503 54.9297 64.6769 55.0939 64.4733 55.2129C64.34 55.3062 64.0667 55.4862 64 55.5195L63.8 55.6528C63.7218 55.7246 63.6285 55.778 63.527 55.8092C63.4255 55.8403 63.3184 55.8484 63.2133 55.8328C63.106 56.0159 62.9548 56.1694 62.7734 56.2795H62.7L62.6 56.3662C62.5503 56.4324 62.4859 56.4862 62.4119 56.5232C62.3378 56.5602 62.2561 56.5795 62.1733 56.5795C62.1176 56.5773 62.065 56.5534 62.0267 56.5129V56.5129C61.9675 56.5692 61.8971 56.6123 61.82 56.6395V56.6395C61.7534 56.8262 61.6 56.9395 61.2934 57.1128C61.1592 57.1864 61.03 57.2688 60.9067 57.3595C60.8055 57.461 60.6912 57.5485 60.5667 57.6195C60.4067 57.7477 60.2047 57.8119 60 57.7995C59.9067 57.7995 59.86 57.7995 59.4667 58.0728C59.3258 58.1702 59.1901 58.2748 59.06 58.3862C59.0139 58.4906 58.943 58.5821 58.8534 58.6528L58.5734 58.8795C58.5289 58.9231 58.4754 58.9564 58.4167 58.9772C58.3579 58.9979 58.2954 59.0055 58.2334 58.9995C58.2366 59.0171 58.2366 59.0352 58.2334 59.0529C58.2035 59.081 58.1658 59.0992 58.1253 59.1052C58.0847 59.1111 58.0433 59.1045 58.0067 59.0862C57.7512 59.1909 57.5231 59.3529 57.34 59.5595C57.2978 59.6832 57.2259 59.7947 57.1306 59.8842C57.0353 59.9737 56.9195 60.0385 56.7934 60.0728C56.7152 60.1191 56.6415 60.1727 56.5734 60.2328C56.2867 60.4728 56.1934 60.4729 56.16 60.4729C56.1267 60.4729 56.16 60.4729 56.0933 60.5462C56.0244 60.6269 55.9344 60.6869 55.8334 60.7195V60.7528C55.74 60.9528 55.6067 60.9462 55.5533 60.9395C55.513 60.9288 55.4765 60.9068 55.4482 60.8761C55.4198 60.8454 55.4008 60.8073 55.3934 60.7662C55.349 60.7885 55.3085 60.8177 55.2734 60.8528L55.0734 60.9862L54.5533 61.3395C54.48 61.3929 54.14 61.6328 54.08 61.6595L53.72 61.9128C53.5067 62.0726 53.2841 62.2195 53.0533 62.3528L52.46 62.6995C52.14 62.8928 51.6667 63.1595 50.7734 63.6595C50.4946 63.8021 50.2348 63.979 50 64.1862C49.8749 64.3194 49.7312 64.4339 49.5734 64.5262C49.4812 64.5797 49.396 64.6447 49.32 64.7195C49.247 64.8051 49.1559 64.8734 49.0533 64.9195C49.0294 64.9665 48.9932 65.0061 48.9487 65.0343C48.9041 65.0625 48.8527 65.0781 48.8 65.0795L48.5867 65.1662C48.4332 65.2432 48.265 65.2864 48.0933 65.2928V65.2928C47.98 65.2928 47.9 65.2928 47.6 65.5195C46.8332 65.9646 46.0356 66.3544 45.2133 66.6862L45.0667 66.7462C44.9667 66.7946 44.8577 66.8218 44.7467 66.8262H44.6667C44.21 66.6943 43.7642 66.5271 43.3334 66.3262C43.2212 66.2715 43.1054 66.2247 42.9867 66.1862C42.7438 66.1367 42.5156 66.0318 42.32 65.8795C41.9554 65.6577 41.5768 65.4595 41.1867 65.2862C41.1373 65.2745 41.0906 65.2531 41.0494 65.2234C41.0083 65.1936 40.9734 65.1561 40.9467 65.1128C40.8977 65.0645 40.8415 65.024 40.78 64.9928C40.6594 64.9324 40.5473 64.8562 40.4467 64.7662C40.2334 64.5595 40.16 64.5328 40.1467 64.5328C40.02 64.5328 39.8867 64.3662 39.8534 64.3195C39.8159 64.2661 39.7621 64.2263 39.7 64.2062C39.5551 64.1691 39.422 64.0957 39.3134 63.9928C39.2267 63.9262 39.04 63.7862 38.8934 63.6928C38.7529 63.6202 38.6265 63.5231 38.52 63.4062C38.52 63.4062 38.3267 63.2995 38.0933 63.1795C37.8559 63.06 37.6323 62.9147 37.4267 62.7462C37.3301 62.6584 37.2252 62.5802 37.1134 62.5129L36.7667 62.3062L36.4467 62.1128C36.3141 62.034 36.1911 61.94 36.08 61.8328C36.037 61.7869 35.9847 61.7505 35.9267 61.7262C35.8829 61.72 35.8408 61.705 35.803 61.6821C35.7652 61.6592 35.7324 61.6288 35.7067 61.5929C35.6361 61.5229 35.5603 61.4582 35.48 61.3995C35.1467 61.1395 33.98 60.0662 33.62 59.7195C33.4279 59.5243 33.2254 59.3396 33.0133 59.1662C32.8266 59.0069 32.6507 58.8354 32.4867 58.6528C32.4 58.5528 32.3333 58.4929 32.3067 58.4662C32.2557 58.4518 32.2082 58.4272 32.167 58.394C32.1257 58.3608 32.0916 58.3196 32.0667 58.2728C31.9367 58.1085 31.7964 57.9527 31.6467 57.8062C31.2334 57.3995 31.2 57.2862 31.22 57.2062C31.1913 57.1698 31.1549 57.1401 31.1134 57.1195C30.9659 56.9947 30.8378 56.8487 30.7334 56.6862C30.642 56.5487 30.5418 56.4173 30.4334 56.2928C30.294 56.1329 30.1627 55.966 30.04 55.7928C29.8867 55.5862 29.7 55.3462 29.62 55.2528C29.54 55.1595 29.3734 54.9262 29.24 54.7195C29.1256 54.5439 28.9986 54.3768 28.86 54.2195C28.7643 54.1206 28.6773 54.0135 28.6 53.8995C28.5203 53.7596 28.4335 53.6239 28.34 53.4928C28.2364 53.3653 28.1552 53.221 28.1 53.0662L28.02 52.9862C27.8578 52.832 27.7226 52.6517 27.62 52.4528C27.5267 52.2862 27.4533 52.1729 27.4267 52.1329C27.3328 52.0511 27.2597 51.9483 27.2133 51.8328C27.1729 51.755 27.1284 51.6793 27.08 51.6062C27.0133 51.5395 26.9572 51.4631 26.9134 51.3795C26.9134 51.3129 26.7534 51.0995 26.62 50.8995C26.4867 50.6995 26.3334 50.4728 26.2734 50.3728C26.2261 50.2878 26.1678 50.2093 26.1 50.1395C26.0152 50.0662 25.9606 49.9641 25.9467 49.8528C25.9467 49.8528 25.9467 49.7995 25.88 49.7395C25.7581 49.5846 25.6573 49.4142 25.58 49.2328C25.5549 49.186 25.5259 49.1415 25.4934 49.0995C25.4125 49.0087 25.3633 48.894 25.3534 48.7728C25.3259 48.7125 25.29 48.6564 25.2467 48.6062C25.1446 48.4954 25.0733 48.3598 25.04 48.2129C25.04 48.2129 25.04 48.0928 24.8267 47.8528C24.7271 47.7482 24.6619 47.6156 24.64 47.4729C24.64 47.3929 24.64 47.3328 24.28 46.8595C24.16 46.6865 24.0509 46.5061 23.9534 46.3195C23.891 46.1966 23.8197 46.0786 23.74 45.9662C23.5188 45.6685 23.3622 45.3279 23.28 44.9662C23.28 44.9662 23.28 44.9662 23.24 44.9662C23.1139 44.8615 23.0251 44.7189 22.9867 44.5595C22.9706 44.4986 22.9459 44.4402 22.9134 44.3862C22.75 44.2043 22.6172 43.9971 22.52 43.7728C22.3667 43.4862 22.1533 43.1062 22.0533 42.9262C21.933 42.7256 21.8283 42.5161 21.74 42.2995C21.6979 42.1855 21.6443 42.076 21.58 41.9729C21.3924 41.7721 21.2713 41.5183 21.2334 41.2462C21.2062 41.0878 21.1397 40.9388 21.04 40.8128C20.9877 40.7834 20.9472 40.7368 20.9253 40.6809C20.9034 40.6251 20.9016 40.5633 20.92 40.5062C20.92 40.5062 20.92 40.5062 20.8667 40.4395C20.797 40.3322 20.7431 40.2155 20.7067 40.0929C20.6932 40.0363 20.6707 39.9823 20.64 39.9329C20.4086 39.517 20.2081 39.0848 20.04 38.6395C20.0092 38.6017 19.9758 38.566 19.94 38.5328C19.8267 38.4462 19.7467 38.3728 19.74 38.2795C19.6414 38.0501 19.5278 37.8274 19.4 37.6128C19.2448 37.4156 19.1313 37.1887 19.0667 36.9462C18.9908 36.6972 18.8584 36.469 18.68 36.2795C18.5303 36.0876 18.3987 35.8823 18.2867 35.6662C18.1899 35.477 18.0807 35.2944 17.96 35.1195C17.8605 34.9842 17.7714 34.8416 17.6934 34.6928C17.6327 34.5768 17.5637 34.4654 17.4867 34.3595C17.2826 34.0834 17.127 33.7745 17.0267 33.4462C17.0267 33.4462 16.98 33.3928 16.92 33.3195C16.8159 33.1837 16.7244 33.0386 16.6467 32.8862C16.5814 32.7443 16.5079 32.6063 16.4267 32.4729C16.3533 32.3662 16.2267 32.1395 16.1333 31.9729C16.0853 31.8801 16.0272 31.7929 15.96 31.7129C15.924 31.6953 15.8929 31.6691 15.8696 31.6365C15.8463 31.6039 15.8316 31.5659 15.8267 31.5262C15.7986 31.4821 15.7649 31.4418 15.7267 31.4062C15.6394 31.3375 15.5707 31.2481 15.5267 31.1462C15.4734 31.0395 15.16 30.5395 14.9467 30.2262C14.8867 30.1462 14.7134 29.8795 14.56 29.6462C14.4067 29.4128 14.2933 29.2529 14.2667 29.2195C14.2331 29.2022 14.2055 29.1751 14.1877 29.1417C14.1698 29.1084 14.1625 29.0704 14.1667 29.0328C14.0204 28.734 13.8318 28.4578 13.6067 28.2129C13.4874 28.0749 13.3761 27.9302 13.2734 27.7795C13.1969 27.6611 13.105 27.5535 13 27.4595C12.8694 27.3742 12.76 27.2602 12.68 27.1262C12.4145 26.7374 12.1251 26.3656 11.8134 26.0129C11.6776 25.8672 11.5507 25.7136 11.4333 25.5529C11.3969 25.503 11.3517 25.46 11.3 25.4262C11.1816 25.3601 11.081 25.2663 11.0067 25.1528C10.9436 25.0701 10.8745 24.9921 10.8 24.9195C10.7653 24.8978 10.7358 24.8686 10.7139 24.8339C10.692 24.7993 10.6781 24.7602 10.6733 24.7195C10.6725 24.6819 10.6797 24.6445 10.6947 24.61C10.7097 24.5755 10.732 24.5446 10.76 24.5195C10.7999 24.4782 10.8494 24.4474 10.9041 24.43C10.9588 24.4125 11.0169 24.4089 11.0734 24.4195C11.1736 24.3938 11.2717 24.3604 11.3667 24.3195C11.5052 24.2545 11.6505 24.2053 11.8 24.1729L11.9667 24.0929C12.0602 24.1186 12.1499 24.1567 12.2334 24.2062C12.2797 24.1967 12.3246 24.181 12.3667 24.1595C12.5134 24.0795 14.18 23.4928 14.3667 23.4928C14.6832 23.3703 14.9926 23.2301 15.2934 23.0728C15.4367 22.9997 15.5892 22.9459 15.7467 22.9128C15.8741 22.8641 15.9987 22.8085 16.12 22.7462C16.3267 22.6395 16.68 22.4662 16.9134 22.3595C17.0751 22.2876 17.2331 22.2075 17.3867 22.1195C17.552 22.0257 17.7235 21.9433 17.9 21.8728C18.0339 21.8215 18.1632 21.759 18.2867 21.6862C18.3114 21.6483 18.345 21.617 18.3844 21.595C18.4239 21.5729 18.4681 21.5608 18.5133 21.5595C18.6133 21.5595 19.64 21.0462 19.8467 20.9329C19.9536 20.8632 20.0676 20.8051 20.1867 20.7595C20.2376 20.7442 20.2851 20.7192 20.3267 20.6862C20.4438 20.5903 20.577 20.5158 20.72 20.4662C20.8916 20.3965 21.0567 20.3117 21.2133 20.2129C21.3395 20.1271 21.4734 20.0534 21.6134 19.9928C21.6469 19.9841 21.6771 19.9655 21.7 19.9395C21.735 19.8991 21.7779 19.8665 21.8261 19.8435C21.8743 19.8206 21.9267 19.8079 21.98 19.8062C21.98 19.8062 22.08 19.7528 22.1934 19.6662C22.31 19.5652 22.4496 19.4942 22.6 19.4595C22.7067 19.4262 23.6533 18.9662 23.76 18.8929C23.9362 18.7822 24.1187 18.682 24.3067 18.5929C24.5058 18.4923 24.6955 18.374 24.8734 18.2395C24.9541 18.1441 25.0643 18.0784 25.1867 18.0529C25.3844 18.0113 25.5723 17.9321 25.74 17.8195C25.8463 17.738 25.9692 17.6811 26.1 17.6528C26.2933 17.5583 26.4764 17.4444 26.6467 17.3128C26.7128 17.2505 26.7928 17.2049 26.88 17.1795C26.9085 17.1418 26.9446 17.1105 26.986 17.0875C27.0273 17.0646 27.073 17.0505 27.12 17.0462C27.2026 17.0162 27.281 16.9759 27.3534 16.9262C27.4801 16.8432 27.6114 16.7676 27.7467 16.6995L28.4134 16.3528C28.7 16.1862 29.02 16.0195 29.14 15.9662C29.1871 15.9469 29.2319 15.9223 29.2734 15.8929C29.2935 15.8487 29.3266 15.8116 29.3683 15.7866C29.4099 15.7616 29.4582 15.7498 29.5067 15.7528C29.6133 15.7128 30.84 15.0862 31.08 14.9262C31.1534 14.8795 31.3267 14.7728 31.4733 14.6928C31.7412 14.5268 31.9954 14.3395 32.2334 14.1329H32.2267Z" fill="#342B1D"/>
<path d="M23.453 25.54L24.6197 24.8733C24.7898 24.7791 24.9525 24.6722 25.1063 24.5533C25.393 24.32 25.4863 24.3199 25.513 24.3199L25.6663 24.2266C25.853 24.1 25.9597 24.0866 26.0197 24.1L26.0863 24.06C26.1663 24.0066 26.3396 23.9066 26.4663 23.84C26.547 23.8021 26.623 23.7551 26.693 23.7C27.2789 23.3376 27.8945 23.0254 28.533 22.7666C28.6168 22.6717 28.7336 22.6122 28.8597 22.6C28.9214 22.5889 28.979 22.5612 29.0263 22.5199C29.0548 22.4789 29.0914 22.4442 29.1338 22.4178C29.1762 22.3915 29.2236 22.374 29.273 22.3666C29.4629 22.2871 29.642 22.1841 29.8063 22.06C29.8946 21.9676 30.0014 21.8949 30.1197 21.8466H30.193C30.4032 21.6419 30.6258 21.4504 30.8597 21.2733C30.8334 21.2252 30.8196 21.1714 30.8196 21.1166C30.8196 21.0619 30.8334 21.008 30.8597 20.96V20.96C30.8123 20.928 30.7743 20.884 30.7496 20.8324C30.725 20.7808 30.7147 20.7236 30.7196 20.6666C30.7196 20.6666 30.7197 20.6266 30.6463 20.5733C30.3997 20.2799 30.2863 20.1599 30.2397 20.1133H30.0996C29.8232 20.2235 29.5557 20.355 29.2996 20.5066C29.0293 20.6672 28.7487 20.8097 28.4597 20.9333C28.3033 21.0005 28.1518 21.0784 28.0063 21.1666C27.6238 21.4224 27.2091 21.6264 26.773 21.7733C26.773 21.7733 26.4997 21.9066 26.153 22.0933L25.2596 22.5466L24.9463 22.7066L24.2797 23.0866C23.9663 23.2666 23.4197 23.5666 23.073 23.7533L22.4063 24.1266C22.2887 24.2054 22.1662 24.2766 22.0397 24.34C21.9729 24.3697 21.9101 24.4077 21.853 24.4533C21.8234 24.4995 21.7815 24.5364 21.7321 24.56C21.6826 24.5835 21.6275 24.5928 21.573 24.5866C21.5368 24.595 21.5027 24.6109 21.473 24.6333C21.374 24.7196 21.2547 24.7792 21.1263 24.8066C21.0252 24.8317 20.9285 24.8721 20.8396 24.9266C20.7196 25.0066 20.173 25.2666 19.7397 25.4733C19.3063 25.68 18.6597 26 18.4397 26.14C18.2197 26.28 17.9663 26.4333 17.8863 26.4799L17.4663 26.7466C17.293 26.8666 17.0597 27.0066 16.933 27.08L16.833 27.14C16.833 27.2066 16.8797 27.3066 16.8997 27.3866C16.9934 27.5653 17.134 27.715 17.3063 27.8199C17.386 27.82 17.4625 27.8511 17.5197 27.9066H17.673C17.953 27.9066 18.0196 27.9066 18.0463 27.9533C18.2898 27.9548 18.5316 27.9119 18.7596 27.8266C18.8394 27.7679 18.9342 27.7333 19.033 27.7266C19.0566 27.6688 19.096 27.6187 19.1467 27.5822C19.1974 27.5457 19.2573 27.5241 19.3197 27.5199C19.8539 27.3271 20.3769 27.1045 20.8863 26.8533L22.1463 26.2266L22.2397 26.3733L22.233 26.2066L23.453 25.54Z" fill="#342B1D"/>
<path d="M24.6595 31.3942C25.2729 31.0609 25.4462 31.0142 25.5529 31.0409C25.6886 30.909 25.8437 30.7989 26.0129 30.7142C26.2062 30.6075 26.4995 30.4209 26.6795 30.3009C26.8595 30.1809 27.1462 29.9808 27.3462 29.8608C27.4443 29.8095 27.536 29.7469 27.6195 29.6742C27.6481 29.6364 27.6856 29.6062 27.7286 29.5865C27.7716 29.5667 27.8189 29.5579 27.8662 29.5609C27.9805 29.5249 28.0919 29.4803 28.1995 29.4275C28.3358 29.3527 28.4816 29.2967 28.6329 29.2609C28.6329 29.2609 28.6329 29.2609 28.6329 29.2609C28.9193 29.0016 29.2487 28.794 29.6062 28.6475C30.2129 28.4208 30.9395 28.1008 31.1129 27.9808C31.2048 27.9255 31.2938 27.8654 31.3795 27.8009C31.6883 27.5961 32.0283 27.443 32.3862 27.3475C32.5762 27.281 32.7593 27.1961 32.9329 27.0942C33.0062 27.0542 33.1329 26.9875 33.2129 26.9542L33.2929 26.9075C33.6386 26.5835 34.0502 26.3379 34.4996 26.1875C34.6596 26.1875 36.4995 25.4075 36.9395 25.1608C37.175 25.0418 37.4232 24.9501 37.6795 24.8875C37.7643 24.8114 37.8533 24.7401 37.9462 24.6742C38.226 24.4656 38.5226 24.2805 38.8329 24.1208C39.0462 24.0142 39.2995 23.8808 39.3929 23.8208C39.376 23.7688 39.376 23.7129 39.3929 23.6608L39.4462 23.5942H39.5129C39.567 23.5582 39.6182 23.5181 39.6662 23.4742L39.7129 23.4342C39.6788 23.4038 39.6513 23.3669 39.6318 23.3257C39.6124 23.2845 39.6014 23.2397 39.5995 23.1942C39.6005 23.1551 39.6146 23.1176 39.6395 23.0875L39.5662 23.0342C39.4471 22.9441 39.3224 22.8617 39.1929 22.7875C39.0636 22.707 38.9505 22.603 38.8595 22.4808C38.8376 22.442 38.8082 22.4081 38.7729 22.3809C38.7442 22.3864 38.717 22.3977 38.6929 22.4142L38.2795 22.6675C38.1035 22.7767 37.9184 22.8703 37.7262 22.9475C37.648 22.972 37.5738 23.0079 37.5062 23.0542C37.3947 23.13 37.2737 23.1905 37.1462 23.2342C36.9804 23.2893 36.818 23.3539 36.6595 23.4275C36.3802 23.5656 36.0904 23.6815 35.7929 23.7742C35.7393 23.7878 35.6893 23.8129 35.6462 23.8475C35.6462 23.9542 35.4595 24.0342 35.3662 24.0609C35.3096 24.0772 35.2495 24.0772 35.1929 24.0609C35.0685 24.1192 34.952 24.1931 34.8462 24.2808C34.8335 24.3196 34.8075 24.3527 34.7729 24.3742C34.7397 24.3906 34.7032 24.3992 34.6662 24.3992C34.6292 24.3992 34.5927 24.3906 34.5595 24.3742C34.5234 24.4121 34.48 24.4423 34.4318 24.4629C34.3837 24.4836 34.3319 24.4942 34.2795 24.4942C34.0074 24.5858 33.7459 24.7065 33.4996 24.8542C33.3609 24.9379 33.2066 24.9924 33.0462 25.0142C32.8309 25.0399 32.6286 25.1306 32.4662 25.2742C32.382 25.3667 32.2734 25.4338 32.1529 25.4675C31.9861 25.5247 31.8353 25.6207 31.7129 25.7475C31.6914 25.8113 31.6461 25.8643 31.5865 25.8954C31.5268 25.9265 31.4574 25.9332 31.3929 25.9142C30.9167 26.0693 30.4568 26.2702 30.0195 26.5142C29.8594 26.6034 29.7057 26.7036 29.5595 26.8142C29.4684 26.8955 29.3584 26.9528 29.2395 26.9808C29.2173 27.0044 29.1904 27.0231 29.1606 27.0358C29.1308 27.0484 29.0986 27.0547 29.0662 27.0542C28.776 27.1624 28.5022 27.3104 28.2529 27.4942C28.1584 27.6055 28.0366 27.6905 27.8995 27.7408C27.8225 27.7654 27.7487 27.799 27.6795 27.8409C27.5929 27.9142 27.0729 28.1742 27.0129 28.1875C26.7062 28.3408 26.4795 28.4675 26.4462 28.4942C26.4129 28.5208 26.0529 28.7675 25.8529 28.9008C25.6529 29.0342 25.3062 29.2742 25.2529 29.3208C25.1757 29.4054 25.0724 29.4617 24.9596 29.4808C24.9596 29.4808 24.9595 29.4808 24.8862 29.5275C24.8232 29.5694 24.7485 29.5905 24.6729 29.5875H24.6129L24.5329 29.6342C24.5329 29.7142 24.3995 29.7675 24.2129 29.8142C24.1085 29.8426 24.0095 29.8876 23.9196 29.9475C23.7443 30.0697 23.5617 30.181 23.3729 30.2808C23.2418 30.3487 23.1149 30.4245 22.9929 30.5075C22.9665 30.5468 22.9307 30.5789 22.8888 30.601C22.8469 30.6231 22.8002 30.6345 22.7529 30.6342L22.2129 30.8675C22.0051 30.989 21.7804 31.0789 21.5462 31.1342C21.5462 31.1342 21.5462 31.1342 21.4662 31.2075C21.4051 31.2641 21.3285 31.3012 21.2462 31.3142V31.3142C21.1309 31.4102 21.0083 31.4971 20.8795 31.5742C20.7659 31.6361 20.6606 31.7123 20.5662 31.8009C20.5067 31.8588 20.4394 31.9082 20.3662 31.9475C20.3768 32.0396 20.4015 32.1296 20.4395 32.2142C20.5162 32.3442 20.6104 32.4631 20.7195 32.5675C20.9062 32.7342 20.9062 32.7342 21.3862 32.7675C21.8662 32.8009 21.8262 32.7675 21.9196 32.7209C22.096 32.6034 22.2893 32.5134 22.4929 32.4542C22.6681 32.3991 22.8377 32.3277 22.9996 32.2408C23.151 32.1536 23.3121 32.0843 23.4795 32.0342C23.667 31.9609 23.8423 31.8598 23.9996 31.7342C24.1478 31.6089 24.3086 31.4994 24.4795 31.4075L24.6595 31.3942Z" fill="#342B1D"/>
<path d="M28.4337 36.3468C28.8003 36.1735 28.867 36.1735 28.8937 36.1735C28.9203 36.1735 29.0204 36.1268 29.1937 36.0468L29.7337 35.7935C29.8828 35.7246 30.0275 35.6467 30.167 35.5601L30.647 35.2734C30.7289 35.2263 30.8069 35.1728 30.8803 35.1134C30.9573 35.0389 31.051 34.9841 31.1537 34.9535C31.3404 34.8868 31.887 34.6601 32.1137 34.5601L32.467 34.4068C32.5576 34.3722 32.6429 34.3251 32.7203 34.2668C32.8329 34.1821 32.9562 34.1126 33.087 34.0601C33.4368 33.9002 33.7733 33.7129 34.0937 33.5001C34.2185 33.4219 34.3476 33.3507 34.4803 33.2868C34.5955 33.2321 34.7069 33.1698 34.8137 33.1001C34.9104 33.0305 35.0188 32.9785 35.1337 32.9468H35.1937C35.2144 32.9006 35.2482 32.8616 35.2908 32.8344C35.3334 32.8071 35.3831 32.7929 35.4337 32.7935C35.4337 32.7935 35.6137 32.7201 35.8737 32.5935C36.2574 32.3941 36.6538 32.2204 37.0603 32.0734C37.1438 32.0427 37.2225 32.0001 37.2937 31.9468L37.6803 31.7135C37.7966 31.6458 37.908 31.57 38.0137 31.4868C38.3796 31.2582 38.7684 31.0683 39.1737 30.9201C39.3417 30.8827 39.499 30.8074 39.6337 30.7001L39.5737 30.6468C39.5191 30.5973 39.4586 30.5548 39.3937 30.5201C39.3137 30.5201 39.2203 30.4201 39.187 30.3268C39.1246 30.2455 39.0555 30.1697 38.9803 30.1001C38.8646 29.99 38.7678 29.8616 38.6937 29.7201C38.6742 29.6964 38.649 29.678 38.6204 29.6668C38.5473 29.6461 38.4808 29.6071 38.427 29.5535C38.3851 29.5574 38.3429 29.5517 38.3035 29.5367C38.2642 29.5216 38.2289 29.4977 38.2004 29.4668L38.127 29.5135C38.0189 29.5976 37.8898 29.6506 37.7537 29.6668C37.6603 29.7043 37.571 29.7513 37.487 29.8068C37.3503 29.9003 37.2025 29.9764 37.047 30.0334C36.9719 30.0587 36.9019 30.097 36.8403 30.1468C36.551 30.3641 36.2323 30.5392 35.8937 30.6668C35.6811 30.8841 35.3968 31.0168 35.0937 31.0401V31.0401C35.0052 31.1306 34.8865 31.1851 34.7603 31.1934H34.7203C34.6836 31.2478 34.6339 31.2922 34.5757 31.3225C34.5175 31.3528 34.4526 31.368 34.387 31.3668C34.3627 31.363 34.338 31.363 34.3137 31.3668C34.2072 31.4686 34.0829 31.55 33.947 31.6068C33.865 31.6407 33.7868 31.6831 33.7137 31.7334C33.5601 31.8667 33.3736 31.9565 33.1737 31.9934C33.1737 31.9934 33.1137 32.0401 33.0337 32.1201C32.9213 32.2199 32.7983 32.307 32.667 32.3801L32.207 32.6068C32.0541 32.6909 31.8903 32.7537 31.7203 32.7935C31.6929 32.8507 31.6506 32.8994 31.5978 32.9346C31.545 32.9698 31.4837 32.9901 31.4204 32.9934C31.2113 33.0242 31.0124 33.1042 30.8403 33.2268C30.7127 33.3093 30.5733 33.3723 30.427 33.4135C30.3839 33.4233 30.3432 33.4414 30.307 33.4668C30.2753 33.5054 30.2357 33.5367 30.1908 33.5585C30.146 33.5804 30.0969 33.5923 30.047 33.5935C30.047 33.5935 29.987 33.5934 29.9337 33.6601C29.8528 33.7224 29.7629 33.7719 29.667 33.8068L29.627 33.8468C29.5892 33.8916 29.5423 33.9278 29.4895 33.9531C29.4366 33.9784 29.3789 33.9921 29.3204 33.9934C29.296 33.9898 29.2713 33.9898 29.247 33.9934C29.1537 34.0734 28.6404 34.3401 28.5804 34.3735C28.2537 34.5468 28.0203 34.6801 27.9803 34.7068C27.9071 34.774 27.8129 34.814 27.7137 34.8201C27.5944 34.8651 27.4786 34.9186 27.367 34.9801C26.3537 35.5268 26.1203 35.6468 25.9803 35.6468C25.9283 35.6499 25.8779 35.6659 25.8337 35.6934C25.7541 35.7507 25.6584 35.7811 25.5603 35.7801C25.4859 35.7999 25.4142 35.829 25.347 35.8668C25.2138 35.938 25.0728 35.9939 24.927 36.0334C24.5814 36.1829 24.2491 36.3613 23.9337 36.5668C23.8691 36.622 23.7908 36.6589 23.707 36.6735C23.718 36.7208 23.7313 36.7675 23.747 36.8134C23.7808 36.9013 23.8032 36.9932 23.8137 37.0868L23.9137 37.1934C24.0104 37.2731 24.0763 37.3839 24.1003 37.5068C24.1808 37.5792 24.2679 37.6439 24.3604 37.7001C24.547 37.8268 24.547 37.8268 24.9803 37.8001C25.1994 37.8107 25.4175 37.7648 25.6137 37.6668C25.7188 37.5918 25.8396 37.5416 25.967 37.5201C26.0203 37.5201 26.5204 37.2601 26.8204 37.0868L27.2004 36.8801L27.727 36.6401L28.4337 36.3468Z" fill="#342B1D"/>
<path d="M28.9937 43.0464C29.5471 42.6864 29.6604 42.6864 29.6604 42.6864C29.6604 42.6864 29.7871 42.6198 29.9604 42.4998C30.1254 42.386 30.2993 42.2857 30.4804 42.1998C30.5604 42.1998 30.8604 42.0131 31.1471 41.8464C31.3932 41.7079 31.647 41.5833 31.9071 41.4731C32.0951 41.3908 32.2757 41.2927 32.4471 41.1798C33.2467 40.7109 34.0725 40.2879 34.9204 39.9131C35.2393 39.7884 35.5489 39.6414 35.847 39.4731C35.883 39.4252 35.9351 39.392 35.9937 39.3798C36.0671 39.3798 36.3604 39.2198 36.8337 38.9931C37.1439 38.8325 37.4621 38.6879 37.7871 38.5598H37.8337C37.9337 38.4922 38.0384 38.432 38.1471 38.3798L38.2937 38.2931C38.3271 38.2331 38.4204 38.1731 38.6271 38.0931C38.713 38.0663 38.7941 38.0258 38.8671 37.9731C38.9307 37.9027 39.0191 37.8597 39.1137 37.8531C39.3173 37.783 39.5138 37.6938 39.7004 37.5864C39.7868 37.4912 39.9011 37.4258 40.0271 37.3997C40.4057 37.2769 40.77 37.1138 41.1137 36.9131C41.4071 36.7531 41.7804 36.5731 41.9004 36.5131C42.3537 36.3198 43.4871 35.7598 43.8604 35.5464C44.0339 35.445 44.2144 35.3559 44.4004 35.2797C44.4785 35.2477 44.5507 35.2026 44.6137 35.1464C44.7977 35.0066 44.9941 34.8838 45.2004 34.7797L45.6004 34.5531C45.5628 34.5025 45.5398 34.4425 45.5337 34.3798H45.4871C45.4091 34.357 45.3414 34.3082 45.2953 34.2414C45.2492 34.1746 45.2274 34.094 45.2337 34.0131C45.121 33.9294 45.0162 33.8357 44.9204 33.7331C44.8683 33.6759 44.8102 33.6245 44.7471 33.5798C44.6737 33.5798 44.5537 33.5064 44.5004 33.4531L44.2871 33.2598H44.2471L44.0871 33.3531C44.0051 33.3994 43.929 33.4553 43.8604 33.5197C43.8604 33.6131 43.6271 33.7797 43.4537 33.8997C43.316 33.9883 43.1846 34.0864 43.0604 34.1931C43.0137 34.2397 42.9337 34.3331 42.8271 34.3131L42.7204 34.3597C42.6166 34.4163 42.5038 34.4547 42.387 34.4731C42.199 34.5546 42.0164 34.6481 41.8404 34.7531C41.8252 34.7908 41.7967 34.8216 41.7604 34.8398L41.6804 34.8864H41.6204C41.3269 35.0058 41.0456 35.1531 40.7804 35.3264C40.7144 35.3823 40.637 35.4232 40.5537 35.4464L39.7337 35.8331C39.4022 36.0079 39.0537 36.1486 38.6937 36.2531C38.6654 36.2451 38.6354 36.2451 38.6071 36.2531C38.3966 36.4316 38.148 36.5593 37.8804 36.6264C37.8804 36.6264 37.8804 36.6264 37.8204 36.6864C37.5431 36.8928 37.2434 37.0673 36.927 37.2064C35.8737 37.7064 35.5937 37.8331 35.3804 37.9531C34.9226 38.2427 34.4268 38.4671 33.9071 38.6198C33.9071 38.6198 33.9071 38.6198 33.8271 38.6798C33.6991 38.7605 33.5654 38.8318 33.427 38.8931C33.3575 38.9231 33.2906 38.9587 33.2271 38.9998C33.1871 39.0798 33.0471 39.1131 32.9471 39.1131V39.0664C32.8537 39.2264 32.4937 39.3331 32.2804 39.3798C32.2309 39.3996 32.1889 39.4346 32.1604 39.4797C32.1306 39.5488 32.0813 39.6076 32.0185 39.6491C31.9558 39.6905 31.8823 39.7128 31.807 39.7131C31.7345 39.7314 31.6679 39.7681 31.6137 39.8197C31.5006 39.9234 31.3589 39.9908 31.2071 40.0131C31.17 40.019 31.1354 40.0352 31.1071 40.0598C31.0052 40.1546 30.8777 40.2172 30.7404 40.2398L30.4604 40.2864C30.2241 40.4233 30.0009 40.5818 29.7937 40.7598C29.7553 40.7924 29.7107 40.8168 29.6626 40.8317C29.6145 40.8466 29.5638 40.8516 29.5137 40.8464C29.4365 40.9163 29.3422 40.9645 29.2404 40.9864L28.9804 41.0731L28.547 41.2797C28.3994 41.3442 28.2605 41.4271 28.1337 41.5264C27.9861 41.6506 27.8251 41.758 27.6537 41.8464C27.5061 41.9278 27.3656 42.0215 27.2337 42.1264C27.1585 42.2092 27.0649 42.2731 26.9604 42.3131C26.8772 42.3756 26.7992 42.4447 26.7271 42.5197L26.5537 42.6998L26.6204 42.8731C26.7685 43.1794 26.9994 43.4381 27.2871 43.6198C27.4169 43.672 27.5541 43.7035 27.6937 43.7131C28.0204 43.6531 28.1337 43.6131 28.9937 43.0464Z" fill="#342B1D"/>
<path d="M39.2134 43.6993C39.1225 43.6554 39.041 43.5943 38.9734 43.5193C38.8934 43.4327 38.82 43.3794 38.5467 43.466C38.46 43.4994 38.2601 43.5527 38.1067 43.5927C37.741 43.6647 37.382 43.7673 37.0334 43.8993C36.93 43.9781 36.8034 44.0203 36.6734 44.0193C36.6267 44.0193 36.6001 44.0193 36.5401 44.106C36.4986 44.1716 36.4416 44.2259 36.3742 44.2643C36.3068 44.3026 36.2309 44.3238 36.1534 44.326C36.046 44.351 35.9471 44.4039 35.8667 44.4793C35.6435 44.6433 35.3961 44.7715 35.1334 44.8593C34.9316 44.9312 34.7355 45.0181 34.5467 45.1193C34.2215 45.3671 33.8651 45.5711 33.4867 45.726C33.3691 45.7672 33.2488 45.8006 33.1267 45.826C32.8961 45.9062 32.673 46.0066 32.4601 46.126C32.3717 46.1779 32.2805 46.2247 32.1867 46.266C31.861 46.4271 31.5489 46.6144 31.2534 46.826C31.2534 46.826 30.8801 47.0793 30.8134 47.1127L30.3201 47.5727C29.8867 47.9993 29.8867 48.0127 29.8867 48.1193V48.186L29.9267 48.226C29.9433 48.2603 29.9519 48.2979 29.9519 48.336C29.9519 48.3741 29.9433 48.4117 29.9267 48.446V48.446C30.075 48.4726 30.2081 48.5534 30.3 48.6727L30.4601 48.826H30.8201C30.9877 48.8383 31.1556 48.8061 31.3067 48.7327C31.4277 48.657 31.5576 48.5966 31.6934 48.5527C32.0351 48.4383 32.3602 48.2791 32.6601 48.0794C33.2066 47.7245 33.7872 47.4252 34.3934 47.186C34.6265 47.1065 34.8501 47.0014 35.0601 46.8727C35.6043 46.5478 36.1701 46.2605 36.7534 46.0127C36.8538 45.9458 36.9584 45.8857 37.0667 45.8327C37.1334 45.8013 37.1979 45.7657 37.26 45.726C37.2798 45.6829 37.3118 45.6466 37.3522 45.6217C37.3925 45.5968 37.4393 45.5844 37.4867 45.586C37.4867 45.586 37.7201 45.4927 38.0001 45.3593C38.234 45.242 38.477 45.1439 38.7267 45.066C38.867 45.038 38.9991 44.9788 39.1134 44.8927C39.111 44.8403 39.1213 44.7881 39.1433 44.7406C39.1654 44.693 39.1986 44.6514 39.2401 44.6193C39.2115 44.5977 39.1886 44.5693 39.1735 44.5368C39.1584 44.5043 39.1515 44.4685 39.1534 44.4327C39.1534 44.2994 39.2934 44.2394 39.3667 44.206C39.4401 44.1727 39.3667 44.0927 39.3 44.0127C39.2521 43.9145 39.2227 43.8082 39.2134 43.6993V43.6993Z" fill="#342B1D"/>
<path d="M56.707 43.8477C56.7112 43.8678 56.72 43.8867 56.7327 43.9029C56.7454 43.9191 56.7618 43.9321 56.7804 43.941C56.761 43.9201 56.7431 43.8978 56.727 43.8743L56.707 43.8477Z" fill="#342B1D"/>
<path d="M56.7264 43.874C56.7425 43.8975 56.7604 43.9198 56.7797 43.9406V43.9406L56.7197 43.834L56.7264 43.874Z" fill="#342B1D"/>
<path d="M51.1866 46.6142C51.318 46.7101 51.4348 46.8246 51.5332 46.9542C51.6107 47.0547 51.7055 47.1405 51.8132 47.2075C52.0599 47.3608 52.1066 47.4475 52.1132 47.5008C52.1517 47.5853 52.1986 47.6657 52.2533 47.7408C52.3604 47.8547 52.4315 47.9978 52.4576 48.152C52.4837 48.3062 52.4636 48.4646 52.3999 48.6075V48.6475C52.4747 48.715 52.5438 48.7886 52.6066 48.8675C52.7599 49.0408 52.9666 49.2942 53.0599 49.4275C53.4143 49.9236 53.809 50.3896 54.2399 50.8208C54.272 50.853 54.3107 50.8781 54.3532 50.8942C54.3866 50.8942 54.4399 50.8942 54.4732 50.8942C54.5834 50.853 54.6886 50.7993 54.7866 50.7341C54.885 50.6562 55.0023 50.6056 55.1266 50.5875C55.1266 50.5875 55.1266 50.5875 55.1599 50.4942C55.1932 50.4008 55.2666 50.2608 55.3733 50.2008C55.3668 50.1475 55.3784 50.0936 55.4062 50.0477C55.434 50.0018 55.4764 49.9665 55.5266 49.9475C55.5549 49.8876 55.5907 49.8316 55.6332 49.7808C55.6332 49.7808 55.6332 49.6808 55.4532 49.6075C55.2732 49.5341 55.1799 49.4342 55.1399 49.3075C55.1171 49.2712 55.0877 49.2395 55.0532 49.2142C54.9351 49.1235 54.8336 49.0129 54.7533 48.8875C54.7251 48.8394 54.6915 48.7947 54.6532 48.7542C54.526 48.6931 54.4177 48.5986 54.3399 48.4808C54.2132 48.3208 54.1932 48.3208 54.1199 48.3208C53.9719 48.3073 53.8286 48.2618 53.6999 48.1875C53.5732 48.1075 53.4932 48.0608 53.4799 47.9475C53.4666 47.8342 53.5399 47.7808 53.5999 47.7208C53.6654 47.6519 53.7524 47.6073 53.8466 47.5942C53.9887 47.4722 54.1044 47.3225 54.1866 47.1541C54.1989 47.0805 54.2328 47.0122 54.2837 46.9577C54.3347 46.9031 54.4006 46.8648 54.4732 46.8475C54.4694 46.8299 54.4694 46.8117 54.4732 46.7942C54.4261 46.7186 54.3726 46.6472 54.3132 46.5808C54.1696 46.4095 54.0403 46.2266 53.9266 46.0342C53.9058 45.9908 53.8763 45.9522 53.8399 45.9208C53.7845 45.9044 53.7355 45.8712 53.6997 45.8259C53.6639 45.7805 53.643 45.7252 53.6399 45.6675C53.5139 45.458 53.354 45.271 53.1666 45.1142C52.9267 45.0326 52.6648 45.0445 52.4332 45.1475C52.3358 45.191 52.2559 45.2662 52.2066 45.3608C52.1838 45.4321 52.1408 45.4953 52.0828 45.5426C52.0248 45.59 51.9543 45.6194 51.8799 45.6275C51.7685 45.8183 51.6072 45.975 51.4132 46.0808C51.2704 46.2126 51.1548 46.3711 51.0732 46.5475L51.1866 46.6475V46.6142Z" fill="#342B1D"/>
<path d="M47.6799 49.3728C47.5676 49.2375 47.4349 49.1205 47.2866 49.0261C47.1996 49.0287 47.1145 49.0004 47.0465 48.9461C47.0324 48.9379 47.0163 48.9336 46.9999 48.9336C46.9835 48.9336 46.9674 48.9379 46.9532 48.9461C46.7532 49.1528 46.5732 49.2794 46.3666 49.2394C46.3666 49.2394 46.2933 49.2394 46.1266 49.3994C45.9599 49.5594 45.8932 49.6061 45.8666 49.6394C45.802 49.7068 45.725 49.7612 45.6399 49.7994C45.5347 49.8625 45.4456 49.9492 45.3799 50.0528V50.0528C45.7032 50.3164 46.0083 50.6014 46.2933 50.9061C46.5228 51.1732 46.7849 51.4106 47.0732 51.6127C47.0704 51.5996 47.0704 51.5859 47.0732 51.5727C47.1266 51.4594 47.2533 51.4594 47.3333 51.4594C47.4526 51.4641 47.5711 51.482 47.6866 51.5128V51.5128C47.7278 51.4752 47.7763 51.4464 47.829 51.4281C47.8817 51.4097 47.9376 51.4022 47.9932 51.4061C48.0329 51.4136 48.0736 51.4136 48.1132 51.4061C48.148 51.3673 48.1916 51.3373 48.2403 51.3188C48.289 51.3002 48.3414 51.2936 48.3932 51.2994C48.4173 51.2599 48.4504 51.2266 48.4897 51.2022C48.5291 51.1779 48.5738 51.1632 48.6199 51.1594C48.6529 51.0707 48.6907 50.9839 48.7332 50.8994C48.7866 50.7927 48.8399 50.6461 48.7866 50.5928C48.7404 50.5498 48.7079 50.4941 48.6932 50.4328L48.3866 50.1394C48.2332 49.9194 47.8866 49.5861 47.6799 49.3728Z" fill="#342B1D"/>
<path d="M55.4336 51.2591C55.5796 51.453 55.7449 51.6317 55.9269 51.7924C56.2336 52.0857 56.6669 52.519 56.8936 52.7457C57.2269 53.0724 57.2869 53.1057 57.3536 53.1057C57.3753 53.1084 57.3974 53.1062 57.4181 53.0993C57.4389 53.0924 57.4578 53.0809 57.4736 53.0657C57.6203 52.8857 57.7403 52.9057 57.9469 52.9657C58.0203 52.9657 58.0603 53.0057 58.0736 52.999C58.1176 52.9528 58.1721 52.9178 58.2324 52.897C58.2927 52.8761 58.3571 52.8699 58.4203 52.879C58.4333 52.8476 58.4569 52.8217 58.4869 52.8057C58.5201 52.7857 58.5582 52.7752 58.5969 52.7752C58.6357 52.7752 58.6737 52.7857 58.7069 52.8057C58.7269 52.7528 58.759 52.7052 58.8007 52.667C58.8424 52.6288 58.8925 52.601 58.9469 52.5857C58.9591 52.4887 59.0011 52.3979 59.0669 52.3257C59.0717 52.2594 59.0974 52.1964 59.1403 52.1457C59.1403 52.1457 59.1403 52.1457 59.1403 52.1057C58.8764 51.7494 58.5697 51.4269 58.2269 51.1457C58.0869 51.0586 57.961 50.9507 57.8536 50.8257L57.4069 50.359C57.1936 50.1457 57.1869 50.1524 57.0269 50.1524C56.883 50.1601 56.7432 50.2036 56.6203 50.279C56.5263 50.3436 56.4228 50.3931 56.3136 50.4257C56.2175 50.4924 56.1282 50.5683 56.0469 50.6524C55.8949 50.8268 55.73 50.9895 55.5536 51.1391C55.5109 51.1762 55.4708 51.2163 55.4336 51.2591Z" fill="#342B1D"/>
<path d="M45.5671 51.54C45.5352 51.4883 45.5062 51.4349 45.4804 51.38L45.3938 51.24C45.1871 51.1866 45.0271 50.88 44.9738 50.72C44.9661 50.6899 44.9549 50.6608 44.9404 50.6333C44.8267 50.5853 44.7211 50.52 44.6271 50.4399C44.5622 50.3863 44.4904 50.3415 44.4138 50.3066H44.2471C44.1738 50.5066 43.9538 50.5066 43.8471 50.5066C43.7404 50.5066 43.6871 50.5066 43.4338 50.7399C43.3636 50.821 43.2707 50.8791 43.1671 50.9066L43.0404 51.0333C43.0193 51.1199 42.9856 51.2031 42.9404 51.2799L43.0604 51.3933C43.2071 51.5266 43.3337 51.6666 43.3004 51.8466H43.3404C43.4404 51.8466 43.5937 51.9 44.0071 52.2266C44.2232 52.2904 44.4502 52.3085 44.6737 52.2799C44.7374 52.2278 44.8183 52.2017 44.9004 52.2066C45.0203 52.188 45.1293 52.1264 45.2071 52.0333C45.2731 51.9444 45.3602 51.8734 45.4605 51.8266C45.4509 51.7737 45.4557 51.7191 45.4745 51.6687C45.4933 51.6182 45.5252 51.5738 45.5671 51.54V51.54Z" fill="#342B1D"/>
<path d="M51.2797 53.1C51.353 52.9067 51.5397 52.9067 51.7197 52.9067C51.8997 52.9067 52.0731 52.9067 52.1264 53.08C52.1797 53.2533 51.9997 53.36 51.8864 53.44C51.8547 53.4612 51.8276 53.4884 51.8064 53.52C51.8071 53.5493 51.8001 53.5783 51.7861 53.6041C51.772 53.6298 51.7514 53.6514 51.7264 53.6667C51.6197 53.74 51.513 53.6667 51.273 53.6C51.1593 53.5522 51.0409 53.5164 50.9197 53.4933C50.8227 53.5225 50.7322 53.5701 50.653 53.6333C50.613 53.7533 50.4464 53.7933 50.3197 53.8133C50.2691 53.8193 50.2196 53.8328 50.173 53.8533C50.1184 53.928 50.0478 53.9895 49.9663 54.0333C49.9249 54.0623 49.8869 54.0958 49.853 54.1333C49.7705 54.2688 49.667 54.3903 49.5463 54.4933C49.4825 54.5496 49.4245 54.6122 49.373 54.68C49.4413 54.7645 49.5147 54.8447 49.593 54.92L50.433 55.72C50.9064 56.18 50.973 56.2267 51.0997 56.2467V56.2067C51.1997 56.04 51.413 56.0933 51.6797 56.16L51.8997 56.2133C51.9223 56.1686 51.9565 56.1309 51.9987 56.1039C52.041 56.0769 52.0896 56.0618 52.1397 56.06C52.2709 56.0415 52.3962 55.9937 52.5064 55.92C52.5866 55.83 52.6945 55.769 52.813 55.7467C52.8063 55.6466 52.8223 55.5464 52.8597 55.4533C52.9597 55.2267 53.0797 55.22 53.313 55.2467C53.413 55.2467 53.4397 55.2467 53.4464 55.2467C53.553 55.0933 53.6997 55.1 53.913 55.12C54.1264 55.14 54.0797 55.12 54.093 55.12C54.14 55.0707 54.2001 55.0358 54.2662 55.0192C54.3323 55.0027 54.4017 55.0053 54.4664 55.0267H54.5264C54.591 54.9757 54.6707 54.9476 54.7531 54.9467C54.8055 54.93 54.8549 54.9053 54.8997 54.8733C54.9776 54.7985 55.0678 54.7375 55.1664 54.6933C55.1536 54.6423 55.157 54.5886 55.1761 54.5396C55.1952 54.4907 55.2291 54.4489 55.273 54.42C55.2623 54.3519 55.2718 54.2822 55.3002 54.2194C55.3286 54.1566 55.3748 54.1035 55.433 54.0666V54.0666L55.3064 53.9133C55.245 53.8312 55.1758 53.7553 55.0997 53.6866C54.9726 53.6452 54.8499 53.5916 54.733 53.5267C54.6176 53.459 54.4945 53.4053 54.3664 53.3667C54.1863 53.3071 54.0237 53.204 53.893 53.0666C53.823 53.0006 53.7496 52.9383 53.673 52.88C53.5894 52.8425 53.5178 52.7825 53.4664 52.7067C53.4053 52.6511 53.3284 52.6161 53.2464 52.6066C53.0264 52.56 52.8997 52.4733 52.8797 52.3467C52.8597 52.22 53.053 51.9534 53.1197 51.8934L52.933 51.7867C52.7321 51.6893 52.5476 51.5611 52.3864 51.4067C52.3163 51.3295 52.2381 51.2602 52.153 51.2L51.653 50.8333C51.4005 50.6306 51.0899 50.5138 50.7664 50.5H50.713C50.6709 50.5371 50.62 50.5627 50.5651 50.5744C50.5102 50.5861 50.4533 50.5834 50.3997 50.5667C50.3597 50.5667 50.353 50.5667 50.333 50.5667C50.2727 50.6404 50.1913 50.6939 50.0997 50.72C49.9957 50.8132 49.9117 50.9266 49.853 51.0533C49.8198 51.1576 49.7515 51.2471 49.6597 51.3067C49.6034 51.3807 49.5564 51.4613 49.5197 51.5467C49.7751 51.7541 50.0177 51.9768 50.2464 52.2133C50.5612 52.5417 50.9073 52.8387 51.2797 53.1V53.1Z" fill="#342B1D"/>
<path d="M55.6066 55.1263C55.8202 55.2781 56.0149 55.4549 56.1866 55.6529C56.3075 55.8077 56.4658 55.9293 56.6466 56.0063C56.7333 56.0063 56.7466 56.0063 56.8666 55.9729C56.9915 55.9099 57.1272 55.8714 57.2666 55.8596H57.3199C57.4066 55.6996 57.6133 55.7263 57.6799 55.7396C57.7121 55.7043 57.7512 55.676 57.7948 55.6565C57.8384 55.637 57.8855 55.6267 57.9333 55.6263C58.0292 55.5749 58.1097 55.499 58.1666 55.4062C58.1678 55.3683 58.1767 55.3311 58.1927 55.2967C58.2088 55.2623 58.2316 55.2315 58.2599 55.2063C58.2637 55.1887 58.2637 55.1705 58.2599 55.1529C58.2618 55.068 58.28 54.9843 58.3133 54.9062C58.2673 54.8566 58.2184 54.8099 58.1666 54.7663V54.7663C58.0202 54.6336 57.8666 54.5089 57.7066 54.3929C57.5933 54.3129 57.4133 54.1729 57.3066 54.0796C57.2381 54.0205 57.1619 53.9712 57.08 53.9329C56.7133 53.8596 56.6733 53.8729 56.5999 53.9329C56.4957 53.9849 56.3826 54.0165 56.2666 54.0262C56.1165 54.1073 55.9866 54.2213 55.8866 54.3596C55.8866 54.4729 55.7666 54.5729 55.6533 54.6196L55.5266 54.6596C55.5229 54.7932 55.5005 54.9256 55.46 55.0529C55.46 55.0529 55.5133 55.0596 55.6066 55.1263Z" fill="#342B1D"/>
<path d="M27.6338 52.1131C27.6373 52.1058 27.6392 52.0978 27.6392 52.0898C27.6392 52.0817 27.6373 52.0737 27.6338 52.0664V52.0664V52.1398V52.1131Z" fill="#342B1D"/>
<path d="M27.5664 52.034C27.5719 52.052 27.5814 52.0684 27.5941 52.0823C27.6068 52.0961 27.6223 52.1069 27.6397 52.114L27.5798 52.0273L27.5664 52.034Z" fill="#342B1D"/>
<path d="M48.9002 53.6929C48.8269 53.6329 48.5069 53.3195 48.2336 53.0262C47.6869 52.4862 47.5336 52.4062 47.2536 52.4062C47.1983 52.3985 47.1422 52.3985 47.0869 52.4062C47.006 52.4537 46.914 52.479 46.8202 52.4795H46.7736C46.6889 52.56 46.5821 52.6135 46.4669 52.6329C46.351 52.6807 46.2431 52.7459 46.1469 52.8262C46.0546 52.9106 45.9515 52.9824 45.8402 53.0395V53.1262C45.783 53.2695 45.6993 53.4007 45.5935 53.5129L45.5469 53.5596C45.6549 53.6415 45.7574 53.7306 45.8536 53.8262C45.9461 53.9186 46.0441 54.0054 46.1469 54.0862C46.1848 54.099 46.2185 54.122 46.2443 54.1525C46.2701 54.183 46.2872 54.2201 46.2936 54.2596L46.4669 54.4729C46.9335 54.9796 46.9336 54.9795 47.0802 54.9795H47.1335C47.1462 54.9481 47.1669 54.9205 47.1936 54.8995C47.2387 54.8709 47.2895 54.8525 47.3425 54.8456C47.3955 54.8387 47.4493 54.8435 47.5002 54.8595C47.5983 54.8693 47.6946 54.8917 47.7869 54.9262C47.8602 54.7729 47.9936 54.7796 48.1202 54.7996C48.2011 54.7235 48.3036 54.6746 48.4136 54.6595H48.4669C48.4786 54.6184 48.5017 54.5815 48.5336 54.5529C48.5663 54.5277 48.6041 54.5099 48.6444 54.5007C48.6847 54.4915 48.7264 54.4911 48.7669 54.4996C48.8061 54.4903 48.8426 54.472 48.8736 54.4462C48.8783 54.3368 48.9262 54.2337 49.0069 54.1595L49.0535 54.1062C49.0635 54.0377 49.0635 53.9681 49.0535 53.8995C48.9469 53.7595 48.9002 53.7062 48.9002 53.6929Z" fill="#342B1D"/>
<path d="M60.5533 54.4736V54.4336C60.62 54.3536 60.7267 54.3336 60.9133 54.3336C61.0646 54.3298 61.2129 54.291 61.3466 54.2203C61.5333 54.1203 61.5333 54.1202 61.5667 53.9802C61.5988 53.8039 61.5988 53.6232 61.5667 53.4469C61.5124 53.4527 61.4576 53.4426 61.4091 53.4177C61.3605 53.3929 61.3203 53.3544 61.2933 53.3069L61.1933 53.2402C61.1133 53.3202 60.9933 53.3269 60.7467 53.3336C60.628 53.3371 60.5098 53.3505 60.3933 53.3736V53.4469C60.3736 53.4799 60.345 53.5067 60.3109 53.5244C60.2767 53.5421 60.2383 53.5499 60.2 53.5469C60.2 53.5469 60.2 53.5469 60.1667 53.5469C60.1337 53.5807 60.0943 53.6076 60.0508 53.6259C60.0073 53.6442 59.9605 53.6536 59.9133 53.6536C59.863 53.7087 59.8265 53.775 59.8066 53.8469C59.8066 53.8469 59.8066 53.9202 59.9666 54.0336C60.1351 54.2133 60.3336 54.3622 60.5533 54.4736V54.4736Z" fill="#342B1D"/>
<path d="M53.5269 58.0272C53.3494 57.7644 53.1231 57.5381 52.8603 57.3605C52.7705 57.2798 52.6665 57.2165 52.5536 57.1739C52.456 57.1506 52.3634 57.11 52.2803 57.0539C52.1612 57.0559 52.0438 57.0259 51.9403 56.9672C51.8736 56.9207 51.7991 56.8868 51.7203 56.8672C51.6679 56.9226 51.6009 56.9619 51.5269 56.9805C51.4663 56.9949 51.4094 57.0222 51.3603 57.0605C51.3175 57.0991 51.2662 57.127 51.2106 57.1421C51.155 57.1571 51.0967 57.1589 51.0403 57.1472C50.9736 57.1938 50.8003 57.3605 50.6136 57.5339C50.5499 57.5924 50.4898 57.6547 50.4336 57.7205L50.5336 57.7738C50.8936 57.9775 51.2106 58.2493 51.4669 58.5739C51.5793 58.7104 51.7094 58.8315 51.8536 58.9339C52.0038 59.0344 52.1464 59.1458 52.2803 59.2672C52.3869 59.3672 52.3869 59.3672 52.6536 59.3672C52.9203 59.3672 52.9403 59.3672 52.9736 59.3072C53.0221 59.2535 53.0844 59.2139 53.1537 59.1928C53.223 59.1717 53.2967 59.1697 53.3669 59.1872C53.4069 59.1872 53.4136 59.1872 53.5336 59.0672C53.6536 58.9472 53.7869 58.7605 53.7869 58.6739C53.7874 58.6261 53.7976 58.579 53.8171 58.5354C53.8366 58.4918 53.8649 58.4527 53.9003 58.4205C53.7892 58.2773 53.6642 58.1455 53.5269 58.0272V58.0272Z" fill="#342B1D"/>
</svg>
