<svg width="80" height="80" viewBox="0 0 80 80" fill="none" xmlns="http://www.w3.org/2000/svg">
<path d="M68.8264 40.6933L68.7864 40.66C66.593 38.8133 64.493 39.9067 62.0664 41.18C61.1742 41.6726 60.2499 42.1047 59.2997 42.4733C54.1864 44.8267 50.633 48.9933 47.153 53.0267C43.213 57.6267 39.1531 62.36 32.7931 64.2267C32.5331 64.3867 31.913 64.4733 29.8997 64.66C29.053 64.74 28.1797 64.82 27.7197 64.9067H27.6464H27.5797C27.5276 64.8905 27.474 64.8793 27.4197 64.8733C27.3328 64.8713 27.2484 64.8428 27.1781 64.7916C27.1078 64.7403 27.0549 64.6688 27.0264 64.5867C26.973 64.34 27.1397 64.2133 27.393 64.0267L27.4664 63.9733H27.5464C28.213 63.88 28.6197 63.7133 28.7531 63.4933C28.8864 63.2733 28.753 62.8266 28.5597 62.2933C28.3422 61.7698 28.2159 61.2128 28.1864 60.6467C27.964 60.173 27.8199 59.6664 27.7597 59.1467C27.6842 58.5608 27.5202 57.9898 27.273 57.4533C26.6594 56.793 26.2035 56.002 25.9397 55.14L25.8464 54.9C24.8981 52.705 24.2263 50.4007 23.8464 48.04C23.713 47.3733 23.5797 46.7067 23.433 46.0733C23.373 45.82 23.2731 45.52 23.1664 45.2067C22.8597 44.3133 22.4997 43.3 22.9797 42.64C23.1414 42.4457 23.346 42.2916 23.5774 42.1898C23.8087 42.088 24.0605 42.0413 24.313 42.0533C27.3228 41.2461 30.1389 39.8403 32.593 37.92L32.6597 37.88C36.3797 36.0933 38.453 32.46 40.6597 28.6133C42.6597 25.1733 44.6597 21.6067 47.993 19.5C49.993 18.06 52.593 17.2467 54.8597 16.5933C56.673 15.4733 59.1864 15.9267 60.9264 16.4267L61.0997 16.4733L61.1597 16.6467C61.9365 19.3909 62.4762 22.1968 62.773 25.0333C63.0433 27.3906 63.4506 29.7301 63.993 32.04C64.2019 32.4062 64.3674 32.7955 64.4864 33.2C64.9397 34.4733 65.3997 35.6 66.053 35.4C67.4797 34.8067 67.3197 33.9333 66.8464 32.1867C66.7597 31.8733 66.673 31.52 66.593 31.2067C66.293 29.9333 66.0264 28.66 65.773 27.4267C65.3346 24.9844 64.7242 22.5762 63.9464 20.22L62.2197 13.74C60.833 13.6267 53.2597 13.2667 46.8864 17.6467L46.7931 17.7133H46.673C44.0397 17.4867 41.1997 17.52 38.4464 17.5467C36.3864 17.5467 34.4464 17.5867 32.573 17.5067C31.3264 17.6467 29.793 17.7133 28.173 17.78C20.7064 18.0933 11.413 18.48 11.213 26.2667C11.213 27.6667 11.1397 29.18 11.0664 30.78C10.8597 35.3267 10.6331 40.4867 11.9197 44.3667C13.5864 47.1667 16.333 48.92 20.3264 49.7L20.993 49.34L21.113 49.7467C21.1864 50.0133 21.273 50.2667 21.3664 50.5133C21.6464 51.4933 21.913 52.5133 22.1864 53.5867C22.8485 56.438 23.7198 59.2367 24.7931 61.96C25.0269 62.3202 25.1688 62.7322 25.2064 63.16C25.3531 63.98 25.453 64.18 25.773 64.1666C25.8709 64.1242 25.978 64.1074 26.0842 64.1179C26.1903 64.1284 26.292 64.1659 26.3797 64.2267C26.4792 64.3356 26.5502 64.4676 26.5862 64.6107C26.6223 64.7537 26.6223 64.9035 26.5864 65.0467C26.5798 65.1332 26.5798 65.2201 26.5864 65.3067V65.3067H26.6864C33.6264 68.1 40.453 64.4867 44.533 60.1733C46.5799 58.3329 48.4708 56.326 50.1864 54.1733C52.5197 51.4133 54.9264 48.5533 57.8264 46.6467C58.3847 46.3476 58.9277 46.0205 59.453 45.6667C60.7864 44.8067 62.4664 43.74 63.5264 43.4933C64.1342 43.1753 64.7731 42.9206 65.433 42.7333C66.6197 42.32 69.0864 41.4733 69.1464 40.9333C69.1064 40.92 69.0397 40.82 68.8264 40.6933ZM14.5664 25.9333C15.5997 18.2667 26.2064 18.8 35.5664 19.2667C38.45 19.4921 41.3457 19.5188 44.233 19.3467L45.133 19.2533L44.513 19.92C42.9881 21.5964 41.6471 23.4313 40.513 25.3933L40.4197 25.5467H40.2464C32.6197 25.9467 24.6264 26.34 17.3597 26.34C16.5153 26.34 15.6819 26.34 14.8597 26.34H14.4864L14.5664 25.9333ZM20.6864 39.7L20.6197 39.6667C20.333 39.5267 18.2264 39.48 17.6464 40.0067C17.6151 40.0293 17.5901 40.0595 17.5737 40.0945C17.5574 40.1295 17.5503 40.1681 17.553 40.2067C19.553 41.6 20.033 44.3067 20.4864 46.92C20.5464 47.2733 20.6064 47.6267 20.673 47.9733L20.7664 48.4733L20.273 48.36C18.8264 48.0267 16.273 47.2133 15.193 45.52C14.4597 44.1867 14.1997 41.98 14.0064 40.3667L13.9664 40.0533V39.98C14.0758 39.5988 14.0758 39.1945 13.9664 38.8133C13.8107 38.3122 13.7878 37.7793 13.8997 37.2667C14.0085 36.8724 13.9755 36.4524 13.8064 36.08C13.6796 35.8193 13.6137 35.5332 13.6137 35.2433C13.6137 34.9534 13.6796 34.6674 13.8064 34.4067C13.8322 34.2804 13.8084 34.1491 13.7397 34.04C13.6432 33.8518 13.5868 33.6455 13.5742 33.4344C13.5616 33.2232 13.593 33.0117 13.6664 32.8133C13.7457 32.5389 13.7457 32.2477 13.6664 31.9733C13.613 31.8371 13.5895 31.691 13.5975 31.5449C13.6056 31.3988 13.645 31.2562 13.713 31.1267C13.7632 31.068 13.8256 31.0209 13.8958 30.9886C13.9661 30.9564 14.0425 30.9398 14.1197 30.94H14.1664H14.2064C16.4264 31.48 19.893 31.14 23.2464 30.8133C25.4938 30.541 27.7558 30.4074 30.0197 30.4133C30.473 30.4133 32.1464 30.3467 34.0864 30.24L36.7531 30.1L37.4797 30.0667L37.033 30.64L36.4064 31.4133L33.8664 33.9733C33.0945 34.7867 32.2284 35.5051 31.2864 36.1133L28.393 37.7667L27.4664 38.2067C26.2197 38.8133 22.1997 40.2733 20.673 39.6733L20.6864 39.7Z" fill="#342B1D"/>
<path d="M49.6129 38.7801C48.9871 38.5788 48.3477 38.4228 47.6995 38.3135C46.2929 38.0668 46.2395 37.9068 45.3462 35.1601C45.2563 35.0491 45.209 34.9096 45.2128 34.7668C45.2128 34.1001 46.2795 33.1068 47.6662 31.9135C47.9862 31.6401 48.3329 31.3268 48.4129 31.2468C48.6097 30.8727 48.8442 30.5198 49.1129 30.1935C48.8462 30.1935 48.4462 30.1935 47.9795 30.1935H47.7995C46.7128 30.3546 45.6761 30.7579 44.7662 31.3735L44.6728 31.4268H44.5662C44.2262 31.4268 44.0328 31.0934 43.8062 30.7201C43.5795 30.3468 43.3262 29.9868 43.0995 29.9468C43.4262 31.7201 42.6328 32.5468 41.7195 33.4934C41.2237 33.9697 40.777 34.4946 40.3862 35.0601C39.5195 36.2601 39.7729 39.0601 40.8595 40.3135C41.1416 40.6705 41.5472 40.9089 41.9964 40.9818C42.4456 41.0546 42.9058 40.9565 43.2862 40.7068C43.6462 40.4068 44.0995 40.1068 44.5062 40.2868C44.9128 40.4668 44.9728 41.0601 45.0062 41.6801C45.0062 42.0601 45.0528 42.6334 45.2195 42.7601L45.2795 42.8068L45.3195 42.8801C45.4679 43.1357 45.5632 43.4185 45.5999 43.7117C45.6365 44.005 45.6138 44.3026 45.5329 44.5868C45.2462 45.4201 44.3529 45.8468 43.4062 46.2935C42.6319 46.5738 41.9431 47.0491 41.4062 47.6734C41.4659 47.7976 41.5525 47.907 41.6597 47.9935C41.767 48.08 41.8922 48.1414 42.0262 48.1734C42.2035 48.173 42.3781 48.1304 42.5357 48.0493C42.6933 47.9682 42.8294 47.8508 42.9329 47.7068C44.0395 46.8201 44.8129 46.4268 45.4129 46.4268H45.6062C45.8528 46.4922 46.082 46.6109 46.2778 46.7745C46.4736 46.938 46.6312 47.1425 46.7395 47.3735C46.9283 47.7608 47.2536 48.0647 47.6529 48.2268C47.9795 48.4001 48.0795 48.3801 48.0795 48.3801C48.1083 47.8897 48.0519 47.398 47.9129 46.9268C47.8285 46.6062 47.7771 46.2778 47.7595 45.9468V45.7735L47.8995 45.6801C49.5995 44.5801 50.7195 42.8268 50.7529 41.2068C50.775 40.74 50.6827 40.2749 50.484 39.852C50.2853 39.429 49.9863 39.061 49.6129 38.7801V38.7801ZM42.1795 39.7801L41.7395 39.9135V39.4535C41.7395 39.3535 41.7395 39.2001 41.7395 39.0268C41.7395 37.5135 41.7795 37.0268 42.1328 36.8868C42.1328 36.8868 42.2929 36.6468 42.4062 36.4801C42.8462 35.8601 43.2195 35.3268 43.6662 35.4468C44.1129 35.5668 44.0595 35.9801 44.0729 36.1134L44.1195 36.3201C44.6062 38.3534 44.6395 39.0334 42.1795 39.7801V39.7801ZM49.1728 41.1134C48.9195 41.8934 48.1529 43.3401 47.5195 43.4735L47.1395 43.5534V43.1601C47.1229 42.8538 47.0873 42.5487 47.0329 42.2468C46.8862 41.2268 46.7395 40.1801 47.3462 39.6801C47.5937 39.5265 47.8771 39.4401 48.1682 39.4296C48.4593 39.4191 48.7482 39.4847 49.0062 39.6201H49.0795L49.1395 39.6801C49.3662 39.9868 49.3862 40.4601 49.1728 41.1201V41.1134Z" fill="#342B1D"/>
</svg>
