<svg width="80" height="80" viewBox="0 0 80 80" fill="none" xmlns="http://www.w3.org/2000/svg">
<path d="M72.8995 20.7142C72.5529 20.4476 72.4462 19.9409 71.8062 19.9742C70.4129 20.0476 69.0129 19.9742 67.6195 20.0209C65.3195 20.1276 63.0262 20.3209 60.7329 20.4742C59.8395 20.5342 58.9395 20.5542 58.0662 20.6542C55.3395 20.9476 52.6062 21.2276 49.8929 21.6076C47.7529 21.9076 45.6462 22.4076 43.5062 22.7076C41.9395 22.9209 41.2328 23.8876 40.8395 25.2542C40.3462 26.8876 39.8662 28.5276 39.3395 30.1476C38.8795 31.5542 38.3595 32.9409 37.9462 34.1476C36.6589 33.4708 35.3216 32.8936 33.9462 32.4209C31.8575 31.9283 29.7019 31.7842 27.5662 31.9942C23.789 32.2631 20.1597 33.5713 17.0795 35.7742C14.7262 37.4142 12.2129 38.8209 9.74622 40.3276C8.73955 40.9476 7.74618 41.5476 6.67285 42.1876C7.20618 42.8142 7.69287 42.5009 8.1062 42.3009C10.2129 41.2942 12.3729 40.3676 14.3862 39.2009C16.3625 38.0218 18.2639 36.7216 20.0795 35.3076C21.0636 34.5465 22.2008 34.0075 23.4129 33.7276C26.1309 33.0641 28.9402 32.8569 31.7262 33.1142C33.6147 33.1981 35.4233 33.9008 36.8729 35.1142C37.663 35.8993 38.4043 36.732 39.0928 37.6076C37.6595 38.6942 37.6595 38.6942 36.2729 37.7942C36.0853 37.6469 35.8845 37.5175 35.6728 37.4076C35.4475 37.338 35.2553 37.1885 35.1325 36.9871C35.0097 36.7857 34.9648 36.5464 35.0062 36.3142C35.0715 35.6993 34.9016 35.0823 34.5306 34.5876C34.1595 34.0929 33.6149 33.757 33.0062 33.6476C31.4995 33.2142 30.0062 33.5542 28.5395 33.8942C27.4845 34.0826 26.4966 34.5421 25.6728 35.2276C24.9528 35.8942 23.9396 36.1876 23.0862 36.7009C22.8596 36.8409 22.7462 37.1676 22.5795 37.4142C22.8929 37.4676 23.2462 37.6609 23.5195 37.5542C24.4317 37.2102 25.3127 36.7887 26.1529 36.2942C27.9217 35.117 30.0346 34.5676 32.1529 34.7342C33.3595 34.8609 33.8262 35.4009 33.7262 36.5876C33.5729 38.4809 31.9995 39.6276 30.2662 40.1076C28.4726 40.5296 26.6496 40.8148 24.8129 40.9609C23.4262 41.1209 22.0262 41.1409 20.5529 41.2209C20.7929 42.1076 21.7262 41.8876 22.3195 42.3276C21.4795 42.6142 20.7262 42.8142 20.0129 43.1276C18.4195 43.7942 16.8262 44.5276 15.2729 45.3142C13.4395 46.2409 11.6462 47.2409 9.84619 48.2342C9.69286 48.3209 9.63955 48.6009 9.53955 48.7876C9.72622 48.7876 9.94619 48.9142 10.0995 48.8542C11.1262 48.4476 12.1462 48.0276 13.1462 47.5676C15.6995 46.3876 18.2462 45.1809 20.7929 43.9876L22.9596 42.9942C25.0129 44.1876 27.4795 43.9742 29.8729 44.3276C25.8729 47.0742 22.2395 50.1342 18.5395 53.1876C18.8602 53.2565 19.1949 53.2117 19.4862 53.0609C20.8195 52.2742 22.1529 51.5142 23.4529 50.6342C24.9129 49.6209 26.2729 48.4876 27.6862 47.4209C29.0995 46.3542 30.5062 45.3809 31.8662 44.3009C32.5729 43.7409 33.0995 42.9676 33.8662 42.4476C35.7995 41.1142 37.7729 39.8276 39.7862 38.6142C41.7489 37.4333 44.0183 36.8625 46.3062 36.9742C44.3662 37.8342 42.2328 38.6942 40.1728 39.7142C38.1195 40.749 36.2609 42.1316 34.6795 43.8009C34.9957 43.7971 35.3056 43.7121 35.5795 43.5542C36.9595 42.7342 38.2928 41.8209 39.7128 41.0809C42.3262 39.7476 44.9795 38.4142 47.9395 37.9942C48.9383 37.9242 49.9408 37.9242 50.9395 37.9942L51.0195 38.2476C46.0662 39.3076 41.6862 41.4009 38.3062 45.2676C38.8746 45.1411 39.4162 44.9154 39.9062 44.6009C41.3129 43.7209 42.6528 42.7276 44.0928 41.9342C46.3329 40.5695 48.8592 39.7433 51.4729 39.5209C51.9183 39.5207 52.3634 39.5452 52.8062 39.5942C50.7595 40.7942 48.8062 41.8942 46.9062 43.0609C45.8953 43.6911 44.9245 44.3835 43.9995 45.1342C43.7462 45.3342 43.7395 45.8409 43.6195 46.2076C43.9833 46.2158 44.3453 46.1547 44.6862 46.0276C45.4195 45.5742 46.0862 45.0009 46.7995 44.5076C48.9195 43.0209 51.0395 41.5276 53.6728 41.0876C54.0312 41.0441 54.392 41.0241 54.7529 41.0276L54.8129 41.2676C54.6329 41.4209 54.4729 41.5809 54.2862 41.7142L46.6462 47.0476C43.6529 49.1209 40.1862 50.2409 36.9662 51.8609C35.3488 52.553 33.7688 53.3297 32.2329 54.1876C30.5812 55.2871 29.0206 56.5178 27.5662 57.8676C26.8995 58.4276 26.0529 58.8942 26.0795 60.0876C26.342 59.9523 26.5958 59.8009 26.8395 59.6342C27.8062 58.8476 28.7862 58.0676 29.7195 57.2476C32.4786 54.8561 35.698 53.0546 39.1795 51.9542C42.6139 50.8874 45.7991 49.1418 48.5462 46.8209C48.9589 46.9908 49.3848 47.1268 49.8195 47.2276C50.7028 47.3694 51.5929 47.4651 52.4862 47.5142C53.7518 47.6274 55.0236 47.6542 56.2929 47.5942C58.4995 47.4009 60.6995 47.0609 62.8929 46.7542C63.7322 46.6726 64.561 46.5051 65.3662 46.2542C66.2529 45.9476 67.0462 45.3942 67.9262 45.0542C68.6662 44.7742 68.7062 44.3876 68.4929 43.9342C68.7745 43.4609 69.0132 42.9634 69.2062 42.4476C69.5995 41.0009 69.9262 39.5409 70.2595 38.0809C70.7262 36.0276 71.2395 33.9809 71.5928 31.9142C72.1928 28.5809 72.6595 25.1942 73.2662 21.8476C73.3522 21.6462 73.3625 21.4205 73.2951 21.2122C73.2277 21.0039 73.0872 20.827 72.8995 20.7142V20.7142ZM31.5662 43.0742C28.7862 42.7542 25.9395 43.1076 23.2329 42.0076L31.5862 42.8142L31.5662 43.0742ZM34.8195 40.4609C34.5079 40.6043 34.2165 40.7881 33.9529 41.0076C32.4595 42.7609 30.5595 41.5076 28.8595 41.8009C30.6167 41.4458 32.2546 40.6497 33.6195 39.4876C33.7755 39.4141 33.9516 39.3953 34.1195 39.4342C34.6529 39.5142 35.1795 39.6276 35.8662 39.7542C35.4662 40.0476 35.1529 40.2542 34.8329 40.4609H34.8195ZM34.2862 38.9809L34.8862 37.8542L35.9129 38.8076L34.2862 38.9809ZM54.2329 39.7742C54.1452 39.39 53.9771 39.0287 53.7395 38.7142C53.3303 38.4656 52.878 38.296 52.4062 38.2142C52.4062 37.3476 51.9662 36.9342 50.8795 36.8076C50.6462 36.8076 50.4062 36.8076 50.1728 36.8076C49.4595 36.7209 48.6529 37.1209 48.1062 36.2076C47.9462 35.9409 47.2929 35.9076 46.8529 35.8742C44.5781 35.6638 42.289 36.0787 40.2329 37.0742C40.1206 37.1166 40.0045 37.1478 39.8862 37.1676C39.5329 36.6409 39.1462 36.1076 38.8262 35.5476C38.7448 35.3328 38.7448 35.0956 38.8262 34.8809C39.8262 31.6142 40.8351 28.352 41.8529 25.0942C41.9485 24.6827 42.0987 24.2859 42.2995 23.9142C42.3799 23.7863 42.485 23.6756 42.6086 23.5886C42.7322 23.5016 42.8719 23.4401 43.0195 23.4076C44.5529 23.1876 46.0995 23.0476 47.6328 22.8542C49.1662 22.6609 50.5995 22.4009 52.0928 22.2409C54.4662 21.9876 56.8395 21.7653 59.2128 21.5742C61.5462 21.3876 63.8795 21.2742 66.2262 21.1009C67.1662 21.0276 68.0995 20.8342 69.0395 20.7742C69.9795 20.7142 70.8129 20.7742 71.7529 20.7742C71.2462 22.3076 70.7128 23.6809 70.3395 25.0942C69.9662 26.5076 69.7928 27.9876 69.4662 29.4276C69.0862 31.0942 68.6062 32.7609 68.2395 34.4076C67.9195 35.8476 67.7729 37.3209 67.4195 38.7476C67.0929 40.0809 66.5995 41.3476 66.1662 42.6742H64.6662V42.6276L65.9995 42.4476C65.2262 41.6742 64.3528 41.9476 63.5462 41.9409C62.1262 41.9409 60.6929 42.0476 59.2662 42.0742C57.9329 42.0742 56.5995 42.0742 55.4329 42.0742C55.4729 41.6742 55.7195 41.0609 55.5329 40.6476C55.3462 40.2342 54.7729 40.0876 54.2329 39.7742ZM49.8729 46.0476C50.1529 45.6609 52.7262 45.7076 53.6462 46.2676L49.8729 46.0476ZM51.2062 45.0809L51.1262 44.9209C51.5329 44.6676 51.9529 44.4276 52.3529 44.1676C53.055 43.6489 53.7874 43.1725 54.5462 42.7409C55.3395 42.3542 56.1595 42.9342 56.9995 42.9142C59.2462 42.8476 61.4995 42.9142 63.7795 42.9142C61.7129 43.4476 59.6662 44.1142 57.5662 44.4809C55.4662 44.8476 53.3328 44.8609 51.2128 45.0542L51.2062 45.0809ZM67.4929 43.8076C64.5329 45.6142 61.1462 45.4942 57.9929 46.3942L57.9329 46.1676L59.5662 45.6476C60.1329 45.4676 60.7129 45.3142 61.2729 45.1009C62.4529 44.6609 63.6262 44.1942 64.7995 43.7676C64.9566 43.6742 65.1277 43.6067 65.3062 43.5676C66.5995 43.5676 67.0729 42.6209 67.3995 41.6142C67.9062 40.0342 68.4329 38.4542 68.7862 36.8409C69.5329 33.5076 70.1195 30.0942 70.8729 26.7276C71.2649 25.0267 71.7636 23.3523 72.3662 21.7142C70.9329 29.1142 69.8195 36.6342 67.4995 43.7809L67.4929 43.8076Z" fill="#342B1D"/>
<path d="M60.2668 39.0472C61.7801 39.0472 63.2868 39.1539 64.7935 39.1739C65.2935 39.1739 66.1268 39.4605 65.7468 38.3872C65.7468 38.3472 65.7802 38.2872 65.7935 38.2405C66.1379 37.3444 66.4316 36.4296 66.6735 35.5005C67.1935 32.9205 67.6401 30.3205 68.1135 27.7272C68.2801 26.7872 68.4802 25.8605 68.5802 24.9205C68.595 24.758 68.5713 24.5942 68.5111 24.4425C68.4508 24.2908 68.3557 24.1554 68.2335 24.0472C67.8166 23.8568 67.3533 23.792 66.9001 23.8605C66.2335 23.9605 65.6201 24.2939 64.9668 24.3872C63.6335 24.5739 62.3001 24.6939 60.9668 24.7939C57.8735 25.0205 54.7735 25.2472 51.6801 25.4605C49.3468 25.6005 47.0135 25.7272 44.6801 25.7672C44.1348 25.7342 43.5968 25.9059 43.1714 26.2487C42.746 26.5915 42.4638 27.0807 42.3801 27.6205C41.8801 29.3939 41.2868 31.1339 40.7668 32.9005C40.5268 33.7139 40.3602 34.5472 40.1602 35.3672L40.5535 35.5072C40.8697 34.9176 41.1459 34.3073 41.3801 33.6805C42.0468 31.5205 42.6668 29.3472 43.3401 27.1872C43.3873 27.0538 43.4649 26.9331 43.5667 26.8347C43.6685 26.7364 43.7918 26.6631 43.9268 26.6205C45.4201 26.4605 46.9179 26.345 48.4202 26.2739C51.0402 26.1472 53.6602 26.0739 56.2802 25.9339C57.6135 25.8672 58.9468 25.7339 60.2802 25.5739C62.2802 25.3272 64.2802 25.0205 66.2402 24.7739C66.7278 24.7579 67.216 24.7802 67.7002 24.8405C67.4402 25.9939 67.1668 27.0339 66.9668 28.0939C66.4201 31.0739 65.9068 34.0605 65.3801 37.0405C65.3001 37.4805 65.3268 38.1672 65.0735 38.3005C64.8202 38.4339 64.1935 38.1139 63.7402 38.1139C61.4268 38.1139 59.1135 38.1872 56.8001 38.2739C56.2815 38.3468 55.7721 38.4742 55.2802 38.6539C55.2802 38.7472 55.2802 38.8405 55.2802 38.9272C55.5388 38.989 55.8018 39.0313 56.0668 39.0539C57.5135 39.0405 58.9001 39.0205 60.2668 39.0472Z" fill="#342B1D"/>
<path d="M54.7465 24.493C55.0939 24.5893 55.4483 24.6584 55.8065 24.6997C56.3619 24.604 56.9067 24.4544 57.4331 24.253C58.0998 23.9397 58.0465 23.353 57.3732 23.1063C56.5341 22.7192 55.5769 22.6761 54.7065 22.9863C54.1131 23.2263 54.2665 23.6997 54.1198 24.0797C54.0798 24.133 54.5065 24.3997 54.7465 24.493ZM57.1131 23.7263C57.1131 23.813 57.1131 23.9063 57.1131 23.993H54.5931C55.4265 23.553 56.2331 23.2863 57.1131 23.7263V23.7263Z" fill="#342B1D"/>
<path d="M52.4803 24.5925C52.8074 24.431 53.0978 24.2041 53.3337 23.9258C53.387 23.8658 53.0803 23.5191 52.8203 23.1191C52.525 23.4244 52.2594 23.757 52.027 24.1125C51.987 24.1725 52.427 24.6191 52.4803 24.5925Z" fill="#342B1D"/>
</svg>
