<svg width="26" height="26" viewBox="0 0 26 26" fill="none" xmlns="http://www.w3.org/2000/svg">
<path d="M13.4874 0.450074C6.63484 0.450122 1.05 6.03499 1.05 12.8876C1.05 15.0769 1.62365 17.2038 2.69631 19.0819L0.951757 25.4869L0.929015 25.5704L1.01271 25.5484L7.55603 23.8285C9.37143 24.8138 11.4107 25.3376 13.4875 25.3376C20.3401 25.3376 25.925 19.7527 25.925 12.9001C25.925 9.57439 24.6323 6.4492 22.2854 4.10231C21.1348 2.94004 19.7642 2.01851 18.2537 1.39146C16.7432 0.764405 15.1229 0.444388 13.4874 0.450074ZM13.4874 0.450074C13.4874 0.450074 13.4875 0.450074 13.4875 0.450074V0.500074L13.4873 0.450075C13.4874 0.450075 13.4874 0.450075 13.4874 0.450074ZM19.5971 17.3293C19.7298 16.9629 19.7963 16.6243 19.8186 16.3589C19.8297 16.2263 19.8298 16.1112 19.8213 16.0195C19.813 15.9302 19.7959 15.8558 19.7672 15.8107C19.7164 15.7309 19.6383 15.6759 19.5391 15.6231C19.4796 15.5914 19.4084 15.5586 19.3273 15.5212C19.2752 15.4971 19.219 15.4712 19.1591 15.4425C19.0835 15.4062 18.9356 15.3341 18.7511 15.2443C18.1785 14.9652 17.2533 14.5144 17.0439 14.4288L17.044 14.4287L17.0414 14.4278C16.8994 14.3784 16.7669 14.3364 16.6414 14.3504C16.5105 14.3649 16.3959 14.4385 16.2842 14.5962L16.2837 14.597C16.0731 14.9066 15.4875 15.6045 15.3124 15.8046L15.3124 15.8046L15.3114 15.8058C15.229 15.9059 15.1491 15.9555 15.0583 15.966C14.9652 15.9768 14.851 15.9477 14.6981 15.8682L14.6981 15.8682L14.6966 15.8675C14.6506 15.8454 14.5902 15.8194 14.5169 15.7879C14.0878 15.6034 13.2188 15.2296 12.2208 14.3378L12.2208 14.3378C11.3025 13.5187 10.6934 12.5127 10.5058 12.2C10.424 12.0536 10.4218 11.9502 10.4517 11.867C10.4833 11.7791 10.5529 11.7053 10.6354 11.6229C10.7306 11.5276 10.8444 11.3901 10.9539 11.2578C11.0044 11.1967 11.054 11.1368 11.1005 11.0826C11.2418 10.9177 11.3084 10.7838 11.3947 10.6102C11.4028 10.5938 11.4112 10.5771 11.4197 10.5599L11.4202 10.5589C11.5294 10.3269 11.4732 10.1347 11.3947 9.97771C11.3209 9.83012 10.697 8.3079 10.4464 7.6815L10.4462 7.68084C10.3188 7.37524 10.1841 7.23125 10.0482 7.16594C9.9446 7.11615 9.84153 7.1151 9.76235 7.11428C9.74074 7.11406 9.7209 7.11386 9.70333 7.11268L9.70333 7.11257H9.7H9.1C8.87586 7.11257 8.53665 7.19182 8.2382 7.51622L8.23819 7.51621L8.23746 7.51704C8.21631 7.54108 8.19196 7.5678 8.16503 7.59734C7.84248 7.95122 7.15 8.71095 7.15 10.1376C7.15 10.9113 7.43193 11.6695 7.73042 12.2571C8.02616 12.8392 8.34035 13.2581 8.42006 13.3643L8.42206 13.367C8.4286 13.3763 8.43864 13.3909 8.45212 13.4107C8.75188 13.849 10.752 16.7735 13.7302 18.0585C14.4698 18.3844 15.0466 18.5725 15.4976 18.7103C16.2451 18.9509 16.9286 18.9126 17.4694 18.8371L17.4697 18.837C17.7792 18.7919 18.2454 18.6007 18.6645 18.3312C19.0823 18.0626 19.4663 17.7082 19.5971 17.3293ZM19.5971 17.3293C19.5971 17.3294 19.597 17.3295 19.597 17.3296L19.55 17.3126L19.5973 17.3289C19.5972 17.329 19.5972 17.3292 19.5971 17.3293ZM7.84979 21.4767L4.03354 22.4797L5.04823 18.7632L5.05411 18.7417L5.04201 18.723L4.79238 18.336C4.79231 18.3359 4.79224 18.3358 4.79217 18.3357C3.76946 16.7024 3.22642 14.8146 3.225 12.8875C3.22502 7.24017 7.82763 2.63757 13.475 2.63757C16.2117 2.63757 18.7864 3.70728 20.7145 5.64782L20.7147 5.64801C21.6694 6.5983 22.4259 7.72862 22.9405 8.97346C23.4551 10.2183 23.7175 11.5529 23.7125 12.8999L23.7125 12.9003C23.7374 18.5474 19.135 23.1376 13.4875 23.1376C11.6466 23.1376 9.84299 22.6401 8.2632 21.7072C8.26311 21.7071 8.26302 21.7071 8.26293 21.707L7.88822 21.4822L7.87016 21.4714L7.84979 21.4767Z" fill="#342B1D" stroke="#342B1D" stroke-width="0.1"/>
</svg>
