<svg width="80" height="80" viewBox="0 0 80 80" fill="none" xmlns="http://www.w3.org/2000/svg">
<path d="M72.3471 27.0868C72.3471 27.5602 72.3471 27.9268 72.3471 28.2935C72.2405 29.6668 72.1605 31.0468 71.9871 32.4202C71.7538 34.2268 70.8138 35.7535 69.8938 37.2668C69.1938 38.4135 68.5605 39.5868 67.7405 40.6602C66.4071 42.4602 64.9671 44.1868 63.5604 45.9402C62.8166 46.7556 62.1905 47.6712 61.7005 48.6602C60.8158 50.5392 59.8253 52.3666 58.7338 54.1335C58.2284 55.0987 57.6395 56.0177 56.9738 56.8802C55.321 58.8378 53.2061 60.3524 50.8205 61.2868C50.6004 61.3735 50.3671 61.4335 50.1538 61.5068C50.3557 60.9189 50.673 60.3772 51.0871 59.9135C52.8404 58.0602 54.6538 56.2602 56.4204 54.3935C57.0648 53.6626 57.651 52.8824 58.1738 52.0602C58.2938 51.8735 58.1338 51.5002 58.1071 51.2135C57.8404 51.2935 57.5071 51.3002 57.3271 51.4668C56.7212 52.0427 56.1533 52.6573 55.6271 53.3068C54.085 55.3193 52.2143 57.057 50.0938 58.4468C48.5538 59.4268 46.9471 60.3002 45.3338 61.1468C44.7074 61.5031 43.9728 61.6192 43.2671 61.4735C43.8338 60.1068 44.9404 59.3735 46.0671 58.6868C47.4004 57.8735 48.7804 57.1135 50.1471 56.3535C52.6338 54.9668 54.2538 52.6135 56.3738 50.8202C56.4404 50.7602 56.5271 50.6802 56.5338 50.5935C56.5738 50.3602 56.6805 50.0002 56.5738 49.9268C56.4691 49.8465 56.3469 49.7919 56.2172 49.7676C56.0875 49.7433 55.9538 49.7499 55.8271 49.7868C55.4043 50.0232 55.0181 50.3196 54.6805 50.6668C54.152 51.3061 53.5771 51.9055 52.9604 52.4602C51.1671 53.7602 49.3338 55.0202 47.4538 56.1935C45.5694 57.4032 43.4684 58.2364 41.2671 58.6468C40.4662 58.7112 39.6614 58.7112 38.8604 58.6468C39.3883 57.7274 40.2503 57.0469 41.2671 56.7468C43.8071 56.0468 46.0138 54.6268 48.2205 53.2268C49.6581 52.3324 50.9376 51.206 52.0071 49.8935C52.1597 49.6894 52.2832 49.465 52.3738 49.2268C52.3931 49.1653 52.3977 49.1 52.3873 49.0364C52.3769 48.9727 52.3517 48.9124 52.3138 48.8602C52.2578 48.8325 52.1962 48.8182 52.1338 48.8182C52.0714 48.8182 52.0098 48.8325 51.9538 48.8602C51.5804 49.0935 51.2138 49.3468 50.8671 49.6135C49.8005 50.4268 48.7938 51.3335 47.6671 52.0468C46.1855 52.9844 44.6568 53.8456 43.0871 54.6268C42.1228 55.1137 41.1016 55.4787 40.0471 55.7135C38.9509 55.9379 37.8322 56.0341 36.7138 56.0002C35.9016 55.9269 35.0994 55.7682 34.3204 55.5268C34.1804 55.4935 34.0671 55.3335 33.8671 55.1602L34.2404 55.0335C36.3271 54.3668 38.4404 53.8068 40.4804 53.0335C42.2738 52.3668 44.0004 51.5202 45.7405 50.7202C47.7405 49.8068 49.4405 48.6268 49.8871 46.2535C49.9451 46.0653 49.9648 45.8674 49.945 45.6715C49.9252 45.4756 49.8663 45.2856 49.7718 45.1129C49.6774 44.9401 49.5492 44.788 49.395 44.6656C49.2407 44.5432 49.0635 44.4529 48.8738 44.4002C48.185 44.2293 47.4766 44.1508 46.7671 44.1668C45.8204 44.1668 44.8738 44.3668 43.9271 44.3668C43.1443 44.3788 42.3635 44.2824 41.6071 44.0802C41.4023 43.997 41.2184 43.8696 41.0686 43.7071C40.9188 43.5446 40.8067 43.351 40.7404 43.1402C40.6606 42.5413 40.7582 41.9321 41.0213 41.3881C41.2844 40.8442 41.7013 40.3894 42.2205 40.0802C43.2753 39.6279 44.4563 39.5641 45.5538 39.9002C47.9794 40.3435 50.2291 41.4671 52.0404 43.1402C52.8138 43.8868 53.1338 43.8402 53.8671 43.2868C54.6005 42.7335 55.5471 42.3402 56.3604 41.8135C58.1393 40.5841 59.7294 39.1018 61.0804 37.4135C62.7738 35.4535 64.5138 33.5135 65.2938 30.9535C65.3236 30.7748 65.3236 30.5923 65.2938 30.4135C65.1271 30.5202 64.9004 30.5868 64.7938 30.7402C64.3538 31.3402 63.9538 31.9735 63.4604 32.7068C63.3671 32.2535 63.2871 31.9868 63.2605 31.7068C63.1605 30.4868 63.0871 29.2602 62.9738 28.0335C62.8604 26.8068 62.5004 26.4668 61.2738 26.4735C61.0317 26.4948 60.7896 26.4322 60.5881 26.2963C60.3867 26.1603 60.238 25.9593 60.1671 25.7268C59.4446 24.2439 58.4417 22.915 57.2138 21.8135C54.2367 18.9841 50.337 17.3266 46.2338 17.1468C44.1318 17.1388 42.0317 17.2702 39.9471 17.5402C39.5513 17.6171 39.1647 17.7355 38.7938 17.8935C38.7938 18.0002 38.8271 18.1135 38.8404 18.2202C39.3292 18.304 39.8247 18.3419 40.3204 18.3335C42.5541 18.0403 44.8152 18.0201 47.0538 18.2735C48.3969 18.4602 49.7187 18.7773 51.0004 19.2202C52.7229 19.8169 54.3093 20.7506 55.6671 21.9668C56.7671 23.0002 58.0138 23.9202 58.5871 25.5202C58.2538 25.3468 57.9804 25.2335 57.7338 25.0735C55.5392 23.6264 53.2054 22.4025 50.7671 21.4202C48.1168 20.2142 45.267 19.5069 42.3604 19.3335C41.0804 19.3335 39.8004 19.2268 38.5204 19.2268C38.3138 19.2268 38.1005 19.4668 37.8871 19.6002C38.031 19.832 38.1891 20.0546 38.3604 20.2669C38.4204 20.3335 38.5804 20.3068 38.6938 20.3335C40.7471 20.7402 42.8471 21.0002 44.8404 21.5935C47.2888 22.3378 49.6833 23.2488 52.0071 24.3202C53.9004 25.1802 55.6738 26.3202 56.7205 28.2802C56.8938 28.6068 57.0071 28.9468 57.2271 29.5268C56.8249 29.4758 56.4294 29.3819 56.0471 29.2468C55.6204 29.0268 55.2405 28.7002 54.8271 28.4535C52.6049 27.1202 50.3827 25.8091 48.1605 24.5202C46.2576 23.378 44.2012 22.5137 42.0538 21.9535C40.6871 21.6135 39.3071 21.2268 37.8871 21.6135C37.6738 21.6668 37.5138 21.9068 37.3271 22.0668C37.4751 22.2614 37.6451 22.4381 37.8338 22.5935C38.0027 22.666 38.1835 22.7067 38.3671 22.7135C39.1138 22.8468 39.8804 22.9335 40.6138 23.1068C42.9414 23.7055 45.1821 24.6018 47.2804 25.7735C49.4177 26.8955 51.4083 28.2771 53.2071 29.8868C53.5004 30.1535 53.7538 30.4535 54.0204 30.7402C53.7198 30.7924 53.4105 30.7601 53.1271 30.6468C51.4538 29.9335 49.7938 29.2135 48.1204 28.4735C47.8011 28.3331 47.5027 28.1491 47.2338 27.9268C46.7271 27.5002 46.2738 27.0002 45.7538 26.5935C43.6251 24.8559 41.0386 23.7722 38.3071 23.4735C37.9721 23.382 37.6169 23.397 37.2908 23.5165C36.9646 23.636 36.6838 23.8539 36.4871 24.1402C37.1538 24.2935 37.7138 24.3602 38.2271 24.5335C39.5604 24.9868 40.8538 25.5135 42.1805 25.9535C43.6301 26.4709 44.921 27.3552 45.9271 28.5202C45.577 28.5276 45.2268 28.5053 44.8804 28.4535C43.0671 28.0268 41.2738 27.4935 39.4471 27.1602C37.4202 26.8307 35.4824 26.0887 33.7538 24.9802C33.5903 24.8543 33.3977 24.7718 33.1938 24.7402C32.0671 24.6735 30.9404 24.6068 29.8204 24.5935C28.7004 24.5802 27.7338 24.6602 26.6938 24.6668C25.4204 24.6668 24.1538 24.6135 22.8871 24.6335C21.8738 24.6335 20.8538 24.7602 19.6538 24.8402C20.4671 24.3668 21.1071 23.9668 21.7738 23.6068C23.1604 22.8668 24.6071 22.2335 25.9404 21.4068C27.5604 20.4068 29.3938 20.1535 31.1671 19.6935C33.0404 19.2135 34.9604 18.9135 36.8538 18.5135C36.9871 18.5135 37.0804 18.2802 37.1938 18.1535C37.0538 18.0602 36.9204 17.8868 36.7804 17.8802C36.3622 17.8524 35.9422 17.8681 35.5271 17.9268C34.1404 18.1668 32.7471 18.3935 31.3738 18.7002C29.8874 18.9977 28.4221 19.3919 26.9871 19.8802C25.4828 20.4634 24.0214 21.1518 22.6138 21.9402C21.3871 22.6068 20.2671 23.4802 19.0471 24.1602C18.4204 24.5068 18.0004 25.1535 17.1404 25.2002C16.2496 25.3162 15.3707 25.5103 14.5138 25.7802C14.1471 25.8602 13.7138 26.0535 13.4004 25.9468C12.6138 25.6668 12.6938 26.1335 12.7338 26.6135C12.7804 27.9868 12.8404 29.3535 12.8671 30.7268C12.8955 31.1204 12.841 31.5156 12.7071 31.8868C12.1338 33.1468 11.4271 34.3535 10.9071 35.6335C10.0182 37.7846 9.20933 39.9624 8.48044 42.1668C7.19794 45.6714 6.60264 49.3903 6.7271 53.1202C6.79592 53.8276 6.93436 54.5266 7.14043 55.2068C7.21498 55.4472 7.36746 55.656 7.57378 55.8002C7.76774 55.9054 7.99549 55.9293 8.2071 55.8668C8.2871 55.8668 8.32044 55.5068 8.29377 55.3268C8.14894 54.8667 8.05067 54.3933 8.00044 53.9135C8.04438 51.785 8.19567 49.6601 8.45376 47.5468C8.74572 45.754 9.19182 43.9897 9.7871 42.2735C10.7204 39.4868 11.7871 36.7468 12.8004 33.9868L13.0138 34.0468C13.0434 34.1537 13.0635 34.263 13.0738 34.3735C13.0738 36.5735 13.0738 38.7802 13.0738 40.9868C13.0738 43.1935 13.1204 45.5802 13.0738 47.8735C13.0271 50.1668 12.8871 52.2868 12.8671 54.5002C12.8671 55.1135 12.8138 55.9402 13.7804 56.0135C14.5471 56.0735 15.3204 56.0802 16.0938 56.0668C18.2004 56.0668 20.3004 56.0002 22.4071 55.9535C23.9938 55.9135 25.5805 55.9002 27.1605 55.8002C28.4005 55.7202 29.6404 55.5468 30.8804 55.3935C31.6204 55.2935 32.3538 55.1468 33.1471 55.0135C33.0668 55.3792 33.1327 55.7618 33.3308 56.0794C33.5289 56.3971 33.8434 56.6247 34.2071 56.7135C34.8291 56.9431 35.4757 57.0998 36.1338 57.1802C36.7404 57.2735 37.3671 57.2668 38.0204 57.3068C37.9004 57.5402 37.8138 57.6802 37.7538 57.8268C37.1604 59.1602 37.7538 60.1535 39.2471 60.1468C40.3671 60.1468 41.4938 60.0402 42.5804 59.9935C42.4647 60.2838 42.3266 60.5647 42.1671 60.8335C42.0071 61.05 41.9164 61.3098 41.9069 61.5788C41.8974 61.8478 41.9695 62.1134 42.1138 62.3407C42.258 62.5679 42.4677 62.7462 42.7152 62.852C42.9627 62.9578 43.2365 62.9862 43.5004 62.9335C43.984 62.9073 44.4617 62.8153 44.9204 62.6602C46.1804 62.1668 47.4138 61.6068 48.7138 61.0535C48.6671 61.2335 48.6138 61.4002 48.5738 61.5735C48.4805 62.0468 48.9071 62.9068 49.2938 62.9068C49.9109 62.967 50.5338 62.8943 51.1204 62.6935C52.5204 62.0268 53.8471 61.1735 55.1938 60.3802C56.8519 59.3341 58.2151 57.8814 59.1538 56.1602C60.1605 54.4668 60.9671 52.6535 61.8205 50.8802C62.2529 50.1431 62.5911 49.3548 62.8271 48.5335C62.9538 48.0433 63.2174 47.5994 63.5871 47.2535C65.3604 45.2535 67.1738 43.2535 68.8605 41.1468C69.7843 39.9332 70.6155 38.6518 71.3471 37.3135C71.9435 36.2686 72.4519 35.176 72.8671 34.0468C73.5338 32.2868 73.3338 30.4402 73.1538 28.6202C73.1657 28.3163 73.0974 28.0146 72.9558 27.7455C72.8142 27.4763 72.6043 27.2492 72.3471 27.0868V27.0868ZM32.3004 53.9802C26.3004 54.6468 20.3404 53.8402 14.3938 55.0802C15.0271 45.6971 15.0137 36.2815 14.3538 26.9002C15.3871 26.7735 16.5338 26.6468 17.6871 26.4802C20.6351 26.1235 23.6053 25.9832 26.5738 26.0602C28.0306 26.0466 29.4857 25.9599 30.9338 25.8002C31.6004 25.7402 31.7204 26.0935 31.7404 26.6202C31.7871 27.8335 31.8271 29.0402 31.8871 30.2468C31.9671 31.8068 32.1204 33.3535 32.1338 34.9135C32.1671 38.5335 32.1338 42.1535 32.1338 45.7735C32.1338 47.7268 32.2471 49.6802 32.3004 51.6335C32.3204 52.4202 32.3004 53.2068 32.3004 53.9802ZM33.4071 54.0668C33.9616 44.6891 33.7765 35.2822 32.8538 25.9335C33.6563 26.4294 34.4891 26.8747 35.3471 27.2668C36.9639 27.9369 38.6564 28.407 40.3871 28.6668C41.8138 28.8402 43.2138 29.3335 44.6404 29.5268C45.4554 29.7158 46.3086 29.6531 47.0871 29.3468C47.4071 29.1935 48.0471 29.4668 48.4204 29.7202C49.9732 30.678 51.6707 31.3781 53.4471 31.7935C53.6663 31.8459 53.8947 31.8459 54.1138 31.7935C54.4938 31.7002 55.0204 31.6335 55.1871 31.3735C55.3538 31.1135 55.0404 30.6535 54.9404 30.2868C54.904 30.1781 54.8571 30.0732 54.8005 29.9735C55.8005 30.2668 56.7071 31.2535 57.6871 30.2335C58.6671 29.2135 57.8738 28.3135 57.4138 27.3468L61.6938 27.5735C61.7804 28.6868 61.8738 29.8802 61.9538 31.0735C62.0071 31.9602 61.9538 32.8468 62.0871 33.7402C62.2204 34.6335 61.6071 34.9202 61.2071 35.3868C60.1703 36.6952 59.0408 37.9273 57.8271 39.0735C56.3691 40.2466 54.8516 41.3436 53.2805 42.3602C53.1805 42.4268 52.8871 42.3602 52.7805 42.2268C50.551 39.9739 47.5919 38.5889 44.4338 38.3202C40.9604 37.9668 38.8138 40.4602 39.3338 43.8468C39.4046 44.204 39.5681 44.5362 39.808 44.81C40.0479 45.0838 40.3557 45.2897 40.7005 45.4068C42.1339 45.902 43.6736 46.0056 45.1605 45.7068C46.1605 45.5735 47.1605 45.4868 48.1805 45.4135C48.7071 45.3802 48.9005 45.6668 48.6805 46.1602C48.1538 47.3535 47.5538 48.4402 46.2738 49.0668C42.9332 50.6857 39.4903 52.0842 35.9671 53.2535L33.4071 54.0668Z" fill="#342B1D"/>
<path d="M28.8002 41.4932C27.7453 41.4754 26.6903 41.5177 25.6402 41.6199C24.1468 41.7599 22.6669 41.9732 21.1735 42.1266C20.6309 42.2435 20.0695 42.2435 19.5269 42.1266C18.9469 41.9066 18.6802 41.9065 18.5869 42.5399C18.3535 44.0932 18.1802 45.6532 17.9202 47.2065C17.6735 48.5399 17.2935 49.8732 17.0269 51.2065C16.9802 51.4465 17.1669 51.9599 17.2935 51.9732C18.4796 52.1463 19.6752 52.2465 20.8735 52.2732C21.9402 52.2732 23.0069 52.1132 24.0669 52.0266C24.6402 51.9866 25.2135 51.9599 25.7868 51.9332C26.3602 51.9066 26.7535 51.8866 27.2268 51.8999C27.9535 51.8999 27.8935 51.3332 28.1069 50.8999C29.2802 48.6532 29.5535 46.2332 29.8135 43.6066C29.7612 43.1031 29.663 42.6055 29.5202 42.1199C29.4647 41.9621 29.3691 41.8213 29.2429 41.7115C29.1167 41.6016 28.9642 41.5264 28.8002 41.4932V41.4932ZM27.0935 50.6132L17.9535 51.2399C18.2535 50.3066 18.5202 49.4799 18.7868 48.6399C21.8268 48.4332 24.9202 48.9532 28.0269 48.0999C27.6935 48.9866 27.3802 49.8466 27.0935 50.6132ZM28.1535 47.3466L18.9935 47.6799C19.2135 46.1932 19.4269 44.7132 19.6602 43.1999L28.6202 42.3199C28.9002 44.0732 28.3735 45.7266 28.1535 47.3466Z" fill="#342B1D"/>
<path d="M20.7399 49.1068C20.4482 49.0581 20.1486 49.0952 19.8776 49.2135C19.6066 49.3319 19.3758 49.5264 19.2132 49.7734C19.2049 49.8653 19.2194 49.9578 19.2555 50.0427C19.2915 50.1276 19.348 50.2023 19.4199 50.2601C19.6512 50.3576 19.8964 50.4184 20.1465 50.4401C20.3918 50.3831 20.6276 50.291 20.8465 50.1668C20.9452 50.1006 21.0284 50.0139 21.0905 49.9127C21.1526 49.8115 21.1922 49.698 21.2065 49.5801C21.1932 49.4068 20.9399 49.1934 20.7399 49.1068Z" fill="#342B1D"/>
<path d="M24.6192 50.2467C25.1455 50.2769 25.6733 50.2297 26.1859 50.1066C26.3859 50.06 26.5259 49.7466 26.6925 49.5533C26.4868 49.4319 26.261 49.3484 26.0259 49.3066C25.5767 49.3605 25.1313 49.4429 24.6925 49.5533L24.6125 49.3666L24.1992 49.7C24.2992 49.8933 24.4459 50.24 24.6192 50.2467Z" fill="#342B1D"/>
<path d="M22.3325 49.4202C21.9591 49.4536 21.5525 49.5469 21.6658 50.0136C21.7458 50.2802 22.0991 50.4736 22.4125 50.7869C22.7854 50.5388 23.1437 50.2694 23.4858 49.9802C23.5591 49.9136 23.4858 49.5269 23.4125 49.5136C23.0685 49.4562 22.721 49.4228 22.3725 49.4136L22.3325 49.4202Z" fill="#342B1D"/>
</svg>
