<svg width="81" height="80" viewBox="0 0 81 80" fill="none" xmlns="http://www.w3.org/2000/svg">
<path d="M20.7336 28.8598C21.5542 29.3767 22.4173 29.8227 23.3136 30.1931C24.6051 30.5903 25.9243 30.8911 27.2603 31.0932C29.4667 31.5616 31.7181 31.7852 33.9736 31.7598C34.3736 31.7598 34.7803 31.7198 35.1803 31.7198C36.3269 31.7198 37.4802 31.8065 38.6202 31.7198C40.0002 31.6465 41.3736 31.4798 42.7469 31.3131C44.2936 31.1198 45.8469 30.9398 47.3735 30.6465C49.3013 30.3079 51.189 29.7718 53.0069 29.0465C54.7803 28.2998 56.7269 27.9731 58.5602 27.3665C60.1402 26.8531 61.6669 26.1998 63.2269 25.6332C63.7069 25.4532 64.2202 25.3598 64.7135 25.2265L64.7935 25.4265C64.7615 25.4935 64.7212 25.5562 64.6736 25.6132C63.882 26.3359 63.0423 27.0041 62.1602 27.6132C61.1336 28.2265 59.9869 28.6131 58.9069 29.1398C58.0336 29.5598 57.1736 30.0131 56.3336 30.4731C56.1802 30.5598 56.1402 30.8331 56.0469 31.0131C56.2269 31.0798 56.4269 31.2265 56.5802 31.1865C57.3825 31.0008 58.1727 30.7671 58.9469 30.4865C60.5535 29.8732 62.1469 29.2065 63.7269 28.5398C65.2002 27.9198 66.6602 27.2798 68.1135 26.6332C68.7802 26.3532 69.3602 26.0398 70.1135 25.6798C70.0417 25.8471 69.9593 26.0097 69.8669 26.1665C69.7917 26.2616 69.7092 26.3508 69.6202 26.4331C68.1707 27.863 66.5254 29.0796 64.7336 30.0465C63.7549 30.6181 62.7368 31.1194 61.6869 31.5465C60.0269 32.1731 58.3536 32.6665 56.6402 33.2265C56.2536 33.3532 55.8669 33.5732 55.9736 34.0398C56.0802 34.5065 56.6002 34.4732 56.9669 34.3732C58.1269 34.0398 59.2936 33.7065 60.4269 33.2931C63.8729 31.9782 67.1583 30.2762 70.2202 28.2198C70.6202 27.9598 71.0469 27.7465 71.4535 27.5131L71.5936 27.6198C71.5033 27.8743 71.3895 28.1198 71.2536 28.3532C70.4379 29.3943 69.4109 30.2508 68.2402 30.8665C67.1469 31.5331 65.9803 32.0331 64.8536 32.6198C63.7269 33.2065 62.6603 33.8865 61.5203 34.3798C59.9603 35.0465 58.3336 35.5265 56.7536 36.1465C56.5937 36.2249 56.454 36.339 56.3454 36.48C56.2367 36.6211 56.1619 36.7852 56.1269 36.9598C56.1269 37.3665 56.5803 37.3865 56.9403 37.3532C57.0623 37.363 57.1849 37.363 57.3069 37.3532C59.8257 36.6219 62.2647 35.6391 64.5869 34.4198C66.4136 33.5465 68.1803 32.5598 70.0069 31.6865C70.7178 31.4155 71.4461 31.1928 72.1869 31.0198L72.2669 31.1931C72.1535 31.4356 72.0053 31.6602 71.8269 31.8598C70.6287 32.8914 69.3686 33.8487 68.0536 34.7265C66.3254 35.7766 64.5228 36.6991 62.6602 37.4865C60.9386 38.177 59.1751 38.7582 57.3802 39.2265C56.2735 39.5398 55.1136 39.6665 53.9736 39.8932C53.9736 39.9598 53.9135 40.0331 53.8869 40.1065C54.043 40.3452 54.2216 40.5685 54.4202 40.7731C54.7802 40.9998 55.1253 41.2492 55.4535 41.5198C56.4891 42.6931 57.3207 44.0316 57.9136 45.4798C58.1202 45.9125 58.2063 46.3929 58.1629 46.8704C58.1195 47.3479 57.9482 47.8048 57.6669 48.1931C57.5906 48.3296 57.4847 48.4472 57.357 48.5373C57.2293 48.6275 57.0831 48.6879 56.929 48.7141C56.7749 48.7403 56.6168 48.7317 56.4665 48.6888C56.3161 48.646 56.1773 48.57 56.0602 48.4665C54.4487 47.0163 53.2308 45.1814 52.5203 43.1332C52.2634 42.2567 51.767 41.4694 51.0869 40.8598C51.0136 41.1265 50.9003 41.3065 50.9336 41.4665C51.0247 42.0634 51.1788 42.6489 51.3936 43.2131C51.9802 44.4998 52.6736 45.7332 53.2669 47.0198C53.8153 48.0678 54.5922 48.9792 55.5402 49.6865C55.7809 49.911 56.0809 50.0617 56.4047 50.1208C56.7285 50.1799 57.0624 50.1448 57.3669 50.0198C57.9795 49.7671 58.5075 49.3451 58.8888 48.8031C59.2702 48.2612 59.4892 47.6218 59.5203 46.9598C59.5693 45.6036 59.1266 44.2753 58.2736 43.2198C57.6069 42.3531 56.9002 41.5531 56.1602 40.6665C56.8269 40.5598 57.4002 40.4931 57.9669 40.3665C59.876 40.0071 61.7343 39.416 63.5002 38.6065C64.7869 37.9398 66.1669 37.4598 67.3735 36.7331C68.8574 35.8576 70.2888 34.896 71.6602 33.8532C72.3736 33.317 72.9854 32.6578 73.4669 31.9065C73.6128 31.7088 73.6979 31.4729 73.7114 31.2275C73.725 30.9822 73.6666 30.7383 73.5433 30.5258C73.42 30.3133 73.2373 30.1414 73.0177 30.0314C72.798 29.9213 72.5509 29.8779 72.3069 29.9065C72.1363 29.8925 71.9683 29.8566 71.8069 29.7998C72.0602 29.4265 72.2869 29.1331 72.4736 28.7931C72.6884 28.5043 72.79 28.1468 72.7593 27.7882C72.7286 27.4296 72.5677 27.0946 72.3069 26.8465C71.9515 26.6536 71.5621 26.5314 71.1602 26.4865C71.1602 26.3998 71.2535 26.2732 71.2869 26.1332C71.4869 25.2332 71.1869 24.7998 70.2736 24.7998C69.8133 24.8008 69.3585 24.9008 68.9403 25.0932C68.1269 25.4398 67.3469 25.8798 66.5536 26.2731L65.2202 26.9398C65.3048 26.7853 65.4054 26.64 65.5203 26.5065C65.7386 26.3504 65.8918 26.1193 65.9508 25.8575C66.0099 25.5956 65.9705 25.3212 65.8403 25.0865C65.6639 24.8535 65.4246 24.6757 65.1506 24.5741C64.8765 24.4725 64.5792 24.4514 64.2935 24.5131C63.2402 24.7798 62.1736 25.0265 61.1402 25.3598C58.7402 26.1331 56.3669 27.0065 53.9535 27.7465C51.6145 28.5169 49.2355 29.1601 46.8269 29.6731C44.4069 30.1398 41.9135 30.2798 39.4535 30.5331C37.9535 30.6865 36.4535 30.7798 34.9469 30.8865C34.183 30.9939 33.411 31.0318 32.6402 30.9998C30.9669 30.8265 29.3069 30.5398 27.6469 30.2931C25.4779 30.0369 23.3486 29.5153 21.3069 28.7398C21.0214 28.6521 20.7294 28.5874 20.4336 28.5465C20.4516 28.6638 20.4852 28.7781 20.5335 28.8865C20.6012 28.8878 20.6686 28.8788 20.7336 28.8598Z" fill="#342B1D"/>
<path d="M7.69289 45.1329C8.76978 46.2415 10.0394 47.1451 11.4396 47.7995C11.9463 48.0795 12.4529 48.3728 12.9729 48.6728C12.3063 49.1862 12.2062 49.5795 12.7996 50.1062C13.4551 50.7128 14.1724 51.2491 14.9396 51.7062C17.7595 53.1855 20.8715 54.0233 24.0529 54.1595C24.2972 54.1516 24.5393 54.1112 24.773 54.0395V53.8062C24.2996 53.6462 23.833 53.4462 23.3463 53.3328C21.6796 52.9395 20.0129 52.6662 18.3329 52.1928C16.5735 51.7117 14.9415 50.849 13.5529 49.6662C13.6837 49.6521 13.8155 49.6521 13.9462 49.6662C16.1462 50.3328 18.3396 50.9995 20.5529 51.6662C21.6877 52.068 22.9068 52.1714 24.093 51.9662C24.2826 51.9246 24.448 51.8095 24.5529 51.6462C24.5617 51.5577 24.55 51.4684 24.5188 51.3852C24.4876 51.302 24.4377 51.227 24.3729 51.1662C24.2035 51.027 24.0054 50.9269 23.7929 50.8729C22.9929 50.6595 22.1863 50.4729 21.3929 50.2595C19.6929 49.8062 17.9596 49.4395 16.3129 48.8529C14.2399 48.1418 12.2609 47.1814 10.4196 45.9928C9.75295 45.5462 9.11959 45.0062 8.47292 44.5128C8.51292 44.4528 8.55295 44.3928 8.58628 44.3328C8.76628 44.4062 8.95291 44.4728 9.12624 44.5528C10.6196 45.2195 12.0663 46.0328 13.5996 46.5995C16.0796 47.5128 18.6062 48.2995 21.1329 49.0862C21.7851 49.2636 22.4571 49.3577 23.1329 49.3662C23.2578 49.3422 23.3739 49.2849 23.4689 49.2004C23.564 49.1159 23.6345 49.0074 23.673 48.8862C23.673 48.7062 23.4329 48.4062 23.2196 48.3128C22.8339 48.1999 22.4422 48.1086 22.0462 48.0395C19.9329 47.4262 17.8063 46.8662 15.7196 46.1662C13.1863 45.3195 11.0996 43.6595 8.93964 42.1662C8.4663 41.8328 8.37963 41.3728 8.6863 41.0262C8.99297 40.6795 9.40628 40.6862 9.91962 41.0262C11.0217 41.8506 12.2005 42.5673 13.4396 43.1662C15.653 44.0995 17.9396 44.8528 20.2196 45.6195C21.5529 46.0662 22.9329 46.3929 24.2929 46.7795C24.4892 46.8502 24.7055 46.8401 24.8943 46.7513C25.0831 46.6625 25.2288 46.5024 25.2996 46.3062C25.4729 45.8128 25.0396 45.6395 24.6329 45.5862C24.1552 45.5081 23.6831 45.399 23.2196 45.2595C20.9729 44.5129 18.6863 43.8662 16.5529 42.9395C14.6497 42.047 12.802 41.0407 11.0196 39.9262C10.5584 39.6035 10.1625 39.1963 9.85297 38.7262C9.79721 38.6144 9.76817 38.4911 9.76817 38.3662C9.76817 38.2412 9.79721 38.118 9.85297 38.0062C9.93342 37.9218 10.0309 37.8556 10.1389 37.8119C10.247 37.7683 10.3631 37.7481 10.4796 37.7528C10.8457 37.7502 11.2092 37.8134 11.5529 37.9395C13.3329 38.6462 15.1263 39.3262 16.8863 40.1395C18.7703 40.9825 20.7273 41.6519 22.7329 42.1395C26.0663 43.0062 29.3996 42.9795 32.7329 43.0195C32.8211 43.034 32.9115 43.0186 32.9899 42.9757C33.0682 42.9328 33.1299 42.8648 33.1652 42.7828C33.2005 42.7007 33.2074 42.6092 33.1846 42.5228C33.1618 42.4365 33.1107 42.3602 33.0396 42.3062C32.7693 42.0579 32.477 41.8348 32.1663 41.6395C30.4329 40.4995 28.9929 39.1328 28.3796 37.0462C28.2769 36.7866 28.2321 36.5078 28.2482 36.2292C28.2644 35.9506 28.341 35.6788 28.4729 35.4328C28.7929 34.8595 29.0063 34.7662 29.5863 35.1395C31.3084 36.1647 32.7762 37.5664 33.8796 39.2395C34.4903 40.0759 35.0194 40.9688 35.4596 41.9062C35.5332 42.1612 35.6786 42.3898 35.8783 42.5647C36.078 42.7396 36.3237 42.8535 36.5863 42.8928C37.2826 43.0049 37.9882 43.0473 38.6929 43.0195C39.8862 42.9529 41.0796 42.8262 42.2663 42.6728C44.2663 42.4062 46.2663 42.1262 48.2663 41.7928C49.0596 41.6595 49.9063 41.5729 50.5063 40.8195L36.0663 42.2928C36.1344 41.7719 36.0956 41.2425 35.9523 40.737C35.8091 40.2316 35.5643 39.7606 35.2329 39.3529C34.6396 38.5862 34.0329 37.8262 33.4929 37.0128C32.4529 35.4328 30.8263 34.7528 29.1529 34.1662C28.8962 34.1149 28.6297 34.1477 28.3929 34.2595C27.9578 34.4739 27.6097 34.8314 27.407 35.272C27.2043 35.7127 27.1592 36.2096 27.2796 36.6795C27.6698 38.3853 28.5531 39.9387 29.8196 41.1462L31.0196 42.2462C29.6863 42.0862 28.5263 41.9595 27.353 41.8128C26.4253 41.7425 25.5033 41.6112 24.593 41.4195C23.0463 41.0195 21.5063 40.5528 20.0063 40.0062C18.2663 39.3728 16.5796 38.5795 14.8396 37.9195C13.5346 37.4089 12.1986 36.9814 10.8396 36.6395C10.5882 36.5695 10.3247 36.5544 10.067 36.5951C9.80926 36.6359 9.56331 36.7316 9.34581 36.8757C9.1283 37.0199 8.94428 37.2091 8.80634 37.4306C8.66839 37.6521 8.57969 37.9007 8.54624 38.1595C8.53404 38.7468 8.55413 39.3344 8.6063 39.9195C7.27297 40.5328 6.50627 41.4862 8.32627 42.9395C7.04627 43.2995 6.81956 44.1195 7.69289 45.1329Z" fill="#342B1D"/>
<path d="M73.3134 47.0203C72.8225 47.1421 72.3393 47.2935 71.8667 47.4737C70.28 48.0737 68.7134 48.7203 67.12 49.3003C65.3534 49.967 63.5934 50.6337 61.7867 51.127C59.98 51.6203 58.1401 52.0137 56.3067 52.4603C55.1867 52.7137 54.0601 52.9737 52.9268 53.187C51.9001 53.3737 50.8667 53.507 49.8267 53.647C48.0201 53.8937 46.2134 54.1937 44.3934 54.3537C42.5734 54.5137 40.6867 54.5803 38.8334 54.587C36.9801 54.5937 34.9334 54.507 32.9867 54.407C30.4867 54.2803 27.9934 54.0937 25.4934 53.9403C25.2876 53.9554 25.0841 53.9934 24.8867 54.0537C24.8867 54.147 24.8867 54.2403 24.8867 54.3403C25.3201 54.447 25.7467 54.6003 26.2201 54.667C27.3667 54.8337 28.5201 54.9737 29.6734 55.1003C30.8268 55.227 31.8934 55.3203 33.0068 55.4003C33.5801 55.447 34.1667 55.4003 34.7467 55.4003C35.8801 55.4937 37.0067 55.747 38.1334 55.727C40.8001 55.6803 43.5068 55.5537 46.1868 55.367C47.8801 55.247 49.5668 55.0003 51.2534 54.7403C52.7734 54.507 54.2934 54.2537 55.7867 53.8803C58.6667 53.1737 61.5534 52.4803 64.3734 51.5737C66.6534 50.8403 68.8467 49.847 71.04 48.907C72.0126 48.4356 72.9605 47.9149 73.8801 47.347C73.8801 47.2737 73.8801 47.207 73.8468 47.1337C73.6401 47.087 73.4601 46.987 73.3134 47.0203Z" fill="#342B1D"/>
</svg>
