<svg width="70" height="66" viewBox="0 0 70 66" fill="none" xmlns="http://www.w3.org/2000/svg">
<g clip-path="url(#clip0_252_14077)">
<path d="M39.3405 27.7527C39.9912 29.2136 42.2547 28.4832 43.5239 28.3554C46.209 28.3965 48.3488 26.5292 50.7269 25.4153C54.3651 23.539 58.1544 19.3983 54.5346 15.7735C50.5986 11.2767 33.7916 22.1283 39.3405 27.7527ZM52.995 15.4494C53.3066 15.4494 53.3616 15.5133 53.0775 15.5635C52.7934 15.6137 52.6697 15.4676 52.995 15.4494ZM46.8917 18.2752C47.941 17.8598 47.9868 17.1522 49.027 16.7915C49.7434 16.6797 50.4145 16.3715 50.9652 15.9013C55.396 15.3718 55.8359 19.5535 52.3398 21.6125C50.9194 22.3383 48.3397 24.9679 48.3259 22.457C48.3442 21.1742 46.5298 19.4348 46.8917 18.2752ZM39.8033 25.1643C41.1779 23.2012 42.8229 20.6264 45.3705 19.5946C46.3281 21.0555 46.5985 23.297 47.886 24.2284C46.2915 25.5158 39.5605 28.6247 39.7941 25.1643H39.8033ZM70.0082 21.9686C69.6783 12.2446 60.7524 2.79447 51.4692 0.511842C41.4712 -2.25927 30.7308 6.05405 27.9495 15.3854C25.993 20.5168 26.5978 26.6662 28.9668 31.6378C29.0813 32.7197 31.8855 35.4269 30.3414 36.203C28.0778 38.7915 28.4307 37.2668 25.6585 36.0433C21.8692 34.3724 24.6779 36.1894 22.978 37.3124C21.6034 38.0839 21.0673 39.8461 19.9218 40.8185C18.7763 41.7909 17.255 43.1285 16.4211 44.0142C13.1862 46.8264 9.76796 49.8349 6.4643 52.6425C4.45736 54.0121 2.7116 57.7328 0.269363 57.5593C-1.22439 58.1757 3.90751 61.4718 4.54442 62.6998C5.75866 63.4394 8.80114 67.1373 10.3132 65.6627C10.4965 64.6035 8.9386 64.6675 10.2857 63.727C13.0854 62.0561 15.326 59.8785 17.4612 57.4635C20.0638 55.5735 22.8726 53.4369 25.2003 50.8484C27.9631 48.7921 30.5348 46.4926 32.8844 43.9777C32.0138 43.544 32.9531 42.7222 30.8225 42.6629C30.5842 42.9596 30.2864 43.6992 29.9336 43.0692C29.2233 41.307 26.7261 40.6085 26.3229 39.0655C26.8865 38.6089 25.7822 39.2663 26.0846 38.8281C25.8326 38.4354 25.9563 37.4996 26.6803 38.0291C28.0549 39.0655 36.3438 46.4658 33.5167 42.5442C32.4537 40.5081 30.5796 40.6907 33.1639 38.5039C39.9133 42.5122 49.6914 45.8769 56.9906 41.2066C63.9003 38.2483 69.857 30.0399 69.999 21.9777L70.0082 21.9686ZM26.2175 41.202C31.6427 44.4434 26.3733 46.5662 23.537 49.0543C19.2253 53.8615 13.7727 57.6871 9.42889 62.7226C7.85724 65.1103 5.45624 60.8509 4.1412 59.7781C2.55581 58.5774 5.28213 58.4861 5.94195 57.3767C11.1655 53.0945 15.1473 48.301 20.6595 44.5027C20.939 45.4158 23.2025 46.8538 22.0341 45.0277C21.8646 43.754 20.884 43.7723 22.2495 42.7907C22.0387 42.1242 24.3251 45.7992 25.4569 45.6851C26.9277 45.1647 23.4454 42.9459 23.2942 41.9644C24.3114 40.9509 25.0903 39.7046 26.2084 41.2111L26.2175 41.202ZM37.9659 36.2532C35.3083 35.6598 32.0505 34.6782 31.2624 31.341C28.5131 27.319 31.8076 22.667 34.1078 19.1929C38.03 12.4911 44.5045 6.52881 52.5597 6.91229C52.6376 6.84838 53.2745 7.08124 53.2104 6.88493C53.0271 6.63384 54.026 6.64755 53.467 6.55625C48.7841 5.64319 43.3865 7.75232 39.4505 10.181C34.9738 13.0161 31.8901 17.8461 29.6724 22.6853C29.5395 16.6272 33.8329 10.7334 38.4058 7.05841C44.7244 2.31054 51.9274 2.30599 58.2644 5.8806C63.9736 8.76128 62.5944 17.2435 60.3584 22.521C57.7833 31.9665 46.8917 36.9563 37.9567 36.2624L37.9659 36.2532ZM67.149 20.1653C66.3196 32.4139 55.5518 44.0051 42.3372 40.6359C41.155 40.2662 39.3451 40.2022 38.392 39.3029C40.9246 39.9659 43.5918 39.9184 46.099 39.1659C51.1943 38.4994 55.8267 35.6461 59.3549 32.2039C59.8635 31.4323 60.1522 32.0715 60.6837 31.6104C61.4718 30.2089 61.3115 31.9254 61.7559 30.2408C63.7995 25.5751 65.6003 20.8364 65.779 15.5726C65.5315 11.61 67.3323 18.7318 67.1398 20.1744L67.149 20.1653Z" fill="#342B1D"/>
</g>
<defs>
<clipPath id="clip0_252_14077">
<rect width="70" height="66" fill="white"/>
</clipPath>
</defs>
</svg>
