<svg width="80" height="80" viewBox="0 0 80 80" fill="none" xmlns="http://www.w3.org/2000/svg">
<path d="M52.9733 34.4341C52.6523 33.9703 52.1902 33.6224 51.6557 33.4422C51.1212 33.2621 50.5428 33.2592 50.0066 33.4341C49.9599 32.5807 49.9399 31.7541 49.8666 30.9274C49.8114 30.1382 49.4773 29.3944 48.924 28.8289C48.3708 28.2634 47.6344 27.9132 46.8466 27.8407C44.9492 27.7198 43.0498 28.044 41.2999 28.7874C39.3466 29.6607 37.4533 30.6874 35.5866 31.7341C33.9933 32.6341 32.4733 33.6674 30.92 34.6474C30.6266 34.8341 30.3866 35.0874 30.0999 35.2807C29.8133 35.4741 29.3333 35.7674 28.7666 36.1141C28.2199 33.4474 27.7799 31.0674 27.2199 28.7007C26.6199 26.1607 26.0999 23.5874 24.6866 21.3207C23.8775 19.9936 22.5961 19.0219 21.0999 18.6007C20.2525 18.3291 19.3553 18.2494 18.4733 18.3674C17.0176 18.6943 15.7075 19.4851 14.7399 20.6207C13.3599 22.0874 13.1533 23.9141 13.4066 25.7874C13.5819 27.339 14.1036 28.8313 14.9333 30.1541C15.5999 31.1874 16.0533 32.3674 16.6933 33.4207C17.6511 34.799 18.5153 36.24 19.2799 37.7341C19.7441 38.8316 19.8932 40.0367 19.7107 41.2143C19.5282 42.3918 19.0212 43.4952 18.2466 44.4007C17.58 45.1607 16.6266 45.6341 15.8933 46.3341C15.3866 46.8141 14.5599 47.0741 14.4666 47.9874C14.6666 47.9874 14.8399 48.0407 14.9399 47.9874C16.3133 47.1674 17.8533 46.5141 19.0066 45.4474C21.2066 43.4141 21.5999 40.6941 21.1399 37.8407C20.7999 35.7074 19.5066 34.0074 18.3999 32.2274C17.1066 30.1407 15.8333 28.0274 15.4666 25.5607C15.2533 24.0874 15.3466 22.6607 16.6133 21.5607C17.0135 21.1594 17.5058 20.8621 18.0473 20.6947C18.5888 20.5274 19.1631 20.4951 19.7199 20.6007C21.5466 20.8874 23.7199 22.3474 24.2666 24.1407C25.2066 27.4007 26.0266 30.7007 26.9333 33.9741C27.1851 34.7835 27.5086 35.5688 27.8999 36.3207C27.996 36.5196 28.1342 36.6952 28.3049 36.8352C28.4757 36.9753 28.675 37.0764 28.8888 37.1316C29.1026 37.1868 29.3259 37.1948 29.5432 37.1549C29.7604 37.115 29.9663 37.0283 30.1466 36.9007C31.0066 36.3674 31.8599 35.8207 32.7133 35.2807C34.3866 34.2274 35.9933 33.0341 37.7533 32.1407C40.2466 30.8674 42.7466 29.4741 45.6466 29.3474C46.3999 29.3474 47.3199 29.1874 47.8666 29.8874C48.213 30.286 48.4498 30.7679 48.5538 31.2856C48.6578 31.8034 48.6255 32.3393 48.46 32.8407C47.9747 34.2638 47.0736 35.5086 45.8733 36.4141C44.3636 37.4335 42.7916 38.3575 41.1666 39.1807C38.6375 40.5817 35.9524 41.6804 33.1666 42.4541C32.7133 42.5674 31.7066 42.1741 31.7333 41.7874C31.7247 41.2136 31.8336 40.6442 32.0533 40.1141C32.4303 39.5719 32.8639 39.0714 33.3466 38.6207C35.4066 36.2474 38.2466 34.9341 40.8199 33.2874C41.9333 32.5674 43.4066 32.3941 44.7199 31.9541L45.6933 31.6407V31.4141C45.5299 31.3356 45.3575 31.2773 45.1799 31.2407C43.6866 31.1407 42.1866 31.0941 40.8133 31.8074C39.7666 32.3474 38.8133 33.0474 37.7533 33.5741C36.064 34.4088 34.5108 35.4944 33.1466 36.7941C32.2615 37.6626 31.4352 38.5891 30.6733 39.5674C30.3283 39.929 30.1044 40.389 30.0328 40.8836C29.9611 41.3781 30.0451 41.8828 30.2733 42.3274C30.4754 42.7437 30.7856 43.0982 31.1713 43.3538C31.5571 43.6094 32.0044 43.7569 32.4666 43.7807C33.2066 43.8274 33.9466 43.7807 34.6799 43.7807C34.1189 44.7746 33.853 45.9078 33.9133 47.0474C33.98 47.9007 34.1733 48.6407 34.9466 48.9074C35.7674 49.1172 36.6072 49.2445 37.4533 49.2874C37.3733 49.4341 37.2 49.7541 37.04 50.0807C36.0866 51.9674 37.1199 53.7741 39.1999 53.8341C40.9445 53.8567 42.6527 53.3347 44.0866 52.3407C45.24 51.5874 46.3999 50.8407 47.5466 50.0741C47.8587 49.8431 48.1549 49.5914 48.4333 49.3207C48.8399 48.9607 49.2133 48.5541 49.6466 48.2274C50.3307 47.8274 50.9797 47.3702 51.5866 46.8607C52.2966 46.212 53.1784 45.7815 54.1266 45.6207L54.6999 45.4807C56.8621 44.8155 59.1052 44.4499 61.3666 44.3941C62.0251 44.3653 62.6822 44.4764 63.2947 44.7201C63.9071 44.9637 64.4611 45.3343 64.92 45.8074C65.0666 45.9674 65.0866 46.4741 64.96 46.5941C64.4432 47.0387 63.8578 47.3966 63.2266 47.6541C61.9466 48.0874 60.6266 48.3941 59.3133 48.7341C58.2666 49.0007 57.1999 49.2207 56.1466 49.4741C54.8133 49.7941 53.3999 50.0607 52.0666 50.4741C50.7333 50.8874 49.4733 51.4141 48.1933 51.9207C47.8488 52.0534 47.5339 52.2528 47.2666 52.5074C46.4666 53.3007 45.7133 54.1474 44.9266 54.9607C43.278 56.7734 41.0074 57.8992 38.5666 58.1141C36.7333 58.2474 34.8399 58.4274 33.1066 57.4474C32.4659 57.1111 31.7966 56.8322 31.1066 56.6141C30.8114 56.4765 30.4814 56.4316 30.1601 56.4851C29.8388 56.5387 29.5413 56.6882 29.3066 56.9141C28.7012 57.4229 28.0692 57.8991 27.4133 58.3407C26.4666 59.0541 25.4799 59.7274 24.5933 60.5074C24.3533 60.7141 24.3866 61.2407 24.2999 61.6207C24.6266 61.6207 25.0466 61.7474 25.2666 61.6207C26.7466 60.5874 28.22 59.5407 29.6266 58.4141C30.5733 57.6541 30.5266 57.5941 31.4933 58.2407C32.9425 59.1939 34.6323 59.7164 36.3666 59.7474C38.5479 59.8662 40.7239 59.4328 42.6933 58.4874C44.7533 57.4807 46.1999 55.7607 47.6199 54.0341C47.8286 53.7617 48.1342 53.5802 48.4733 53.5274C49.2776 53.3167 50.068 53.0562 50.8399 52.7474C52.0599 52.3007 53.2466 51.7607 54.4866 51.3674C56.0333 50.8741 57.6133 50.4807 59.1866 50.0674C60.8733 49.6207 62.5933 49.2874 64.2399 48.7341C64.9912 48.4296 65.657 47.9468 66.1799 47.3274C66.9066 46.5207 66.7599 45.7607 66.0466 44.9407C65.2423 44.0862 64.1992 43.4938 63.0533 43.2407C61.3599 42.7674 59.6399 43.0474 57.9666 43.3274C56.5466 43.5674 55.1666 44.0541 53.9066 44.3874C54.1999 43.7741 54.5733 43.0541 54.8866 42.3074C55.4533 40.7807 55.0133 37.9607 52.9333 37.5674C53.5599 36.5141 53.7466 35.4407 52.9733 34.4341ZM36.1133 47.8207C35.4999 47.9274 35.1866 47.3807 35.1866 46.4141C35.1866 44.7074 36.8999 42.5874 38.5199 42.0007C41.0225 41.228 43.3694 40.0207 45.4533 38.4341C45.6599 38.2607 45.9466 38.1874 46.1199 38.0007C46.8526 37.3359 47.5449 36.628 48.1933 35.8807C48.7555 35.1553 49.578 34.6771 50.4866 34.5474C50.9976 34.5409 51.4925 34.7265 51.8733 35.0674C52.059 35.2529 52.175 35.4968 52.2017 35.758C52.2285 36.0191 52.1642 36.2815 52.0199 36.5007C51.8049 37.0514 51.5555 37.588 51.2733 38.1074C50.9166 38.5718 50.4996 38.9866 50.0333 39.3407C48.1999 40.8474 46.4133 42.4274 44.4733 43.7941C42.723 45.0042 40.892 46.0935 38.9933 47.0541C38.0764 47.4504 37.1059 47.7087 36.1133 47.8207V47.8207ZM53.1599 38.9874C54.4933 39.8874 54.5399 40.9874 53.6599 42.3807C51.9227 44.9303 49.6295 47.0525 46.9533 48.5874C45.4599 49.5074 44.0733 50.5874 42.5466 51.4607C41.6227 51.8614 40.6598 52.1652 39.6733 52.3674L39.6266 52.2674L38.8133 52.2074C38.7248 52.2138 38.6361 52.1989 38.5546 52.1639C38.4731 52.1289 38.4012 52.0748 38.345 52.0061C38.2888 51.9375 38.2499 51.8564 38.2316 51.7696C38.2134 51.6828 38.2162 51.5929 38.2399 51.5074C38.4933 49.9674 38.9866 48.6674 40.5933 47.9274C43.1951 46.7001 45.632 45.1502 47.8466 43.3141C49.5095 42.1131 51.0011 40.6912 52.2799 39.0874C52.4053 38.9957 52.5523 38.9382 52.7067 38.9207C52.861 38.9031 53.0172 38.9261 53.1599 38.9874V38.9874Z" fill="#342B1D"/>
</svg>
