<svg width="80" height="80" viewBox="0 0 80 80" fill="none" xmlns="http://www.w3.org/2000/svg">
<path d="M33.3197 35.04C33.3127 35.0685 33.3127 35.0983 33.3197 35.1267H33.4064L33.5264 35.04C33.5109 35.0244 33.492 35.0127 33.4712 35.0057C33.4504 34.9988 33.4282 34.9968 33.4064 35L33.3197 35.04Z" fill="#342B1D"/>
<path d="M63.2863 32.26C63.5404 31.7973 63.7289 31.3014 63.8463 30.7867C63.913 30.5534 63.9729 30.3334 64.0396 30.12V30.0667C64.3764 29.6179 64.563 29.0744 64.573 28.5134V28.4534L64.6129 28.4134C64.7817 28.1657 64.9058 27.8905 64.9796 27.6001C65.065 27.3031 65.1788 27.0151 65.3196 26.74C65.4263 26.5067 65.513 26.2934 65.5997 26.0734L65.8663 25.4534C65.9225 25.2787 66.0107 25.116 66.1263 24.9734C66.3796 24.6334 66.4063 24.5267 66.2863 24.4267L66.2463 24.3867C66.2207 24.3469 66.2072 24.3006 66.2072 24.2534C66.2072 24.2061 66.2207 24.1598 66.2463 24.12C66.2666 24.09 66.2947 24.0661 66.3276 24.0509C66.3605 24.0356 66.3969 24.0295 66.433 24.0334C66.4193 23.9655 66.3922 23.9011 66.3532 23.8438C66.3143 23.7866 66.2643 23.7377 66.2063 23.7C66.0612 23.6058 65.9438 23.4747 65.8663 23.32C65.7075 23.1696 65.5357 23.0335 65.3529 22.9134C65.1819 22.8063 65.0212 22.6835 64.8729 22.5467V22.4934C64.7744 22.3496 64.6316 22.2419 64.4663 22.1867C64.3567 22.1334 64.2519 22.071 64.153 22C63.9509 21.7878 63.7021 21.6257 63.4263 21.5267C63.2219 21.4387 63.0275 21.3292 62.8463 21.2C62.274 21.0482 61.672 21.0482 61.0996 21.2C60.8063 21.24 60.4996 21.28 60.1796 21.3C60.1065 21.3048 60.035 21.3244 59.9697 21.3576C59.9044 21.3909 59.8465 21.437 59.7996 21.4934C59.7349 21.5519 59.6659 21.6054 59.593 21.6534C59.3185 21.7746 59.076 21.9583 58.885 22.1898C58.6941 22.4213 58.5598 22.6941 58.493 22.9867C58.393 23.6 59.013 24.4401 59.3463 24.8934C59.4515 24.9988 59.5677 25.0927 59.6929 25.1734C60.0262 25.4134 60.4796 25.7334 60.233 26.2534C60.0921 27.107 59.8224 27.9342 59.433 28.7067C59.2663 29.1 59.0862 29.5067 58.9462 29.9067L58.9063 29.9667C58.9033 29.9967 58.8932 30.0256 58.877 30.0511C58.8608 30.0766 58.8389 30.0979 58.8129 30.1134C58.7196 30.16 58.6263 30.1134 58.4996 30.08C58.4427 30.0555 58.3816 30.0419 58.3196 30.04C58.2577 30.0488 58.1948 30.0488 58.1329 30.04C57.7944 30.0013 57.4537 29.9834 57.1129 29.9867C56.6034 30.0036 56.0936 29.9634 55.593 29.8667C54.3663 29.7067 53.0463 29.66 51.7663 29.6134C50.993 29.6134 50.1996 29.56 49.4462 29.5067H49.3929C48.7994 29.2859 48.161 29.2127 47.5329 29.2934C46.9132 29.3618 46.2861 29.3098 45.6862 29.1401C45.3061 29.0137 44.9001 28.9861 44.5063 29.0601C44.3463 29.0601 44.1796 29.0601 43.993 29.1001C43.6565 29.099 43.3211 29.0609 42.993 28.9867C42.6536 28.9123 42.307 28.8766 41.9596 28.88C39.7863 28.9734 37.6063 29.12 35.4729 29.32C32.6263 29.6 29.6729 32.2 28.1396 34.5V34.5467L27.9796 34.6001C27.6793 34.71 27.3689 34.7904 27.0529 34.84C26.5929 34.92 26.3863 34.9467 26.1329 34.98C25.8796 35.0133 25.6796 35.0334 25.2263 35.1134C24.9161 35.1715 24.6017 35.205 24.2862 35.2134C23.9845 35.2281 23.6839 35.2615 23.3863 35.3133C23.3024 35.3327 23.2288 35.3827 23.1796 35.4534C23.1019 35.5712 23.071 35.7139 23.093 35.8533C23.1129 35.9675 23.1718 36.0712 23.2596 36.1467C23.299 36.1797 23.3449 36.2039 23.3943 36.2177C23.4438 36.2315 23.4955 36.2346 23.5463 36.2267L24.4529 36.0601L25.3662 35.9C25.6747 35.844 25.9865 35.8084 26.2996 35.7934C26.6018 35.7793 26.9025 35.7437 27.1996 35.6867L27.5063 35.6334L27.3996 35.9134C27.2529 36.2467 27.0863 36.58 26.8929 36.96L26.8529 37.04H26.7596C26.573 37.04 26.3596 37.0867 26.093 37.1267L23.8729 37.5134C23.3262 37.6067 23.0462 37.68 22.7796 37.7467C22.5129 37.8134 22.2263 37.8867 21.6663 37.98L19.4462 38.3667C18.8862 38.4667 18.5996 38.5 18.3196 38.5267C18.0396 38.5534 17.7663 38.5867 17.2129 38.6867C17.0871 38.7159 16.976 38.7892 16.8996 38.8934C16.8596 38.9385 16.8295 38.9914 16.8111 39.0488C16.7928 39.1062 16.7865 39.1668 16.7929 39.2267C16.8353 39.3529 16.9145 39.4634 17.0202 39.5442C17.126 39.625 17.2534 39.6723 17.3863 39.68C17.7501 39.6216 18.1073 39.5278 18.4529 39.4C18.8177 39.2646 19.1952 39.1663 19.5796 39.1067C19.9601 39.0366 20.3461 39.0009 20.7329 39C21.1018 39.0056 21.4703 38.9743 21.833 38.9067C22.1954 38.848 22.5522 38.7588 22.8996 38.6401C23.2651 38.5176 23.6395 38.424 24.0196 38.36C24.5729 38.2667 24.8462 38.2001 25.1196 38.1401C25.3929 38.0801 25.6063 38.0334 26.0396 37.9534L26.3929 37.8867L26.2129 38.2L26.173 38.2734C26.1263 38.34 26.0929 38.3867 26.1129 38.7534V38.7934V38.8267C25.9861 39.2114 25.939 39.6178 25.9746 40.0213C26.0101 40.4248 26.1275 40.8168 26.3196 41.1734C26.4663 41.7667 26.6129 41.84 26.8729 42.0067C27.0719 42.115 27.2539 42.252 27.413 42.4134C27.626 42.5606 27.8808 42.6354 28.1396 42.6267C28.4044 42.676 28.6635 42.752 28.913 42.8533C29.196 42.9922 29.5161 43.0366 29.8263 42.98C30.3463 42.8667 31.0662 42.6934 31.6196 42.54C31.6862 42.4511 31.7596 42.3645 31.8396 42.28C32.1043 42.0232 32.3013 41.7048 32.413 41.3533C32.3596 41.3533 32.2663 41.3134 32.2463 41.1467C32.2241 40.994 32.2401 40.8383 32.2929 40.6934H32.253V40.6467C32.2224 40.5331 32.2224 40.4136 32.253 40.3C32.269 40.1478 32.2554 39.9938 32.2129 39.8467V39.8067L32.0996 39.52C31.8863 38.94 31.8596 38.8533 31.9996 38.6867C32.0999 38.5569 32.1704 38.4067 32.2063 38.2467V38.16H32.2929C32.3969 38.0776 32.4889 37.9811 32.5663 37.8734C32.7176 37.6466 32.9272 37.4647 33.173 37.3467C33.2885 37.2623 33.4086 37.1843 33.5329 37.1134C33.7769 36.9888 34.0015 36.8294 34.1996 36.6401V36.58H34.253C34.5317 36.4321 34.7971 36.2603 35.0463 36.0667C35.4553 35.7228 35.929 35.4644 36.4396 35.3067C36.4537 35.2722 36.4741 35.2406 36.4996 35.2134L36.573 35.1467H36.6663H36.7263C36.8132 35.0989 36.9125 35.0785 37.0112 35.088C37.1099 35.0975 37.2034 35.1366 37.2796 35.2C37.7389 35.3716 38.2184 35.4836 38.7063 35.5334C39.9196 35.7334 40.6663 35.88 40.8396 36.2C40.8632 36.2477 40.8754 36.3002 40.8754 36.3533C40.8754 36.4065 40.8632 36.459 40.8396 36.5067C40.3809 38.5695 39.743 40.5883 38.933 42.54C38.793 42.92 38.6463 43.2934 38.5063 43.6667C38.3459 44.0392 38.2187 44.4251 38.1263 44.82C37.9985 45.4214 37.7734 45.9979 37.4596 46.5267C37.4129 46.6867 37.3396 46.9 37.2663 47.12C36.9818 48.085 36.5858 49.0135 36.0863 49.8867C35.3463 50.6667 34.0863 50.8334 32.9263 50.98C32.5796 51.0267 32.2596 51.0667 31.9596 51.12C31.6003 51.1743 31.2459 51.2568 30.8996 51.3667C30.2601 51.6007 29.5793 51.7006 28.8996 51.66C27.5146 51.8465 26.1412 52.1113 24.7862 52.4534C24.3529 52.4934 24.3196 52.6467 24.2596 52.94C24.2356 53.1045 24.1861 53.2642 24.1129 53.4134C24.1129 53.5667 24.0196 53.8134 23.9529 54.08C23.8396 54.5334 23.6929 55.0934 23.5663 55.68V55.7934H23.4529C23.1765 55.8413 22.9028 55.9036 22.6329 55.98C22.3314 56.0719 22.0241 56.1431 21.7129 56.1934C21.2663 56.2667 21.0463 56.32 20.8129 56.3667C20.5796 56.4134 20.3596 56.4667 19.8996 56.5467L18.9996 56.72C18.773 56.7667 18.5463 56.82 18.093 56.9C18.0025 56.9047 17.917 56.9427 17.8529 57.0067C17.8231 57.0839 17.8231 57.1695 17.8529 57.2467C17.8664 57.3528 17.9187 57.4501 17.9996 57.52C18.0349 57.5423 18.0744 57.5574 18.1156 57.5643C18.1568 57.5712 18.199 57.5697 18.2396 57.5601C18.6863 57.4801 18.9063 57.4267 19.1329 57.3734C19.4336 57.2906 19.7385 57.2239 20.0463 57.1734C20.3587 57.1162 20.6754 57.085 20.993 57.08C21.2948 57.0748 21.5957 57.0458 21.8929 56.9934C22.3396 56.9134 22.5596 56.8601 22.7862 56.8067L23.1862 56.7134L23.4263 56.6667L23.3863 56.9067C23.3193 57.3218 23.2748 57.7402 23.253 58.16V58.2934L22.753 58.38L21.6463 58.58L20.5329 58.7734C19.9729 58.8734 19.693 58.9134 19.413 58.9534C19.133 58.9934 18.8596 59.0267 18.3063 59.1267L17.1862 59.3L16.0796 59.4734C15.7051 59.5431 15.3265 59.5899 14.9462 59.6134C14.6596 59.6134 14.393 59.66 13.8396 59.7534C13.613 59.7934 13.6063 60.1 13.6329 60.2734C13.6596 60.4467 13.7463 60.5467 13.9729 60.5067C14.3492 60.435 14.7302 60.3905 15.1129 60.3734C15.4818 60.3503 15.8491 60.3057 16.2129 60.24C16.7663 60.1467 17.0396 60.0734 17.3063 60.0067C17.5729 59.94 17.8596 59.8667 18.4196 59.7734C18.9796 59.68 19.2462 59.6201 19.5196 59.5601C19.7929 59.5001 20.0796 59.4467 20.6329 59.3533C21.0152 59.2811 21.4039 59.2476 21.7929 59.2534C22.1594 59.2621 22.5258 59.2331 22.8863 59.1667L23.2663 59.0934V59.2667C23.2942 59.5481 23.3615 59.8241 23.4663 60.0867C23.6278 60.4849 23.7658 60.8923 23.8796 61.3067C23.9999 61.8365 24.2444 62.33 24.593 62.7467C24.7297 62.8485 24.8876 62.9182 25.055 62.9505C25.2223 62.9828 25.3948 62.977 25.5596 62.9334C26.4284 62.6857 27.17 62.1158 27.6329 61.34L27.6929 61.0534C27.74 60.8003 27.8047 60.5508 27.8863 60.3067V60.26L27.9263 60.2267C27.925 60.0855 27.9093 59.9448 27.8796 59.8067C27.8329 59.4667 27.7796 59.14 27.9596 58.9C27.9984 58.8565 28.0455 58.8211 28.0982 58.7959C28.1508 58.7707 28.208 58.7563 28.2663 58.7534C29.0002 58.4466 29.7751 58.2489 30.5663 58.1667C30.8663 58.12 31.1863 58.0734 31.5596 58C31.9329 57.9267 32.2662 57.8267 32.5196 57.76C33.0651 57.5982 33.6258 57.4932 34.1929 57.4467C34.5662 57.4467 34.8596 57.4467 35.1529 57.4467C35.7657 57.511 36.3851 57.4381 36.9663 57.2334C37.4068 57.0696 37.8777 57.0036 38.3463 57.04C38.5841 57.0679 38.825 57.0468 39.0543 56.978C39.2836 56.9092 39.4965 56.7942 39.6796 56.6401H39.7329C40.8196 56.3267 40.8996 56.1867 41.1529 55.7134C41.2653 55.4227 41.4013 55.1418 41.5596 54.8734C41.7568 54.5384 41.9113 54.18 42.0196 53.8067C42.1507 53.3619 42.3437 52.9378 42.593 52.5467C42.8196 52.1467 43.0196 51.7267 43.2196 51.3134C43.4729 50.7934 43.7329 50.2534 44.0463 49.7267C44.112 49.5872 44.1656 49.4422 44.2063 49.2934C44.3196 48.9067 44.433 48.5401 44.6596 48.4334C46.3758 48.1206 48.1153 47.9534 49.8596 47.9334C50.0062 47.9334 50.3263 47.8867 50.7263 47.84C52.6863 47.5934 54.4729 47.4267 54.8863 47.96C54.9333 48.0273 54.9623 48.1056 54.9705 48.1873C54.9787 48.269 54.9658 48.3514 54.933 48.4267C54.7791 49.9815 54.5139 51.5232 54.1396 53.04C53.9463 53.9267 53.7396 54.8467 53.593 55.7067C53.5798 55.9329 53.5395 56.1567 53.4729 56.3734C53.3997 56.6154 53.3637 56.8672 53.3662 57.12C53.3394 57.2665 53.3038 57.4112 53.2596 57.5534C53.1573 57.7885 53.1339 58.0505 53.1929 58.3C53.1564 58.5365 53.1715 58.7781 53.2371 59.0083C53.3027 59.2384 53.4173 59.4517 53.573 59.6334C53.7445 59.7425 53.9377 59.8127 54.1393 59.8392C54.3408 59.8657 54.5457 59.8478 54.7396 59.7867L55.6929 59.86C56.6264 59.9737 57.5692 59.9916 58.5063 59.9134C60.273 59.5267 61.0062 59.3667 62.2796 58.0067L62.333 57.9667C62.535 57.8952 62.7168 57.7761 62.863 57.6195C63.0092 57.4628 63.1156 57.2732 63.173 57.0667C63.3063 56.44 62.8996 55.5934 61.9796 54.54C61.8323 54.3375 61.64 54.1719 61.4179 54.0563C61.1958 53.9406 60.95 53.878 60.6996 53.8734C60.6216 53.8809 60.543 53.8723 60.4685 53.8482C60.3939 53.8241 60.3252 53.7851 60.2663 53.7334C60.1263 53.58 60.0929 53.3 60.1329 52.58C60.1729 51.86 60.133 51.2801 60.1796 50.6401C60.273 47.8801 60.3663 45.0334 58.7396 42.6401C58.5904 42.3674 58.369 42.141 58.0997 41.9858C57.8304 41.8306 57.5237 41.7525 57.2129 41.76C57.0184 41.7459 56.8248 41.7214 56.6329 41.6867C56.3055 41.6863 55.9814 41.6206 55.6796 41.4934C55.3827 41.3535 55.0509 41.3047 54.7263 41.3533H54.673H54.6196C54.0096 41.2149 53.3763 41.2149 52.7663 41.3533H52.7196C52.2767 41.3083 51.8314 41.2905 51.3863 41.3C51.0529 41.3 50.7196 41.3 50.413 41.3C50.3582 41.296 50.3051 41.2794 50.2578 41.2517C50.2104 41.224 50.17 41.1858 50.1396 41.1401C50.1063 41.0466 50.0933 40.9472 50.1014 40.8483C50.1094 40.7495 50.1383 40.6535 50.1862 40.5667C50.2203 40.4923 50.245 40.4139 50.2596 40.3334L50.1929 40.2467L50.253 40.18C50.3061 40.0241 50.344 39.8633 50.3662 39.7C50.3934 39.4182 50.4749 39.1443 50.6062 38.8934C50.6303 38.6142 50.6955 38.3402 50.7996 38.08C50.867 37.9113 50.9205 37.7375 50.9596 37.5601C51.0932 36.9584 51.2969 36.3744 51.5663 35.82C51.6263 35.6267 51.6662 35.4467 51.6996 35.2867C51.7596 34.9734 51.8063 34.7534 52.0063 34.6667C52.2063 34.58 52.4929 34.6667 52.9596 34.9934H53.013V35.0467C53.013 35.0467 53.1596 35.0467 53.2196 35.0467C53.3225 35.0065 53.4367 35.0065 53.5396 35.0467C53.7663 35.26 54.5329 35.1801 54.8729 35.1401H54.993C55.2229 35.2025 55.4462 35.2873 55.6596 35.3934C56.0004 35.5793 56.3786 35.6864 56.7663 35.7067C57.273 35.7067 58.1596 35.66 58.8729 35.6067C59.2529 35.6067 59.5863 35.5467 59.7929 35.54H59.8996C60.5663 35.54 61.6863 35.54 62.333 35.0667L62.3796 35.02C62.5796 34.8267 62.6996 34.6933 62.6663 34.48V34.44V34.4C62.798 34.0269 62.9071 33.6463 62.993 33.26L63.0463 33.04C63.0556 32.9407 63.0925 32.8461 63.153 32.7667V32.72C63.1308 32.7049 63.1122 32.6851 63.0984 32.6621C63.0846 32.6391 63.0759 32.6134 63.073 32.5867C63.0651 32.516 63.082 32.4447 63.121 32.3851C63.1599 32.3255 63.2183 32.2813 63.2863 32.26V32.26ZM62.2263 29.98C61.8396 30.9267 61.4329 31.9067 61.1396 32.8867C61.1396 33.0734 61.0796 33.4067 61.0529 33.62V33.7067L60.9663 33.7467C60.1161 33.9695 59.2306 34.0238 58.3596 33.9067C56.9296 34.1231 55.4687 33.9928 54.0996 33.5267C53.8923 33.5214 53.6853 33.5484 53.4863 33.6067C53.249 33.649 53.0052 33.6376 52.7729 33.5734C52.6043 33.5237 52.4277 33.5078 52.253 33.5267C52.153 33.6067 51.9796 33.5734 51.7996 33.5267C51.7175 33.5211 51.6351 33.5211 51.5529 33.5267C51.5104 33.5681 51.4585 33.5989 51.4017 33.6162C51.3449 33.6336 51.2848 33.6372 51.2263 33.6267H51.153C51.113 33.6783 51.0613 33.7197 51.0022 33.7476C50.9431 33.7754 50.8782 33.7888 50.8129 33.7867C50.7664 33.781 50.7195 33.781 50.673 33.7867V33.84C50.3805 34.2272 50.2047 34.6897 50.1663 35.1734L50.1129 35.4334C49.501 36.9761 48.9911 38.5572 48.5863 40.1667C48.5463 40.3334 48.4929 40.52 48.4396 40.6934C48.3891 40.8488 48.3468 41.0068 48.3129 41.1667V41.2734H48.2063C47.966 41.3167 47.7199 41.3167 47.4796 41.2734C47.2615 41.2128 47.031 41.2128 46.8129 41.2734C46.7454 41.297 46.6871 41.3413 46.6463 41.4C46.6463 41.48 46.8396 41.6667 46.9529 41.76L47.1329 41.9334C47.375 42.0785 47.6457 42.1695 47.9263 42.2L48.2863 42.2734L48.4996 42.1467L48.6129 42.24C48.6289 42.2557 48.6424 42.2737 48.653 42.2934C51.093 42.38 53.1063 42.4 54.7463 42.3667C55.3273 42.3784 55.8978 42.5245 56.413 42.7934C56.8299 43.0041 57.2817 43.1373 57.7463 43.1867C57.8421 43.1716 57.9401 43.1763 58.0341 43.2004C58.1281 43.2244 58.2161 43.2674 58.2929 43.3267C58.8796 43.7534 59.0596 44.98 59.1996 45.9934C59.2333 46.2626 59.2823 46.5297 59.3463 46.7934C59.4029 47.7286 59.3895 48.6668 59.3063 49.6001C59.2663 50.2667 59.2263 50.8867 59.233 51.48C59.0721 52.1625 59.0562 52.8711 59.1862 53.5601C59.2628 53.8425 59.2765 54.1384 59.2263 54.4267C59.2263 54.5534 59.1863 54.6267 59.3396 54.96V55V55.04C59.333 55.0547 59.3295 55.0706 59.3295 55.0867C59.3295 55.1028 59.333 55.1187 59.3396 55.1334C59.5196 55.32 60.2063 55.3134 60.673 55.3134C61.3396 55.3134 61.7729 55.3134 61.8663 55.58C61.9596 55.8467 61.6996 56.0334 61.4196 56.2467C61.169 56.4415 60.9012 56.6134 60.6196 56.76C60.577 56.8047 60.547 56.8599 60.5329 56.92C60.5131 57.0023 60.4746 57.0788 60.4202 57.1436C60.3658 57.2083 60.2972 57.2596 60.2196 57.2934C58.9604 57.8445 57.5931 58.1043 56.2196 58.0534C55.0063 58.0534 54.5663 58.0534 54.3662 57.8067C54.1662 57.5601 54.2729 57.36 54.3662 56.9667C54.476 56.5296 54.5452 56.0832 54.573 55.6334C54.882 54.8015 55.0597 53.9266 55.0996 53.04C55.1596 52.7267 55.2263 52.4734 55.2863 52.22C55.4831 51.5505 55.5907 50.8578 55.6062 50.16C55.5956 49.7125 55.6359 49.2652 55.7263 48.8267C55.8148 48.5598 55.8428 48.2765 55.8082 47.9975C55.7736 47.7184 55.6773 47.4506 55.5262 47.2134C55.4141 47.0448 55.3224 46.8636 55.253 46.6734C55.113 46.3467 54.9862 46.0067 54.6862 45.92C54.6502 45.9149 54.6159 45.9012 54.5863 45.88H54.5329C53.9185 45.9815 53.2948 46.015 52.673 45.98C52.1216 45.9581 51.5693 45.9715 51.0196 46.02C49.9642 46.2475 48.8855 46.3482 47.8063 46.32C46.8866 46.3042 45.9673 46.3711 45.0596 46.52C44.7994 46.6064 44.5272 46.6514 44.253 46.6534C43.8263 46.6534 43.3063 46.7334 43.2196 46.9534C43.1329 47.1734 43.1396 47.1867 42.9529 47.24C42.8729 47.24 42.8596 47.4 42.8463 47.58C42.8522 47.7334 42.8103 47.8849 42.7263 48.0134L42.6463 48.2C42.4702 48.6661 42.2468 49.1129 41.9796 49.5334C41.8396 49.8067 41.6862 50.14 41.5196 50.4934C41.2245 51.1458 40.8951 51.7823 40.5329 52.4C40.3955 52.9455 40.1397 53.454 39.7836 53.8895C39.4276 54.325 38.9802 54.6769 38.4729 54.92C38.3196 54.98 38.193 55.0467 38.073 55.1001C37.6447 55.3637 37.1313 55.4521 36.6396 55.3467C36.3612 55.3968 36.0871 55.4682 35.8196 55.5601C35.2495 55.791 34.6313 55.8779 34.0196 55.8134C32.8387 55.8136 31.6634 55.9751 30.5262 56.2934C29.7504 56.483 28.9649 56.6299 28.173 56.7334C27.9691 56.7957 27.7688 56.8691 27.573 56.9534C27.292 57.0927 26.986 57.1743 26.673 57.1934V57.1934C26.6961 57.5367 26.6759 57.8817 26.6129 58.22C26.5129 58.8867 26.0796 61.0534 24.7129 61.0534H24.5063L24.4663 61C24.2424 60.69 24.0879 60.3355 24.0131 59.9605C23.9384 59.5855 23.9451 59.1988 24.0329 58.8267V58.7134H24.1396C24.3529 58.66 24.5796 58.6134 24.8529 58.5667C24.9371 58.5565 25.0139 58.5134 25.0663 58.4467C25.1156 58.3597 25.1298 58.2572 25.1062 58.16C25.1062 57.98 25.0063 57.8934 24.7463 57.94L24.0796 58.0467V57.7467C24.0564 57.3359 24.0564 56.9242 24.0796 56.5134V56.4L24.3129 56.3334C24.6156 56.2478 24.9228 56.1788 25.2329 56.1267C25.4529 56.0867 25.4862 56.0334 25.4462 55.8067C25.4062 55.5801 25.3329 55.3467 25.1062 55.3934L24.3729 55.52L24.4196 55.2867C24.593 54.3334 25.5863 53.8267 26.493 53.7467C29.1891 53.5305 31.864 53.1026 34.493 52.4667L34.7129 52.42C36.1596 52.1867 36.7863 51.7134 37.2129 50.54C37.8329 49.0267 38.4396 47.12 39.0329 45.2734C39.2729 44.52 39.5062 43.7934 39.6996 43.1334C40.0169 42.5422 40.2417 41.906 40.3662 41.2467C40.4694 40.7952 40.5986 40.35 40.753 39.9134C41.1672 38.8465 41.4145 37.7222 41.4863 36.58V36.3467C41.4691 36.1193 41.4221 35.8951 41.3463 35.68C41.2904 35.5112 41.2524 35.3369 41.2329 35.16V35.16C41.1324 35.0239 41.0724 34.8621 41.0596 34.6934L40.9796 34.6467C40.8529 34.56 40.8529 34.56 40.7796 34.6467L40.6263 34.8L40.5196 34.6134C40.4817 34.5513 40.4632 34.4793 40.4663 34.4067H40.4063C40.0096 34.4386 39.6112 34.3722 39.2463 34.2134C38.9388 34.0826 38.6069 34.0189 38.2729 34.0267H38.2263L37.7929 33.9467C37.2523 33.8912 36.7332 33.706 36.2796 33.4067C35.1196 33.48 34.3263 34.1134 33.4063 34.84L33.2929 34.94H33.413V35.0667C33.4186 35.1113 33.4099 35.1566 33.3883 35.1961C33.3667 35.2355 33.3331 35.2671 33.2924 35.2863C33.2518 35.3056 33.206 35.3115 33.1618 35.3031C33.1176 35.2948 33.0772 35.2727 33.0463 35.24L32.9663 35.1534C32.7196 35.3467 32.4663 35.5267 32.2196 35.7C31.3552 36.1795 30.6715 36.9288 30.2729 37.8334C30.2062 38.04 30.353 38.28 30.4996 38.5L30.5663 38.62C30.6024 38.768 30.6608 38.9096 30.7396 39.04C30.8222 39.1906 30.8892 39.3492 30.9396 39.5134C31.2462 40.72 30.053 41.0267 29.3396 41.2134L28.993 41.3134H28.9462H28.9063C28.6994 41.2644 28.4966 41.1998 28.2996 41.12C27.9518 40.9661 27.5792 40.8757 27.1996 40.8533H27.1529C27.054 40.8346 26.9607 40.7936 26.8798 40.7336C26.799 40.6736 26.7328 40.596 26.6862 40.5067C26.4529 40.0467 26.6862 39.1734 27.3529 37.7934L27.3929 37.7067H27.4863C27.6729 37.7067 27.8996 37.6534 28.2196 37.5934C28.2719 37.5832 28.3216 37.5625 28.3656 37.5325C28.4096 37.5025 28.4471 37.4639 28.4758 37.4191C28.5045 37.3742 28.5237 37.3239 28.5324 37.2714C28.5411 37.2188 28.539 37.1651 28.5262 37.1134C28.5262 36.92 28.3529 36.84 28.1196 36.8734L27.7929 36.92L27.9462 36.6334L28.0196 36.48C28.181 36.2526 28.3301 36.0167 28.4663 35.7734C28.5768 35.5515 28.731 35.3542 28.9196 35.1934L28.9529 35.16H28.9996L29.6663 35.0667L30.5663 34.9267C30.6918 34.9009 30.8034 34.8297 30.8796 34.7267C30.9182 34.6834 30.9476 34.6327 30.9659 34.5777C30.9843 34.5227 30.9912 34.4645 30.9863 34.4067C30.9523 34.2795 30.8713 34.1699 30.7596 34.1001C30.7142 34.0602 30.6614 34.0297 30.6042 34.0102C30.547 33.9908 30.4866 33.9828 30.4263 33.9867L29.5863 34.4067L30.253 33.74C31.293 32.6667 32.5196 31.5067 33.9396 31.36H34.0262C34.4677 31.3493 34.9036 31.259 35.3129 31.0934C35.3596 30.9467 35.3996 30.94 36.0996 30.8467C36.3968 30.7778 36.7037 30.762 37.0063 30.8C37.2265 30.8425 37.4528 30.8425 37.673 30.8H37.7463C38.3838 30.6669 39.0362 30.6198 39.6862 30.66C39.914 30.6845 40.1441 30.6476 40.3529 30.5534C40.5895 30.4557 40.8438 30.408 41.0996 30.4134C41.4739 30.4075 41.8475 30.4455 42.2129 30.5267C42.6619 30.6367 43.127 30.6661 43.5863 30.6134L45.8463 30.4934L47.5863 30.4C47.9049 30.3813 48.2237 30.4337 48.5196 30.5534C48.8214 30.7044 49.1692 30.7354 49.493 30.6401C50.6032 30.403 51.749 30.3849 52.8662 30.5867C53.3487 30.6192 53.8331 30.6058 54.3129 30.5467H54.7263C54.8833 30.5033 55.0492 30.5033 55.2063 30.5467H55.3596C55.4319 30.4968 55.5159 30.4662 55.6035 30.458C55.691 30.4499 55.7792 30.4643 55.8596 30.5C56.0048 30.5465 56.161 30.5465 56.3063 30.5H56.3596C57.1228 30.5837 57.8937 30.568 58.653 30.4534C58.9567 30.4557 59.2542 30.541 59.513 30.7C59.5832 30.7063 59.6539 30.6977 59.7205 30.6747C59.7871 30.6517 59.8482 30.6149 59.8996 30.5667C59.9653 30.515 60.0185 30.4492 60.0554 30.3742C60.0923 30.2992 60.1119 30.2169 60.1129 30.1334V30.0867C60.2562 29.6091 60.4414 29.1451 60.6663 28.7C61.0143 28.0702 61.2405 27.3803 61.333 26.6667C61.3703 26.4863 61.4309 26.3115 61.513 26.1467C61.6196 25.92 61.6329 25.8867 61.1129 25.4267C60.5428 25.1097 60.1052 24.5988 59.8796 23.9867L59.7263 23.6667C59.6655 23.4662 59.6561 23.2535 59.6993 23.0484C59.7424 22.8433 59.8365 22.6524 59.9729 22.4934C60.1726 22.2408 60.4241 22.034 60.7104 21.8868C60.9968 21.7396 61.3113 21.6554 61.6329 21.6401V21.6401C62.7491 21.9325 63.7063 22.6504 64.2996 23.6401V23.6734V23.7134C64.1771 24.4783 63.9221 25.216 63.5463 25.8934C63.3426 26.2988 63.1666 26.7175 63.0196 27.1467C63.0062 28.1 62.6129 29.06 62.2263 29.98V29.98Z" fill="#342B1D"/>
<path d="M33.4336 35.2534C33.4803 35.2534 33.5202 35.2134 33.5402 35.1867L33.4602 35.1467L33.4336 35.2534Z" fill="#342B1D"/>
<path d="M48.5669 42.3466C48.5516 42.3265 48.531 42.3109 48.5076 42.3015C48.4841 42.2921 48.4586 42.2893 48.4336 42.2933V42.3399L48.5669 42.3466Z" fill="#342B1D"/>
<path d="M42.293 23.4468C41.7396 23.5401 41.4596 23.6068 41.193 23.6668C40.9263 23.7268 40.6397 23.7935 40.0797 23.8935C39.7015 23.9635 39.3177 23.9992 38.933 24.0001C38.5638 24.0004 38.1954 24.0361 37.833 24.1068C37.273 24.2001 36.9796 24.2335 36.7063 24.2601C36.433 24.2868 36.1464 24.3201 35.5997 24.4135C35.5462 24.4253 35.4988 24.4561 35.4663 24.5001C35.3866 24.6492 35.363 24.8218 35.3997 24.9868C35.4397 25.2068 35.513 25.2601 35.7397 25.2201C36.1178 25.1487 36.5015 25.1108 36.8863 25.1068C37.2556 25.1065 37.6239 25.0708 37.9863 25.0001C38.3536 24.9419 38.7166 24.8595 39.073 24.7535C39.4396 24.6501 39.8111 24.5655 40.1863 24.5001C40.753 24.4001 41.0397 24.3735 41.3197 24.3468C41.6911 24.3198 42.0607 24.2709 42.4264 24.2001C42.9664 24.1068 43.2464 24.0335 43.5064 23.9668L43.8464 23.8801L43.893 24.0334C43.9501 24.2495 44.0283 24.4593 44.1263 24.6601C44.3271 25.3208 44.6707 25.9293 45.1327 26.4425C45.5946 26.9558 46.1638 27.3613 46.7997 27.6303C47.4357 27.8993 48.123 28.0253 48.8131 27.9993C49.5031 27.9734 50.179 27.7961 50.793 27.4801L51.013 27.4201C51.2903 27.3528 51.5604 27.2591 51.8197 27.1401C51.8893 26.9969 51.9901 26.871 52.1147 26.7718C52.2393 26.6726 52.3844 26.6025 52.5396 26.5668C52.7807 26.508 53.0065 26.3984 53.2019 26.2456C53.3973 26.0927 53.5579 25.8999 53.673 25.6801C53.7336 25.5805 53.8003 25.4847 53.873 25.3935C54.0108 25.011 54.2015 24.6497 54.4396 24.3201C54.533 24.1734 54.6263 24.0401 54.6996 23.9135C55.0785 22.7867 55.2546 21.6017 55.2197 20.4135C54.7978 19.4408 54.0666 18.6346 53.1397 18.1201C52.9909 18.07 52.8395 18.0277 52.6863 17.9934C52.3199 17.9148 51.9672 17.7822 51.6397 17.6001V17.6001C51.5962 17.6219 51.5483 17.6331 51.4997 17.6331C51.4511 17.6331 51.4031 17.6219 51.3596 17.6001H51.3063C51.2146 17.5581 51.1132 17.542 51.013 17.5535C50.9289 17.5645 50.8438 17.5645 50.7597 17.5535C49.993 17.2868 47.4263 16.5401 46.0463 18.2201C45.3938 18.9638 44.8362 19.7856 44.3863 20.6668V20.7468H44.293L43.933 20.8001L42.113 21.1201C41.8168 21.1645 41.5263 21.2405 41.2463 21.3468C40.9478 21.4567 40.6398 21.5393 40.3263 21.5935C40.2048 21.6032 40.0921 21.6607 40.013 21.7535C39.9975 21.7869 39.9894 21.8233 39.9894 21.8601C39.9894 21.897 39.9975 21.9334 40.013 21.9668C40.0414 22.0937 40.1062 22.2096 40.1996 22.3001C40.2378 22.3405 40.2846 22.3717 40.3366 22.3913C40.3886 22.4109 40.4444 22.4185 40.4997 22.4135C40.797 22.3672 41.0893 22.2935 41.373 22.1934C41.6721 22.0885 41.98 22.0104 42.293 21.9601C42.753 21.8801 42.9597 21.8534 43.2197 21.8268L43.7863 21.7535L44.033 21.7135L43.973 21.9534C43.8796 22.3419 43.837 22.7408 43.8464 23.1401V23.2868L43.493 23.3335C43.113 23.3135 42.8396 23.3534 42.293 23.4468ZM45.4063 23.7401V23.6001L45.7397 23.5668C46.013 23.5668 46.2997 23.5068 46.8464 23.4135C46.8989 23.4038 46.949 23.3839 46.9938 23.3549C47.0387 23.3259 47.0773 23.2884 47.1077 23.2444C47.138 23.2005 47.1594 23.151 47.1706 23.0988C47.1818 23.0466 47.1827 22.9926 47.173 22.9401C47.1565 22.8308 47.0976 22.7323 47.009 22.6662C46.9203 22.6 46.8092 22.5715 46.6996 22.5868C46.293 22.6601 46.033 22.7201 45.8796 22.7668L45.613 22.8468L45.673 22.5734C45.673 22.5068 45.673 22.4401 45.673 22.3801C45.6979 22.1417 45.7802 21.913 45.913 21.7135L45.9596 21.6735C46.0196 21.6735 46.053 21.5335 46.0864 21.4201L46.1196 21.3201H46.2197L46.713 21.2468C46.9463 21.2468 47.173 21.1801 47.6263 21.1001C47.6667 21.0953 47.7045 21.0779 47.7345 21.0504C47.7644 21.0229 47.7849 20.9866 47.793 20.9468C47.8285 20.8249 47.8285 20.6953 47.793 20.5734C47.7396 20.2468 47.5863 20.2468 47.4596 20.2734L46.793 20.3868L47.053 20.0535C47.3285 19.6538 47.6634 19.2985 48.0463 19.0001C48.3085 18.7823 48.6196 18.6313 48.953 18.5601C49.0796 18.5268 49.233 18.4868 49.453 18.4135C49.493 18.3068 49.633 18.2868 50.0663 18.2068L50.3796 18.1534C50.3988 18.1321 50.4213 18.1141 50.4463 18.1001C50.5663 18.0335 50.7197 18.1001 50.8863 18.1601L51.013 18.2001C51.0887 18.1502 51.1759 18.1203 51.2664 18.1134L51.4197 18.0734L51.493 17.9868L51.573 18.0401C52.1805 18.3477 52.6837 18.8278 53.0196 19.4201L53.3197 19.8268C53.5325 20.2382 53.5779 20.716 53.4463 21.1601C53.4103 21.3693 53.3925 21.5812 53.393 21.7935C53.3519 22.0197 53.294 22.2425 53.2197 22.4601C53.1414 22.6765 53.0834 22.8997 53.0463 23.1268C52.9897 23.3061 52.9041 23.475 52.793 23.6268C52.6948 23.7556 52.6142 23.8968 52.553 24.0468C52.2617 24.771 51.8051 25.4171 51.2197 25.9335H51.173C50.5064 26.1668 50.5063 26.3201 50.4663 26.4201C50.413 26.6335 50.313 26.7401 49.8997 26.8001C49.2075 26.975 48.4995 27.08 47.7863 27.1134C47.3327 27.1348 46.8835 27.0161 46.4997 26.7734C45.933 26.3934 45.5663 25.6668 45.353 24.4934C45.3474 24.2412 45.3654 23.989 45.4063 23.7401V23.7401Z" fill="#342B1D"/>
</svg>
