<svg width="28" height="22" viewBox="0 0 28 22" fill="none" xmlns="http://www.w3.org/2000/svg">
<path d="M4.87082 2H22.5572C24.4586 2 26 3.5414 26 5.44281V16.6172C26 18.5187 24.4586 20.0601 22.5572 20.0601H4.87082C2.96941 20.0601 1.42801 18.5187 1.42801 16.6172V5.44281C1.42801 3.5414 2.96941 2 4.87082 2Z" stroke="#342B1D" stroke-width="2.16257" stroke-miterlimit="10"/>
<path d="M25.3574 2.60645L15.4615 13.0733C15.2399 13.3161 14.9701 13.5101 14.6693 13.6428C14.3685 13.7755 14.0433 13.8441 13.7146 13.8441C13.3858 13.8441 13.0607 13.7755 12.7599 13.6428C12.4591 13.5101 12.1893 13.3161 11.9677 13.0733L2.24387 2.8132" stroke="#342B1D" stroke-width="2.16257" stroke-miterlimit="10"/>
<path d="M2.31754 19.2144L10.4531 11.4775" stroke="#342B1D" stroke-width="2.16257" stroke-miterlimit="10"/>
<path d="M25.1074 19.2144L16.9718 11.4775" stroke="#342B1D" stroke-width="2.16257" stroke-miterlimit="10"/>
</svg>
