<svg width="80" height="80" viewBox="0 0 80 80" fill="none" xmlns="http://www.w3.org/2000/svg">
<path d="M15.1472 33.5464C12.9739 36.3331 13.0805 39.6331 13.8139 42.8798C14.4072 45.5464 16.6339 46.8798 18.8205 48.1398C19.2746 48.3429 19.7481 48.4992 20.2339 48.6064C17.7272 50.3798 17.6739 52.3798 19.9872 54.2798C18.3205 56.5664 18.5338 57.7798 20.9272 59.4464C20.7027 59.726 20.4935 60.0176 20.3005 60.3198C19.2205 62.2264 19.5472 63.6531 21.6338 64.4331C23.5142 65.0349 25.5253 65.0995 27.4405 64.6198C28.5072 64.3931 29.5272 63.9531 30.5805 63.6331C33.2461 62.9201 35.8608 62.0292 38.4072 60.9664C41.6139 59.5331 44.9205 58.3398 48.1405 56.9664C49.5564 56.3089 50.9341 55.5722 52.2672 54.7598C53.8538 53.8531 55.4072 52.8931 56.9738 51.9598C58.5405 51.0264 60.1472 49.9598 61.7939 49.0998C63.2139 48.3464 64.7338 47.7664 66.1938 47.0998C66.3872 47.0131 66.5205 46.7998 66.6805 46.6398L66.5405 46.4531C66.0043 46.4685 65.4718 46.5468 64.9539 46.6864C63.0139 47.4798 61.0672 48.2664 59.1939 49.1998C57.4272 50.0731 55.7339 51.1064 54.0405 52.1198C49.8552 54.528 45.5221 56.6701 41.0672 58.5331C39.3805 59.2731 37.6539 59.9398 35.9139 60.5331C34.7072 60.9598 33.4472 61.1998 32.2205 61.5798C30.6272 62.0531 29.0605 62.6398 27.4539 63.0331C25.745 63.4781 23.947 63.4481 22.2539 62.9464C22.0462 62.8763 21.8551 62.7644 21.6923 62.6177C21.5295 62.4709 21.3984 62.2924 21.3072 62.0931C21.0805 61.3664 22.3605 59.7931 23.1005 59.5998C25.1005 59.0864 27.0605 58.5598 29.0138 57.9598C29.6099 57.7302 30.1709 57.4183 30.6805 57.0331C30.8205 56.9464 30.8339 56.6798 30.9072 56.4931C30.7138 56.3935 30.5073 56.3217 30.2939 56.2798C30.116 56.2873 29.9415 56.3304 29.7805 56.4064C28.2672 56.8864 26.7539 57.3731 25.2339 57.8398C24.9385 57.9082 24.637 57.9462 24.3339 57.9531C23.9112 57.9295 23.4876 57.9768 23.0805 58.0931C22.7771 58.2349 22.4428 58.2982 22.1085 58.2773C21.7742 58.2563 21.4506 58.1517 21.1672 57.9731C20.2939 57.5598 20.0938 57.1131 20.3405 56.1531C20.4246 55.7624 20.6332 55.4095 20.9349 55.1475C21.2366 54.8854 21.6152 54.7283 22.0138 54.6998C24.2542 54.8575 26.5006 54.49 28.5739 53.6264C29.1335 53.3749 29.6635 53.0619 30.1539 52.6931C30.3072 52.5931 30.3472 52.3264 30.4405 52.1331C30.2523 52.022 30.0438 51.9495 29.8272 51.9198C29.4954 51.9517 29.1686 52.0234 28.8538 52.1331C26.7072 52.7664 24.5739 53.5331 22.2805 53.2864C21.5786 53.1889 20.9006 52.9629 20.2805 52.6198C20.0364 52.4943 19.8517 52.2775 19.7668 52.0165C19.6819 51.7555 19.7036 51.4715 19.8272 51.2264C20.3005 49.7864 21.5272 49.3664 22.7339 48.9464C24.4205 48.3598 26.1605 47.9198 27.8605 47.3464C28.3075 47.1112 28.7165 46.8101 29.0739 46.4531C29.0339 46.3798 28.9872 46.3064 28.9472 46.2264C28.7255 46.2055 28.5023 46.2055 28.2805 46.2264C26.9472 46.5131 25.6672 46.7731 24.3805 47.1198C23.1566 47.5387 21.8351 47.5805 20.5872 47.2398C17.6072 46.2664 15.2539 44.6531 14.7072 41.2398C14.3405 39.0664 14.4205 36.9931 15.6805 35.0798C17.1895 32.8988 19.3614 31.2623 21.8739 30.4131C22.7191 30.1241 23.6014 29.958 24.4939 29.9198C24.9072 29.9198 25.6072 30.1198 25.7138 30.3998C25.8419 30.7005 25.8627 31.0361 25.7729 31.3504C25.6831 31.6647 25.4881 31.9387 25.2205 32.1264C23.3805 33.4598 21.5539 34.8598 19.7339 36.2398C18.794 37.0155 18.0821 38.0316 17.6738 39.1798C17.3672 39.9198 17.7205 40.4798 17.9872 41.1198C18.2009 41.6626 18.5737 42.1282 19.0568 42.4553C19.5398 42.7825 20.1105 42.956 20.6939 42.9531C22.1626 43.0788 23.6421 42.9503 25.0672 42.5731C28.0939 41.6998 31.1805 41.0264 34.2405 40.2664C35.0339 40.0731 35.8205 39.8598 36.6205 39.6864C37.2346 39.6123 37.8037 39.327 38.2306 38.8795C38.6575 38.4319 38.9155 37.8499 38.9605 37.2331C38.5272 37.4198 38.1739 37.5664 37.8205 37.7264C37.319 38.0199 36.7898 38.2633 36.2405 38.4531C34.5272 38.8464 32.7805 39.1198 31.0672 39.5131C28.3405 40.1464 25.6472 40.9198 22.9139 41.4798C21.9198 41.6258 20.906 41.5576 19.9405 41.2798C19.7141 41.2146 19.5078 41.0933 19.3408 40.9272C19.1737 40.7611 19.0513 40.5555 18.9848 40.3295C18.9184 40.1035 18.91 39.8643 18.9605 39.6342C19.0111 39.4041 19.1188 39.1905 19.2739 39.0131C19.8195 38.3652 20.4219 37.7673 21.0739 37.2264C22.2672 36.2464 23.4938 35.2931 24.7605 34.4198C25.7228 33.8623 26.4978 33.0317 26.9872 32.0331C29.9672 33.7998 30.9872 33.6464 31.8472 31.1864C33.2671 33.1461 35.0423 34.8218 37.0805 36.1264C37.8111 36.5418 38.5999 36.8452 39.4205 37.0264C39.6072 37.0864 39.8938 36.8331 40.1338 36.7264C40.0138 36.4931 39.9139 36.2464 39.7739 36.0264C39.7072 35.9331 39.5472 35.9131 39.4405 35.8398C38.0052 34.9879 36.6267 34.0437 35.3138 33.0131C32.8452 30.7953 30.8908 28.065 29.5872 25.0131C28.6805 22.9664 28.5072 20.9598 29.5872 18.9398C29.7851 18.4659 30.0804 18.0389 30.4539 17.6864C31.0387 17.2462 31.7213 16.9539 32.4435 16.8345C33.1657 16.7151 33.9061 16.7721 34.6015 17.0006C35.297 17.2292 35.9268 17.6225 36.4374 18.147C36.948 18.6715 37.3242 19.3118 37.5339 20.0131C38.4905 23.3996 39.8467 26.6603 41.5739 29.7264C42.4123 31.3587 43.5655 32.8088 44.9672 33.9931C45.8063 34.683 46.7883 35.1779 47.8421 35.4419C48.8959 35.7059 49.9952 35.7325 51.0605 35.5198C52.8738 35.1798 54.6738 34.7798 56.4738 34.3531C57.7472 34.0464 59.0139 33.6864 60.2539 33.2998C60.9303 33.0643 61.5752 32.7464 62.1738 32.3531C62.3472 32.2464 62.3138 31.8264 62.3805 31.5464C62.1341 31.4841 61.8813 31.4506 61.6272 31.4464C61.3487 31.4831 61.0741 31.5456 60.8072 31.6331L56.2472 32.7664C53.7339 33.3864 51.2539 34.1998 48.6205 34.1798C47.8466 34.2348 47.0715 34.0887 46.3706 33.7558C45.6697 33.4229 45.0669 32.9144 44.6205 32.2798C42.2405 28.8664 40.9139 24.9464 39.4005 21.1598C38.5872 19.1131 38.0672 16.9664 35.7872 15.8264C33.2139 14.5398 31.3739 14.9331 29.3739 16.4931C28.3577 17.3654 27.7216 18.5994 27.6005 19.9331C27.4661 21.4116 27.4483 22.8984 27.5472 24.3798C25.8805 23.5398 24.6739 24.1931 24.5672 26.1398C24.5791 26.8707 24.6482 27.5996 24.7739 28.3198C24.1072 28.4264 23.3138 28.5198 22.5538 28.6864C19.5847 29.3721 16.9581 31.0956 15.1472 33.5464ZM29.4605 28.3198C29.8472 28.9531 30.1939 29.6064 30.5405 30.2598C30.6173 30.4262 30.6754 30.6006 30.7138 30.7798C30.7101 30.9355 30.6716 31.0884 30.6012 31.2273C30.5309 31.3662 30.4304 31.4877 30.3071 31.5829C30.1838 31.6781 30.0409 31.7445 29.8886 31.7774C29.7364 31.8103 29.5788 31.8088 29.4272 31.7731C28.9892 31.6185 28.5867 31.3779 28.2432 31.0653C27.8997 30.7527 27.6222 30.3746 27.4272 29.9531C27.3528 29.7949 27.3363 29.6156 27.3805 29.4464C27.5166 29.06 27.6932 28.6891 27.9072 28.3398C28.6805 27.1331 28.7539 27.1331 29.4605 28.3198ZM25.8072 25.3598C25.9605 24.9731 26.2005 24.8264 26.5739 24.9531C27.4672 25.2664 28.3938 25.5597 28.5072 26.5397L26.5072 28.4131C26.0072 27.5198 25.3272 26.5931 25.8072 25.3531V25.3598Z" fill="#342B1D"/>
</svg>
