<svg width="219" height="219" viewBox="0 0 219 219" fill="none" xmlns="http://www.w3.org/2000/svg">
<g clip-path="url(#clip0_2692_24569)">
<g clip-path="url(#clip1_2692_24569)">
<path d="M155.021 184.299L155.446 184.641C154.741 184.1 153.995 183.6 153.235 183.114C152.49 182.614 151.712 182.082 150.95 181.567C154.101 184.389 157.092 187.626 160.648 188.286C160.282 189.259 162.524 192.32 162.779 192.193C163.447 192.643 164.049 193.19 164.695 193.726C164.282 193.341 163.855 192.969 163.429 192.597C163.855 192.969 164.266 193.325 164.695 193.726C168.635 197.229 171.325 202.46 172.743 207.813C173.175 209.011 173.556 211.058 174.055 213.306L180.99 212.918C180.865 211.318 180.526 209.613 180.557 208.113C180.587 206.613 180.483 205.28 180.681 204.412L180.832 203.142C180.71 203.84 180.71 203.84 180.558 204.535C180.326 202.69 180.087 200.949 180.197 199.337C179.994 199.572 179.833 199.574 179.526 200.169L179.76 199.392C179.396 198.509 179.675 196.793 179.756 195.945C179.952 196.196 180.157 195.609 180.336 195.078L180.127 195.223C180.263 194.704 180.429 194.187 180.579 193.653C180.758 193.122 180.954 192.608 181.133 192.077C181.463 191.013 181.824 189.98 182.307 189.179C182.42 188.937 182.603 188.819 182.717 188.769C182.923 188.211 183.128 187.623 183.364 187.067C183.579 187.363 184.416 186.015 184.128 186.846C184.525 185.523 185.372 184.484 185.911 183.274C188.666 179.689 192.222 176.388 196.259 173.757L196.092 173.7C196.807 173.24 197.413 172.699 198.11 172.193C198.823 171.704 199.68 171.358 200.705 171.1C201.924 170.105 204.061 169.564 204.452 168.726C206.195 168.229 206.881 167.958 208.674 167.538C208.136 167.246 210.367 166.963 209.41 166.771C208.058 166.43 208.09 166.845 206.95 166.579L207.003 166.686C201.941 166.734 196.994 167.88 192.553 170.052C189.918 171.953 186.8 173.698 184.521 176.2C183.204 177.453 182.151 179.049 181.085 180.498C180.148 182.074 179.249 183.58 178.656 185.036C178.417 185.754 177.911 186.068 177.493 186.55C176.842 187.84 176.392 189.439 175.794 191.027C175.288 192.652 174.893 194.388 174.623 196.032C174.648 195.975 174.644 195.915 174.655 195.872C174.484 197.641 173.842 198.857 173.805 200.651C173.894 200.658 173.901 200.938 173.942 201.089C173.76 201.207 173.685 203.837 174.205 206.543C174.302 207.213 174.414 207.899 174.506 208.51C174.643 209.14 174.808 209.742 174.922 210.266C175.181 211.317 175.328 212.065 175.296 212.224L175.429 212.794L175.475 213.195L179.566 212.969C179.19 211.173 179.088 209.294 178.653 207.493C178.204 205.706 177.845 203.926 177.052 202.45C176.548 201.836 176.021 201.118 175.542 200.639C175.45 200.028 175.097 200.03 174.768 199.4C174.602 197.458 173.728 196.639 173.95 197.599C173.503 196.96 173.142 196.299 172.724 195.663C172.293 195.04 171.88 194.463 171.496 193.888C171.076 193.414 170.67 192.926 170.234 192.435C169.878 192.024 169.739 191.748 169.743 191.425C168.767 190.421 169.18 190.615 168.308 189.443C168.355 188.916 165.484 187.028 165.251 186.686L165.454 186.835C164.324 185.569 163.865 184.399 162.587 183.313C160.927 181.652 158.919 180.273 156.958 178.913C154.933 177.68 152.937 176.449 151.01 175.533C150.869 175.802 151.877 175.881 151.761 176.284C150.657 175.727 149.583 174.98 148.465 174.437C147.332 173.877 146.183 173.302 145.027 172.829C144.612 172.605 144.117 172.301 143.927 172.139C143.179 171.801 143.442 172.146 142.897 171.956L142.858 171.644C142.003 171.636 141.702 170.979 140.897 170.858C140.847 170.972 140.546 170.889 140.277 170.839C140.297 170.531 139.411 170.683 139.479 170.423L139.465 170.437C139.301 170.409 139.183 170.4 138.968 170.295C138.62 170.356 135.632 170.565 135.335 170.734L135.183 170.663C134.738 170.628 134.563 170.835 134.821 170.929L134.285 170.858L134.342 170.833L133.806 170.762C133.715 170.725 133.585 170.568 133.737 170.447C133.434 170.527 133.097 170.545 132.796 170.462C133.672 170.737 134.732 171.114 135.603 171.52C135.241 171.595 134.604 171.369 134.206 171.352C133.729 171.094 132.751 170.827 131.999 170.621C131.837 170.623 131.744 170.94 131.379 170.794C131.169 170.556 130.953 170.805 130.645 170.633C130.989 170.513 131.331 170.554 131.686 170.582C131.604 170.281 130.788 170.394 130.501 170.298C130.375 170.391 129.676 170.293 129.24 170.377C129.381 170.108 128.86 170.214 128.568 170.059C128.271 170.036 128.103 170.141 128.228 170.239C128.192 170.531 129.434 170.406 129.077 170.732C128.933 170.588 128.377 170.633 128.069 170.653C128.097 170.818 128.299 170.775 128.135 170.938C127.78 170.911 127.456 171.106 127.237 170.942C127.292 170.887 127.443 170.929 127.545 170.922C127.073 170.915 129.789 169.86 129.222 169.948C129.379 170.078 126.839 170.926 127.149 170.935C127.434 171.002 127.01 171.234 127.308 171.286L127.573 171.086C127.96 171.146 128.188 171.429 128.065 171.552C127.416 171.53 129.687 170.441 129.17 170.607L129.412 170.684C129.184 170.785 128.573 170.884 128.324 170.718C128.352 170.882 128.047 170.932 127.8 170.986L127.696 170.963C127.452 171.047 127.067 171.017 127.274 171.225C128.817 171.183 126.606 172.852 128.101 172.953C127.426 172.606 128.235 172.596 128.88 172.557C128.962 172.667 129.286 172.854 129.765 172.95C130.159 172.907 129.99 172.821 130.043 172.736C130.284 172.814 130.702 172.876 130.672 173.065C130.95 172.851 131.199 173.209 131.545 173.119C131.862 173.025 131.509 173.027 131.736 172.927C132.24 172.967 132.942 173.095 133.346 173.171C133.508 173.36 133.991 173.707 133.686 173.948C132.941 173.831 133.934 173.54 133.166 173.51C133.538 173.937 132.491 173.546 132.382 173.846C132.649 174.059 133.153 174.098 133.55 174.085L133.456 174.018C133.823 174.003 134.543 173.985 134.961 174.239C134.867 174.364 135.054 174.496 134.79 174.505L135.296 174.574C135.367 174.536 135.424 174.51 135.287 174.456C135.531 174.372 135.759 174.463 135.943 174.566C135.996 174.673 138.63 174.466 138.562 174.534C138.936 174.607 138.998 174.833 139.36 174.758C139.396 174.658 135.854 174.559 136.344 174.612C136.627 174.84 140.5 174.641 140.723 175.056C140.995 175.136 141.323 175.191 141.266 175.025C141.708 175.221 141.093 175.261 141.405 175.492C141.419 175.478 141.385 175.417 141.49 175.44L141.777 175.727C142.497 175.71 143.501 176.303 144.276 176.231C144.032 176.315 143.738 176.513 143.253 176.519L143.186 176.426C143.1 176.449 142.712 176.389 142.708 176.521C143.123 176.745 143.513 176.834 143.998 176.828C144.076 176.878 144.169 176.944 144.219 177.022C144.217 176.992 144.217 176.992 144.215 176.963C144.345 177.12 144.315 177.118 144.258 177.143C144.245 177.156 144.245 177.156 144.215 177.154C144.402 177.669 145.97 177.571 146.703 178.084C146.956 178.119 146.741 178.014 147.054 178.053C147.824 178.496 148.313 178.902 149.104 179.42C149.425 179.386 149.48 179.331 149.218 178.987L149.82 179.343C149.097 179.523 150.81 180.333 150.026 180.478C150.158 180.665 150.528 180.871 150.888 180.958C150.97 180.876 151.104 180.71 151.519 180.934C152.044 181.431 151.916 181.303 152.331 181.718C152.377 181.928 152.181 181.869 152.147 181.999C152.963 182.268 152.642 182.685 153.32 183.062C153.764 183.288 154.626 183.767 154.772 183.558C155.29 183.966 155.185 184.135 155.021 184.299Z" fill="#342B1D"/>
<path d="M156.966 127.223L156.561 126.382C157.92 129.079 159.307 131.941 160.458 134.814C158.485 128.387 155.491 120.776 150.988 117.038C151.71 116.093 148.654 110.141 148.331 110.145C147.416 108.984 146.535 107.885 145.654 106.785C146.245 107.567 146.85 108.336 147.457 109.134C146.85 108.336 146.259 107.554 145.654 106.785C140.147 99.6113 134.632 91.5828 128.251 83.5899C127.398 82.4631 126.099 80.9187 124.52 79.1758C122.944 77.4625 121.28 75.389 119.398 73.5341C117.543 71.6518 115.727 69.699 114.036 68.0357C112.348 66.4021 110.853 64.9897 109.786 63.9493L107.954 62.172C108.946 63.1918 108.946 63.1918 109.952 64.1979C107.172 61.9638 104.405 60.2903 101.919 58.4325C102.25 58.9001 102.248 59.0619 103.135 60.0588L101.963 58.9955C101.279 58.7214 100.298 58.0412 99.3037 57.3746C98.2956 56.7217 97.2852 56.0392 96.6079 55.6625C97.0068 55.6788 96.035 54.9257 95.1728 54.2548L95.4376 54.6288C92.219 52.066 88.1049 49.728 85.0623 47.7237C84.629 47.4544 84.3415 47.1669 84.1932 46.9639C83.1897 46.3703 82.1362 45.8906 81.1077 45.3539C81.4654 45.2198 78.7106 43.6945 80.2338 44.3433C77.8054 43.4178 75.6453 41.7769 73.2788 41.0771C69.3292 39.1495 65.2518 37.0941 60.9926 35.5399C58.8835 34.7424 56.7788 33.8126 54.6219 33.1586C52.4947 32.5069 50.3539 31.8688 48.197 31.2148L48.3887 31.4065C45.4156 30.4827 42.7009 30.4185 39.1258 29.1385C37.8173 28.9777 36.2329 28.6775 34.8606 28.4528C33.4792 28.301 32.2689 28.2656 31.7403 28.4748C28.763 27.8746 27.5596 27.9281 24.6644 27.4375C25.3943 27.9214 21.8334 27.2022 23.2471 27.7689C25.1284 28.6665 25.2625 28.3088 26.8519 29.0511L26.813 28.9303C30.584 30.0782 34.3389 31.0187 38.0669 32.3695L43.6894 34.2213C45.5612 34.8089 47.406 35.6153 49.2711 36.3055C54.3575 37.7032 59.6092 40.2771 64.7101 42.427C67.4145 43.6833 70.2558 44.9944 72.9922 46.2826C75.6649 47.6984 78.2737 49.0504 80.5883 50.2174C81.7171 50.7176 82.3378 51.5023 83.1567 52.1846C85.1979 53.4334 87.5037 54.8648 89.8347 56.4307C92.1133 58.0809 94.4671 59.7516 96.7069 61.281C96.6294 61.2308 96.5495 61.1509 96.4879 61.1167C98.8031 62.858 100.286 64.5051 102.513 66.2396C102.551 66.169 102.896 66.4314 103.094 66.5205C103.217 66.7805 106.413 69.4299 109.725 72.0589C112.971 74.7858 116.188 77.7019 116.485 78.1079C116.706 78.3019 116.957 78.4982 117.167 78.7354C119.141 81.0098 121.078 83.3844 122.852 85.7316C124.584 88.1197 126.305 90.3596 127.945 92.3283C128.785 93.0858 129.693 93.9665 130.448 94.585C130.866 95.4127 131.258 95.3402 131.888 96.2434C132.934 98.9021 134.084 100.052 133.525 98.7272C134.946 100.531 136.227 102.413 137.43 104.053C138.003 104.79 138.562 105.54 139.167 106.309C139.673 106.952 139.81 107.39 139.872 107.807C141.107 109.479 140.617 109.043 141.69 110.909C141.69 111.483 144.933 115.3 145.168 115.863L144.94 115.58C146.257 117.744 146.537 119.445 147.718 121.554C150.789 127.522 154.28 133.965 156.698 139.661C157.019 139.627 156.058 138.448 156.411 138.254C157.864 141.592 158.946 145.078 160.241 148.478C160.408 149.11 160.544 149.901 160.567 150.197C160.889 151.312 160.953 150.801 161.222 151.618L160.986 151.791C161.632 152.901 161.316 153.569 161.841 154.641C161.975 154.666 162.14 155.076 162.272 155.455C161.999 155.537 162.704 156.652 162.424 156.645L162.454 156.647C162.531 156.889 162.602 157.041 162.655 157.34C162.938 157.76 165.139 161.819 165.409 162.252L165.441 162.476C165.667 163.112 165.95 163.34 165.906 162.969L166.13 163.766L166.08 163.689L166.288 164.471C166.3 164.619 166.211 164.804 166.02 164.612C166.259 165.043 166.458 165.515 166.538 165.978C166.352 164.726 166.171 163.151 166.037 161.815C166.327 162.324 166.463 163.306 166.668 163.867C166.68 164.59 166.953 166.01 167.114 167.127C167.192 167.369 167.584 167.488 167.598 168.048C167.43 168.345 167.779 168.666 167.743 169.149C167.482 168.643 167.384 168.135 167.253 167.594C166.998 167.722 167.444 168.905 167.476 169.32C167.608 169.507 167.792 170.538 168.032 171.16C167.703 170.914 168 171.702 167.942 172.081C168.019 172.514 168.186 172.763 168.231 172.589C168.564 172.704 167.979 170.861 168.435 171.427C168.331 171.596 168.587 172.426 168.71 172.877C168.872 172.875 168.744 172.556 168.972 172.839C169.055 173.331 169.377 173.871 169.266 174.143C169.215 174.065 169.185 173.871 169.158 173.707C169.311 174.352 167.286 170.277 167.571 171.109C167.685 170.868 169.417 174.758 169.291 174.277C169.29 173.894 169.635 174.54 169.619 174.141L169.32 173.705C169.246 173.14 169.476 172.878 169.625 173.081C169.831 174.025 167.89 170.472 168.248 171.295L168.237 170.955C168.44 171.295 168.746 172.202 168.671 172.565C168.817 172.547 169 173.003 169.133 173.381L169.128 173.513C169.306 173.91 169.375 174.416 169.532 174.163C168.985 171.868 171.469 175.581 171.043 173.324C170.914 174.315 170.637 173.027 170.323 172.031C170.403 171.919 170.485 171.454 170.384 170.725C170.187 170.091 170.164 170.369 170.053 170.257C170.039 169.888 169.928 169.231 170.125 169.291C169.794 168.823 170.033 168.488 169.811 167.912C169.564 167.392 169.727 167.964 169.521 167.594C169.329 166.828 169.052 165.732 168.885 165.1C168.983 164.843 169.055 164.068 169.475 164.542C169.788 165.73 168.914 164.145 169.348 165.372C169.582 164.786 169.784 166.437 170.124 166.64C170.194 166.218 169.957 165.434 169.698 164.766L169.68 164.912C169.459 164.335 169.015 163.181 169.021 162.504C169.209 162.637 169.215 162.343 169.38 162.753L169.139 161.939C169.073 161.846 168.977 161.75 169.026 161.989C168.806 161.633 168.731 161.23 168.708 160.934C168.831 160.811 166.705 156.772 166.816 156.884C166.624 156.309 166.772 156.129 166.437 155.602C166.316 155.564 168.803 161.029 168.495 160.284C168.513 159.755 165.58 153.872 165.667 153.466C165.486 153.04 165.285 152.538 165.178 152.677C164.988 151.941 165.529 152.837 165.472 152.287C165.442 152.285 165.417 152.342 165.36 152.176L165.348 151.645C164.72 150.58 164.381 148.874 163.619 147.784C163.906 148.072 164.314 148.398 164.753 149.109L164.748 149.242C164.844 149.337 165.127 149.949 165.255 149.885C165.079 149.135 164.798 148.553 164.373 147.828C164.362 147.68 164.334 147.516 164.325 147.397C164.311 147.411 164.298 147.425 164.268 147.422C164.247 147.156 164.279 147.188 164.373 147.254C164.389 147.27 164.405 147.286 164.42 147.302C164.627 146.743 163.073 144.561 162.718 143.222C162.499 142.867 162.643 143.202 162.358 142.752C161.958 141.396 161.676 140.432 161.185 139.038C160.815 138.641 160.726 138.635 160.786 139.214L160.366 138.165C161.253 138.97 159.91 136.097 160.848 136.98C160.806 136.638 160.537 136.013 160.199 135.457C160.064 135.431 159.827 135.413 159.505 134.681C159.187 133.625 159.283 133.913 159.004 132.978C159.059 132.732 159.257 133.012 159.369 132.933C158.552 131.706 159.14 131.693 158.5 130.479C158.073 129.725 157.324 128.238 157.049 128.29C156.528 127.277 156.729 127.205 156.966 127.223Z" fill="#342B1D"/>
</g>
</g>
<defs>
<clipPath id="clip0_2692_24569">
<rect width="243.952" height="65.0538" fill="white" transform="matrix(-0.707107 -0.707107 -0.707107 0.707107 218.5 172.5)"/>
</clipPath>
<clipPath id="clip1_2692_24569">
<rect width="243.952" height="65.0538" fill="white" transform="translate(47.4375 1.4375) rotate(45)"/>
</clipPath>
</defs>
</svg>
