<svg width="80" height="80" viewBox="0 0 80 80" fill="none" xmlns="http://www.w3.org/2000/svg">
<path d="M57.6731 36.9866C58.5748 34.0097 59.0638 30.9232 59.1264 27.8133C59.1217 26.4938 59.0371 25.1759 58.8731 23.8666C58.7695 22.889 58.3425 21.974 57.6597 21.2667C57.4994 21.0694 57.2977 20.9097 57.069 20.7987C56.8402 20.6878 56.5899 20.6283 56.3357 20.6245C56.0815 20.6207 55.8296 20.6726 55.5976 20.7766C55.3656 20.8807 55.1593 21.0343 54.9931 21.2266C54.5734 21.6682 54.2509 22.1928 54.0464 22.7667C53.6531 24.04 53.3797 25.3533 53.0997 26.6533C52.6864 28.5466 52.3464 30.4666 51.8664 32.3466C51.4997 33.78 50.9597 35.1667 50.5331 36.58C50.3331 37.1933 50.1797 37.82 50.0064 38.44C49.9331 36.86 49.9197 35.3133 49.9397 33.7733C49.9397 32.68 50.0597 31.5933 50.0064 30.5066C49.8797 28.0466 49.6997 25.5866 49.5197 23.1333C49.4331 22.0066 49.3331 20.8866 49.1597 19.8C48.9397 18.4266 48.6264 17.0666 48.3731 15.7C47.8513 13.1314 46.9385 10.6582 45.6664 8.36665C45.473 7.92818 45.1717 7.5459 44.7904 7.25558C44.4092 6.96527 43.9605 6.7764 43.4864 6.70663C43.0243 6.645 42.5542 6.72242 42.1363 6.92902C41.7183 7.13562 41.3714 7.46205 41.1397 7.86665C40.8 8.67015 40.705 9.55602 40.8664 10.4133C41.1264 11.9533 41.3197 13.5133 41.5731 15.08C41.8464 16.7333 42.173 18.3733 42.453 20.0266C42.5797 20.7933 42.6464 21.58 42.7464 22.3533C42.3797 21.5 42.0797 20.64 41.8331 19.78C40.9264 16.9066 40.0731 14.02 39.0797 11.1733C38.6141 10.089 38.0751 9.03763 37.4664 8.02664C37.3569 7.70234 37.1531 7.41809 36.8812 7.21025C36.6092 7.00242 36.2814 6.88046 35.9397 6.85997C35.5772 6.8642 35.2232 6.97101 34.9188 7.16804C34.6144 7.36507 34.372 7.64427 34.2197 7.97331C33.6926 8.90391 33.4406 9.96508 33.4931 11.0333C33.4931 12.4533 33.6064 13.8733 33.7464 15.2867C33.8997 16.8867 34.0464 18.5 34.3531 20.08C34.7331 22.04 35.2797 23.9733 35.7464 25.92C36.2731 28.0933 36.8664 30.2533 37.2797 32.44C37.5864 34.0466 37.6664 35.7 37.8397 37.3333L37.6197 37.3933C37.3688 37.0369 37.0805 36.7084 36.7597 36.4133C35.9141 35.7517 35.023 35.1502 34.0931 34.6133C32.5703 33.7605 30.7792 33.522 29.0864 33.9466C27.4509 34.3561 26.044 35.3963 25.1731 36.84C23.2864 39.9533 22.3797 43.24 23.6464 46.9066C23.4205 46.9224 23.197 46.9627 22.9797 47.0266C22.4365 47.16 21.9201 47.3855 21.4531 47.6933C21.2649 47.8259 21.1143 48.0049 21.0158 48.2129C20.9174 48.421 20.8745 48.6509 20.8912 48.8805C20.908 49.11 20.9839 49.3313 21.1116 49.5228C21.2393 49.7143 21.4143 49.8695 21.6197 49.9733C22.4344 50.5489 23.3966 50.8797 24.3931 50.9266C24.2622 51.018 24.1151 51.0836 23.9597 51.12C23.5121 51.2077 23.0964 51.4143 22.7562 51.7181C22.416 52.022 22.1639 52.4118 22.0264 52.8466C21.4931 54.2866 21.9797 55.5133 22.7664 56.6133C24.2763 58.5473 26.2228 60.0962 28.4464 61.1333C28.8397 61.3333 29.1997 61.5933 29.5997 61.8C30.2699 62.2281 31.0001 62.5539 31.7664 62.7667C32.8732 62.905 33.9929 62.905 35.0997 62.7667C36.0127 62.7185 36.9024 62.4607 37.6997 62.0133C38.5947 61.5349 39.3001 60.7661 39.6997 59.8333C39.9931 61.6733 40.2864 63.3733 40.5264 65.0866C40.8531 67.4 41.1264 69.7133 41.4464 72.02C41.5369 72.4725 41.6594 72.9181 41.8131 73.3533H42.0464C42.1197 73.1733 42.2664 73 42.2664 72.82C42.2664 71.68 42.2664 70.5266 42.1531 69.3933C41.9197 67.3533 41.5997 65.32 41.3064 63.2933C41.1634 61.5638 40.7424 59.8687 40.0597 58.2733C39.9677 58.1092 39.8653 57.9511 39.7531 57.8C39.5757 57.9243 39.4184 58.0749 39.2864 58.2467C38.3731 59.8667 37.1797 61.1066 35.2397 61.4C34.5731 61.4933 33.9597 61.5666 33.3197 61.6666C32.6686 61.7485 32.0076 61.6967 31.3772 61.5145C30.7467 61.3322 30.1601 61.0233 29.6531 60.6066C29.3397 60.38 29.0397 60.14 28.7397 59.9C27.4064 58.8466 26.0731 57.8333 24.7864 56.7066C23.9868 56.0269 23.4629 55.0787 23.3131 54.04C23.2493 53.7481 23.2949 53.443 23.4411 53.1825C23.5873 52.922 23.8241 52.7242 24.1064 52.6266C24.7513 52.2675 25.4874 52.1057 26.2235 52.1614C26.9595 52.2171 27.6629 52.4878 28.2464 52.94C29.3422 53.8567 30.3777 54.8432 31.3464 55.8933C31.5369 56.1483 31.783 56.3564 32.066 56.502C32.349 56.6476 32.6615 56.7267 32.9797 56.7333C33.2731 56.7333 33.5397 56.34 33.8197 56.1266C34.688 55.3898 35.3728 54.4608 35.8197 53.4133C36.9605 50.9932 37.2495 48.2584 36.6397 45.6533C36.2991 43.6002 35.4967 41.6512 34.2931 39.9533C33.4064 38.74 32.2931 37.9533 30.7397 38.1133C30.0025 38.1814 29.3006 38.4611 28.7187 38.9189C28.1367 39.3766 27.6995 39.9928 27.4597 40.6933C27.0681 41.8518 26.7606 43.0372 26.5397 44.24C26.3531 45.0666 26.3264 45.9533 25.6131 46.5466C25.4158 46.7248 25.1588 46.8224 24.8931 46.82C24.7331 46.82 24.5664 46.48 24.4797 46.2667C23.8664 44.7333 24.2864 43.1666 24.5197 41.6666C24.91 39.5161 25.9886 37.5508 27.5931 36.0666C28.1844 35.4486 28.9862 35.075 29.8397 35.02C33.4664 34.8 37.1731 37.2266 37.9664 40.6866C38.0797 41.1733 38.1197 41.6867 38.2331 42.18C38.3045 42.3683 38.4058 42.5439 38.5331 42.7C38.6864 42.56 38.9397 42.4333 38.9797 42.2667C39.065 41.8547 39.0941 41.4331 39.0664 41.0133C39.0331 40.3467 38.8931 39.68 38.8664 39.0133C38.8064 37.3133 38.7997 35.6066 38.7197 33.9066C38.6916 33.0791 38.5889 32.2558 38.4131 31.4466C37.8331 28.94 37.1397 26.46 36.5797 23.9533C36.1197 21.8533 35.7597 19.7266 35.3997 17.6066C35.1596 16.2842 34.9993 14.9484 34.9197 13.6066C34.8597 12.22 34.5797 10.8133 35.0131 9.42664C35.1731 8.89998 35.2531 8.33331 36.0864 8.09331C36.6779 9.08202 37.2035 10.1087 37.6597 11.1666C38.5664 13.6666 39.4397 16.1867 40.1531 18.7467C41.0797 22.08 41.913 25.4133 42.6397 28.82C43.133 31.1266 43.3997 33.4866 43.7331 35.8333C43.8997 36.9866 43.9731 38.1466 44.1464 39.3C44.1997 39.7 44.4197 40.12 44.9331 40.0466C45.4464 39.9733 45.5997 39.5933 45.5331 39.14C45.3864 37.7667 45.2131 36.4 45.0797 35.0266C44.9331 33.5 44.7931 31.9733 44.7064 30.4466C44.6397 29.1133 44.7064 27.82 44.6131 26.52C44.3997 24.3466 44.0997 22.1866 43.7931 20.0266C43.5197 18.08 43.1264 16.1466 42.8797 14.2C42.6464 12.46 42.4797 10.7066 42.3597 8.95997C42.3911 8.78565 42.4646 8.62164 42.5738 8.48221C42.683 8.34277 42.8247 8.23216 42.9864 8.15998C43.1514 8.13531 43.3199 8.14828 43.4792 8.19792C43.6386 8.24757 43.7846 8.33259 43.9064 8.44664C44.2167 8.80369 44.4626 9.212 44.6331 9.65331C46.1531 12.659 47.1432 15.9043 47.5597 19.2467C47.9597 22.08 48.1864 24.94 48.3664 27.8C48.5131 30.02 48.4931 32.2466 48.5131 34.4666C48.5131 35.9333 48.5131 37.4 48.5131 38.8666C48.5014 39.1838 48.5654 39.4991 48.6997 39.7867C48.8331 40.0467 49.1597 40.4533 49.3131 40.4066C49.8197 40.2866 50.4931 40.64 50.8331 39.9866C51.1231 39.4512 51.3813 38.8991 51.6064 38.3333C52.1331 36.88 52.6531 35.4267 53.1131 33.9533C53.5731 32.48 53.9731 31.16 54.2664 29.7333C54.6064 28.04 54.7397 26.3066 55.0797 24.6133C55.2972 23.8257 55.613 23.0686 56.0197 22.36C56.1731 22.04 56.4597 22.0333 56.7597 22.2933C57.7064 23.1133 57.6864 24.2466 57.6797 25.3266C57.6731 26.4066 57.4864 27.3266 57.433 28.2933C57.3797 29.26 57.4331 30.3666 57.3397 31.4C57.2356 32.2775 57.0685 33.1464 56.8397 34C56.4374 35.9827 55.9323 37.9431 55.3264 39.8733C54.6228 41.7931 53.7644 43.6525 52.7597 45.4333C51.8212 47.0591 51.0633 48.7827 50.4997 50.5733C49.8563 52.4778 49.3768 54.4338 49.0664 56.42C48.8864 57.9933 49.2864 59.6333 49.4197 61.24C49.5864 63.3133 49.7331 65.3933 49.9197 67.4733C50.0197 68.5267 50.1531 69.5733 50.3197 70.62C50.4276 70.9545 50.5801 71.2729 50.7731 71.5666C50.8491 71.4154 50.9094 71.2568 50.953 71.0933C50.953 70.46 50.953 69.8266 50.953 69.1933C50.953 68.32 50.953 67.44 50.953 66.5666C50.813 64.4266 50.6197 62.2866 50.4797 60.1466C50.4787 59.5966 50.5076 59.0469 50.5664 58.5C50.5463 57.2757 50.6243 56.0518 50.7997 54.84C51.2439 52.9469 51.7846 51.0778 52.4197 49.24C52.8579 47.7588 53.5334 46.3584 54.4197 45.0933C55.0975 44.1422 55.653 43.1097 56.0731 42.02C56.6597 40.3666 57.1597 38.6866 57.6731 36.9866ZM28.3064 41.48C28.4019 41.0585 28.5918 40.6641 28.8616 40.3265C29.1314 39.9889 29.4743 39.7168 29.8644 39.5307C30.2545 39.3447 30.6817 39.2494 31.1139 39.2522C31.5461 39.2549 31.972 39.3556 32.3597 39.5466C32.8782 39.8992 33.3204 40.3527 33.6597 40.88C34.4352 42.0208 35.0101 43.2856 35.3597 44.62C36.2693 47.2698 36.1237 50.168 34.9531 52.7133C34.4904 53.6109 33.9623 54.4733 33.3731 55.2933C33.1531 55.64 32.9064 55.6133 32.6131 55.2933C31.7254 54.2602 30.7864 53.2723 29.7997 52.3333C29.1009 51.765 28.3587 51.2523 27.5797 50.8C27.7931 50.4733 28.2464 50.08 28.2797 49.6533C28.2593 49.175 28.0621 48.7213 27.7264 48.38C27.3309 48.0324 26.8943 47.7346 26.4264 47.4933C27.8997 45.7933 27.8064 43.5533 28.3064 41.5066V41.48ZM25.2331 47.9866C25.8997 48.4066 26.5664 48.7866 27.1664 49.2066C27.2542 49.2595 27.3215 49.3405 27.3573 49.4365C27.3932 49.5325 27.3954 49.6379 27.3637 49.7353C27.332 49.8328 27.2682 49.9166 27.1827 49.9731C27.0972 50.0297 26.9951 50.0556 26.8931 50.0466C26.2664 50.0866 25.6397 50.0466 25.0397 50.0466C25.0797 49.3866 25.1331 48.7466 25.2331 47.9866ZM24.4931 49.0866C24.4376 49.4385 24.3574 49.786 24.2531 50.1266C23.4464 49.7666 22.6731 49.46 21.9597 49.0866C21.8793 49.0154 21.8172 48.9258 21.7789 48.8255C21.7405 48.7251 21.7269 48.617 21.7394 48.5102C21.7518 48.4035 21.7899 48.3014 21.8503 48.2126C21.9107 48.1237 21.9917 48.0508 22.0864 48C22.4077 47.8049 22.7667 47.6799 23.1397 47.6333C24.3131 47.56 24.5131 47.9133 24.4664 49.0866H24.4931Z" fill="#342B1D"/>
</svg>
