<svg width="80" height="80" viewBox="0 0 80 80" fill="none" xmlns="http://www.w3.org/2000/svg">
<path d="M59.7395 28.4806C59.8529 28.3006 59.9862 28.1273 60.1062 27.9473L58.6729 28.0406C59.0129 28.2139 59.4995 28.9339 59.7395 28.4806Z" fill="#342B1D"/>
<path d="M65.8395 28.534C65.3795 29.9206 64.8929 31.1673 64.5595 32.454C64.2262 33.7406 64.0595 35.0873 63.7595 36.3873C63.4195 37.9073 62.9795 39.4006 62.6462 40.914C62.3595 42.2473 62.2195 43.5806 61.8995 44.8606C61.6062 46.0606 61.1529 47.2206 60.7662 48.4273H59.4329V48.3806L60.6529 48.2206C59.9529 47.514 59.1595 47.7606 58.4262 47.7539C57.0929 47.7539 55.8329 47.8539 54.5329 47.8806C53.3395 47.8806 52.1395 47.8806 51.0529 47.8806C51.0929 47.5139 51.3129 46.9606 51.1462 46.5873C50.9795 46.2139 50.3995 46.074 49.9329 45.7873C49.8523 45.4397 49.7002 45.1128 49.4862 44.8273C49.118 44.6061 48.7143 44.4505 48.2929 44.3673C48.2929 43.5873 47.8929 43.214 46.9062 43.094C46.6929 43.094 46.4729 43.094 46.2395 43.094C45.5729 43.014 44.8595 43.3806 44.3662 42.5473C44.2195 42.3073 43.6262 42.2806 43.2262 42.2473C41.164 42.0591 39.0895 42.4371 37.2262 43.3406C37.1265 43.3778 37.024 43.4068 36.9196 43.4273C36.5929 42.9406 36.2529 42.4606 35.9529 41.9473C35.8863 41.7574 35.8863 41.5505 35.9529 41.3606C36.8418 38.3962 37.7573 35.4317 38.6995 32.4673C38.7901 32.0962 38.9267 31.7378 39.1062 31.4006C39.1815 31.2838 39.2791 31.183 39.3936 31.104C39.508 31.0251 39.6369 30.9695 39.7729 30.9406C41.1595 30.7406 42.5662 30.614 43.9596 30.4406C44.9062 30.3206 45.8529 30.174 46.7995 30.0406C46.9795 29.7406 47.1462 29.4406 47.3129 29.1406L45.9795 29.3073C44.0395 29.5806 42.1262 30.034 40.1862 30.3006C38.7595 30.5006 38.1129 31.3806 37.7395 32.6206C37.2929 34.1006 36.8529 35.5873 36.3729 37.0606C35.9595 38.3406 35.4862 39.6006 35.1129 40.6806C33.9388 40.0619 32.7171 39.538 31.4596 39.114C29.5631 38.666 27.6058 38.5331 25.6662 38.7206C22.2327 38.9642 18.9333 40.1524 16.1329 42.154C13.9995 43.6473 11.7129 44.9273 9.46619 46.2939L6.67285 47.9873C7.15952 48.554 7.59952 48.2673 8.00618 48.0873C9.91952 47.1739 11.8862 46.334 13.7128 45.2673C15.5091 44.1983 17.2369 43.0182 18.8862 41.734C19.7753 41.0468 20.8001 40.556 21.8929 40.2939C24.3611 39.6969 26.9107 39.51 29.4395 39.7406C31.1503 39.8131 32.7899 40.4455 34.1062 41.5406C34.8157 42.255 35.4835 43.0095 36.1062 43.8006C34.7729 44.794 34.7729 44.794 33.5395 43.974C33.3711 43.8413 33.1903 43.7252 32.9996 43.6273C32.8006 43.5577 32.6329 43.4195 32.5266 43.2374C32.4203 43.0554 32.3824 42.8414 32.4196 42.634C32.4877 42.0723 32.3375 41.506 32.0001 41.0519C31.6626 40.5978 31.1636 40.2907 30.6062 40.194C29.2592 39.9154 27.8632 39.9889 26.5529 40.4073C25.59 40.588 24.6913 41.0178 23.9462 41.654C23.2075 42.1709 22.4218 42.6173 21.5995 42.9873C21.3929 43.114 21.2862 43.414 21.1329 43.654C21.4262 43.7006 21.7595 43.874 21.9929 43.7806C22.8201 43.4658 23.6205 43.0846 24.3862 42.6406C25.9939 41.5649 27.9181 41.0644 29.8462 41.2206C30.9462 41.334 31.3729 41.834 31.2862 42.9006C31.1462 44.6273 29.7129 45.6673 28.1395 46.1006C26.5087 46.4862 24.8504 46.7448 23.1795 46.874C21.9195 47.0206 20.6462 47.0406 19.3129 47.114C19.5329 47.9206 20.3796 47.694 20.9196 48.1206C20.1529 48.3806 19.4662 48.5606 18.8262 48.8473C17.3729 49.514 15.9262 50.1206 14.5129 50.8473C12.8529 51.6873 11.2196 52.594 9.58622 53.514C9.44622 53.594 9.39953 53.8406 9.30619 54.014C9.47953 54.014 9.67287 54.1273 9.81287 54.074C10.7462 53.7006 11.6729 53.3273 12.5862 52.9073C14.9062 51.834 17.2129 50.7406 19.5329 49.654C20.1529 49.3606 20.7862 49.0806 21.4996 48.7539C23.3662 49.8339 25.6062 49.6406 27.7795 49.9606C24.1729 52.4539 20.8462 55.234 17.4929 58.014C17.7842 58.0731 18.0868 58.0332 18.3529 57.9006C19.5662 57.1806 20.8062 56.494 21.9596 55.6873C23.2929 54.774 24.5262 53.7406 25.8062 52.774C27.0862 51.8073 28.3662 50.9206 29.6062 49.9406C30.2729 49.434 30.7195 48.7139 31.3862 48.2539C33.164 47.0406 34.9573 45.8784 36.7662 44.7673C38.5516 43.6974 40.6139 43.1801 42.6929 43.2806C40.9262 44.0606 38.9862 44.8406 37.1195 45.774C35.2544 46.7101 33.5668 47.9644 32.1329 49.4806C32.4181 49.4767 32.6979 49.401 32.9462 49.2606C34.1995 48.514 35.4129 47.6873 36.6995 47.014C39.0729 45.7673 41.4862 44.574 44.1795 44.2073C45.0873 44.1439 45.9984 44.1439 46.9062 44.2073C46.9062 44.2806 46.9462 44.354 46.9729 44.434C42.4729 45.394 38.4995 47.3006 35.4262 50.814C35.9379 50.701 36.427 50.5027 36.8729 50.2273C38.1529 49.4206 39.3729 48.5206 40.6795 47.7806C42.7157 46.5414 45.0113 45.7907 47.3862 45.5873C47.7662 45.5873 48.1462 45.6273 48.5929 45.6473C46.7395 46.7406 44.9662 47.7406 43.2595 48.8006C42.33 49.3675 41.4391 49.9956 40.5929 50.6806C40.3595 50.8673 40.3529 51.3473 40.2462 51.654C40.5751 51.6629 40.9028 51.611 41.2128 51.5007C41.8795 51.0807 42.4862 50.5673 43.1329 50.114C45.0595 48.7806 46.9862 47.4073 49.3795 47.0073C49.7048 46.9695 50.0321 46.9517 50.3595 46.954C50.3595 47.0273 50.3595 47.1006 50.4129 47.174C50.2529 47.3073 50.0995 47.454 49.9329 47.574L42.9929 52.4206C40.2729 54.3073 37.1195 55.3206 34.1995 56.7939C32.731 57.4244 31.2958 58.1298 29.8995 58.9073C28.4005 59.9049 26.9828 61.0195 25.6595 62.2406C25.0862 62.7473 24.2862 63.174 24.3262 64.2406C24.5586 64.12 24.7815 63.9818 24.9929 63.8273C25.8729 63.1206 26.7595 62.4073 27.6062 61.6606C30.1198 59.4702 33.0558 57.8184 36.2329 56.8073C39.3547 55.8379 42.2498 54.2509 44.7462 52.1406C45.1188 52.2992 45.5047 52.4241 45.8995 52.514C46.7062 52.634 47.5195 52.7273 48.3329 52.774C49.4833 52.876 50.6394 52.8983 51.7929 52.8406C53.7929 52.6673 55.7929 52.3606 57.7929 52.0873C58.5545 52.0082 59.3068 51.8564 60.0395 51.634C60.8462 51.3473 61.5662 50.8473 62.3662 50.5407C63.0329 50.2807 63.0728 49.874 62.8795 49.5206C63.139 49.0958 63.362 48.6498 63.5462 48.1873C63.8995 46.854 64.2129 45.5206 64.4995 44.2206C64.9195 42.3606 65.3862 40.5006 65.7195 38.6206C66.2662 35.5806 66.6929 32.5206 67.2395 29.4806C67.3045 29.3031 67.3061 29.1086 67.2442 28.9301C67.1822 28.7515 67.0605 28.5998 66.8995 28.5007C66.5862 28.2607 66.4929 27.834 65.9129 27.834C65.5462 27.834 65.1795 27.834 64.8062 27.834C64.6395 28.0673 64.4662 28.294 64.2795 28.5007C64.7595 28.5207 65.2928 28.534 65.8395 28.534ZM29.2995 48.7939C26.7729 48.5073 24.1862 48.794 21.7262 47.8273L29.3195 48.554L29.2995 48.7939ZM32.2529 46.4206C31.9687 46.55 31.704 46.7183 31.4662 46.9206C30.1329 48.5073 28.3795 47.3673 26.8395 47.634C28.4362 47.3152 29.9253 46.5948 31.1662 45.5406C31.3063 45.4701 31.4669 45.4512 31.6195 45.4873C32.0995 45.5606 32.5862 45.6606 33.2062 45.774C32.8262 46.034 32.5462 46.2339 32.2329 46.4206H32.2529ZM31.7729 45.0873L32.3129 44.0606L33.2462 44.9273L31.7729 45.0873ZM45.9196 51.4806C46.1729 51.1273 48.5062 51.1673 49.3462 51.6806L45.9196 51.4806ZM47.1329 50.6006L47.0595 50.454C47.4329 50.2273 47.8129 50.0073 48.1795 49.7873C48.8208 49.3181 49.4885 48.8863 50.1795 48.494C50.9062 48.1406 51.6462 48.674 52.4129 48.6473C54.4529 48.5873 56.4995 48.6473 58.5729 48.6473C56.6929 49.134 54.8329 49.7406 52.9262 50.0673C51.0195 50.394 49.0662 50.414 47.1329 50.594V50.6006ZM66.3595 29.3473C65.0262 36.114 64.0395 42.9473 61.9329 49.4406C59.2662 51.0806 56.1662 50.974 53.3062 51.7873L53.2529 51.5873L54.7262 51.114C55.2462 50.9473 55.7729 50.8073 56.2862 50.6206C57.3529 50.2206 58.4195 49.7939 59.4862 49.3806C59.6296 49.2978 59.7847 49.2372 59.9462 49.2006C61.1195 49.2006 61.5529 48.3406 61.8462 47.4206C62.3129 45.9939 62.7862 44.554 63.1062 43.094C63.7729 40.0406 64.3329 36.9606 64.9995 33.9006C65.3561 32.3534 65.8103 30.8304 66.3595 29.3406V29.3473Z" fill="#342B1D"/>
<path d="M50.3662 29.626C51.6395 29.506 52.9062 29.3927 54.1795 29.286C54.0462 29.0593 53.9662 29.326 53.6529 29.0327C53.3395 28.7393 53.0662 28.5927 52.8929 28.4727L50.9996 28.6793C50.7724 28.9839 50.5611 29.2998 50.3662 29.626Z" fill="#342B1D"/>
<path d="M61.0129 32.1064C61.3796 32.1064 61.7662 32.153 62.1929 32.173C61.9529 33.2197 61.7062 34.173 61.5262 35.1264C61.0262 37.833 60.5596 40.5464 60.0796 43.253C60.0063 43.653 60.0329 44.2797 59.8062 44.3997C59.5796 44.5197 59.0062 44.2264 58.5929 44.233C56.4929 44.233 54.3863 44.2997 52.2863 44.3797C51.8152 44.4424 51.3525 44.5564 50.9062 44.7197C50.9062 44.8064 50.9062 44.8864 50.9062 44.973C51.1412 45.027 51.3795 45.0649 51.6196 45.0864C52.8663 45.0864 54.1196 45.0864 55.3729 45.0864C56.7063 45.0864 58.1062 45.1797 59.4796 45.2064C59.9329 45.2064 60.6729 45.4664 60.3462 44.4864C60.3462 44.4531 60.3462 44.3997 60.3862 44.353C60.7009 43.5404 60.968 42.7101 61.1862 41.8664C61.6662 39.5197 62.0662 37.1597 62.5196 34.7997C62.6729 33.953 62.8529 33.1064 62.9462 32.253C62.9611 32.1038 62.9398 31.9532 62.8841 31.8139C62.8284 31.6746 62.74 31.5509 62.6263 31.4531C62.3448 31.3218 62.0367 31.2579 61.7262 31.2664C61.5396 31.5861 61.2981 31.8704 61.0129 32.1064V32.1064Z" fill="#342B1D"/>
<path d="M41.2199 33.0396C40.7238 33.0104 40.2346 33.167 39.8476 33.4788C39.4606 33.7906 39.2036 34.2353 39.1266 34.7262C38.6733 36.3329 38.14 37.9196 37.6666 39.5196C37.4466 40.2596 37.2933 41.0129 37.1133 41.7596L37.4733 41.8862C37.7556 41.3476 38.0071 40.7934 38.2266 40.2262C38.8399 38.2662 39.3933 36.2929 40 34.3263C40.0433 34.2054 40.114 34.0962 40.2065 34.0071C40.299 33.9181 40.4108 33.8516 40.5333 33.8129C41.8666 33.6796 43.2 33.5729 44.5 33.5062L44.9133 32.9062C43.68 32.9663 42.4533 33.0196 41.2199 33.0396Z" fill="#342B1D"/>
<path d="M51.7599 33.1933C52.9799 33.1267 54.2 33.0133 55.4133 32.86C56.52 32.7267 57.6266 32.5733 58.7466 32.42L58.66 32.3533C58.4 32.2 58.3666 32.0333 58.2533 32.0733C58.14 32.1133 58.1199 32.0733 58.0466 32C57.3799 32.0667 56.7133 32.1266 56.0466 32.18C53.5533 32.3666 51.0555 32.54 48.5533 32.7C48.3999 32.92 48.2599 33.14 48.1133 33.3667C49.3066 33.3067 50.5333 33.26 51.7599 33.1933Z" fill="#342B1D"/>
<path d="M50.2865 30.5463C49.7531 30.7597 49.8931 31.213 49.7598 31.5397C49.9271 31.7037 50.127 31.8309 50.3464 31.913C50.6638 31.9981 50.9869 32.0604 51.3131 32.0997C51.8167 32.0143 52.3104 31.8781 52.7865 31.693C53.3731 31.413 53.3464 30.873 52.7331 30.653C51.9633 30.2973 51.0843 30.259 50.2865 30.5463ZM52.4998 31.213V31.453H50.2331C50.5603 31.2254 50.9398 31.0845 51.3363 31.0437C51.7328 31.0029 52.1331 31.0634 52.4998 31.2197V31.213Z" fill="#342B1D"/>
<path d="M47.5671 32.7603L48.507 32.7003L48.6537 32.4803C49.3204 31.5803 49.7937 30.567 50.3537 29.627L47.967 29.867C47.5604 29.9137 47.1537 29.9736 46.7537 30.027C46.1937 30.9736 45.5604 31.9403 44.9004 32.907L47.5671 32.7603ZM48.5871 30.647C48.8204 31.0136 49.0937 31.3136 49.047 31.3803C48.8349 31.64 48.5717 31.8533 48.2737 32.007C48.2271 32.007 47.8271 31.6203 47.8604 31.5536C48.0775 31.2284 48.3253 30.9248 48.6004 30.647H48.5871Z" fill="#342B1D"/>
<path d="M58.7266 32.4209C59.2266 32.8276 59.0399 33.5009 59.5465 32.6343C59.5932 32.5276 59.6399 32.5543 59.7066 32.6343C59.9401 32.6432 60.173 32.6053 60.3917 32.5229C60.6104 32.4404 60.8104 32.3151 60.9799 32.1543H60.8266L58.7266 32.4209Z" fill="#342B1D"/>
<path d="M72.9001 20.599C72.9401 19.5057 72.6001 18.5324 72.8135 17.519C72.8535 16.4724 72.4735 17.2057 72.4801 16.5391C71.6935 16.8324 72.3201 16.0124 71.7335 16.4457C71.1468 16.879 71.2202 16.6524 70.8268 16.3724C70.5468 16.2524 70.4202 15.7457 70.1135 15.8057C68.8706 16.3388 67.5919 16.7843 66.2868 17.139C64.6468 17.599 62.4202 17.6257 61.6202 19.0657C61.5735 19.199 61.4802 19.3524 61.7468 19.3257C62.0135 19.2991 62.3401 19.6724 62.5535 19.7324C62.9801 19.8924 63.0735 19.6324 63.5002 19.8857C63.6268 20.099 65.8935 19.7724 67.0201 19.5724C66.7068 20.0724 66.7801 19.7524 66.0935 20.7324C64.1468 23.0457 61.8202 25.6124 60.1602 27.9524L62.1202 27.8324C63.0202 27.7924 63.9202 27.8324 64.7868 27.8324C64.9424 27.6279 65.0824 27.4279 65.2068 27.2324C65.9602 26.5657 66.9068 24.979 67.7735 24.179C68.6401 23.379 67.7735 23.739 68.2535 22.899C68.3026 22.7812 68.3751 22.6746 68.4668 22.5857C68.7135 22.4657 68.7935 22.0524 69.0068 21.979C69.2735 21.7924 70.2068 20.1057 70.1202 21.3124C70.1202 23.019 70.7068 24.1657 71.2668 25.7857C71.3268 26.1057 71.8335 26.3724 71.8202 26.059C71.8068 25.7457 72.0468 26.1924 71.9468 25.9857C71.8468 25.779 72.0868 25.4724 72.3401 25.379C72.7668 25.059 73.5735 24.3457 73.3001 23.739C73.2335 22.619 72.9001 21.9657 72.9001 20.599Z" fill="#342B1D"/>
<path d="M51.1667 28.4408C51.3733 28.3275 51.3533 27.5942 51.7467 27.9808C52.5133 28.3542 52.32 28.0875 52.8933 28.4741L53.3733 28.4208C54.18 28.3341 55 28.3208 55.8066 28.2608C56.7666 28.2008 57.72 28.1275 58.6733 28.0608C57.4 27.3942 56.76 26.8142 55.4067 26.0608C54.9213 25.6914 54.3845 25.395 53.8133 25.1808C53.3133 25.0408 53.5733 24.7608 53.0533 24.8075C52.6466 24.8075 53.16 24.5942 52.8933 24.4075C52.6266 24.2208 52.6267 24.4875 52.4067 24.2808C52.06 23.9808 52.22 24.4208 52.0066 24.2808C51.92 24.1808 51.76 24.3275 51.7333 24.2208C51.7067 24.1141 51.42 24.3608 51.2933 24.1675C51.1667 23.9742 50.96 24.3342 50.6733 24.0408C50.0066 23.5942 50.3733 24.3608 50.08 24.6608C49.58 25.3875 49.8333 25.1008 49.4733 25.6408C49.3266 26.0475 49.0867 26.0008 49.08 26.0875C49.12 26.3475 48.8666 26.0875 48.64 26.5008C48.42 26.7608 48.5867 26.8742 48.5 27.1208C48.3585 27.5014 48.1302 27.8438 47.8333 28.1208C47.6733 28.4542 47.4933 28.7875 47.3066 29.1475C48.5466 28.9875 49.78 28.8408 51.0267 28.7008C51.0533 28.6075 51.1067 28.5142 51.1667 28.4408Z" fill="#342B1D"/>
<path d="M55.3733 30.114C55.6733 30.314 55.82 30.5207 56.04 30.5607C56.04 30.614 56.0533 30.614 56.08 30.5607C56.08 30.4673 56.2733 30.6673 56.3267 30.6407C56.7105 31.1107 57.187 31.4965 57.7266 31.774C57.82 31.774 57.9133 31.9007 58.0066 31.9807C58.5466 31.9273 59.0933 31.8674 59.6267 31.7874C60.16 31.7074 60.7933 31.4073 61.3866 31.314C61.4821 31.3071 61.5779 31.3071 61.6733 31.314C61.7598 31.1945 61.8685 31.0926 61.9933 31.014C62.3333 30.694 62.3533 30.054 62.88 29.9407C63.3684 29.5131 63.8149 29.0399 64.2133 28.5273C63.9266 28.5273 63.6333 28.5273 63.3466 28.5273C62.4933 28.5873 61.6467 28.7607 60.7867 28.8207C58.6667 28.9807 56.54 29.0807 54.42 29.254H54.1533C54.1772 29.2943 54.1972 29.3367 54.2133 29.3807C54.4066 29.7007 55.04 29.8607 55.3733 30.114Z" fill="#342B1D"/>
<path d="M44.5001 33.506C42.8601 35.8594 41.1667 38.1727 40.0801 40.0727C40.4392 40.6164 40.9884 41.0063 41.6201 41.1661C41.8601 41.1661 42.5134 41.3194 42.6467 41.1661C42.6467 41.1194 42.6467 41.1127 42.7134 41.126C42.78 41.1393 42.9534 40.8993 43.0134 41.046C43.5001 40.8793 43.7934 39.7994 44.1134 39.3594C44.4267 38.7994 44.8867 38.1727 45.2267 37.6594C46.2601 36.1994 47.1201 34.8127 48.0801 33.3594L44.6201 33.506H44.5001Z" fill="#342B1D"/>
<path d="M47.9799 29.8664L50.3666 29.6263C50.5615 29.3002 50.7729 28.9842 51 28.6797C49.7533 28.8197 48.5199 28.9663 47.2799 29.1263C47.1133 29.4263 46.9466 29.7264 46.7666 30.0264C47.1666 29.973 47.5666 29.913 47.9799 29.8664Z" fill="#342B1D"/>
<path d="M62.0671 27.8468L60.1071 27.9668C59.9871 28.1468 59.8537 28.3202 59.7404 28.5002C59.5004 28.9335 59.0137 28.2135 58.6737 28.0601C57.7204 28.1268 56.767 28.2001 55.807 28.2601C55.0004 28.3201 54.1804 28.3335 53.3737 28.4201L52.9004 28.4801C53.0737 28.6001 53.3071 28.7735 53.6604 29.0402C54.0137 29.3068 54.0537 29.0401 54.1871 29.2935H54.4537C56.5737 29.1201 58.7004 29.0201 60.8204 28.8601C61.6804 28.8001 62.527 28.6268 63.3804 28.5668C63.667 28.5668 63.9604 28.5668 64.2471 28.5668C64.4337 28.3335 64.6071 28.1068 64.7737 27.9001C63.8671 27.8135 62.9671 27.8135 62.0671 27.8468Z" fill="#342B1D"/>
<path d="M44.8997 32.9067L44.4863 33.5067H44.6063L48.0663 33.36C48.213 33.1467 48.353 32.9267 48.5063 32.6934L47.5663 32.7533L44.8997 32.9067Z" fill="#342B1D"/>
<path d="M48.2864 32.0065C48.5844 31.8528 48.8476 31.6395 49.0597 31.3798C49.1064 31.3265 48.8331 31.0132 48.5997 30.6465C48.3293 30.925 48.086 31.2285 47.8731 31.5531C47.8398 31.6198 48.2331 32.0331 48.2864 32.0065Z" fill="#342B1D"/>
</svg>
