<svg width="84" height="14" viewBox="0 0 84 14" fill="none" xmlns="http://www.w3.org/2000/svg">
<path d="M4.23112 1.93648L3.12902 2.05571V12.3935L4.23112 12.5127V13.1572H0V12.5127L1.09884 12.3935V2.05571L0 1.93648V1.25977H4.23112V1.93648Z" fill="#342C1E"/>
<path d="M8.72765 12.4546V13.1635H4.97022V12.4546C6.15609 12.4191 6.49445 11.9454 6.49445 10.6597V3.97621C6.49445 2.60665 6.03685 1.9976 4.92188 1.96216V1.25323H8.10246L13.6838 9.7799V3.75388C13.6838 2.53578 13.397 2.04598 12.3304 1.95897V1.25H15.7494V1.95897C14.6828 2.04598 14.396 2.53578 14.396 3.75388V13.315H13.6L7.20342 3.7023V10.6564C7.20342 11.9519 7.54177 12.4256 8.72765 12.4546Z" fill="#342C1E"/>
<path d="M16.6602 13.1708V12.5263L17.6913 12.4071V2.06938L16.6602 1.95015V1.27344H20.9589C22.4638 1.27344 23.5982 1.528 24.4779 2.18539C25.9506 3.30359 26.7336 4.96318 26.7336 7.07713C26.7573 8.46955 26.3621 9.83694 25.5993 11.0021C24.5359 12.5747 23.0954 13.1837 20.9654 13.1837L16.6602 13.1708ZM20.8075 12.478C23.3855 12.478 24.5101 10.8378 24.5101 7.29947C24.5101 3.76118 23.2759 1.92116 21.0943 1.92116C20.6243 1.93545 20.1553 1.97417 19.6893 2.03716V12.3942C20.0601 12.4442 20.4334 12.4721 20.8075 12.478Z" fill="#342C1E"/>
<path d="M31.9076 1.93648L30.8087 2.05571V12.3935L31.9076 12.5127V13.1572H27.6797V12.5127L28.7786 12.3935V2.05571L27.6797 1.93648V1.25977H31.9076V1.93648Z" fill="#342C1E"/>
<path d="M37.9656 13.4403C36.9816 13.452 36.0264 13.1088 35.2748 12.4735C33.9859 11.3908 33.1931 9.57328 33.1931 7.44966C33.157 5.74955 33.6938 4.0867 34.7173 2.72871C35.1206 2.19545 35.6423 1.76328 36.2413 1.46631C36.8403 1.16934 37.5001 1.01572 38.1686 1.0176C39.1676 1.0176 39.8443 1.37529 40.1988 1.37529C40.6189 1.34872 41.0285 1.23339 41.4008 1.03691L42.2805 4.75889L41.6554 4.91034C40.6725 2.8125 39.506 1.74588 38.2202 1.74588C36.5284 1.74588 35.2233 3.45377 35.2233 6.23155C35.1925 7.63814 35.5373 9.02754 36.2223 10.2565C36.9344 11.423 37.8142 11.9837 38.9291 11.9837C40.3019 11.9837 41.1623 11.2715 41.7907 9.68286L42.3321 9.86652C41.6521 12.1738 40.028 13.4403 37.9656 13.4403Z" fill="#342C1E"/>
<path d="M42.1602 12.4522C43.2268 12.4522 43.5813 11.8432 44.0066 10.5187L46.5846 2.29494C46.4832 1.94409 46.3358 1.6082 46.1464 1.29598L48.4633 1.14453L52.1853 12.3974L53.1005 12.4651V13.174H49.0047V12.4522L49.9715 12.3846L49.0047 9.38763H45.0604L44.635 10.6766C44.5284 10.9828 44.4602 11.3011 44.432 11.6241C44.432 12.0816 44.8735 12.3845 45.6694 12.4361V13.1451H42.1602V12.4522ZM48.7759 8.69479L47.0358 3.18112L45.3085 8.69479H48.7759Z" fill="#342C1E"/>
<path d="M56.1837 13.4603C56.0245 13.473 55.8645 13.4537 55.7129 13.4035C55.5613 13.3534 55.4214 13.2734 55.3012 13.1683C55.1811 13.0631 55.0832 12.935 55.0134 12.7914C54.9436 12.6479 54.9032 12.4918 54.8947 12.3324C54.8815 12.1732 54.9005 12.0129 54.9505 11.8612C55.0005 11.7094 55.0804 11.5693 55.1856 11.449C55.2908 11.3288 55.4191 11.2309 55.5629 11.1612C55.7067 11.0916 55.863 11.0515 56.0225 11.0434C56.1816 11.0298 56.3418 11.0483 56.4935 11.098C56.6452 11.1476 56.7854 11.2272 56.9057 11.3322C57.026 11.4371 57.1239 11.5652 57.1936 11.7088C57.2634 11.8524 57.3035 12.0086 57.3115 12.168C57.3247 12.3274 57.3057 12.4878 57.2558 12.6398C57.2059 12.7917 57.1259 12.9321 57.0208 13.0526C56.9156 13.1731 56.7873 13.2712 56.6435 13.3413C56.4998 13.4113 56.3434 13.4517 56.1837 13.4603Z" fill="#342C1E"/>
<path d="M67.6764 12.8141C67.7988 12.1052 67.9052 11.393 68.0438 10.6873C68.2371 9.70122 68.453 8.72158 68.6592 7.73872C68.7044 7.53248 68.7527 7.31657 68.5078 7.207C68.2629 7.09744 68.0856 7.2618 67.96 7.46482C67.6377 8.00297 67.2994 8.54757 66.9513 9.07606C66.8106 9.31142 66.6406 9.52799 66.4454 9.72056C65.8009 10.3135 65.0049 10.1717 64.6472 9.37895C64.4729 8.92555 64.3234 8.463 64.1993 7.99331C64.0841 7.6117 63.9463 7.23724 63.7869 6.87189C63.7486 6.79167 63.6929 6.72103 63.6237 6.66525C63.5546 6.60948 63.4738 6.56998 63.3873 6.54964C63.2745 6.54964 63.0843 6.73655 63.036 6.87189C62.7621 7.64207 62.4882 8.41546 62.2852 9.20497C62.0822 9.99447 61.9629 10.8162 61.7921 11.6379C61.7547 11.8291 61.6919 12.0145 61.6052 12.189C61.5246 12.3959 61.3752 12.5688 61.1821 12.6785C60.9891 12.7883 60.7641 12.8282 60.545 12.7916C60.3183 12.7436 60.1132 12.6234 59.9605 12.4492C59.8077 12.2749 59.7155 12.0559 59.6975 11.8248C59.6855 11.4266 59.7223 11.0283 59.8071 10.639C60.304 8.24435 60.9498 5.88308 61.7406 3.56885C61.8288 3.33049 61.9366 3.09983 62.0628 2.87923C62.1473 2.70651 62.2724 2.55684 62.4274 2.44306C62.5824 2.32928 62.7626 2.25479 62.9527 2.22596C63.1428 2.19713 63.3371 2.21483 63.5188 2.27753C63.7006 2.34024 63.8644 2.44606 63.9963 2.58597C64.3347 2.94666 64.625 3.34958 64.8599 3.78473C65.121 4.22943 65.3111 4.71283 65.5334 5.18009C65.5785 5.27676 65.6237 5.37344 65.6784 5.46689C65.9137 5.86326 66.1779 5.88903 66.4841 5.53455C66.613 5.38632 66.7161 5.21232 66.8321 5.06408C67.4347 4.24557 68.018 3.41414 68.6464 2.61819C68.9254 2.28118 69.2422 1.97736 69.5905 1.71269C69.777 1.56343 70.0019 1.47007 70.2392 1.44343C70.4765 1.4168 70.7166 1.45796 70.9314 1.56219C71.1463 1.66642 71.3272 1.82943 71.4532 2.03231C71.5792 2.23518 71.6451 2.46962 71.6433 2.70843C71.6487 3.31195 71.5925 3.91444 71.4757 4.50656C70.9472 7.28219 70.4015 10.0546 69.8387 12.8238C69.7861 13.0903 69.6761 13.3421 69.5164 13.5618C69.3774 13.7279 69.1886 13.8449 68.9779 13.8954C68.7672 13.9459 68.5459 13.9272 68.3467 13.8421C67.873 13.6778 67.7537 13.2814 67.6764 12.8141Z" fill="#342C1E"/>
<path d="M79.5809 0.795947C80.3511 0.744388 81.118 0.69284 81.8882 0.647726C82.0218 0.631678 82.1573 0.6429 82.2865 0.68069C82.4157 0.71848 82.5358 0.78204 82.6397 0.86758C82.7437 0.953119 82.8291 1.05887 82.891 1.17838C82.953 1.29789 82.99 1.42868 82.9999 1.5629C83.0146 1.82426 82.928 2.08123 82.7582 2.28045C82.5884 2.47966 82.3483 2.60586 82.088 2.63279C80.9827 2.76169 79.8773 2.87123 78.772 2.97757C77.8987 3.06458 77.6699 3.24829 77.425 4.09258C77.3058 4.5115 77.1704 4.9304 77.048 5.34932C76.8836 5.91003 77.077 6.19684 77.6506 6.24195C78.1469 6.28384 78.6464 6.29029 79.1394 6.35796C79.8935 6.46108 80.1609 6.85745 79.9998 7.57929C79.974 7.75556 79.892 7.91879 79.766 8.04476C79.64 8.17074 79.4768 8.25274 79.3005 8.27858C78.9461 8.33337 78.5819 8.34301 78.2242 8.37201C77.6699 8.41712 77.1157 8.45258 76.5614 8.50414C76.4039 8.50959 76.2528 8.56786 76.1324 8.66955C76.012 8.77125 75.9293 8.91047 75.8976 9.06485C75.7171 9.7319 75.527 10.3957 75.3594 11.0692C75.328 11.1395 75.3147 11.2166 75.321 11.2933C75.3272 11.3701 75.3527 11.444 75.3952 11.5083C75.4376 11.5725 75.4955 11.6251 75.5636 11.661C75.6317 11.6969 75.7078 11.715 75.7848 11.7137C76.1048 11.7605 76.4287 11.7745 76.7515 11.7556C77.5314 11.7234 78.308 11.6654 79.0878 11.6267C79.2339 11.6203 79.3802 11.6333 79.5229 11.6654C79.7093 11.6848 79.8851 11.7621 80.0255 11.8863C80.1659 12.0105 80.2639 12.1755 80.3059 12.3582C80.3555 12.545 80.3445 12.7428 80.2744 12.9229C80.2043 13.103 80.0788 13.2563 79.916 13.3604C79.6516 13.5413 79.3498 13.6602 79.0331 13.7085C77.4305 13.9137 75.8128 13.9752 74.1993 13.8921C74.0014 13.8915 73.8061 13.8466 73.6278 13.7605C73.4495 13.6745 73.2928 13.5496 73.1691 13.3951C73.0455 13.2405 72.958 13.0602 72.9132 12.8674C72.8685 12.6745 72.8675 12.4741 72.9103 12.2809C73.1456 11.0853 73.4227 9.89625 73.7675 8.73615C74.412 6.53197 75.1113 4.3407 75.8009 2.14619C75.8895 1.80658 76.0894 1.50647 76.3686 1.29384C76.6479 1.0812 76.9903 0.968316 77.3413 0.9732C78.0889 0.931307 78.8397 0.879766 79.597 0.831429L79.5809 0.795947Z" fill="#342C1E"/>
</svg>
