<svg width="101" height="40" viewBox="0 0 101 40" fill="none" xmlns="http://www.w3.org/2000/svg">
<path d="M46.2671 31.8946C45.1318 31.8946 44.2402 31.0054 44.2402 29.8677C44.2402 28.7324 45.1294 27.8408 46.2671 27.8408C47.4049 27.8408 48.294 28.73 48.294 29.8677C48.2916 31.0054 47.4025 31.8946 46.2671 31.8946Z" fill="#FFC875"/>
<path d="M10.2394 31.6796V17.9742H8.10498V16.552H10.2394V13.6599C10.2394 10.0268 11.8289 8.10742 14.8334 8.10742C17.2523 8.10742 18.3303 9.37184 18.3757 9.42681L18.4402 9.5033L17.845 10.4546L17.7255 10.3709C17.716 10.3638 16.8173 9.7471 15.7321 9.7471C14.3052 9.7471 13.5499 10.8538 13.5499 12.95V16.5544H17.9741V17.9766H13.5499V31.682H10.2394V31.6796Z" fill="#FFC875"/>
<path d="M24.0216 31.8948C22.413 31.8948 21.0291 31.5363 20.018 30.8575C18.8827 30.095 18.2827 28.9501 18.2827 27.547C18.2827 24.6238 20.8928 23.0152 25.6302 23.0152C26.5863 23.0152 27.5925 23.0917 28.5534 23.2399V21.9492C28.5534 19.0881 27.5256 17.7568 25.3195 17.7568C22.707 17.7568 21.7772 19.5399 21.7772 21.2058V21.3445H18.8086V21.2058C18.8086 18.2181 21.3159 16.3633 25.3505 16.3633C29.4689 16.3633 31.8328 18.3758 31.8328 21.8846V31.6773H29.4856L29.053 29.8153C27.9582 31.1969 26.266 31.8948 24.0216 31.8948ZM26.4046 24.3776C24.1387 24.3776 21.4402 24.9226 21.4402 27.5183C21.4402 28.8879 22.3222 30.3483 24.796 30.3483C27.0237 30.3483 28.2188 29.0433 28.5558 26.242V24.5473C27.9439 24.4637 27.1695 24.3776 26.4046 24.3776Z" fill="#FFC875"/>
<path d="M35.4229 31.6795V16.5495H37.9182L38.3508 19.2218C39.7587 17.3813 42.0461 16.332 44.2857 16.332V19.1931C44.2833 19.1907 38.7022 18.5334 38.7022 23.4763V31.6795H35.4229Z" fill="#FFC875"/>
<path d="M52.3452 29.2387C52.3739 28.7248 52.4121 28.2133 52.4289 27.6994C52.5077 25.2877 52.7444 22.8879 53.0432 20.4929C53.1483 19.6444 53.3204 18.8006 53.4806 17.9593C53.569 17.4956 53.8295 17.1562 54.3171 17.0797C54.8358 16.996 55.2756 17.1729 55.5815 17.6055C55.8469 17.976 55.756 18.3967 55.6485 18.7887C55.4883 19.3695 55.223 19.9288 55.1131 20.5168C54.9314 21.4872 54.8215 22.4696 54.7115 23.452C54.5705 24.7188 54.4319 25.988 54.3434 27.2596C54.255 28.5073 54.2287 29.7573 54.1761 31.0074C54.1737 31.0361 54.1809 31.0648 54.2359 31.1078C54.408 30.7445 54.6016 30.3883 54.7498 30.0131C55.4118 28.3352 56.062 26.6525 56.7121 24.9698C57.3288 23.3779 57.9359 21.7836 58.7462 20.2754C58.9637 19.8691 59.2433 19.489 59.5397 19.1353C59.9102 18.6931 60.4241 18.5975 60.9691 18.7003C61.3634 18.7744 61.6192 19.011 61.722 19.4149C62.0375 20.6602 62.114 21.9294 62.1642 23.2058C62.2096 24.3579 62.2645 25.5147 62.5657 26.6309C62.7115 27.1783 62.9458 27.7065 63.1919 28.218C63.3927 28.6363 63.5744 28.6554 63.9425 28.3638C64.7288 27.7376 65.379 26.9847 65.9933 26.1959C66.6147 25.3952 67.2362 24.5945 67.8887 23.8225C68.1325 23.5332 68.4408 23.2847 68.7611 23.0815C69.5905 22.558 70.6374 22.6776 71.3234 23.385C71.713 23.789 72.0405 24.2527 72.3966 24.6877C72.6763 25.0271 72.9392 25.3856 73.2523 25.694C73.7901 26.2246 74.4259 26.3919 75.1645 26.1194C75.7022 25.9211 76.1755 25.6223 76.6057 25.2566C78.0948 23.9898 79.5815 22.723 81.0587 21.4466C81.1567 21.3629 81.2069 21.2004 81.2403 21.0642C81.563 19.7519 81.9813 18.4732 82.586 17.2637C82.9852 16.4654 83.4393 15.6958 84.099 15.0767C84.3046 14.8831 84.546 14.7182 84.7946 14.5796C85.3945 14.2473 86.4175 14.4529 86.8358 14.9907C86.941 15.1245 87.0031 15.311 87.0318 15.483C87.1489 16.1714 87.0007 16.8335 86.7928 17.4836C86.3793 18.7791 85.7339 19.9432 84.7826 20.9231C84.2281 21.4944 83.566 21.8768 82.7772 22.0322C82.7103 22.0465 82.6219 22.1445 82.6099 22.2139C82.3852 23.6073 82.2777 25.008 82.3972 26.4158C82.4474 27.0062 82.6004 27.587 82.7055 28.1726C82.7151 28.2204 82.7342 28.2658 82.7509 28.3113C83.1047 29.2195 83.7238 29.4848 84.6201 29.1048C85.4567 28.7511 86.1235 28.1559 86.7808 27.556C88.552 25.9378 90.065 24.0973 91.4441 22.1398C91.6138 21.8983 91.7811 21.6569 91.9604 21.4227C92.0345 21.3271 92.1181 21.2267 92.2185 21.1646C92.2974 21.1168 92.4121 21.1263 92.5101 21.1096C92.5173 21.2076 92.5508 21.3127 92.5269 21.4036C92.4982 21.5207 92.4408 21.633 92.3715 21.7334C91.1334 23.55 89.8953 25.3689 88.4014 26.9943C87.5744 27.893 86.6804 28.7176 85.6359 29.3677C85.0957 29.7047 84.5054 29.9246 83.8672 29.9701C82.6936 30.0537 81.7088 29.4227 81.238 28.3089C80.8364 27.3576 80.7121 26.3585 80.7193 25.3355C80.7241 24.3865 80.7456 23.4376 80.9416 22.5055C80.9487 22.4672 80.9487 22.4266 80.9559 22.319C80.8579 22.4122 80.7982 22.4672 80.7408 22.5246C79.4859 23.7699 78.2072 24.9865 76.7731 26.0262C76.0727 26.5329 75.3365 26.9727 74.4617 27.0899C73.7375 27.1879 73.0611 26.9919 72.4468 26.6214C71.7823 26.2198 71.2421 25.6749 70.7856 25.0438C70.5609 24.7331 70.3147 24.4367 70.0494 24.1571C69.6431 23.7268 69.3969 23.7101 69.0121 24.1499C68.3548 24.9004 67.7333 25.6773 67.1047 26.4517C66.4713 27.2333 65.8403 28.0197 65.0563 28.6578C64.3321 29.2482 63.5266 29.4848 62.6159 29.0976C62.0829 28.873 61.7291 28.4714 61.4782 27.9647C61.0503 27.1042 60.8137 26.1864 60.742 25.2375C60.6344 23.8368 60.5723 22.4314 60.491 21.0283C60.4743 20.7319 60.4456 20.4355 60.4241 20.1368C60.4026 20.132 60.3787 20.1248 60.3572 20.12C60.142 20.5264 59.8887 20.9208 59.7142 21.3438C59.0426 22.9907 58.3733 24.6399 57.7495 26.3059C56.9846 28.3471 56.2628 30.4027 55.3354 32.3794C55.2326 32.5993 55.0987 32.8096 54.9458 32.9984C54.4534 33.6151 53.8367 33.7035 53.0145 33.4741C52.7492 33.4 52.5938 33.1777 52.546 32.9196C52.4767 32.5515 52.4432 32.1762 52.3978 31.8033C52.3763 31.6336 52.3643 31.4663 52.3476 31.2966C52.3452 30.613 52.3452 29.927 52.3452 29.2387ZM82.7414 21.3199C84.1755 20.5909 85.9251 16.8287 85.5068 15.3635C84.013 17.0917 83.2648 19.1209 82.7414 21.3199Z" fill="#FFC875"/>
</svg>
