<svg width="162" height="64" viewBox="0 0 162 64" fill="none" xmlns="http://www.w3.org/2000/svg">
<g clip-path="url(#clip0_3482_34806)">
<path d="M74.0272 51.031C72.2107 51.031 70.7842 49.6083 70.7842 47.7879C70.7842 45.9714 72.2068 44.5449 74.0272 44.5449C75.8476 44.5449 77.2702 45.9676 77.2702 47.7879C77.2664 49.6083 75.8438 51.031 74.0272 51.031Z" fill="#342B1D"/>
<path d="M16.3834 50.6881V28.7594H12.9683V26.484H16.3834V21.8566C16.3834 16.0436 18.9266 12.9727 23.7337 12.9727C27.6039 12.9727 29.3287 14.9957 29.4014 15.0837L29.5046 15.2061L28.5524 16.7281L28.3611 16.5943C28.3459 16.5828 26.9079 15.5961 25.1717 15.5961C22.8885 15.5961 21.6801 17.3668 21.6801 20.7207V26.4878H28.7589V28.7633H21.6801V50.6919H16.3834V50.6881Z" fill="#342B1D"/>
<path d="M38.4346 51.0321C35.8609 51.0321 33.6466 50.4584 32.0289 49.3723C30.2123 48.1524 29.2524 46.3205 29.2524 44.0756C29.2524 39.3985 33.4286 36.8247 41.0084 36.8247C42.5381 36.8247 44.1482 36.9471 45.6855 37.1842V35.1191C45.6855 30.5414 44.0411 28.4112 40.5112 28.4112C36.3313 28.4112 34.8436 31.2642 34.8436 33.9297V34.1515H30.0938V33.9297C30.0938 29.1493 34.1055 26.1816 40.561 26.1816C47.1503 26.1816 50.9325 29.4017 50.9325 35.0158V50.6841H47.177L46.4848 47.7049C44.7333 49.9154 42.0257 51.0321 38.4346 51.0321ZM42.2475 39.0046C38.622 39.0046 34.3044 39.8765 34.3044 44.0297C34.3044 46.2211 35.7155 48.5577 39.6737 48.5577C43.238 48.5577 45.1501 46.4697 45.6894 41.9876V39.2761C44.7103 39.1423 43.4713 39.0046 42.2475 39.0046Z" fill="#342B1D"/>
<path d="M56.6763 50.6868V26.4789H60.6689L61.3611 30.7545C63.6136 27.8097 67.2735 26.1309 70.8568 26.1309V30.7086C70.853 30.7047 61.9232 29.6531 61.9232 37.5618V50.6868H56.6763Z" fill="#342B1D"/>
<path d="M83.7524 46.7838C83.7983 45.9616 83.8595 45.1432 83.8863 44.3209C84.0125 40.4622 84.3911 36.6226 84.8691 32.7906C85.0374 31.433 85.3128 30.083 85.569 28.7368C85.7105 27.9949 86.1273 27.4519 86.9075 27.3295C87.7374 27.1956 88.4411 27.4786 88.9306 28.1708C89.3551 28.7636 89.2097 29.4367 89.0377 30.0639C88.7814 30.9932 88.3569 31.8881 88.181 32.8288C87.8904 34.3815 87.7144 35.9533 87.5385 37.5251C87.3129 39.552 87.0911 41.5827 86.9496 43.6173C86.8081 45.6135 86.766 47.6137 86.6819 49.6138C86.678 49.6597 86.6895 49.7056 86.7775 49.7744C87.0528 49.1931 87.3626 48.6233 87.5997 48.0229C88.659 45.3382 89.6993 42.6459 90.7395 39.9536C91.7262 37.4066 92.6975 34.8557 93.994 32.4426C94.342 31.7925 94.7894 31.1844 95.2636 30.6184C95.8564 29.9109 96.6786 29.7579 97.5506 29.9224C98.1816 30.0409 98.5908 30.4195 98.7553 31.0658C99.2601 33.0583 99.3824 35.089 99.4627 37.1312C99.5354 38.9745 99.6234 40.8255 100.105 42.6115C100.339 43.4872 100.713 44.3324 101.107 45.1508C101.428 45.8201 101.719 45.8507 102.308 45.3841C103.566 44.3821 104.606 43.1775 105.589 41.9154C106.584 40.6343 107.578 39.3531 108.622 38.1179C109.012 37.6551 109.505 37.2574 110.018 36.9323C111.345 36.0948 113.02 36.286 114.118 37.418C114.741 38.0643 115.265 38.8063 115.835 39.5023C116.282 40.0453 116.703 40.619 117.204 41.1123C118.064 41.9613 119.082 42.229 120.263 41.7931C121.124 41.4756 121.881 40.9976 122.569 40.4125C124.952 38.3856 127.331 36.3587 129.694 34.3165C129.851 34.1827 129.931 33.9226 129.985 33.7046C130.501 31.6051 131.17 29.5591 132.138 27.6239C132.776 26.3466 133.503 25.1152 134.559 24.1247C134.887 23.8149 135.274 23.551 135.671 23.3292C136.631 22.7977 138.268 23.1265 138.937 23.987C139.106 24.2012 139.205 24.4995 139.251 24.7748C139.438 25.8762 139.201 26.9356 138.869 27.9758C138.207 30.0486 137.174 31.911 135.652 33.479C134.765 34.393 133.706 35.0049 132.444 35.2535C132.337 35.2764 132.195 35.4332 132.176 35.5441C131.816 37.7737 131.644 40.0147 131.836 42.2673C131.916 43.2119 132.161 44.1412 132.329 45.0781C132.344 45.1546 132.375 45.2273 132.402 45.3C132.968 46.7532 133.958 47.1777 135.392 46.5696C136.731 46.0036 137.798 45.0514 138.849 44.0915C141.683 41.5024 144.104 38.5577 146.311 35.4256C146.582 35.0393 146.85 34.653 147.137 34.2783C147.255 34.1253 147.389 33.9647 147.55 33.8652C147.676 33.7887 147.86 33.804 148.016 33.7773C148.028 33.9341 148.081 34.1023 148.043 34.2477C147.997 34.4351 147.905 34.6148 147.795 34.7754C145.814 37.6819 143.833 40.5922 141.442 43.1928C140.119 44.6307 138.689 45.9501 137.018 46.9903C136.153 47.5295 135.209 47.8814 134.188 47.954C132.31 48.0879 130.734 47.0783 129.981 45.2961C129.338 43.774 129.139 42.1755 129.151 40.5387C129.159 39.0204 129.193 37.5022 129.507 36.0107C129.518 35.9495 129.518 35.8845 129.53 35.7124C129.373 35.8615 129.277 35.9495 129.185 36.0413C127.178 38.0337 125.132 39.9803 122.837 41.6439C121.716 42.4547 120.539 43.1583 119.139 43.3457C117.98 43.5025 116.898 43.1889 115.915 42.5962C114.852 41.9537 113.988 41.0817 113.257 40.0721C112.898 39.5749 112.504 39.1007 112.079 38.6533C111.429 37.9649 111.035 37.9381 110.419 38.6418C109.368 39.8426 108.373 41.0856 107.368 42.3246C106.354 43.5752 105.345 44.8334 104.09 45.8545C102.931 46.7991 101.643 47.1777 100.186 46.5582C99.3327 46.1987 98.7667 45.5562 98.3652 44.7454C97.6806 43.3687 97.302 41.9001 97.1873 40.3819C97.0152 38.1408 96.9158 35.8921 96.7857 33.6473C96.759 33.173 96.7131 32.6988 96.6786 32.2208C96.6442 32.2131 96.606 32.2017 96.5716 32.194C96.2274 32.8441 95.822 33.4752 95.5428 34.1521C94.4682 36.787 93.3974 39.4258 92.3992 42.0913C91.1754 45.3573 90.0205 48.6462 88.5367 51.8089C88.3722 52.1608 88.1581 52.4973 87.9133 52.7994C87.1255 53.7861 86.1388 53.9276 84.8233 53.5605C84.3988 53.4419 84.1502 53.0863 84.0737 52.6732C83.9628 52.0843 83.9092 51.4839 83.8366 50.8873C83.8022 50.6158 83.783 50.3481 83.7563 50.0765C83.7524 48.9828 83.7524 47.8852 83.7524 46.7838ZM132.386 34.1138C134.681 32.9474 137.48 26.9279 136.811 24.5836C134.421 27.3486 133.224 30.5954 132.386 34.1138Z" fill="#342B1D"/>
</g>
<defs>
<clipPath id="clip0_3482_34806">
<rect width="161.092" height="64" fill="white"/>
</clipPath>
</defs>
</svg>
