<svg width="136" height="41" viewBox="0 0 136 41" fill="none" xmlns="http://www.w3.org/2000/svg">
<path d="M61.0594 38.0603C59.2429 38.0603 57.8164 36.6376 57.8164 34.8172C57.8164 33.0007 59.2391 31.5742 61.0594 31.5742C62.8798 31.5742 64.3025 32.9969 64.3025 34.8172C64.2986 36.6376 62.876 38.0603 61.0594 38.0603Z" fill="#342B1D"/>
<path d="M3.41512 37.7154V15.7868H0V13.5113H3.41512V8.8839C3.41512 3.07093 5.95829 0 10.7655 0C14.6357 0 16.3604 2.02307 16.4331 2.11102L16.5364 2.2334L15.5841 3.75548L15.3929 3.62163C15.3776 3.61016 13.9396 2.62348 12.2034 2.62348C9.92029 2.62348 8.7118 4.39414 8.7118 7.74807V13.5151H15.7906V15.7906H8.7118V37.7193H3.41512V37.7154Z" fill="#342B1D"/>
<path d="M25.4654 38.0575C22.8916 38.0575 20.6773 37.4838 19.0597 36.3977C17.2431 35.1778 16.2832 33.3459 16.2832 31.101C16.2832 26.4239 20.4594 23.8501 28.0392 23.8501C29.5689 23.8501 31.1789 23.9725 32.7163 24.2096V22.1445C32.7163 17.5668 31.0719 15.4366 27.542 15.4366C23.362 15.4366 21.8744 18.2896 21.8744 20.9551V21.1769H17.1246V20.9551C17.1246 16.1747 21.1363 13.207 27.5917 13.207C34.181 13.207 37.9633 16.4271 37.9633 22.0412V37.7094H34.2078L33.5156 34.7303C31.7641 36.9408 29.0564 38.0575 25.4654 38.0575ZM29.2782 26.03C25.6528 26.03 21.3351 26.9019 21.3351 31.0551C21.3351 33.2465 22.7463 35.5831 26.7045 35.5831C30.2687 35.5831 32.1809 33.495 32.7201 29.0129V26.3015C31.7411 26.1677 30.502 26.03 29.2782 26.03Z" fill="#342B1D"/>
<path d="M43.707 37.7161V13.5082H47.6996L48.3918 17.7838C50.6443 14.839 54.3042 13.1602 57.8876 13.1602V17.7379C57.8838 17.734 48.954 16.6824 48.954 24.591V37.7161H43.707Z" fill="#342B1D"/>
<path d="M70.7832 33.8092C70.8291 32.987 70.8903 32.1685 70.9171 31.3463C71.0433 27.4876 71.4219 23.648 71.8999 19.816C72.0682 18.4584 72.3435 17.1084 72.5998 15.7622C72.7413 15.0203 73.1581 14.4772 73.9383 14.3549C74.7681 14.221 75.4718 14.504 75.9613 15.1962C76.3858 15.789 76.2405 16.4621 76.0684 17.0893C75.8122 18.0186 75.3877 18.9135 75.2118 19.8542C74.9211 21.4069 74.7452 22.9787 74.5693 24.5505C74.3436 26.5774 74.1218 28.6081 73.9803 30.6426C73.8388 32.6389 73.7968 34.6391 73.7126 36.6392C73.7088 36.6851 73.7203 36.731 73.8082 36.7998C74.0836 36.2185 74.3934 35.6487 74.6305 35.0483C75.6898 32.3636 76.73 29.6713 77.7702 26.9789C78.7569 24.4319 79.7283 21.8811 81.0247 19.468C81.3727 18.8178 81.8202 18.2098 82.2944 17.6438C82.8872 16.9363 83.7094 16.7833 84.5813 16.9478C85.2124 17.0663 85.6216 17.4449 85.786 18.0912C86.2908 20.0837 86.4132 22.1144 86.4935 24.1566C86.5662 25.9999 86.6541 27.8509 87.136 29.6368C87.3693 30.5126 87.7441 31.3578 88.138 32.1762C88.4592 32.8455 88.7499 32.876 89.3388 32.4095C90.597 31.4075 91.6372 30.2028 92.6201 28.9408C93.6144 27.6597 94.6087 26.3785 95.6528 25.1433C96.0428 24.6805 96.5362 24.2828 97.0486 23.9577C98.3757 23.1202 100.051 23.3114 101.148 24.4434C101.772 25.0897 102.296 25.8316 102.865 26.5277C103.313 27.0707 103.734 27.6444 104.235 28.1377C105.095 28.9867 106.112 29.2544 107.294 28.8184C108.154 28.501 108.912 28.023 109.6 27.4379C111.983 25.411 114.361 23.3841 116.725 21.3419C116.882 21.208 116.962 20.948 117.015 20.73C117.532 18.6305 118.201 16.5844 119.168 14.6493C119.807 13.372 120.534 12.1406 121.589 11.1501C121.918 10.8403 122.304 10.5764 122.702 10.3546C123.662 9.82304 125.299 10.1519 125.968 11.0124C126.136 11.2266 126.236 11.5249 126.282 11.8002C126.469 12.9016 126.232 13.961 125.899 15.0012C125.238 17.074 124.205 18.9364 122.683 20.5044C121.796 21.4184 120.736 22.0303 119.474 22.2789C119.367 22.3018 119.226 22.4586 119.207 22.5695C118.847 24.7991 118.675 27.0401 118.866 29.2927C118.947 30.2373 119.191 31.1666 119.36 32.1035C119.375 32.18 119.406 32.2527 119.432 32.3253C119.998 33.7786 120.989 34.2031 122.423 33.595C123.762 33.029 124.828 32.0768 125.88 31.1169C128.714 28.5278 131.135 25.5831 133.341 22.4509C133.613 22.0647 133.881 21.6784 134.167 21.3037C134.286 21.1507 134.42 20.9901 134.581 20.8906C134.707 20.8141 134.89 20.8294 135.047 20.8027C135.059 20.9595 135.112 21.1277 135.074 21.2731C135.028 21.4605 134.936 21.6402 134.825 21.8008C132.844 24.7073 130.863 27.6176 128.473 30.2181C127.15 31.6561 125.72 32.9755 124.048 34.0157C123.184 34.5549 122.239 34.9068 121.218 34.9794C119.341 35.1133 117.765 34.1037 117.012 32.3215C116.369 30.7994 116.17 29.2009 116.182 27.5641C116.189 26.0458 116.224 24.5276 116.537 23.0361C116.549 22.9749 116.549 22.9099 116.56 22.7378C116.404 22.8869 116.308 22.9749 116.216 23.0667C114.208 25.0591 112.162 27.0057 109.868 28.6693C108.747 29.48 107.569 30.1837 106.17 30.3711C105.011 30.5279 103.929 30.2143 102.946 29.6215C101.883 28.9791 101.018 28.1071 100.288 27.0975C99.9283 26.6003 99.5344 26.1261 99.1099 25.6787C98.4598 24.9903 98.0659 24.9635 97.4502 25.6672C96.3985 26.868 95.4042 28.1109 94.3984 29.35C93.3849 30.6006 92.3753 31.8588 91.1209 32.8799C89.9622 33.8245 88.6734 34.2031 87.2163 33.5835C86.3635 33.2241 85.7975 32.5816 85.3959 31.7708C84.7114 30.3941 84.3328 28.9255 84.218 27.4073C84.0459 25.1662 83.9465 22.9175 83.8165 20.6726C83.7897 20.1984 83.7438 19.7242 83.7094 19.2462C83.675 19.2385 83.6367 19.227 83.6023 19.2194C83.2581 19.8695 82.8528 20.5005 82.5736 21.1775C81.4989 23.8124 80.4281 26.4512 79.43 29.1167C78.2062 32.3827 77.0513 35.6716 75.5674 38.8343C75.403 39.1862 75.1888 39.5227 74.9441 39.8248C74.1563 40.8115 73.1696 40.953 71.854 40.5859C71.4295 40.4673 71.1809 40.1117 71.1044 39.6986C70.9935 39.1097 70.94 38.5093 70.8673 37.9127C70.8329 37.6411 70.8138 37.3734 70.787 37.1019C70.7832 36.0082 70.7832 34.9106 70.7832 33.8092ZM119.417 21.1392C121.712 19.9728 124.511 13.9533 123.842 11.609C121.452 14.374 120.255 17.6208 119.417 21.1392Z" fill="#342B1D"/>
</svg>
