<svg width="21" height="22" viewBox="0 0 21 22" fill="none" xmlns="http://www.w3.org/2000/svg">
<path d="M10.9899 0.95006C5.50234 0.950107 1.03 5.42248 1.03 10.9101C1.03 12.6619 1.48865 14.3638 2.34632 15.8669L0.951757 20.9869L0.929015 21.0704L1.01271 21.0484L6.24354 19.6735C7.69644 20.4613 9.32823 20.8801 10.99 20.8801C16.4776 20.8801 20.95 16.4077 20.95 10.9201C20.95 8.25688 19.9148 5.75419 18.0355 3.8748C17.114 2.94405 16.0165 2.20608 14.8068 1.70393C13.5972 1.20178 12.2996 0.945508 10.9899 0.95006ZM10.9899 0.95006C10.9899 0.95006 10.99 0.95006 10.99 0.95006V1.00006L10.9898 0.95006C10.9899 0.95006 10.9899 0.95006 10.9899 0.95006ZM6.47729 17.7717L3.44104 18.5697L4.24824 15.6132L4.25411 15.5917L4.24202 15.573L4.04238 15.2635C4.04232 15.2634 4.04225 15.2633 4.04219 15.2632C3.22503 13.9582 2.79113 12.4498 2.79 10.91C2.79002 6.39766 6.46763 2.72006 10.98 2.72006C13.1667 2.72006 15.2239 3.57477 16.7645 5.1253L16.7647 5.1255C17.5275 5.88479 18.132 6.78794 18.5432 7.78259C18.9544 8.77724 19.164 9.84361 19.16 10.9199L19.16 10.9203C19.1799 15.4324 15.5025 19.1001 10.99 19.1001C9.51913 19.1001 8.078 18.7026 6.8157 17.9572C6.81561 17.9571 6.81552 17.9571 6.81543 17.957L6.51573 17.7772L6.49767 17.7664L6.47729 17.7717ZM13.8389 12.1338L13.839 12.1337L13.8364 12.1328C13.7231 12.0934 13.615 12.0589 13.512 12.0704C13.4036 12.0824 13.3097 12.1435 13.2192 12.2712L13.2187 12.272C13.0506 12.5191 12.5825 13.077 12.4424 13.2371L12.4424 13.2371L12.4414 13.2383C12.3765 13.3171 12.3147 13.3549 12.2455 13.3629C12.1739 13.3712 12.0847 13.349 11.9631 13.2857L11.9631 13.2857L11.9616 13.285C11.9246 13.2672 11.8762 13.2464 11.8175 13.2211C11.4741 13.0734 10.7804 12.7751 9.98332 12.0628L9.98329 12.0628C9.24996 11.4087 8.76339 10.6052 8.61327 10.355C8.54896 10.2399 8.54809 10.1602 8.57081 10.097C8.59519 10.0291 8.6492 9.97159 8.71536 9.90542C8.79192 9.82886 8.88351 9.71817 8.97129 9.61208C9.01159 9.56337 9.05109 9.51562 9.08797 9.4726C9.20191 9.33968 9.25565 9.23156 9.32468 9.09267C9.33121 9.07955 9.33787 9.06615 9.34473 9.05243L9.34525 9.05135C9.43442 8.86187 9.38821 8.70466 9.32473 8.5777C9.26593 8.46011 8.76699 7.24289 8.56643 6.74149L8.56643 6.74149L8.56616 6.74083C8.46383 6.49523 8.35476 6.37749 8.24291 6.32375C8.15775 6.28282 8.07215 6.28199 8.00879 6.28137C7.99192 6.28121 7.97662 6.28106 7.96333 6.28017L7.96334 6.28006H7.96H7.48C7.29837 6.28006 7.02416 6.34431 6.78321 6.60621L6.7832 6.6062L6.78247 6.60703C6.76557 6.62624 6.7461 6.64759 6.72456 6.67122C6.46628 6.95457 5.91 7.56484 5.91 8.71007C5.91 9.33133 6.13631 9.93953 6.37543 10.4102C6.61241 10.8767 6.86417 11.2123 6.92805 11.2975L6.92956 11.2995C6.93478 11.3069 6.94277 11.3186 6.95349 11.3343C7.19315 11.6847 8.79465 14.0266 11.18 15.0559C11.7722 15.3168 12.234 15.4675 12.595 15.5778C13.1951 15.7709 13.7436 15.7401 14.1769 15.6796L14.1772 15.6795C14.4267 15.6432 14.801 15.4894 15.137 15.2734C15.4717 15.0582 15.7813 14.7731 15.8872 14.4667C15.9935 14.1728 16.047 13.9011 16.0648 13.688C16.0738 13.5815 16.0739 13.4887 16.067 13.4147C16.0603 13.343 16.0465 13.2814 16.0222 13.2432C15.9801 13.1771 15.9158 13.1321 15.836 13.0897C15.7882 13.0642 15.7307 13.0377 15.6656 13.0077C15.6239 12.9885 15.5791 12.9678 15.5316 12.945C15.4713 12.916 15.3533 12.8585 15.2059 12.7867C14.7478 12.5635 14.0068 12.2024 13.8389 12.1338Z" fill="#FFC875" stroke="#FFC875" stroke-width="0.1"/>
</svg>
