<svg width="420" height="420" viewBox="0 0 420 420" fill="none" xmlns="http://www.w3.org/2000/svg">
<path d="M278.53 295.296C285.973 298.644 292.214 304.188 296.415 311.185C299.142 316.094 300.755 321.543 301.14 327.145C301.455 329.245 302.26 330.365 304.64 330.015C306.352 329.837 308.048 329.533 309.715 329.106C317.067 326.352 323.437 321.48 328.02 315.106C334.364 306.97 338.941 297.6 341.46 287.596C342.248 283.658 342.751 279.67 342.965 275.66L341.915 275.241C341.268 276.061 340.737 276.968 340.34 277.935C339.675 280.245 339.465 282.66 338.695 284.935C335.195 294.98 331.695 304.955 324.695 312.935C322.035 316.015 318.955 318.71 316.05 321.58L315.245 321.231C312.865 311.851 310.52 302.471 308.245 292.951C312.27 293.266 315.63 293.58 319.025 293.79C319.763 293.864 320.508 293.756 321.195 293.475C321.891 293.034 322.536 292.518 323.12 291.935C322.49 291.375 321.93 290.466 321.23 290.326C317.73 289.556 313.985 288.995 310.38 288.33C305.416 287.716 300.494 286.793 295.645 285.566C287.945 283.221 280.455 280.281 272.895 277.481C267.68 275.521 262.395 273.456 257.355 271.356C256.517 271.074 255.817 270.487 255.395 269.711C252.49 263.656 249.76 257.495 246.855 251.475C244.51 246.575 241.71 241.885 239.505 236.915C236.495 230.125 233.87 223.16 231.07 216.265L231.735 215.88C233.905 217.315 236.04 218.821 238.28 220.151C244.3 223.651 250.355 227.151 256.41 230.651C261.275 233.521 266.175 236.426 271.005 239.366C275.835 242.306 280.385 245.14 285.005 248.01C287.272 248.953 289.393 250.214 291.305 251.755C293.582 254.761 295.652 257.918 297.5 261.205C301.21 266.735 304.815 272.371 308.805 277.691C311.779 281.42 315.019 284.929 318.5 288.191C319.13 288.821 320.845 288.435 322 288.505C321.984 287.449 321.77 286.404 321.37 285.425C319.55 282.8 317.45 280.35 315.56 277.725C309.19 268.905 302.96 260.015 296.52 251.265C294.905 249.19 292.995 247.362 290.85 245.84C287.525 243.32 283.85 241.08 280.35 238.525C284.97 236.321 289.17 234.15 293.51 232.33C295.117 231.665 296.496 230.546 297.478 229.111C298.46 227.675 299.003 225.984 299.04 224.245C299.915 215.565 296.135 208.075 292.46 200.655C292.034 199.544 291.196 198.64 290.12 198.132C289.044 197.623 287.814 197.549 286.685 197.925C284.549 198.622 282.486 199.524 280.525 200.62C272.992 205.159 264.686 208.268 256.025 209.79C253.314 210.383 250.538 210.63 247.765 210.526C245.7 210.351 244.965 210.981 244.825 212.731C244.685 214.481 244.825 215.776 244.825 217.316L244.195 217.806C238.63 213.676 233.1 209.475 227.43 205.52C225.985 204.574 224.292 204.075 222.565 204.086C218.12 204.086 213.675 204.576 209.23 204.89L200.06 205.485L188.09 206.326C186.62 204.821 185.675 203.736 184.59 202.826C183.505 201.916 182.385 201.39 181.37 200.55C176.259 196.011 172.913 189.814 171.92 183.05C171.222 181.302 170.884 179.43 170.926 177.548C170.968 175.666 171.39 173.811 172.165 172.096C170.905 171.676 169.645 170.871 168.665 171.046C162.925 171.956 157.22 173.041 151.515 174.161C148.015 174.861 144.515 175.49 141.015 176.54C139.195 177.1 136.71 176.54 135.695 179.06C133.451 183.661 132.389 188.749 132.603 193.863C132.817 198.977 134.3 203.958 136.92 208.356C134.995 208.356 132.895 208.671 130.795 208.776C130.219 208.829 129.642 208.694 129.15 208.39C127.05 207.061 126.07 208.39 125.405 210C123.34 215.6 121.485 221.306 119.21 226.836C117.34 231.999 114.997 236.979 112.21 241.711C107.24 249.306 101.71 256.375 96.1449 263.655C95.856 263.942 95.6268 264.283 95.4703 264.658C95.3138 265.034 95.2332 265.436 95.2332 265.843C95.2332 266.25 95.3138 266.652 95.4703 267.028C95.6268 267.403 95.856 267.744 96.1449 268.03C99.1723 271.407 103.11 273.837 107.485 275.03C111.72 276.395 116.165 277.201 120.19 278.181V306.53C118.44 310.31 116.69 313.53 115.5 316.82C114.107 320.863 113.651 325.169 114.166 329.413C114.681 333.657 116.155 337.729 118.475 341.321C119.27 342.651 120.288 343.835 121.485 344.821C122.22 345.416 123.515 345.275 124.565 345.451C124.565 344.366 124.88 342.896 124.32 342.196C121.285 338.108 119.432 333.265 118.965 328.195C118.378 323.223 119.379 318.192 121.824 313.823C124.27 309.454 128.035 305.97 132.58 303.87C133.304 303.433 134.134 303.202 134.98 303.204C135.826 303.205 136.655 303.439 137.377 303.88C138.099 304.32 138.686 304.95 139.075 305.702C139.463 306.453 139.638 307.297 139.58 308.14C139.633 312.355 138.57 316.509 136.5 320.18C134.852 323.144 134.024 326.494 134.104 329.885C134.184 333.275 135.169 336.583 136.955 339.465C137.13 339.675 137.34 340.061 137.27 340.236C135.695 342.861 137.62 342.685 139.265 342.79C146.383 343.229 153.489 341.754 159.845 338.52C165.361 335.441 170.668 332.004 175.735 328.231C182.735 323.401 189.735 318.36 196.735 313.53C198.928 312.157 201.278 311.053 203.735 310.241C204.259 310.062 204.817 310.01 205.365 310.089C205.912 310.168 206.433 310.376 206.885 310.695C207.146 311.173 207.303 311.701 207.346 312.244C207.388 312.787 207.314 313.333 207.13 313.846C206.616 315.233 205.871 316.523 204.925 317.66C199.36 324.66 191.52 328.756 183.925 333.201C176.33 337.646 168.875 341.251 161.35 345.241C160.655 345.513 160.049 345.973 159.6 346.571C159.145 347.411 158.55 348.915 158.935 349.335C159.323 349.701 159.79 349.973 160.3 350.131C160.809 350.289 161.348 350.328 161.875 350.245C163.276 349.837 164.635 349.298 165.935 348.636C176.391 344.905 186.274 339.734 195.3 333.27C199.99 329.77 204.68 326.585 209.3 323.33C209.93 322.875 211.225 322.595 211.68 322.945C212.204 323.636 212.454 324.497 212.38 325.36C212.404 326.727 212.132 328.082 211.582 329.332C211.032 330.583 210.218 331.7 209.195 332.606C206.01 335.336 202.755 337.996 199.36 340.446C191.563 346.399 182.515 350.504 172.9 352.451C170.807 352.839 168.764 353.461 166.81 354.305C165.445 354.9 164.115 356.3 165.025 357.805C165.436 358.327 165.973 358.735 166.585 358.992C167.197 359.25 167.865 359.347 168.525 359.275C173.193 358.398 177.748 357.001 182.105 355.111C191.03 350.526 199.605 345.206 208.25 340.305C209.86 339.395 211.54 338.03 214.06 339.395C213.01 341.46 212.1 343.42 211.015 345.31C208.507 349.031 204.967 351.939 200.83 353.676C193.83 357.176 186.445 360.36 179.305 363.755C178.535 364.14 178.08 365.225 177.485 365.96C178.34 366.312 179.256 366.49 180.18 366.486C181.997 366.045 183.776 365.46 185.5 364.736C190.96 362.531 196.455 360.396 201.81 357.946C204.995 356.476 207.97 354.446 211.05 352.696C209.045 356.725 206.082 360.201 202.42 362.819C198.759 365.437 194.512 367.117 190.05 367.71C187.227 368.252 184.376 368.638 181.51 368.866C175.91 369.146 170.31 369.32 164.71 369.18C155.89 368.971 147.49 365.47 138.495 365.96C132.205 366.183 125.97 364.721 120.435 361.725C115.073 359.596 110.451 355.946 107.135 351.225C105.245 348.04 103.635 344.716 101.955 341.426C98.1817 333.442 96.0058 324.799 95.55 315.981C94.9938 308.893 95.8016 301.764 97.93 294.981C98.56 292.916 99.0499 290.815 99.6099 288.75C98.5599 288.75 97.86 288.75 97.545 289.31C96.3175 290.847 95.3482 292.573 94.675 294.421C93.1079 299.535 92.0987 304.804 91.665 310.135C91.669 316.408 92.2665 322.666 93.4499 328.826C95.0458 336.892 97.9924 344.63 102.165 351.716C105.776 358.01 111.564 362.765 118.44 365.085C119.875 365.68 121.485 365.856 122.85 366.591C125.431 367.956 128.272 368.759 131.186 368.946C134.1 369.133 137.021 368.7 139.755 367.676C143.794 370.277 148.408 371.851 153.195 372.261C157.193 372.878 161.226 373.252 165.27 373.38C169.645 373.59 174.02 373.555 178.395 373.38C180.11 373.38 181.895 372.296 183.505 372.051C185.115 371.806 187.775 372.05 189.84 371.77C195.838 371.167 201.525 368.805 206.185 364.98C210.295 360.847 214.064 356.387 217.455 351.645C219.135 349.405 218.295 348.145 215.6 346.71C216.3 344.505 217.14 342.37 217.63 340.165C217.903 339.025 217.728 337.824 217.142 336.808C216.556 335.793 215.604 335.04 214.48 334.705L214.69 334.11H228.725C225.785 336.245 224.245 338.87 225.4 340.83C226.793 342.833 228.363 344.707 230.09 346.43C228.725 347.025 226.94 347.69 225.225 348.6C224.725 348.841 224.284 349.189 223.935 349.62C223.586 350.052 223.337 350.555 223.207 351.094C223.076 351.634 223.067 352.195 223.18 352.738C223.293 353.282 223.525 353.793 223.86 354.236C225.401 356.992 227.745 359.214 230.58 360.605C232.89 361.62 235.13 362.706 237.58 363.826L236.215 364.596C232.225 367.186 231.945 369.776 235.655 372.821C237.322 374.421 239.333 375.619 241.535 376.321C245.595 377.231 249.795 377.475 253.96 378.035C254.695 378.035 255.85 378.386 256.025 378.841C256.724 380.494 257.907 381.898 259.419 382.866C260.931 383.834 262.7 384.322 264.495 384.265C271.332 385.103 278.269 384.188 284.655 381.605C288.132 380.182 291.562 378.642 294.945 376.986C300.522 374.606 305.945 371.882 311.185 368.83C317.063 364.887 322.675 360.561 327.985 355.88C334.142 350.614 339.361 344.342 343.42 337.33C345.66 333.515 347.83 329.631 349.895 325.711C353.37 319.413 355.245 312.358 355.355 305.165C355.201 304.317 354.879 303.508 354.41 302.785L353.71 302.995C353.71 303.38 353.43 303.731 353.36 304.116C352.326 310.351 350.294 316.378 347.34 321.965C344.61 327.04 342.3 332.465 339.115 337.191C334.512 344.083 328.909 350.252 322.49 355.495C313.424 362.599 303.571 368.635 293.125 373.486C286.542 376.79 279.437 378.933 272.125 379.821C268.056 380.529 263.868 379.979 260.12 378.245C264.705 377.16 269.185 375.935 273.735 374.955C279.587 373.918 285.017 371.221 289.38 367.185C289.992 366.453 290.521 365.655 290.955 364.805C289.952 364.805 288.937 364.91 287.91 365.12C287.7 365.12 287.525 365.4 287.315 365.505C284.489 367.196 281.527 368.648 278.46 369.846C273.56 371.386 268.45 372.366 263.445 373.346C257.176 374.851 250.639 374.851 244.37 373.346C242.788 373.138 241.27 372.593 239.917 371.748C238.564 370.903 237.409 369.776 236.53 368.446C240.226 366.701 244.273 365.827 248.36 365.89C253.26 365.89 258.23 366.135 263.13 365.89C271.402 365.264 279.445 362.877 286.72 358.89C287.735 358.365 288.33 357.035 289.52 355.6C288.787 355.523 288.048 355.523 287.315 355.6C284.095 356.615 280.945 357.805 277.725 358.645C272.991 360.131 268.146 361.231 263.235 361.935C258.11 362.221 252.969 362.068 247.87 361.48C242.037 360.996 236.384 359.227 231.315 356.301C229.807 355.192 228.422 353.925 227.185 352.52C228.445 351.82 229.04 351.225 229.705 351.19C233.549 350.605 237.447 350.453 241.325 350.736C250.7 352.302 260.214 352.876 269.71 352.451C273.86 352.123 277.978 351.479 282.03 350.525C282.975 350.315 283.675 348.986 284.48 348.216C283.428 347.917 282.35 347.718 281.26 347.62C276.535 347.62 271.81 348.006 267.26 348.076C258.605 348.199 249.96 347.425 241.465 345.765C237.756 345.014 234.204 343.629 230.965 341.67C230.23 341.25 229.32 339.92 229.53 339.465C229.775 339.024 230.106 338.636 230.503 338.324C230.899 338.012 231.354 337.781 231.84 337.645C237.392 336.665 243.091 336.916 248.535 338.38C253.32 339.609 258.277 340.023 263.2 339.606C265.055 339.361 266.98 339.29 268.835 339.01C271.689 338.809 274.516 338.317 277.27 337.54C279.054 337.19 280.75 336.483 282.253 335.46C283.757 334.438 285.038 333.121 286.02 331.59C286.91 329.69 287.372 327.617 287.372 325.518C287.372 323.419 286.91 321.346 286.02 319.445C284.621 317.143 282.762 315.153 280.56 313.6C277.55 310.905 274.225 308.561 271.25 305.866C268.275 303.171 267.96 300.93 269.57 298.445C270.623 297.14 272.02 296.154 273.602 295.597C275.185 295.041 276.891 294.936 278.53 295.296ZM257.145 220.991L259.28 225.82C254.87 224.875 254.485 224.246 257.145 220.991ZM248.22 215.215C257.098 215.489 265.911 213.616 273.91 209.755C277.999 207.546 281.907 205.018 285.6 202.195C287.735 200.76 289.1 200.9 289.695 203.35C291.48 209.23 293.195 215.111 294.665 221.096C295.89 226.241 294.665 228.095 289.625 230.3C285.74 232.12 281.925 234.045 278.145 236.005C277.646 236.397 277.03 236.61 276.395 236.61C275.76 236.61 275.144 236.397 274.645 236.005C273.035 234.815 271.32 233.8 269.605 232.715C267.438 231.974 265.497 230.69 263.966 228.987C262.434 227.284 261.364 225.218 260.855 222.985C260.789 222.321 260.533 221.69 260.12 221.165C259.07 220.29 257.6 218.785 256.62 219.03C254.894 219.912 253.341 221.098 252.035 222.53C251.277 222.344 250.567 221.999 249.953 221.517C249.339 221.035 248.835 220.427 248.474 219.735C248.113 219.043 247.904 218.282 247.86 217.503C247.816 216.723 247.939 215.944 248.22 215.215ZM177.065 207.165L179.62 205.661L182.56 206.921V207.375L176.05 207.691C174.965 207.691 173.88 207.901 172.795 207.901C171.635 208.07 170.456 208.07 169.295 207.901C168.63 207.726 167.615 206.431 167.755 206.221C168.28 205.311 169.12 204.085 169.995 203.945C172.185 203.79 174.384 203.79 176.575 203.945C176.75 205.24 176.925 206.22 177.065 207.165ZM174.09 200.691C170.59 201.111 166.845 201.251 165.62 206.151L161.105 199.955C165.76 199.955 169.225 198.905 170.24 194.25L174.09 200.691ZM160.615 196.701C160.615 196.386 160.615 196.035 160.335 195.685L166.845 192.816C167.096 193.105 167.274 193.45 167.365 193.823C167.456 194.195 167.457 194.584 167.368 194.956C167.279 195.329 167.103 195.675 166.854 195.966C166.604 196.258 166.29 196.485 165.935 196.63C165.196 197.261 164.259 197.613 163.288 197.626C162.316 197.638 161.371 197.311 160.615 196.701ZM169.015 190.715C169.015 190.715 169.015 190.715 168.735 190.33L158.655 193.55L157.465 190.54C161.28 190.155 165.095 190.26 167.965 186.725C168.28 188.23 168.63 189.455 169.015 190.715ZM157.185 187.776C157.615 186.458 158.44 185.304 159.549 184.471C160.657 183.639 161.995 183.167 163.38 183.12C163.804 183.218 164.202 183.406 164.546 183.672C164.891 183.938 165.174 184.275 165.375 184.661C165.55 185.116 164.71 186.411 164.115 186.586C161.945 187.146 159.705 187.391 157.185 187.776ZM135.835 191.276C136.028 188.655 136.378 186.049 136.885 183.471C137.235 181.336 138.88 180.811 140.77 180.391C148.435 178.746 156.065 176.891 163.765 175.316C164.92 175.071 166.11 174.965 167.265 174.79V181.056C164.95 180.638 162.58 180.638 160.265 181.056C158.305 181.791 156.765 184.031 155.225 185.606L152.985 179.516C152.6 180.881 152.075 181.721 152.215 182.421C152.786 185.716 153.629 188.959 154.735 192.116C156.506 196.51 158.552 200.788 160.86 204.925C162.021 206.408 163.388 207.716 164.92 208.81C164.172 209.154 163.327 209.223 162.533 209.005C161.74 208.788 161.048 208.297 160.58 207.62C158.69 205.24 155.05 205.38 150.99 207.235C149.13 208.027 147.178 208.58 145.18 208.88C143.901 209.068 142.595 208.827 141.468 208.193C140.341 207.56 139.455 206.571 138.95 205.38C136.488 201.11 135.401 196.185 135.835 191.276ZM120.225 273.245C113.127 272.767 106.298 270.345 100.485 266.245C109.632 256.432 117.073 245.159 122.5 232.89C121.777 246.494 121.018 259.945 120.225 273.245ZM225.225 325.221C225.225 327.146 225.225 329.106 225.225 330.961H215.775C216.86 321.161 215.11 318.43 208.39 319.9C208.95 318.535 209.405 317.38 209.895 316.4C211.505 312.9 211.295 310.275 209.23 308.421C208.102 307.272 206.591 306.578 204.985 306.468C203.379 306.359 201.789 306.841 200.515 307.826C190.161 313.549 180.506 320.455 171.745 328.405C168.123 331.412 164.016 333.779 159.6 335.405C154.035 337.47 148.12 338.59 142.345 340.13C141.718 340.344 141.033 340.302 140.437 340.013C139.841 339.725 139.382 339.214 139.16 338.59C138.215 336.661 137.661 334.564 137.528 332.42C137.396 330.276 137.689 328.126 138.39 326.096C139.65 322.036 141.4 318.081 142.24 313.951C142.659 310.972 142.589 307.946 142.03 304.991C141.715 302.681 139.895 301.49 137.585 300.965C135.296 300.214 132.849 300.077 130.491 300.569C128.132 301.06 125.944 302.163 124.145 303.765C124.355 301.14 124.565 299.04 124.635 296.975C125.195 285.635 125.545 274.26 126.245 262.955C126.875 252.735 127.96 242.516 128.555 232.296C128.87 226.976 128.555 221.586 128.555 216.231V213.536C159.46 214.621 189.875 211.855 220.5 208.915C221.13 223.65 221.62 238.805 222.425 253.925C222.845 262.57 223.79 271.181 224.35 279.826C224.735 285.531 224.805 291.306 225.085 297.046C225.085 298.936 225.82 300.79 225.785 302.68C225.82 310.206 225.575 317.765 225.4 325.36L225.225 325.221ZM267.225 309.05C271.574 312.955 276.259 316.468 281.225 319.55C283.08 320.95 284.2 322.245 283.29 324.695C283.094 325.746 282.988 326.812 282.975 327.88C282.65 329.17 281.98 330.347 281.037 331.285C280.093 332.222 278.912 332.884 277.62 333.201C272.165 335.776 266.134 336.886 260.12 336.421C254.975 335.721 249.83 335.09 244.72 334.11C239.772 333.042 234.653 333.042 229.705 334.11C230.198 332.885 230.539 331.604 230.72 330.296C230.965 319.585 231.56 308.876 231.175 298.201C230.72 285.986 229.355 273.7 228.48 261.625C228.165 257.355 228.2 253.05 228.025 248.745C227.675 240.24 227.29 231.735 226.87 222.495C231.134 235.119 236.805 247.224 243.775 258.58C245.28 261.205 246.785 263.866 248.15 266.596C248.745 267.751 248.605 269.465 249.41 270.34C251.15 272.314 253.209 273.982 255.5 275.275C260.19 277.585 265.125 279.44 269.99 281.435C274.225 283.185 278.425 285.111 282.8 286.546C290.01 288.925 297.325 290.99 304.325 293.09C305.095 297.78 305.725 302.89 306.81 307.895C307.895 312.9 309.505 318.01 310.765 323.12C310.82 323.444 310.795 323.776 310.691 324.088C310.587 324.399 310.408 324.68 310.17 324.905C308.595 326.06 306.915 327.005 304.99 328.16C305.523 320.867 303.588 313.606 299.495 307.546C295.545 301.115 289.935 295.868 283.255 292.356C281.059 290.954 278.485 290.259 275.881 290.366C273.278 290.472 270.77 291.374 268.695 292.951C267.311 293.75 266.139 294.87 265.278 296.217C264.418 297.564 263.893 299.097 263.749 300.689C263.605 302.281 263.846 303.884 264.45 305.364C265.055 306.843 266.007 308.156 267.225 309.191V309.05Z" fill="#342B1D"/>
<path d="M298.13 105.419C297.727 105.124 297.26 104.928 296.767 104.848C296.274 104.768 295.769 104.807 295.294 104.961C294.819 105.114 294.387 105.379 294.034 105.733C293.681 106.086 293.418 106.519 293.265 106.994C292.075 106.644 290.92 106.189 289.765 105.909C287.35 105.419 283.745 106.574 283.78 109.899C283.78 111.369 283.15 111.824 281.61 111.649C278.74 111.299 277.235 112.454 277.375 115.149C277.515 117.844 276.465 118.334 274.4 118.649C273.452 118.835 272.593 119.332 271.959 120.061C271.325 120.79 270.952 121.71 270.9 122.674C270.749 123.633 270.345 124.534 269.729 125.284C269.114 126.035 268.31 126.608 267.4 126.944C266.99 127.015 266.601 127.175 266.261 127.414C265.921 127.653 265.639 127.965 265.435 128.327C265.23 128.689 265.109 129.092 265.079 129.507C265.05 129.921 265.113 130.337 265.265 130.724C265.67 132.361 265.471 134.088 264.705 135.589C264.431 136.237 264.289 136.933 264.289 137.637C264.289 138.34 264.431 139.037 264.705 139.684C266.403 141.939 268.288 144.046 270.34 145.984C272.971 148.72 276.122 150.903 279.608 152.406C283.094 153.908 286.844 154.7 290.64 154.734C291.445 154.734 292.705 154.384 292.95 153.824C294.403 150.97 295.575 147.981 296.45 144.899C297.924 138.57 300.457 132.536 303.94 127.049C306.18 123.549 310.17 123.129 314.195 121.764C313.467 123.569 312.847 125.416 312.34 127.294C312.34 127.959 312.62 129.289 313.04 129.429C319.9 131.763 326.771 133.933 333.655 135.939C334.113 136.074 334.595 136.106 335.067 136.033C335.538 135.961 335.988 135.785 336.385 135.519C336.84 135.029 336.665 133.629 336.385 132.824C333.095 125.369 323.4 116.619 312.865 118.649C308.42 119.489 303.66 120.329 301.21 124.739C298.563 129.351 296.225 134.133 294.21 139.054C292.799 143.23 291.63 147.484 290.71 151.794C284.353 150.72 278.35 148.127 273.21 144.234C267.645 140.034 267.19 138.949 269.115 133.734C270.361 134.27 271.648 134.703 272.965 135.029C273.402 135.141 273.858 135.161 274.303 135.089C274.749 135.017 275.175 134.853 275.555 134.609C276.091 134.102 276.499 133.474 276.744 132.777C276.99 132.081 277.066 131.336 276.967 130.604C276.868 129.873 276.596 129.175 276.174 128.569C275.752 127.963 275.192 127.466 274.54 127.119C273.805 126.699 273 126.384 272.23 126.034V125.404L275.73 125.859C275.415 124.949 274.505 124.599 274.4 124.109C274.295 123.619 274.4 121.904 274.82 121.624C276.01 120.889 278.95 123.024 279.195 124.214L276.885 126.524L280.385 127.434L277.235 137.584L278.425 138.214C284.2 127.084 289.205 115.324 301.84 109.864L301.315 109.269L299.53 108.779V108.464L303.695 108.044L302.015 112.874C298.865 112.069 298.025 112.349 297.185 114.589L303.38 116.129C300.16 117.424 298.69 116.934 297.185 114.589C294.35 114.414 295.54 116.129 295.89 117.459L297.92 118.999C298.659 119.014 299.396 119.084 300.125 119.209C303.625 120.014 305.235 118.859 305.62 115.254C306.21 115.511 306.835 115.676 307.475 115.744C308.945 115.744 310.975 115.744 311.675 115.114C312.375 114.484 311.675 112.104 311.675 110.564C311.606 110.136 311.606 109.698 311.675 109.269C311.798 108.874 311.839 108.458 311.798 108.047C311.756 107.635 311.632 107.236 311.432 106.874C311.233 106.511 310.963 106.192 310.638 105.936C310.313 105.681 309.939 105.493 309.54 105.384C307.16 104.334 305.095 104.579 304.045 106.189C309.47 107.519 309.47 107.519 309.785 108.744L306.285 107.519C303.484 107.192 300.741 106.485 298.13 105.419ZM316.4 121.764C319.343 122.031 322.18 122.996 324.676 124.578C327.171 126.161 329.254 128.316 330.75 130.864L314.825 127.364C315.245 125.824 315.805 123.829 316.4 121.764ZM272.405 129.254C273.142 130.043 273.734 130.955 274.155 131.949L273.21 132.929L266.595 130.199C268.66 128.204 270.725 127.854 272.405 129.254ZM287.945 108.639C289.011 108.698 290.068 108.874 291.095 109.164V110.039C290.168 110.449 289.208 110.776 288.225 111.019C287.77 111.019 287.245 110.424 286.755 110.109C287.14 109.619 287.525 108.744 287.945 108.744V108.639ZM284.025 116.549L279.615 115.954C280.665 113.854 282.135 113.994 284.025 116.549ZM282.52 124.179L278.355 118.824C278.6 117.319 278.635 117.319 280.665 118.159C284.165 119.559 285.075 119.419 285.985 117.144C286.142 116.135 286.142 115.108 285.985 114.099C285.985 113.539 285.985 112.804 286.23 112.489C286.482 112.373 286.757 112.313 287.035 112.313C287.313 112.313 287.587 112.373 287.84 112.489C291.13 113.644 291.9 113.189 293.93 110.144C294.49 109.269 296.24 109.234 297.43 108.814L297.675 109.619C290.745 112.769 286.86 119.244 282.52 124.179ZM309.015 113.679L304.92 112.559C306.46 110.704 308.07 111.019 309.015 113.784V113.679Z" fill="#342B1D"/>
<path d="M75.4249 96.1101C84.4681 98.1267 93.8257 98.2934 102.935 96.6001C110.165 95.5692 117.279 93.8462 124.18 91.4551C131.81 88.4101 139.65 85.0151 140.91 74.6901C141.657 69.609 140.801 64.4212 138.46 59.8501C138.294 59.4618 138.043 59.1161 137.724 58.8387C137.406 58.5614 137.029 58.3596 136.622 58.2485C136.214 58.1375 135.787 58.12 135.372 58.1973C134.957 58.2746 134.565 58.4448 134.225 58.6951C131.635 60.1651 129.01 61.5651 126.56 63.2101C121.092 67.1355 114.927 69.9861 108.395 71.6101C99.0086 74.1009 89.336 75.3482 79.625 75.3201C78.1324 75.362 76.6458 75.5259 75.1799 75.8101C75.1799 76.1951 75.1799 76.5801 75.1799 76.9651C83.7283 77.6136 92.3226 77.2965 100.8 76.0201L110.18 74.5851L111.685 79.8351L110.005 80.3601C109.669 78.8199 109.09 77.3431 108.29 75.9851C107.415 74.9701 105.315 77.3851 105.84 79.0301C106.015 79.6251 106.295 80.1851 106.645 81.0251H104.3C104.125 78.0151 102.935 76.3351 100.8 75.9151C100.8 77.7351 101.185 79.4151 101.36 81.4451H100.38C99.505 79.8001 98.9098 77.4201 98.0698 77.3151C95.0248 77.0001 94.885 79.4851 95.13 81.8651L92.75 82.0751C92.505 80.8851 92.7498 79.4501 91.9448 78.9251C91.4883 78.6769 90.977 78.547 90.4574 78.547C89.9378 78.547 89.4265 78.6769 88.9699 78.9251C88.2574 80.2742 87.7614 81.727 87.5 83.2301L81.7249 82.7051C81.4099 80.8851 81.1999 79.5901 80.8849 78.2951C80.5429 78.1898 80.1771 78.1898 79.835 78.2951C79.31 79.4501 78.9249 80.6751 78.4349 82.1101H75.8099C78.1899 79.3451 78.19 79.3451 76.58 77.7001C76.16 78.1901 75.7748 78.6801 75.3198 79.1351C74.8648 79.5901 73.6748 80.4651 73.7798 80.8501C74.1298 81.9701 74.2348 83.3001 75.9498 83.7551C81.3862 85.2174 87.0431 85.6799 92.6449 85.1201C99.0956 84.4903 105.494 83.4026 111.79 81.8651C117.013 80.2612 122.142 78.3682 127.155 76.1951L127.575 75.7401C127.33 75.4251 126.98 74.7601 126.84 74.7951C125.747 75.0815 124.672 75.4321 123.62 75.8451C123.095 71.8551 122.71 71.4701 119.315 71.6451C118.985 72.0641 118.745 72.5471 118.612 73.0636C118.478 73.58 118.453 74.1186 118.539 74.6451C118.625 75.1716 118.819 75.6746 119.109 76.1222C119.399 76.5697 119.779 76.9521 120.225 77.2451L116.06 78.5751C116.245 78.0709 116.311 77.531 116.253 76.9972C116.196 76.4633 116.017 75.9498 115.729 75.4964C115.441 75.043 115.053 74.6618 114.595 74.3824C114.136 74.103 113.62 73.9328 113.085 73.8851L119.21 71.6451H119.455L124.005 68.6351C125.44 72.7301 126.105 73.6751 127.505 73.2901C127.971 73.1224 128.395 72.858 128.751 72.5141C129.107 72.1702 129.386 71.7547 129.57 71.2951C129.675 70.6829 129.651 70.0557 129.5 69.4531C129.35 68.8506 129.075 68.286 128.695 67.7951C128.065 67.1651 126.525 67.5501 125.37 67.4801L125.195 66.9551L135.695 60.3751C136.115 61.1451 136.29 61.5301 136.5 61.8801C139.615 67.1651 137.515 72.9051 137.795 78.4351C137.795 78.6101 137.55 78.8901 137.375 79.0301C134.52 81.6409 131.386 83.9297 128.03 85.8551C121.372 88.7667 114.547 91.2795 107.59 93.3801C103.688 94.6549 99.6192 95.3506 95.5149 95.4451C89.5328 95.2918 83.563 94.8246 77.63 94.0451C73.5253 93.4771 69.6145 91.9415 66.2199 89.5651L72.59 77.6301L71.9249 77.1051C71.4699 77.1051 70.805 77.1051 70.63 77.4901C68.5019 80.3019 66.5946 83.2741 64.9249 86.3801C64.463 87.1744 64.2841 88.1019 64.4176 89.0111C64.5511 89.9202 64.989 90.7571 65.6598 91.3851C68.4528 93.7759 71.8169 95.4036 75.4249 96.1101Z" fill="#342B1D"/>
<path d="M119.07 71.7504H118.825C118.825 71.7504 119.105 71.6803 119.07 71.7504Z" fill="#342B1D"/>
<path d="M229.635 78.4355C232.245 79.371 234.925 80.0967 237.65 80.6056C241.99 81.4106 246.4 81.9705 250.775 82.5305L275.03 85.5405V85.1555H277.025C278.726 85.4299 280.47 85.2508 282.08 84.6363C283.69 84.0218 285.109 82.9936 286.195 81.6555C289.17 77.3155 292.075 72.9055 294.945 68.5305C295.469 67.7871 295.86 66.958 296.1 66.0805C296.415 64.3655 296.1 63.0005 293.895 63.0705C291.69 63.1405 289.94 63.4206 287.98 63.4906C286.279 63.7591 284.543 63.6877 282.87 63.2805C282.128 62.8603 281.29 62.6394 280.438 62.6394C279.585 62.6394 278.747 62.8603 278.005 63.2805C276.599 64.2943 274.909 64.8399 273.175 64.8399C271.441 64.8399 269.751 64.2943 268.345 63.2805C267.704 62.9289 266.974 62.7709 266.245 62.8256C261.892 63.0662 257.528 62.9726 253.19 62.5456C251.379 62.112 249.493 62.0947 247.675 62.4948C245.856 62.8949 244.152 63.702 242.69 64.8556C238.28 68.3556 233.975 72.0655 229.635 75.7755C228.725 76.5455 227.885 77.8055 229.635 78.4355ZM278.95 66.1855C279.51 65.8355 280.42 66.1855 281.155 66.1855C280.98 66.8855 280.98 67.7605 280.56 68.2155C277.69 71.1905 274.75 74.0955 271.845 77.0005L271.18 76.3705C272.821 72.3465 275.502 68.8313 278.95 66.1855ZM268.205 65.2055C265.825 68.1105 263.865 70.5255 261.835 72.8705C261.399 73.6321 260.693 74.2023 259.857 74.4681C259.021 74.7338 258.115 74.6758 257.32 74.3056C257.335 73.0532 257.725 71.834 258.44 70.8056C259.479 69.1387 260.915 67.755 262.618 66.7779C264.322 65.8008 266.242 65.2606 268.205 65.2055ZM253.505 66.0105C252 71.2605 249.69 73.4305 246.225 73.0105C246.881 71.3991 247.868 69.9434 249.122 68.7375C250.376 67.5317 251.869 66.6026 253.505 66.0105ZM248.885 64.1205L249.27 64.6105C247.61 66.4859 246.068 68.4613 244.65 70.5255C244.341 71.1004 244.154 71.7325 244.1 72.3828C244.045 73.0331 244.126 73.6875 244.335 74.3056C244.965 75.7406 246.26 76.2655 248.255 75.8105C252.35 74.8655 253.855 71.5405 255.815 68.5305C256.525 67.2588 257.168 65.9503 257.74 64.6105L260.715 65.0656C258.93 67.2356 257.215 69.1605 255.71 71.1555C254.73 72.4155 253.715 73.7105 254.87 75.3905C255.364 76.0774 256.09 76.5622 256.913 76.7552C257.737 76.9483 258.602 76.8365 259.35 76.4406C261.78 75.7391 263.996 74.4391 265.793 72.6597C267.591 70.8804 268.914 68.6784 269.64 66.2555H273.84C272.23 68.6355 270.725 70.7356 269.36 72.9406C268.415 74.4806 267.33 76.1956 268.8 77.9106C269.682 78.5309 270.749 78.831 271.825 78.7609C272.901 78.6909 273.921 78.255 274.715 77.5255C277.445 75.0755 280.105 72.5905 282.625 69.9655C283.455 68.8885 284.149 67.7129 284.69 66.4655L294.28 65.9406C292.845 67.8656 291.655 69.4405 290.535 70.9455C288.33 73.9905 285.985 77.0005 283.955 80.1855C283.346 81.2884 282.381 82.1521 281.217 82.6353C280.054 83.1185 278.761 83.1926 277.55 82.8456C269.745 81.6206 261.905 80.8505 254.065 79.7655C249.515 79.1705 245 78.3305 240.45 77.6655C238.875 77.4555 237.3 77.4556 235.76 77.3156C234.612 77.2342 233.503 76.8607 232.54 76.2306L248.885 64.1205Z" fill="#342B1D"/>
<path d="M185.465 159.39C188.725 162.796 193.179 164.803 197.89 164.99C199.535 164.71 201.39 164.5 203.07 164.045C208.82 162.57 214.189 159.885 218.82 156.17C220.274 155.227 221.519 153.994 222.476 152.549C223.433 151.104 224.083 149.477 224.385 147.77C224.7 144.102 224.7 140.414 224.385 136.745C223.619 127.339 221.607 118.076 218.4 109.2C217.969 107.798 217.255 106.499 216.3 105.385C215.985 105.035 214.41 106.015 213.36 106.225C208.11 107.38 202.86 108.5 197.505 109.725C196.603 109.804 195.758 110.198 195.118 110.838C194.478 111.478 194.084 112.324 194.005 113.225C192.85 120.435 191.8 127.715 190.225 134.82C188.65 141.925 186.725 148.295 184.73 154.98C184.441 155.713 184.356 156.51 184.486 157.287C184.615 158.064 184.954 158.791 185.465 159.39ZM196.14 113.89L215.46 108.885C216.72 114.625 218.33 120.61 219.275 126.7C220.29 133.35 220.64 140.14 221.445 146.86C221.525 147.972 221.276 149.084 220.728 150.055C220.18 151.026 219.358 151.814 218.365 152.32C214 155.509 209.172 158.012 204.05 159.74C201.654 160.758 199.036 161.141 196.449 160.853C193.862 160.565 191.393 159.615 189.28 158.095C188.492 157.57 187.661 157.114 186.795 156.73C193.725 142.905 195.23 128.17 196.14 113.89Z" fill="#342B1D"/>
<path d="M309.645 185.745C311.981 184.053 314.181 182.18 316.225 180.145C321.65 174.3 326.095 167.86 325.64 159.425C325.596 157.441 325.013 155.506 323.952 153.829C322.891 152.151 321.394 150.795 319.62 149.905C318.001 149.162 316.191 148.941 314.441 149.273C312.691 149.606 311.088 150.475 309.855 151.76C307.209 153.758 304.853 156.114 302.855 158.76C298.68 163.989 296.136 170.33 295.54 176.995C296.016 178.729 296.589 180.435 297.255 182.105C297.713 183.263 298.429 184.3 299.349 185.14C300.268 185.979 301.367 186.598 302.562 186.949C303.756 187.3 305.015 187.374 306.242 187.165C307.47 186.956 308.633 186.471 309.645 185.745ZM321.02 154.945C321.955 156.39 322.521 158.043 322.668 159.758C322.814 161.473 322.537 163.197 321.86 164.78C319.152 171.447 314.849 177.347 309.33 181.965C308.63 182.525 307.895 182.98 307.16 183.47C302.015 174.93 312.235 158.865 321.02 154.98V154.945ZM300.895 170.87C303.28 166.274 305.97 161.843 308.945 157.605C310.819 155.407 313.387 153.913 316.225 153.37C313.67 156.17 310.835 158.83 308.525 161.91C305.025 166.53 301.875 171.395 302.26 177.52C302.571 179.623 303.062 181.696 303.73 183.715C302.473 183.298 301.398 182.462 300.685 181.347C299.971 180.232 299.662 178.905 299.81 177.59C299.619 175.306 299.992 173.011 300.895 170.905V170.87Z" fill="#342B1D"/>
<path d="M157.08 111.581L163.275 110.461V110.706C164.064 110.57 164.837 110.359 165.585 110.076C169.365 108.046 173.215 106.191 176.785 103.846C179.624 101.895 182.273 99.68 184.695 97.2307C188.475 93.4857 186.025 84.0357 180.88 81.2357C178.463 80.1868 175.765 79.9774 173.215 80.6407C167.861 80.9735 162.677 82.6566 158.148 85.533C153.62 88.4093 149.893 92.3854 147.315 97.0907C146.331 98.5219 145.776 100.204 145.714 101.94C145.652 103.675 146.086 105.393 146.965 106.891C147.924 108.655 149.425 110.065 151.247 110.909C153.069 111.754 155.114 111.99 157.08 111.581ZM183.925 88.7957C184.485 90.6507 185.185 92.6457 183.505 94.3257C181.825 96.0057 180.25 97.3356 178.535 98.7706C172.601 103.452 165.814 106.935 158.55 109.026C157.25 109.515 155.833 109.607 154.481 109.289C153.128 108.972 151.901 108.258 150.955 107.241C154.782 102.755 158.848 98.4789 163.135 94.4307C165.628 91.9477 168.643 90.0527 171.961 88.884C175.28 87.7153 178.817 87.3025 182.315 87.6756C182.649 87.7328 182.967 87.8628 183.245 88.0563C183.523 88.2499 183.755 88.5023 183.925 88.7957ZM149.94 99.2957C152.981 94.7584 156.985 90.9465 161.665 88.1307C166.358 85.1127 171.647 83.1429 177.17 82.3557C179.725 81.9357 181.02 83.6507 182.7 85.6807C179.345 84.8515 175.831 84.9161 172.509 85.8679C169.187 86.8198 166.172 88.6257 163.765 91.1057C158.795 95.5157 154.315 100.451 149.485 105.106C149.057 104.161 148.874 103.124 148.954 102.09C149.033 101.056 149.373 100.059 149.94 99.1907V99.2957Z" fill="#342B1D"/>
<path d="M323.015 95.1656C323.9 96.494 325.1 97.5831 326.507 98.3365C327.915 99.0898 329.486 99.484 331.082 99.484C332.679 99.484 334.25 99.0898 335.658 98.3365C337.065 97.5831 338.265 96.494 339.15 95.1656C340.843 92.0865 341.879 88.6902 342.195 85.1907C343.069 80.8814 342.201 76.4012 339.78 72.7307C338.73 71.1207 337.645 69.5807 336.63 67.9707C333.805 63.1553 329.227 59.6187 323.855 58.1006C322.526 57.5398 321.034 57.5063 319.681 58.007C318.329 58.5076 317.218 59.5048 316.575 60.7957C319.195 60.0349 321.984 60.0895 324.573 60.9522C327.161 61.815 329.425 63.445 331.065 65.6256C333.367 68.5115 335.34 71.6461 336.945 74.9707C338.27 77.1478 339.105 79.5882 339.389 82.1213C339.673 84.6543 339.4 87.2189 338.59 89.6356C338.227 91.1467 337.533 92.5584 336.559 93.7689C335.585 94.9794 334.354 95.9585 332.955 96.6356C334.113 94.7622 334.877 92.673 335.202 90.4949C335.527 88.3168 335.405 86.0953 334.845 83.9656C333.878 78.4989 331.307 73.4431 327.46 69.4407C324.31 66.1507 321.265 62.4406 315.805 63.2806C314.44 63.2806 313.985 63.7706 313.67 64.9256C313.16 68.4514 313.483 72.0476 314.615 75.4256C315.783 82.5865 318.665 89.3588 323.015 95.1656ZM326.515 71.9256C329.068 74.9706 330.832 78.5977 331.65 82.4863C332.468 86.3749 332.315 90.4051 331.205 94.2207C331.133 94.6258 331.133 95.0405 331.205 95.4456C331.277 95.8316 331.394 96.2076 331.555 96.5657C327.39 96.8107 325.255 93.9056 323.26 91.1756C320.017 85.9387 317.807 80.129 316.75 74.0606C316.085 71.5406 315.49 68.9507 314.825 66.2207C317.135 66.0361 319.454 66.4667 321.544 67.4688C323.634 68.4708 325.422 70.0086 326.725 71.9256H326.515Z" fill="#342B1D"/>
<path d="M215.285 164.746C214.369 166.327 214.025 168.174 214.312 169.979C214.599 171.783 215.499 173.433 216.86 174.651C221.338 177.369 226.614 178.469 231.805 177.766C232.678 177.535 233.515 177.181 234.29 176.716C234.307 176.401 234.307 176.086 234.29 175.771C231.214 175.999 228.126 175.999 225.05 175.771C219.17 174.861 218.05 174.126 216.93 172.026C222.758 174.064 229.057 174.345 235.043 172.833C241.029 171.321 246.439 168.083 250.6 163.521C250.247 164.725 249.79 165.896 249.235 167.021C245.735 171.781 240.555 173.601 235.585 175.946L235.795 176.716C237.794 176.438 239.771 176.017 241.71 175.456C243.806 174.855 245.759 173.839 247.455 172.468C249.15 171.097 250.553 169.4 251.58 167.476C253.295 163.976 251.58 161.876 250.53 159.181C249.615 157.577 248.355 156.196 246.842 155.137C245.329 154.077 243.6 153.367 241.78 153.056C237.853 153.244 233.986 154.084 230.335 155.541C224.418 156.811 219.11 160.057 215.285 164.746ZM241.185 154.701C242.38 154.732 243.562 154.956 244.685 155.366C249.865 158.446 249.83 160.301 245.175 163.941C239.979 168.068 233.605 170.433 226.975 170.696C224.092 170.592 221.234 170.122 218.47 169.296C217 168.911 216.16 167.861 217.49 166.356C223.617 159.613 232.099 155.478 241.185 154.806V154.701Z" fill="#342B1D"/>
<path d="M107.66 145.496C108.293 144.123 108.565 142.611 108.448 141.104C108.332 139.597 107.832 138.145 106.995 136.886C103.985 130.271 93.2752 126.386 87.2552 127.156C81.9702 127.821 77.4202 132.301 81.3052 138.531C83.203 141.523 85.7734 144.03 88.8116 145.853C91.8499 147.676 95.272 148.764 98.8051 149.031C102.725 148.961 105.875 148.576 107.66 145.496ZM88.2 141.051C86.87 139.266 85.3652 137.551 84.1752 135.661C83.9423 135.317 83.7857 134.928 83.7161 134.518C83.6465 134.109 83.6655 133.69 83.7716 133.288C83.8778 132.887 84.0685 132.513 84.3313 132.192C84.5941 131.871 84.9229 131.609 85.2952 131.426C88.3052 129.396 90.9651 129.431 95.4801 131.916C91.6301 133.911 88.515 136.116 88.2 141.051ZM92.995 138.496C93.5601 137.391 94.3717 136.432 95.3671 135.691C96.3625 134.951 97.5148 134.449 98.7351 134.226C98.9513 134.156 99.1839 134.156 99.4001 134.226C102.128 136.095 104.178 138.796 105.245 141.926C105.245 144.306 103.74 145.426 100.38 145.706C98.8052 145.356 97.2301 145.041 95.6551 144.586C95.0798 144.362 94.5546 144.026 94.1093 143.598C93.664 143.17 93.3075 142.659 93.0604 142.093C92.8133 141.527 92.6802 140.918 92.669 140.301C92.6578 139.684 92.7686 139.07 92.995 138.496Z" fill="#342B1D"/>
<path d="M252.21 175.245C250.74 177.695 251.615 179.795 252.21 182.245C253.953 188.838 257.606 194.768 262.71 199.29C264.246 200.745 266.266 201.58 268.38 201.635C271.88 201.635 273.455 198.73 273.91 193.795C273.248 190.428 272.407 187.098 271.39 183.82C270.635 181.323 269.38 179.005 267.701 177.007C266.023 175.01 263.956 173.374 261.625 172.2C260.817 171.737 259.921 171.448 258.994 171.351C258.067 171.255 257.13 171.353 256.244 171.64C255.357 171.927 254.541 172.395 253.846 173.016C253.151 173.637 252.594 174.397 252.21 175.245ZM270.27 194.075C270.313 194.796 270.181 195.517 269.885 196.175C268.695 199.255 268.17 199.465 265.58 197.47C263.83 196.14 262.29 194.53 260.365 192.815C263.585 190.505 262.885 185.115 268.555 185.255C269.115 188.055 269.745 190.995 270.27 193.97V194.075ZM256.725 175.56C258.606 175.446 260.48 175.884 262.115 176.82C263.741 178.103 265.199 179.585 266.455 181.23C262.01 182.175 260.33 185.395 258.825 189.315C256.167 186.331 254.611 182.527 254.415 178.535C254.45 177.485 255.885 175.63 256.725 175.56Z" fill="#342B1D"/>
<path d="M197.225 198.311C199.157 197.287 200.897 195.937 202.37 194.321C207.386 189.359 210.422 182.74 210.91 175.701C210.91 174.896 210.91 174.056 210.91 173.216C210.56 169.191 208.285 167.476 204.785 169.191C201.71 170.689 198.897 172.675 196.455 175.071C194.295 177.729 192.308 180.523 190.505 183.436C189.05 185.087 188.179 187.171 188.027 189.366C187.875 191.562 188.451 193.746 189.665 195.581C189.962 196.274 190.397 196.899 190.946 197.417C191.494 197.934 192.143 198.334 192.852 198.59C193.561 198.846 194.315 198.953 195.067 198.905C195.82 198.857 196.554 198.655 197.225 198.311ZM204.225 172.971C204.995 172.341 206.955 171.886 207.235 172.271C208.02 173.262 208.407 174.51 208.32 175.771C207.935 178.501 207.13 181.161 206.36 184.311C203.77 181.266 203.77 181.266 196.21 179.936C199.185 177.381 201.635 175.246 204.225 172.971ZM193.97 185.221C194.204 184.875 194.509 184.583 194.865 184.366C195.222 184.148 195.621 184.01 196.035 183.961C197.363 183.856 198.697 183.856 200.025 183.961C200.726 183.914 201.423 184.093 202.015 184.47C202.607 184.848 203.063 185.406 203.315 186.061C203.661 186.659 203.79 187.357 203.682 188.039C203.573 188.721 203.234 189.345 202.72 189.806C200.34 192.466 198.59 195.896 194.285 196.421C191.24 192.746 192.325 188.896 194.005 185.221H193.97Z" fill="#342B1D"/>
<path d="M162.75 164.955C163.726 165.146 164.738 165 165.621 164.543C166.505 164.085 167.207 163.343 167.615 162.435C168.476 160.602 168.838 158.574 168.665 156.555C167.408 149.222 163.81 142.493 158.41 137.375C157.657 136.492 156.727 135.777 155.68 135.275C154.175 134.68 152.18 133.735 150.99 134.295C150.331 134.801 149.784 135.439 149.387 136.168C148.989 136.898 148.748 137.702 148.68 138.53C148.231 146.064 150.139 153.551 154.14 159.95C154.937 161.528 156.175 162.841 157.703 163.729C159.231 164.618 160.985 165.044 162.75 164.955ZM164.92 152.46C165.48 154.07 165.865 155.75 166.145 156.66C166.145 161.77 163.555 163.1 159.775 160.93C158.523 160.173 157.447 159.157 156.62 157.95C155.793 156.742 155.234 155.372 154.98 153.93C154.77 153.02 155.82 151.585 156.59 150.71C157.125 149.993 157.854 149.444 158.691 149.127C159.528 148.811 160.438 148.74 161.314 148.924C162.19 149.108 162.995 149.539 163.634 150.165C164.273 150.792 164.719 151.588 164.92 152.46ZM152.915 149.73C152.53 145.6 152.18 141.47 151.76 136.675C157.08 138.495 159.355 142.17 162.26 146.195C160.629 145.812 158.919 145.942 157.365 146.569C155.811 147.196 154.489 148.288 153.58 149.695L152.915 149.73Z" fill="#342B1D"/>
<path d="M203.56 64.4004C207.06 65.1354 208.495 64.4004 210.945 60.6554C211.225 60.2354 211.61 59.9204 211.855 59.5004C215.88 53.0254 217.665 46.2704 214.025 38.9904C211.645 34.1954 208.46 33.6354 205.135 37.8004C200.854 42.625 198.488 48.8504 198.485 55.3004C198.485 55.9654 198.485 56.6304 198.485 57.2604C198.43 58.8426 198.897 60.3991 199.814 61.6895C200.731 62.9799 202.047 63.9326 203.56 64.4004ZM207.795 39.0604C208.67 37.8704 209.65 37.9404 210.665 39.0604C212.391 41.6349 213.181 44.7233 212.905 47.8104L204.085 44.3104C205.135 42.9104 206.395 40.9154 207.725 39.0604H207.795ZM207.2 48.2304C208.001 48.1597 208.808 48.2873 209.548 48.6021C210.288 48.9168 210.94 49.409 211.445 50.0351C211.95 50.6612 212.293 51.4019 212.444 52.192C212.595 52.9821 212.549 53.7973 212.31 54.5654C212.051 56.2315 211.419 57.8176 210.462 59.2054C209.504 60.5932 208.245 61.7468 206.78 62.5804C205.45 63.2804 204.19 63.5604 203.49 61.9504C202.475 59.6054 201.67 57.1904 200.76 54.9504L201.46 54.7054C201.11 49.8404 201.915 48.2304 207.2 48.2304Z" fill="#342B1D"/>
<path d="M254.275 95.6204C253.448 95.5501 252.617 95.5501 251.79 95.6204L251.545 94.9204C248.92 95.9004 246.225 96.7404 243.67 97.9304C242.093 98.7581 240.604 99.7431 239.225 100.87C237.182 102.322 235.24 103.912 233.415 105.63C232.654 106.22 232.126 107.061 231.927 108.004C231.728 108.946 231.871 109.928 232.33 110.775C232.941 111.737 233.851 112.471 234.92 112.863C235.989 113.255 237.158 113.284 238.245 112.945C242.97 111.545 247.555 109.83 252.245 108.01C253.545 107.459 254.72 106.651 255.7 105.634C256.681 104.618 257.446 103.414 257.95 102.095C258.28 101.437 258.443 100.708 258.424 99.9725C258.405 99.2367 258.204 98.517 257.841 97.8768C257.478 97.2367 256.962 96.696 256.34 96.3024C255.719 95.9089 255.009 95.6746 254.275 95.6204ZM233.485 109.095L240.485 101.64L246.68 106.995C242.095 110.705 237.37 111.51 233.485 109.095ZM253.855 102.095C252.21 103.775 250.355 105.21 248.045 107.135C248.023 105.663 247.518 104.239 246.607 103.082C245.696 101.924 244.431 101.098 243.005 100.73V100.03C245.875 99.3304 248.71 98.4904 251.65 98.0704C252.203 98.0641 252.749 98.1801 253.252 98.41C253.754 98.64 254.199 98.9782 254.555 99.4004C255.045 99.9954 254.485 101.745 253.855 102.235V102.095Z" fill="#342B1D"/>
<path d="M284.935 137.061C280.105 137.061 278.495 139.651 280.385 142.906C281.101 144.092 282.139 145.051 283.378 145.67C284.617 146.29 286.007 146.545 287.385 146.406C288.16 146.271 288.896 145.97 289.543 145.522C290.189 145.075 290.731 144.493 291.13 143.816C291.454 143.044 291.491 142.182 291.234 141.386C290.977 140.59 290.444 139.912 289.73 139.476C288.19 138.56 286.588 137.753 284.935 137.061ZM287.525 143.431C286.345 143.582 285.152 143.269 284.198 142.557C283.245 141.845 282.606 140.79 282.415 139.616C284.515 140.141 286.23 140.526 287.91 141.086C288.137 141.228 288.326 141.423 288.46 141.655C288.594 141.887 288.67 142.148 288.68 142.416C288.576 142.66 288.417 142.878 288.218 143.054C288.018 143.229 287.781 143.358 287.525 143.431Z" fill="#342B1D"/>
<path d="M295.225 132.441C295.645 130.096 294.245 128.766 292.355 127.786C291.83 127.506 291.375 127.156 290.85 126.911C288.26 125.581 286.685 127.681 284.97 128.906C284.41 129.291 284.27 130.691 284.41 131.566C285 132.592 285.807 133.477 286.774 134.16C287.741 134.843 288.845 135.307 290.01 135.521C292.215 135.556 294.875 134.051 295.225 132.441ZM286.825 130.411C288.4 128.556 290.325 128.941 292.355 131.671C289.87 133.246 288.575 132.966 286.755 130.411H286.825Z" fill="#342B1D"/>
<path d="M295.68 117.53H294.175C292.39 117.53 289.415 120.295 289.87 121.695C290.633 123.139 291.695 124.404 292.985 125.405C293.481 125.715 294.047 125.895 294.63 125.93C295.519 126.164 296.461 126.078 297.292 125.688C298.124 125.298 298.792 124.628 299.18 123.795C299.6 122.85 298.76 121.275 298.445 120.015C298.445 119.665 297.955 119.385 297.71 119.035L295.68 117.53ZM296.45 123.27L292.53 122.22C292.53 121.765 292.775 121.31 292.915 120.82L296.8 122.08L296.45 123.27Z" fill="#342B1D"/>
<path d="M295.68 117.53L297.71 119.07L295.68 117.53Z" fill="#342B1D"/>
<path d="M318.29 117.354C319.83 117.354 321.09 115.709 321.055 113.679C321.02 111.649 317.555 109.584 315 109.584C313.075 109.339 313.11 110.739 313.145 112.139C313.437 113.399 314.073 114.553 314.981 115.474C315.889 116.394 317.035 117.045 318.29 117.354ZM315.14 111.719L319.76 114.239L319.305 115.114L314.58 112.559L315.14 111.719Z" fill="#342B1D"/>
<path d="M133.77 70.2448L136.955 66.7448C135.52 65.4848 134.54 64.0148 133.455 63.9098C132.37 63.8048 130.2 64.8198 130.76 66.6048C131.32 68.3898 132.72 68.9848 133.77 70.2448Z" fill="#342B1D"/>
<path d="M133.315 77.8753C133.707 77.8817 134.096 77.8057 134.457 77.6521C134.818 77.4985 135.143 77.2708 135.41 76.9837C135.678 76.6966 135.881 76.3566 136.009 75.9856C136.136 75.6147 136.185 75.2211 136.15 74.8304C136.15 72.9754 135.135 71.7504 133.595 71.8554C132.055 71.9604 131.635 73.2904 130.095 74.4804C131.53 76.0554 132.37 77.8403 133.315 77.8753Z" fill="#342B1D"/>
<path d="M122.185 81.2706C122.211 81.6976 122.323 82.1148 122.515 82.4968C122.708 82.8788 122.976 83.2177 123.303 83.4928C123.631 83.7679 124.011 83.9734 124.42 84.0968C124.83 84.2203 125.26 84.259 125.685 84.2107C127.61 83.7207 127.75 82.3557 127.12 80.7107C127.12 80.4307 127.12 80.1157 126.875 79.8357C126.14 79.2757 125.3 78.1907 124.705 78.2957C123.375 78.6107 121.87 79.2406 122.185 81.2706Z" fill="#342B1D"/>
<path d="M113.645 87.9561C113.91 87.5757 114.097 87.1464 114.195 86.6931C114.293 86.2399 114.299 85.7718 114.215 85.3159C114.13 84.86 113.956 84.4254 113.702 84.0375C113.448 83.6496 113.119 83.316 112.735 83.0562C111.892 83.6231 111.085 84.2426 110.32 84.9111C110.049 85.1424 109.835 85.4334 109.695 85.7612C109.554 86.089 109.492 86.4449 109.513 86.8008C109.533 87.1567 109.635 87.5031 109.812 87.8128C109.988 88.1226 110.234 88.3873 110.53 88.5862C111.79 89.8462 112.805 88.9011 113.645 87.9561Z" fill="#342B1D"/>
<path d="M106.225 84.2456C104.09 84.2456 104.195 86.1706 104.195 87.5006C104.195 88.2006 105.245 88.9706 105.805 89.7056L109.305 86.6256C107.905 85.4006 107.17 84.2456 106.225 84.2456Z" fill="#342B1D"/>
<path d="M121.87 84.2456L119.455 80.7456C118.685 81.7256 117.32 82.7756 117.355 83.7206C117.39 84.6656 118.86 85.6106 119.7 86.5556L121.87 84.2456Z" fill="#342B1D"/>
<path d="M126.98 79.8354C128.73 81.9354 130.025 82.1804 130.69 80.5704C130.863 79.5233 130.65 78.4489 130.089 77.5474C129.529 76.6459 128.661 75.9788 127.645 75.6704L127.225 76.1254C127.225 77.2454 127.225 78.6104 126.98 79.8354Z" fill="#342B1D"/>
<path d="M126.945 79.834L126.98 79.869L126.945 79.834Z" fill="#342B1D"/>
<path d="M101.115 88.8306C101.43 87.3956 101.57 85.7856 98.9798 85.1206C98.3779 86.2327 97.8969 87.4061 97.5449 88.6206C97.5449 88.9706 98.7348 89.8806 99.4348 89.9506C99.7873 89.9234 100.127 89.8061 100.421 89.6099C100.715 89.4138 100.954 89.1455 101.115 88.8306Z" fill="#342B1D"/>
<path d="M329.175 119.034C328.937 119.051 328.706 119.127 328.504 119.255C328.303 119.383 328.136 119.56 328.02 119.769C327.81 120.749 330.75 124.214 331.905 124.424C332.066 123.354 331.889 122.259 331.4 121.294C330.911 120.328 330.133 119.538 329.175 119.034Z" fill="#342B1D"/>
<path d="M322.525 114.554L327.11 118.789C326.942 117.851 326.558 116.964 325.99 116.199C324.927 115.375 323.748 114.714 322.49 114.239L322.525 114.554Z" fill="#342B1D"/>
<path d="M175.07 306.109C171.22 306.459 167.405 307.299 163.59 307.544C159.775 307.789 156.03 307.544 152.145 307.544C152.985 304.044 153.72 300.894 154.385 298.024L170.345 296.624C180.005 295.749 184.17 294.664 185.5 292.179L155.33 294.454V277.689C166.18 275.729 177.38 275.134 187.775 271.074V269.919C187.015 269.537 186.2 269.277 185.36 269.149C183.64 269.103 181.92 269.196 180.215 269.429C176.155 270.059 172.13 270.864 168.105 271.564C163.24 272.404 158.375 273.209 153.545 274.154C153.239 274.156 152.937 274.223 152.659 274.352C152.381 274.481 152.135 274.667 151.936 274.9C151.736 275.132 151.59 275.405 151.505 275.699C151.42 275.993 151.4 276.302 151.445 276.604C151.714 282.332 151.632 288.071 151.2 293.789C150.71 298.479 149.1 303.029 148.19 307.789C148.19 308.629 148.68 310.414 149.1 310.449C154.587 311.412 160.155 311.846 165.725 311.744C173.073 310.96 180.374 309.792 187.6 308.244C188.335 308.244 188.93 307.089 189.595 306.494C188.79 306.109 188.02 305.374 187.215 305.374C183.225 305.654 179.025 305.794 175.07 306.109Z" fill="#342B1D"/>
<path d="M191.94 278.11C191.555 275.31 190.855 272.545 190.26 269.78H189.21C188.864 271.168 188.653 272.587 188.58 274.015C188.58 278.985 188.79 283.955 189.035 288.89C189.245 292.915 189.56 296.94 190.05 300.965C190.05 301.875 191.275 302.68 191.94 303.52C192.605 302.61 193.725 301.735 193.865 300.72C194.115 298.394 194.115 296.047 193.865 293.72C193.305 288.54 192.675 283.325 191.94 278.11Z" fill="#342B1D"/>
<path d="M168.49 300.056C167.685 300.686 166.25 301.281 166.18 301.981C166.18 303.906 167.825 304.501 169.225 304.466C170.625 304.431 173.18 303.941 173.18 301.911C173.11 298.131 170.17 301.701 168.49 300.056Z" fill="#342B1D"/>
<path d="M155.225 303.695C155.589 304.591 156.151 305.393 156.87 306.04C159.67 306.04 161.77 304.5 161.525 302.89C161.404 302.49 161.188 302.125 160.895 301.826C160.603 301.528 160.243 301.304 159.845 301.175C157.535 300.825 154.735 302.435 155.225 303.695Z" fill="#342B1D"/>
<path d="M182.875 297.744C181.335 297.429 178.64 299.319 179.06 300.264C179.581 301.168 180.243 301.983 181.02 302.679C183.925 302.679 185.08 301.349 184.975 299.494C184.94 298.794 183.715 297.744 182.875 297.744Z" fill="#342B1D"/>
<path d="M284.305 230.02C285.495 230.02 287.595 228.095 288.05 226.52C288.944 223.847 289.091 220.979 288.474 218.228C287.857 215.477 286.5 212.946 284.55 210.91C284.179 210.403 283.678 210.005 283.1 209.758C282.523 209.511 281.889 209.424 281.266 209.507C280.643 209.589 280.054 209.838 279.56 210.226C279.066 210.615 278.686 211.129 278.46 211.715C277.664 213.882 277.032 216.105 276.57 218.365C277.196 221.247 278.135 224.052 279.37 226.73C279.901 227.607 280.619 228.355 281.472 228.924C282.324 229.492 283.292 229.867 284.305 230.02ZM280.56 214.13C280.769 213.489 280.933 212.835 281.05 212.17C282.096 212.558 283.004 213.247 283.658 214.15C284.312 215.053 284.683 216.131 284.725 217.245C285.022 219.777 285.092 222.331 284.935 224.875C284.861 225.253 284.684 225.602 284.425 225.886C284.166 226.17 283.834 226.377 283.465 226.485C282.905 226.485 282.03 225.715 281.75 225.085C280.765 223.457 280.148 221.632 279.942 219.74C279.737 217.847 279.948 215.933 280.56 214.13Z" fill="#342B1D"/>
<path d="M269.675 232.61L269.745 232.68L269.675 232.61Z" fill="#342B1D"/>
<path d="M276.675 228.794C277.047 226.416 276.735 223.982 275.774 221.775C274.814 219.568 273.244 217.681 271.25 216.334C270.704 215.959 270.084 215.705 269.432 215.59C268.78 215.476 268.111 215.502 267.47 215.669C266.9 216.078 266.419 216.6 266.058 217.202C265.697 217.804 265.462 218.473 265.37 219.169C265.149 221.57 265.421 223.991 266.167 226.283C266.913 228.576 268.119 230.693 269.71 232.504C273.665 234.009 276.465 232.714 276.675 228.794ZM270.48 229.634C269.202 226.817 268.115 223.917 267.225 220.954C267.995 219.344 268.38 217.279 269.29 216.999C271.11 216.509 272.23 218.224 272.545 219.939C273.256 222.898 273.643 225.926 273.7 228.969C273.595 231.244 271.6 231.664 270.48 229.634Z" fill="#342B1D"/>
<path d="M140.14 203.246C140.14 206.186 141.05 207.096 143.99 206.956C146.225 206.597 148.309 205.6 149.992 204.085C151.674 202.57 152.884 200.601 153.475 198.416C153.443 197.925 153.293 197.448 153.037 197.028C152.781 196.607 152.427 196.255 152.005 196.001C146.125 193.656 139.265 198.416 140.14 203.246ZM144.165 204.891C143.749 204.973 143.319 204.948 142.916 204.82C142.512 204.691 142.147 204.463 141.855 204.156C141.723 203.744 141.692 203.306 141.766 202.88C141.839 202.453 142.013 202.051 142.275 201.706C144.725 199.221 147.35 196.806 151.62 198.206C151.038 199.842 150.048 201.302 148.743 202.448C147.438 203.593 145.862 204.386 144.165 204.751V204.891Z" fill="#342B1D"/>
<path d="M142.52 194.251C145.331 193.173 148.008 191.775 150.5 190.086C152.6 188.546 152.39 185.921 150.5 185.396C147.744 184.704 144.904 184.409 142.065 184.521C140.84 184.521 139.685 186.166 138.565 187.076L139.23 188.021C140.762 187.027 142.549 186.498 144.375 186.498C146.201 186.498 147.988 187.027 149.52 188.021C147.601 189.744 145.443 191.182 143.115 192.291C141.715 192.61 140.27 192.681 138.845 192.501C138.845 191.276 138.845 190.086 138.845 189.001C138.845 189.001 138.845 189.001 138.285 188.091C137.48 189.526 136.36 190.646 136.36 191.591C136.453 192.172 136.691 192.721 137.052 193.186C137.413 193.651 137.885 194.017 138.425 194.251C139.754 194.692 141.19 194.692 142.52 194.251Z" fill="#342B1D"/>
<path d="M201.04 152.354C203.429 151.985 205.774 151.376 208.04 150.534C209.959 149.492 211.64 148.062 212.975 146.334C213.22 146.043 213.398 145.702 213.496 145.335C213.594 144.968 213.611 144.584 213.544 144.21C213.477 143.836 213.329 143.481 213.11 143.17C212.89 142.86 212.605 142.602 212.275 142.414C210.022 140.951 207.344 140.284 204.667 140.518C201.991 140.753 199.47 141.876 197.505 143.709C195.895 145.284 193.655 146.859 194.705 149.554C195.755 152.249 198.52 152.074 201.04 152.354ZM210.945 144.829C209.65 148.329 200.76 150.814 197.155 148.609C199.185 143.044 205.765 142.239 210.945 144.829Z" fill="#342B1D"/>
<path d="M200.06 134.925C203.84 136.202 207.935 136.202 211.715 134.925C212.73 134.61 213.64 132.825 213.815 131.425C213.99 130.025 212.52 129.675 211.82 128.765C211.61 132.265 211.05 132.965 207.9 133C206.15 133 204.4 133 202.65 133C201.772 132.873 200.906 132.674 200.06 132.405C201.127 130.97 202.551 129.839 204.191 129.127C205.83 128.415 207.628 128.145 209.405 128.345C209.957 128.265 210.491 128.088 210.98 127.82C210.595 127.505 210.245 127.015 209.755 126.875C207.834 126.375 205.814 126.394 203.902 126.929C201.99 127.463 200.254 128.495 198.87 129.92C198.431 130.246 198.097 130.695 197.91 131.209C197.723 131.723 197.69 132.281 197.817 132.814C197.944 133.346 198.224 133.83 198.622 134.205C199.021 134.58 199.521 134.83 200.06 134.925Z" fill="#342B1D"/>
<path d="M201.95 122.464C203.111 122.627 204.289 122.627 205.45 122.464V122.744C207.435 122.681 209.407 122.399 211.33 121.904C212.52 121.484 214.235 120.049 214.2 119.104C214.063 118.357 213.755 117.652 213.3 117.045C212.844 116.438 212.254 115.944 211.575 115.604C209.801 114.504 207.674 114.119 205.627 114.529C203.58 114.938 201.765 116.111 200.55 117.809C200.14 118.125 199.837 118.559 199.682 119.053C199.527 119.547 199.529 120.076 199.685 120.57C199.842 121.063 200.147 121.496 200.558 121.81C200.97 122.124 201.468 122.303 201.985 122.324L201.95 122.464ZM212.94 119.349L202.44 119.839C203.525 116.339 209.58 115.744 212.94 119.244V119.349Z" fill="#342B1D"/>
</svg>
