<svg width="81" height="80" viewBox="0 0 81 80" fill="none" xmlns="http://www.w3.org/2000/svg">
<path d="M12.2603 33.1661C12.6936 32.7527 13.1202 32.3927 13.4936 31.9861C13.6069 31.8594 13.5735 31.6061 13.6135 31.4061C13.4135 31.4061 13.1669 31.3127 13.0203 31.4061C12.4603 31.6994 11.9403 32.0727 11.3403 32.4127C11.0136 32.1127 10.6736 31.7994 10.3069 31.4527C9.94022 31.1061 9.56025 30.8861 9.26025 31.2727C9.17803 31.4444 9.13534 31.6324 9.13534 31.8227C9.13534 32.0131 9.17803 32.201 9.26025 32.3727C9.50343 32.7451 9.79733 33.0817 10.1335 33.3727C9.72688 34.0994 8.62693 34.2794 8.68693 35.2527L8.88021 35.4594L11.2135 34.0261C11.5882 34.5359 12.0052 35.0131 12.4602 35.4527C12.6148 35.5451 12.7891 35.5994 12.9688 35.611C13.1485 35.6226 13.3284 35.5912 13.4936 35.5194C13.9269 35.2594 13.7003 34.8527 13.4403 34.5127C13.0669 34.0461 12.6669 33.6061 12.2603 33.1661Z" fill="#342B1D"/>
<path d="M13.2331 37.686C13.2654 37.6499 13.2883 37.6064 13.2997 37.5593C13.2997 37.2993 13.353 37.0393 13.373 36.7793C13.0797 36.8593 12.7064 36.8593 12.5064 37.0393C12.1925 37.3939 11.9135 37.7779 11.6731 38.186C11.364 37.7835 11.0253 37.4046 10.6597 37.0526C10.4464 36.8726 9.99309 36.6793 9.83976 36.7793C9.46643 37.0326 9.54643 37.446 9.83976 37.806L11.033 39.3726C10.754 39.7949 10.5131 40.2411 10.3131 40.706C10.2197 40.9926 10.3864 41.3726 10.4331 41.6926C10.7488 41.5968 11.0478 41.4529 11.3197 41.266C11.5269 41.0133 11.6933 40.7299 11.8131 40.426C12.1311 40.7647 12.4743 41.079 12.8398 41.3659C12.9428 41.4192 13.0571 41.4469 13.1731 41.4469C13.2891 41.4469 13.4034 41.4192 13.5064 41.3659C13.5822 41.2737 13.6383 41.1671 13.6715 41.0525C13.7048 40.9379 13.7144 40.8177 13.6997 40.6993C13.662 40.4811 13.5458 40.2843 13.373 40.1459C12.4664 39.3793 12.4731 38.5593 13.2331 37.686Z" fill="#342B1D"/>
<path d="M45.1396 50.0808C43.8062 50.2541 42.4263 50.4741 41.0729 50.7141C40.1663 50.8741 39.2796 51.0875 38.4062 51.2741L38.4796 51.7075C40.6596 51.4875 42.8396 51.2741 45.0196 51.0408C45.8329 50.9541 46.6529 50.8675 47.4529 50.7141C47.7361 50.5983 47.9994 50.4386 48.2329 50.2408C48.0024 50.1043 47.7497 50.0096 47.4862 49.9608C46.7022 49.9497 45.9183 49.9897 45.1396 50.0808V50.0808Z" fill="#342B1D"/>
<path d="M33.4334 49.0133C33.3334 49.0133 33.1733 49.3066 33.2133 49.38C33.2533 49.4533 33.48 49.7066 33.6067 49.6933C34.6267 49.6066 35.6467 49.4933 36.66 49.3333C36.8467 49.3333 37.0066 49.0666 37.28 48.84C36.9666 48.7066 36.7933 48.56 36.6133 48.58C35.56 48.7133 34.4934 48.8466 33.4334 49.0133Z" fill="#342B1D"/>
<path d="M19.8996 45.5277C19.7396 45.401 19.5663 45.161 19.4196 45.1744C18.5129 45.2344 17.6129 45.3344 16.7129 45.4677C16.5929 45.4677 16.3929 45.8077 16.4329 45.8877C16.5403 46.0556 16.7068 46.177 16.8996 46.2277C17.1366 46.2545 17.3758 46.2545 17.6129 46.2277V46.2944C18.2262 46.1877 18.8529 46.1077 19.4595 45.9544C19.6395 45.9277 19.7329 45.681 19.8996 45.5277Z" fill="#342B1D"/>
<path d="M40.333 48.4668L40.9197 48.9134C41.6397 48.7468 42.253 48.6201 42.853 48.4534C42.9709 48.3959 43.065 48.2993 43.1196 48.1801C43.0196 48.0334 42.8797 47.8201 42.7463 47.8201C42.1284 47.8034 41.5102 47.8435 40.8997 47.9401C40.6863 47.9734 40.5197 48.2868 40.333 48.4668Z" fill="#342B1D"/>
<path d="M28.3997 49.1871C28.3046 49.2417 28.2244 49.3189 28.1663 49.412C28.1081 49.505 28.0738 49.6109 28.0664 49.7204C28.0664 49.8604 28.3664 49.9804 28.4664 50.0537C29.1331 49.9604 29.6598 49.9137 30.1664 49.7871C30.3464 49.7404 30.4664 49.4804 30.613 49.3137C30.4397 49.1737 30.2598 48.9071 30.0931 48.9204C29.5208 48.9489 28.9531 49.0383 28.3997 49.1871V49.1871Z" fill="#342B1D"/>
<path d="M18.1201 50.3462C18.0534 50.4329 18.1935 50.8129 18.2601 50.8196C19.1732 50.9692 20.1102 50.8146 20.9268 50.3796C20.4001 49.8862 18.4334 49.8929 18.1201 50.3462Z" fill="#342B1D"/>
<path d="M76.553 23.7937C74.8948 21.9558 73.0058 20.3402 70.933 18.987C70.4356 18.6738 69.9864 18.2897 69.5997 17.847C69.1196 17.2441 68.6744 16.6142 68.2663 15.9603C66.693 13.6403 65.2929 11.1737 62.6929 9.78702C61.3596 9.08702 60.1397 8.15368 58.7397 7.73368C56.8466 7.18403 54.8998 6.83983 52.933 6.70702C51.3594 6.64078 49.783 6.72786 48.2263 6.96702C46.773 7.14035 46.2996 7.78702 46.5263 8.96702C46.3072 9.0201 46.0843 9.05576 45.8596 9.07368C43.6077 9.08366 41.3715 9.44813 39.233 10.1537C38.2044 10.5463 37.2042 11.0096 36.2397 11.5404C35.99 11.6469 35.7886 11.8421 35.6741 12.0882C35.5597 12.3343 35.5402 12.6141 35.6196 12.8737C35.7863 13.287 36.2863 13.587 36.633 13.9004C36.8584 14.0178 37.0982 14.1052 37.3463 14.1603C36.753 14.427 36.2796 14.5937 35.8596 14.827C35.3996 15.0954 34.9685 15.4104 34.573 15.767C33.3663 16.8804 33.4397 17.3004 34.993 17.927C33.6597 18.5937 32.3263 19.2604 32.473 21.1603C25.8796 20.2937 19.4263 21.247 12.9797 21.507C12.9397 20.647 12.8996 19.8737 12.8596 19.1004C12.8666 19.0079 12.8511 18.915 12.8144 18.8299C12.7776 18.7447 12.7207 18.6697 12.6486 18.6114C12.5765 18.553 12.4913 18.5131 12.4003 18.4949C12.3093 18.4767 12.2153 18.4809 12.1263 18.507C11.1863 18.6204 10.253 18.747 9.31299 18.867C9.15058 18.8745 8.99159 18.9161 8.84627 18.989C8.70095 19.0619 8.57257 19.1645 8.46948 19.2903C8.36639 19.416 8.29084 19.562 8.2478 19.7188C8.20477 19.8755 8.19518 20.0396 8.21964 20.2003C8.21964 20.7937 8.21964 21.3937 8.21964 21.9337C7.06631 22.007 6.07968 22.107 5.08634 22.127C4.99181 22.1146 4.8957 22.1226 4.80452 22.1505C4.71335 22.1784 4.62926 22.2256 4.55786 22.2888C4.48646 22.352 4.42941 22.4297 4.39062 22.5168C4.35184 22.6039 4.3322 22.6983 4.33301 22.7937C4.25967 23.4203 4.15298 24.047 4.13965 24.6737C4.13965 26.267 4.13965 27.8604 4.13965 29.447C4.13965 29.9404 4.39965 30.1137 4.88631 30.1137C5.37298 30.1137 5.88633 30.1137 6.493 30.1137C6.493 30.607 6.493 31.1337 6.493 31.6603C6.493 33.6603 6.36634 35.6603 6.413 37.6603C6.45967 39.6603 6.63962 41.487 6.77962 43.4003C6.87962 44.7337 7.03303 46.1003 7.10636 47.4603C7.19927 48.2196 7.17446 48.9886 7.03296 49.7403C6.76629 50.807 6.15968 51.787 5.92635 52.8537C5.57934 54.537 5.31897 56.237 5.14632 57.947C4.97299 59.5204 4.80633 61.127 6.15967 62.387C6.55967 62.7603 6.82632 63.2603 7.22632 63.6537C8.02244 64.3699 9.01311 64.8339 10.073 64.987C10.513 65.087 10.7997 65.2604 10.813 65.807C10.853 67.2604 10.933 68.7203 11.0263 70.1737C11.0663 70.7003 11.1397 71.407 11.753 71.4337C12.3663 71.4603 12.453 70.7204 12.4663 70.2204C12.513 68.9737 12.5196 67.7337 12.4663 66.487C12.393 64.487 11.7663 63.6937 10.2063 63.3537C9.52189 63.2328 8.87427 62.9569 8.31299 62.547C7.43965 61.8137 6.67296 60.9204 6.77962 59.6337C6.90629 58.2404 6.99966 56.8337 7.23299 55.4537C7.46128 54.1571 7.77306 52.8767 8.16634 51.6203C8.59967 50.2003 9.70633 49.2337 10.7397 48.247C11.6597 47.3604 13.873 47.7004 14.3796 48.9137C14.5311 49.5689 14.5916 50.2419 14.5597 50.9137C14.6318 52.2411 14.2994 53.5592 13.6064 54.6937C12.9997 55.8603 12.233 56.947 11.6064 58.0937C11.4864 58.3137 11.6064 58.667 11.6064 58.9537C11.8599 58.9398 12.1097 58.8858 12.3464 58.7937C12.5904 58.6331 12.7991 58.4244 12.9596 58.1803C13.1095 57.9648 13.3087 57.7882 13.5406 57.6653C13.7725 57.5424 14.0305 57.4767 14.293 57.4737C15.333 57.4203 16.373 57.327 17.413 57.2003C18.1126 57.0411 18.8463 57.1438 19.4753 57.489C20.1043 57.8342 20.5849 58.398 20.8263 59.0737C20.9197 59.267 21.1597 59.387 21.333 59.5404C21.4778 59.3394 21.5841 59.1134 21.6463 58.8737C21.6717 58.5837 21.6014 58.2933 21.4463 58.047C21.1207 57.6379 20.7689 57.2504 20.393 56.887C22.113 56.7603 23.7263 56.6204 25.3863 56.5404C25.553 56.5404 25.8863 56.8737 25.893 57.0604C26.0092 57.9637 25.8921 58.8817 25.553 59.727C24.7764 61.1245 23.7766 62.3855 22.593 63.4603C22.214 63.882 21.8621 64.3274 21.5396 64.7937L22.2063 65.0403C21.9596 66.3737 21.7463 67.707 21.493 69.007C21.273 70.1137 20.9863 71.2137 20.753 72.3403C20.6663 72.7737 20.753 73.267 21.273 73.267C21.5397 73.267 21.8063 72.8403 22.073 72.6003C22.073 72.6003 22.073 72.5537 22.073 72.5337C22.773 69.9726 23.2196 67.3488 23.4063 64.7003C23.4075 64.4151 23.4934 64.1367 23.653 63.9003C24.0397 63.4137 24.5797 63.027 24.9263 62.5137C25.58 61.5699 26.1617 60.5782 26.6663 59.547C27.0626 58.5425 27.0626 57.4249 26.6663 56.4203L26.9863 56.3603C30.413 56.0403 33.8397 55.7337 37.2664 55.3937C38.953 55.2337 40.6397 55.0137 42.3263 54.827C44.6597 54.567 46.993 54.347 49.3263 54.0337C50.5997 53.867 50.6597 53.7603 50.6597 52.527C50.6197 49.807 50.6197 47.087 50.4863 44.3803C50.333 41.1003 50.0663 37.8337 49.8197 34.5604C49.8197 34.0537 49.7797 33.647 50.4263 33.4537C50.9018 33.2734 51.3384 33.0042 51.713 32.6603C52.7663 31.8403 53.713 30.9337 54.8263 30.167C55.9397 29.4003 57.2063 28.5737 58.7397 28.8337C59.4537 28.9296 60.16 29.0766 60.853 29.2737C62.653 29.8603 64.473 30.4137 66.1864 31.1603C67.6997 31.827 69.1063 32.7337 70.5797 33.487C70.8197 33.6137 71.193 33.487 71.4997 33.487C71.3663 33.207 71.3063 32.8203 71.0863 32.6603C69.672 31.6932 68.1954 30.8202 66.6663 30.047C64.9371 29.301 63.1543 28.686 61.333 28.207C59.8215 27.6833 58.1778 27.6833 56.6663 28.207C55.1219 28.9385 53.6274 29.7715 52.1929 30.7003C51.2529 31.247 50.3663 31.887 49.413 32.3937C49.0159 32.6247 48.5486 32.704 48.0976 32.617C47.6465 32.53 47.2422 32.2825 46.9596 31.9203C46.6863 31.6203 46.493 31.2537 46.233 30.927C46.0161 30.6874 45.8878 30.3807 45.8696 30.058C45.8514 29.7353 45.9444 29.4162 46.133 29.1537C47.0796 27.502 48.5339 26.1997 50.2796 25.4403C52.2301 24.6549 54.2897 24.1738 56.3863 24.0137C56.7591 23.9069 57.1093 23.7329 57.4197 23.5003C57.4197 23.4003 57.3863 23.3003 57.3663 23.2003C56.473 22.7937 55.5996 22.347 54.6996 22.0003C52.5196 21.1603 50.2129 21.3337 47.9463 21.207C45.8863 21.087 43.8263 20.9937 41.7597 20.947C39.693 20.9004 37.7597 20.947 35.7597 20.947C35.093 20.947 34.4263 21.1403 33.8663 20.5537C33.8546 20.2194 33.9454 19.8895 34.1265 19.6083C34.3077 19.3271 34.5704 19.108 34.8796 18.9803C36.1954 18.3581 37.5656 17.8583 38.973 17.487C42.0202 16.9184 45.1276 16.7414 48.2196 16.9603C50.2196 17.047 52.2196 17.107 54.2196 17.3337C55.5975 17.528 56.9606 17.8153 58.2996 18.1937C59.133 18.4004 59.9397 18.7337 60.7663 18.9937C61.2463 19.147 61.7863 19.1137 61.9063 18.587C61.9597 18.3737 61.4863 17.9204 61.1597 17.767C60.4078 17.5181 59.642 17.3134 58.8663 17.1537C55.9224 16.3701 52.8925 15.9558 49.8463 15.9203C48.2463 15.9203 46.6463 15.7337 45.0463 15.707C42.7746 15.6275 40.504 15.895 38.313 16.5003C37.4016 16.6797 36.4751 16.7712 35.5463 16.7737C35.5463 16.6937 35.4997 16.6204 35.4797 16.547C35.8969 16.2298 36.3433 15.953 36.813 15.7203C39.9238 14.5489 43.2222 13.9548 46.5463 13.967C49.213 13.9204 51.9263 14.0803 54.6129 14.2537C55.7918 14.3627 56.9573 14.586 58.093 14.9203C59.7197 15.3537 61.3063 15.9337 62.9263 16.387C63.213 16.467 63.593 16.2604 63.9063 16.187C63.7246 15.8989 63.4997 15.6403 63.2397 15.4203C62.673 15.107 62.033 14.9203 61.4596 14.627C59.3966 13.619 57.1472 13.0493 54.853 12.9537C53.1797 12.8337 51.5197 12.7003 49.8397 12.6803C47.773 12.6803 45.7063 12.7403 43.6396 12.8137C41.7463 12.8803 39.8596 13.007 37.9663 13.067C37.5989 13.0191 37.2399 12.9204 36.8997 12.7737V12.5337C37.8513 12.0475 38.8308 11.6179 39.833 11.247C42.1609 10.5819 44.5656 10.2234 46.9863 10.1803C47.6386 10.1773 48.29 10.2308 48.933 10.3404C50.173 10.5004 51.413 10.7003 52.653 10.887C53.893 11.0737 55.1063 11.167 56.2996 11.447C58.173 11.8804 60.0263 12.4137 61.873 12.9603C62.4463 13.1337 62.6796 12.9604 62.8863 12.3404C62.2793 11.963 61.6441 11.6332 60.9863 11.3537C59.991 11.0117 58.973 10.74 57.9397 10.5404C55.5064 10.087 53.0597 9.68702 50.6064 9.26702C49.6664 9.10702 48.6663 9.14036 47.873 8.20702C48.8682 8.01821 49.8748 7.89572 50.8863 7.84035C52.5263 7.84035 54.1663 8.02702 55.813 8.10035C58.333 8.22035 60.3797 9.56035 62.4397 10.767C64.4997 11.9737 65.6063 13.9937 66.913 15.8737C67.724 17.0984 68.6626 18.2336 69.713 19.2604C70.993 20.467 72.473 21.447 73.853 22.547C74.693 23.2137 75.493 23.9204 76.3197 24.5937C76.4197 24.6737 76.613 24.6403 76.7663 24.6603C76.7925 24.5126 76.7925 24.3614 76.7663 24.2137C76.7264 24.0599 76.6536 23.9166 76.553 23.7937V23.7937ZM53.8863 22.9403L51.0663 23.607C50.9863 23.2003 50.913 22.827 50.813 22.2737L53.8863 22.9403ZM9.11963 23.0937C9.18629 22.2737 9.22632 21.447 9.23299 20.6204C9.23299 20.207 9.35965 19.9937 9.80631 19.9537C10.5263 19.907 11.2463 19.8203 11.9997 19.7537V24.6537L8.88631 25.0003C8.95298 24.3137 9.06636 23.707 9.09969 23.0937H9.11963ZM48.3863 34.0937C48.432 34.2354 48.4677 34.3802 48.493 34.527C48.7552 39.1315 49.0108 43.7359 49.2597 48.3403C49.333 49.6737 49.373 50.9537 49.473 52.2537C49.5063 52.7537 49.3196 52.8737 48.8663 52.9203C45.793 53.107 42.7197 53.2803 39.653 53.527C37.4597 53.707 35.2797 54.0404 33.0863 54.227C30.2597 54.467 27.4197 54.6003 24.593 54.8337C21.7663 55.067 19.0397 55.367 16.2597 55.6337L14.9663 55.7537C15.1226 55.3391 15.303 54.934 15.5063 54.5404C15.5633 54.4576 15.6363 54.3872 15.721 54.3334C15.8058 54.2796 15.9006 54.2434 15.9997 54.227C20.1463 53.7804 24.2996 53.3804 28.4463 52.8937C30.373 52.6737 32.2863 52.347 34.1996 52.0337C34.6171 51.9238 35.0216 51.7696 35.4063 51.5737C35.4063 51.4737 35.3597 51.367 35.3397 51.267C34.7565 51.2636 34.1735 51.2903 33.593 51.347C30.1197 51.8537 26.653 52.4203 23.1797 52.887C21.113 53.167 19.033 53.307 16.953 53.5003C16.6465 53.517 16.3394 53.517 16.033 53.5003C16.133 52.387 16.2263 51.3203 16.333 50.2537C16.5397 48.287 15.2463 46.5803 12.9063 46.4003L14.1996 45.7337C13.7807 45.4181 13.2546 45.2796 12.7346 45.3482C12.2146 45.4168 11.7424 45.6869 11.4197 46.1003L12.4663 46.307L8.69962 47.9137C8.47296 44.9537 8.18629 41.987 8.03296 39.0137C7.87963 36.0403 7.8663 33.0537 7.79297 29.9537C9.01963 29.8403 10.0863 29.727 11.1663 29.647C13.7352 29.4515 16.3018 29.2692 18.8663 29.1004C20.293 29.007 21.7197 28.9604 23.153 28.8937L30.3596 28.5404C32.0463 28.4537 33.7397 28.407 35.433 28.2937C36.953 28.187 38.4663 27.9804 39.9863 27.8737C41.7263 27.7537 43.4663 27.6937 45.2063 27.6137L44.253 30.067C43.7063 29.7537 43.1863 29.4004 42.6196 29.1537C42.053 28.907 41.4797 28.4404 41.1597 29.1537C40.8997 29.7137 41.673 29.9137 42.0663 30.1937L43.2397 30.987C42.85 31.3653 42.4827 31.766 42.1396 32.187C41.9068 32.5133 41.7413 32.8827 41.653 33.2737C41.6063 33.467 41.793 33.8803 41.9263 33.9403C42.0599 33.9509 42.1942 33.9345 42.3214 33.8921C42.4485 33.8498 42.5658 33.7823 42.6663 33.6937C43.333 33.107 43.8797 32.467 44.573 31.7537C45.393 33.3403 46.453 34.3804 48.3997 34.0937H48.3863ZM34.953 22.5404C37.193 22.5404 39.4263 22.5404 41.7263 22.5404C41.7263 23.167 41.7997 23.8204 41.8197 24.4737C41.8397 25.127 42.093 25.367 42.6797 25.3004C43.544 25.2264 44.4033 25.1017 45.253 24.927C45.5197 24.867 45.6997 24.4604 45.9197 24.2137C45.6678 24.0742 45.3955 23.9752 45.1129 23.9203C44.4463 23.9203 43.7796 24.0004 43.0596 24.047C43.0596 23.487 43.0063 23.0137 42.973 22.4403H45.6396C45.6823 22.8393 45.7672 23.2327 45.893 23.6137C45.9863 23.8137 46.2796 23.9204 46.4796 24.067C46.6216 23.8626 46.7318 23.6378 46.8063 23.4004C46.8368 23.0477 46.8368 22.693 46.8063 22.3404H49.733C49.7797 22.4937 49.8396 22.6537 49.873 22.8137C50.0996 23.867 50.0663 23.807 49.1263 24.367C48.1863 24.927 47.273 25.6537 46.4596 26.2403C32.713 27.1203 18.953 27.6137 5.21965 28.9937V23.2003H8.05298C7.99298 23.6737 7.93963 24.2137 7.87296 24.7537C7.75296 25.727 8.07296 26.087 9.03296 25.9937C9.99296 25.9003 11.113 25.807 12.153 25.7337C12.3781 25.7434 12.6016 25.7769 12.8197 25.8337C13.4863 24.907 12.7263 23.8337 13.1663 22.707C13.7063 22.707 14.353 22.707 14.9997 22.707C17.9063 22.5804 20.813 22.4003 23.7196 22.3137C25.2596 22.2737 26.8064 22.407 28.3464 22.4337C30.533 22.4959 32.7286 22.5315 34.933 22.5404H34.953Z" fill="#342B1D"/>
<path d="M17.1869 41.0996L17.2869 41.2529C17.7664 41.0178 18.2258 40.7436 18.6602 40.4329C19.4959 39.6412 20.0288 38.5824 20.1669 37.4396C20.2159 37.05 20.1521 36.6545 19.9831 36.3C19.8142 35.9455 19.547 35.6469 19.2135 35.4396C17.9735 34.6796 16.7402 34.8929 15.4002 36.1063C14.7335 36.7063 14.1868 37.5129 14.5268 38.3463C14.9735 39.4263 15.4202 40.6463 16.7536 41.0529C16.8957 41.0855 17.0411 41.1012 17.1869 41.0996V41.0996ZM15.7536 38.6063C15.7597 38.1488 15.8762 37.6995 16.0932 37.2967C16.3103 36.8939 16.6215 36.5496 17.0002 36.2929C17.9069 35.8329 19.1336 36.4129 19.1069 37.3796C19.0322 37.8973 18.8418 38.3915 18.5498 38.8255C18.2578 39.2595 17.8717 39.6221 17.4202 39.8863C16.8736 40.2329 15.8269 39.3796 15.7335 38.6063H15.7536Z" fill="#342B1D"/>
<path d="M27.2936 33.806C27.567 33.4326 27.2936 33.1393 26.9736 32.9126C26.4403 32.5326 25.9403 32.1126 25.3936 31.6793C25.6157 31.2833 25.8073 30.871 25.967 30.446C26.027 30.246 25.867 29.986 25.807 29.7793C25.5707 29.8279 25.3449 29.9182 25.1403 30.046C24.856 30.3566 24.5932 30.6863 24.3537 31.0326C23.7056 30.6453 23.0381 30.2915 22.3537 29.9726C22.1337 29.8793 21.7937 30.0793 21.5137 30.146C21.5665 30.4103 21.6707 30.6617 21.8203 30.886C22.307 31.3526 22.8536 31.766 23.4003 32.2193C22.9948 32.7638 22.6358 33.3414 22.327 33.946C22.2203 34.206 22.4736 34.6126 22.567 34.966C22.8546 34.8536 23.1224 34.6961 23.3603 34.4993C23.7736 34.0193 24.107 33.466 24.5003 32.906C25.127 33.3326 25.6403 33.6926 26.167 34.0326C26.2547 34.0953 26.3543 34.1392 26.4596 34.1618C26.565 34.1844 26.6738 34.1851 26.7795 34.1638C26.8851 34.1425 26.9853 34.0998 27.0737 34.0383C27.1622 33.9767 27.237 33.8976 27.2936 33.806V33.806Z" fill="#342B1D"/>
<path d="M35.3262 33.5126L36.9263 32.3526C37.617 32.8155 38.3337 33.2384 39.0729 33.6192C39.3462 33.7459 39.7395 33.5259 40.1195 33.4659C40.0356 33.1897 39.9263 32.9219 39.7929 32.6659C39.6686 32.5165 39.517 32.392 39.3463 32.2992L37.9396 31.3059C38.2842 30.9262 38.6047 30.5254 38.8996 30.1059C39.0021 29.835 39.0585 29.5488 39.0662 29.2592C38.7525 29.2383 38.4376 29.2791 38.1395 29.3792C37.7243 29.6781 37.3341 30.0103 36.9729 30.3726C36.6074 29.9951 36.2104 29.6494 35.7862 29.3392C35.5729 29.2059 35.2196 29.2992 34.9263 29.2859C34.9249 29.568 34.9746 29.8481 35.0729 30.1126C35.344 30.5212 35.6424 30.911 35.9662 31.2792C35.4731 31.6494 35.0095 32.0573 34.5796 32.4992C34.4756 32.6309 34.4039 32.7852 34.3703 32.9496C34.3368 33.114 34.3422 33.284 34.3862 33.4459C34.5662 33.8326 34.9862 33.7592 35.3262 33.5126Z" fill="#342B1D"/>
<path d="M33.1929 33.3797C33.2929 33.1864 33.0796 32.713 32.8663 32.493C32.427 32.1269 31.9588 31.7969 31.4663 31.5064C31.7482 31.1292 31.9958 30.7276 32.2063 30.3064C32.276 30.0003 32.2918 29.6845 32.253 29.373C31.9663 29.4014 31.6878 29.4852 31.433 29.6197C31.0398 29.9874 30.6723 30.3817 30.333 30.7997C30.04 30.5262 29.7257 30.2766 29.393 30.053C29.1252 29.9351 28.8426 29.8543 28.553 29.813C28.5326 30.1268 28.5733 30.4415 28.673 30.7397C28.9045 31.0793 29.1752 31.3903 29.4796 31.6664C29.2286 32.219 29.0061 32.7842 28.813 33.3597C28.7596 33.533 28.9463 33.7864 29.0197 34.0264C29.253 33.9397 29.5463 33.9197 29.6863 33.7597C30.0217 33.3914 30.3355 33.0041 30.6263 32.5997C31.193 32.9264 31.7063 33.2064 32.1929 33.5197C32.6796 33.833 32.9996 33.7464 33.1929 33.3797Z" fill="#342B1D"/>
<path d="M16.2929 32.2735C15.8529 32.9002 14.8596 33.1535 15.2663 34.2735L17.2663 33.1135C17.6186 33.4759 17.9926 33.8165 18.3862 34.1335C18.5596 34.2602 18.9929 34.3068 19.0529 34.2002C19.144 34.0903 19.2093 33.9614 19.2439 33.8229C19.2785 33.6845 19.2816 33.54 19.2529 33.4002C19.0191 32.9755 18.7397 32.5776 18.4196 32.2135C18.7179 31.9708 18.9885 31.6958 19.2262 31.3935C19.3402 31.1106 19.4078 30.8112 19.4263 30.5068C19.0996 30.5402 18.7062 30.4668 18.4596 30.6202C17.2796 31.3468 17.2929 31.3735 16.1863 30.6202C16.0987 30.5381 15.9939 30.4766 15.8796 30.4402C15.5062 30.3935 15.1329 30.3802 14.7529 30.3535C14.8501 30.7191 14.9982 31.0692 15.1929 31.3935C15.5281 31.7241 15.8968 32.019 16.2929 32.2735Z" fill="#342B1D"/>
<path d="M37.1001 43.2325C36.0934 43.2925 35.1001 43.3792 34.0934 43.5125C33.9998 43.5694 33.9217 43.6483 33.8659 43.7425C33.8101 43.8367 33.7783 43.9432 33.7734 44.0525C33.835 44.1542 33.9173 44.2418 34.0149 44.3095C34.1125 44.3773 34.2233 44.4238 34.3401 44.4459C34.6497 44.4515 34.9589 44.4179 35.2601 44.3459V44.4259C35.8558 44.3584 36.4476 44.2605 37.0334 44.1325C37.2067 44.0925 37.3668 43.8059 37.4268 43.6059C37.4668 43.5125 37.2134 43.2259 37.1001 43.2325Z" fill="#342B1D"/>
<path d="M29.287 43.8327C28.9136 43.8793 28.387 43.8927 28.487 44.426C28.487 44.6194 29.0404 44.7327 29.3404 44.8727C29.45 44.8976 29.5615 44.9132 29.6737 44.9193C30.1737 44.7927 30.7937 44.666 31.387 44.4793C31.5537 44.4193 31.6603 44.1727 31.7936 44.0194C31.607 43.8927 31.4137 43.666 31.227 43.666C30.5779 43.6882 29.9303 43.7438 29.287 43.8327V43.8327Z" fill="#342B1D"/>
<path d="M44.1066 37.5461C44.1066 37.7194 44.2799 38.0261 44.3932 38.0327C45.2932 38.0794 46.1999 38.0861 47.0999 38.0327C47.2266 38.0327 47.4532 37.7194 47.4399 37.5727C47.4266 37.4261 47.1932 37.2194 47.0199 37.1661C46.7134 37.0972 46.4007 37.0593 46.0866 37.0527C45.5599 37.1061 45.0332 37.1394 44.5132 37.2261C44.3532 37.2661 44.0999 37.4461 44.1066 37.5461Z" fill="#342B1D"/>
<path d="M33.6867 39.1465C34.0466 39.1328 34.4041 39.0814 34.7533 38.9931C34.9533 38.9198 35.08 38.6465 35.24 38.4665C35.0666 38.3331 34.9066 38.1331 34.7133 38.0865C34.3647 37.9871 33.9995 37.9599 33.64 38.0065C33.1866 38.0798 32.4466 37.9065 32.4933 38.6731C32.4933 38.9065 33.2 39.0931 33.5867 39.3065L33.6867 39.1465Z" fill="#342B1D"/>
<path d="M25.5468 44.8865C25.4822 44.8192 25.4107 44.7589 25.3335 44.7065C24.4535 44.2665 23.5801 44.6332 22.7135 44.7599C22.6536 44.795 22.6034 44.8445 22.5673 44.9038C22.5312 44.9632 22.5105 45.0305 22.5068 45.0999C22.5518 45.2792 22.6578 45.4371 22.8068 45.5465C23.3401 45.8465 25.1135 45.3799 25.5468 44.8865Z" fill="#342B1D"/>
<path d="M39.7337 42.9329C39.5603 42.9862 39.4003 43.3328 39.3937 43.5528C39.387 43.7728 39.727 43.7995 39.9003 43.9195C40.567 43.7328 41.147 43.5928 41.707 43.3862C41.8736 43.3262 41.9537 43.0662 42.0737 42.8929C41.907 42.7795 41.727 42.5595 41.5737 42.5728C40.9505 42.6355 40.3345 42.756 39.7337 42.9329V42.9329Z" fill="#342B1D"/>
<path d="M39.253 38.2204C39.253 38.4071 39.8463 38.5871 40.1663 38.7671C40.1663 38.7271 40.2263 38.6871 40.253 38.6404C40.6149 38.6295 40.9747 38.5803 41.3263 38.4938C41.5596 38.4138 41.7263 38.1604 41.9263 37.9871C41.7305 37.8157 41.5044 37.6823 41.2597 37.5938C40.9222 37.5931 40.5854 37.6221 40.253 37.6804C39.7997 37.7004 39.2463 37.6338 39.253 38.2204Z" fill="#342B1D"/>
<path d="M28.3336 39.501C28.7634 39.4631 29.1907 39.4008 29.6135 39.3144C29.6919 39.2713 29.7589 39.2101 29.8087 39.1359C29.8586 39.0616 29.89 38.9765 29.9002 38.8877C29.9002 38.781 29.6802 38.5677 29.5669 38.5744C28.7935 38.5744 28.0202 38.641 27.2536 38.721C27.1891 38.7535 27.1359 38.8046 27.1009 38.8677C27.0659 38.9308 27.0506 39.0029 27.0571 39.0748C27.0636 39.1466 27.0915 39.2149 27.1372 39.2707C27.1829 39.3265 27.2444 39.3672 27.3135 39.3877C27.6531 39.4111 27.994 39.4111 28.3336 39.3877V39.501Z" fill="#342B1D"/>
<path d="M23.0669 40.0473V40.1007C23.4461 40.0615 23.821 39.9878 24.1869 39.8807C24.3869 39.8073 24.5136 39.5407 24.6736 39.3607C24.4738 39.2124 24.2475 39.1038 24.0069 39.0407C23.6012 39.0079 23.1928 39.0462 22.8002 39.154C22.5358 39.2903 22.295 39.4681 22.0869 39.6807C22.3336 39.8007 22.5802 39.9273 22.8336 40.0407C22.9102 40.0581 22.9894 40.0604 23.0669 40.0473Z" fill="#342B1D"/>
<path d="M46.7331 42.3139C46.7331 42.3139 46.6597 41.9672 46.613 41.9672C46.1121 41.9172 45.6074 41.9172 45.1064 41.9672C44.9531 41.9672 44.7598 42.3539 44.7598 42.5606C44.7598 42.7672 45.0864 42.8272 45.3531 43.0272C45.8331 42.8006 46.2931 42.5672 46.7331 42.3139Z" fill="#342B1D"/>
<path d="M23.3733 50.1661C23.3067 50.1661 23.2134 50.4261 23.24 50.4461C23.3412 50.5692 23.4831 50.6519 23.64 50.6794C23.978 50.6792 24.3152 50.6457 24.6467 50.5794C25.0867 50.5061 25.5267 50.3994 25.98 50.3061L25.9401 50.0661C25.0973 49.8123 24.1938 49.8475 23.3733 50.1661V50.1661Z" fill="#342B1D"/>
</svg>
