<svg width="34" height="25" viewBox="0 0 34 25" fill="none" xmlns="http://www.w3.org/2000/svg">
<g clip-path="url(#clip0_3513_19826)">
<path d="M13.8391 2.8471C13.8012 2.76192 13.6593 2.64836 13.6309 2.72407L13.8107 2.98905L13.8391 2.8471Z" fill="#342B1D"/>
<path d="M13.0532 2.81838C13.1005 2.98872 13.2141 3.25371 13.4696 3.40513C13.3087 3.13068 13.4223 3.20639 13.233 2.88462C13.2614 2.79945 13.4034 2.85623 13.4791 2.94141C13.4412 2.8657 13.6116 2.90355 13.5075 2.7332C13.2614 2.63857 13.1573 2.72374 13.2141 2.96033C13.1289 2.94141 13.0911 2.8657 13.0532 2.81838Z" fill="#342B1D"/>
<path d="M8.7002 9.56625L8.73805 9.5C8.71912 9.51893 8.70966 9.53785 8.7002 9.56625Z" fill="#342B1D"/>
<path d="M10.7727 14.2316C10.7443 14.2032 10.7159 14.2032 10.6875 14.2222C10.7159 14.2411 10.7537 14.2506 10.7727 14.2316Z" fill="#342B1D"/>
<path d="M10.8768 15.102C10.8768 15.0831 10.8768 15.0642 10.8768 15.0547C10.8579 15.0831 10.8484 15.102 10.8768 15.102Z" fill="#342B1D"/>
<path d="M8.70011 9.56641L8.60547 9.72729C8.70957 9.72729 8.68118 9.64212 8.70011 9.56641Z" fill="#342B1D"/>
<path d="M12.9021 4.11582C12.9116 4.08743 12.9021 4.04957 12.8832 4.01172C12.8832 4.04011 12.8737 4.05904 12.8643 4.07796L12.9021 4.11582Z" fill="#342B1D"/>
<path d="M9.1257 7.20115L9.14463 7.1633C9.11624 7.14437 9.07838 7.11598 9.04053 7.07812L9.1257 7.20115Z" fill="#342B1D"/>
<path d="M9.90195 5.6582C9.87356 5.68659 10.0912 5.83801 10.1859 5.90426C10.1007 5.82855 10.0723 5.78123 10.0723 5.74338C10.025 5.71499 9.97766 5.68659 9.90195 5.6582Z" fill="#342B1D"/>
<path d="M11.8325 3.70913V3.65234C11.842 3.67127 11.8325 3.6902 11.8325 3.70913Z" fill="#342B1D"/>
<path d="M8.57706 8.38446C8.5392 8.375 8.50135 8.375 8.48242 8.375C8.51081 8.38446 8.54867 8.39393 8.57706 8.38446Z" fill="#342B1D"/>
<path d="M10.8389 0.679591C10.8389 0.698518 10.8483 0.707982 10.8483 0.726909C10.8578 0.698518 10.8578 0.670127 10.8389 0.679591Z" fill="#342B1D"/>
<path d="M13.0344 1.75L13.006 1.76893L12.9966 1.92035L13.0344 1.75Z" fill="#342B1D"/>
<path d="M11.1607 16.4945C11.1229 16.4661 11.1323 16.4756 11.1607 16.4945V16.4945Z" fill="#342B1D"/>
<path d="M4.99971 20.582C4.94293 20.847 4.62116 20.6483 4.59277 20.9795C4.64956 20.8943 5.00918 20.8092 4.99971 20.582Z" fill="#342B1D"/>
<path d="M12.845 4.125C12.8355 4.14393 12.8166 4.16286 12.8071 4.17232C12.8355 4.16286 12.845 4.14393 12.845 4.125Z" fill="#342B1D"/>
<path d="M11.6431 19.2571C11.6904 19.2571 11.7282 19.2571 11.7661 19.2571C11.7282 19.2476 11.6998 19.2476 11.6431 19.2571Z" fill="#342B1D"/>
<path d="M11.9081 17.0703L11.8892 17.1366C11.9081 17.1082 11.9081 17.0892 11.9081 17.0703Z" fill="#342B1D"/>
<path d="M11.6056 20.3652C11.5772 20.3747 11.5394 20.3652 11.5488 20.422C11.5583 20.422 11.5678 20.4315 11.5867 20.4315C11.5488 20.3936 11.5488 20.3747 11.6056 20.3652Z" fill="#342B1D"/>
<path d="M10.8389 21.236L10.8862 21.2644L10.9051 21.2266L10.8389 21.236Z" fill="#342B1D"/>
<path d="M6.58008 2.92357C6.64632 2.96143 6.72203 3.00875 6.77882 3.06553C6.64632 2.93304 6.78828 2.7343 6.58008 2.92357Z" fill="#342B1D"/>
<path d="M12.7886 4.02148C12.8359 4.0688 12.8548 4.09719 12.8548 4.12559C12.8643 4.11612 12.8643 4.09719 12.8737 4.07827C12.8359 4.05934 12.8075 4.03095 12.7886 4.02148Z" fill="#342B1D"/>
<path d="M13.3565 21.5195L13.1577 21.7561C13.224 21.6993 13.2997 21.6142 13.3565 21.5195Z" fill="#342B1D"/>
<path d="M1.13885 12.2166L1.11992 12.1504C1.11046 12.1693 1.11992 12.1977 1.13885 12.2166Z" fill="#342B1D"/>
<path d="M12.6181 22.4465C12.514 22.4181 12.4383 22.4181 12.3721 22.4275C12.3815 22.4465 12.3815 22.4749 12.391 22.5032L12.6181 22.4465Z" fill="#342B1D"/>
<path d="M7.80105 1.60756C7.58339 1.73059 7.87676 1.96718 7.93354 2.16592C7.74427 2.39305 7.68749 2.0145 7.50768 1.9104C7.40357 2.08074 7.46982 2.4309 7.35626 2.49715C7.30894 2.44983 7.28055 2.44983 7.26162 2.37412C7.26162 2.70535 6.81682 2.71481 6.85468 3.12175C6.82629 3.10283 6.80736 3.0839 6.77897 3.06497C6.92093 3.188 7.03449 3.32049 7.1102 3.42459C7.03449 3.49084 7.10074 3.7085 6.93039 3.55708C6.98717 3.51923 6.93039 3.45298 6.902 3.37727L6.88307 3.51923C6.59916 3.32995 6.92092 3.33942 6.76951 3.15014C6.6654 3.36781 6.6654 3.72743 6.48559 3.76529C6.249 3.54762 6.70326 3.43406 6.34364 3.36781L6.61809 3.2921C6.1449 3.02712 6.76004 3.21639 6.27739 2.91355C5.95563 3.07443 6.08812 3.2921 5.77581 3.45298C5.84206 3.63279 5.97455 3.63279 6.0408 3.8126C5.9367 4.3615 5.20799 3.5003 5.26477 4.0492C5.35941 4.26686 5.63386 4.56024 5.31209 4.59809L5.10389 4.29525C4.85783 4.51292 5.36887 4.7779 4.9714 4.87254C4.89569 4.73059 5.03764 4.59809 4.9714 4.60756C4.61178 4.58863 5.02818 4.85361 4.92408 4.98611L4.6591 4.8063C4.47928 5.10913 4.43197 5.54447 4.27108 5.88516C4.20484 5.80945 4.15752 5.70535 4.02503 5.71481C3.88307 6.19746 3.42881 6.53816 3.0408 6.841L3.19222 7.13437C3.17329 7.17223 3.05026 7.13437 3.02187 7.07759C2.84206 7.18169 3.17329 7.17223 3.22061 7.29525C3.19222 7.38989 3.01241 7.33311 2.97455 7.23847C3.02187 7.62648 3.01241 8.25109 2.60547 8.42144L2.55815 8.3268C2.34995 8.50661 2.95563 8.81891 2.62439 8.92301L2.60547 8.86623C2.26477 9.32049 2.2837 9.96402 1.75373 10.2101C2.10389 10.4183 1.40357 10.6738 1.92408 10.882C1.56446 11.0902 1.49821 10.9766 1.18591 11.3552C1.12913 11.4688 1.46982 11.6202 1.48875 11.7811L1.20484 11.7053L1.45089 11.9798L1.09127 11.9987L1.12913 12.1501C1.15752 12.1028 1.28055 12.065 1.36572 12.0934C1.44143 12.33 1.04395 12.5571 0.901997 12.5382C0.939852 12.7274 0.996635 12.9072 1.04395 13.0965C0.930389 13.0681 0.901997 12.9735 0.845215 12.8883C1.09127 13.2195 0.532912 12.8883 0.760042 13.1817C0.835751 13.1628 0.930389 13.229 0.987171 13.2479C0.788433 13.3426 0.750578 13.6359 0.797896 13.8631L0.599158 13.7968C0.504521 14.1848 0.608622 14.6391 0.599158 15.0839C0.693795 14.923 1.04395 14.9798 1.07234 15.1028L0.760042 15.1501C0.949316 15.2353 0.88307 15.0177 1.1102 15.188C1.07234 15.3489 0.760042 15.2921 0.655941 15.1975L0.760042 15.3962C0.665404 15.4057 0.618086 15.3583 0.504521 15.3489C0.693795 15.4246 0.201682 15.7085 0.532912 15.8221L0.438275 15.841C0.457202 16.2953 0.589694 16.494 0.646477 16.8631C0.911461 16.8347 0.873606 16.9861 1.10074 17.0524C1.05342 17.3173 0.911461 17.6675 1.01556 17.9798C1.20484 18.1691 1.25216 17.9893 1.43197 18.046C1.20484 18.1218 1.30894 18.4341 1.10074 18.3205C1.26162 18.6801 1.29947 18.7937 1.66856 19.1722C1.74427 19.0871 1.75373 19.0113 1.84837 19.0113C1.91462 19.0776 1.82944 19.229 1.71588 19.2669L1.68749 19.2574C1.9714 19.4372 1.93354 19.7874 1.95247 20.1375C1.96193 20.4877 2.00925 20.8284 2.34995 20.8662L2.31209 20.8568C2.47298 20.9325 2.63386 21.0082 2.79474 21.0744C2.89884 21.2637 2.56761 21.0839 2.54869 21.3016C3.17329 21.4435 3.02187 21.964 3.52345 22.0681C3.26793 22.8442 4.43197 22.7874 4.57392 23.3836L4.64017 23.2227C4.82944 23.1375 4.71588 23.3741 4.77266 23.4593C4.82944 23.3363 4.73481 23.2606 4.84837 23.2227C5.33102 23.3836 5.74742 23.6391 6.23007 23.8946C6.71272 24.1596 7.24269 24.3867 7.79159 24.4814C8.19853 24.5287 8.00925 23.6296 8.48244 23.9987L8.35941 24.33C9.08812 23.923 9.94932 24.1123 10.5455 23.5255C10.5361 23.6107 10.5645 23.6959 10.4982 23.7243C10.7348 23.8757 11.0566 23.4971 10.9619 23.3173C11.0755 23.2795 11.066 23.4498 11.1701 23.4971C11.3878 23.535 11.3783 23.0524 11.5676 23.1943C11.596 23.2132 11.5676 23.2795 11.5487 23.3173C11.5771 23.1659 11.984 23.0618 11.7474 22.9009C12.0597 22.8252 12.107 22.4751 12.372 22.4372C12.2679 22.1249 12.8263 22.1817 12.5424 21.8599C12.8452 22.1533 13.1481 21.6706 13.0629 21.3962C13.1386 21.5192 13.2616 21.33 13.3752 21.4908C13.4982 21.3016 13.5171 21.0839 13.2995 21.0177C13.6118 20.9609 13.6118 20.7243 13.5928 20.535C13.5739 20.3363 13.555 20.1848 13.8957 20.1754C13.8484 19.494 13.7537 18.9451 13.6496 18.4341C14.085 18.453 13.678 19.0019 14.1134 19.0208C13.9714 18.4719 13.6023 18.2164 13.6591 17.7432C13.7064 17.6107 13.8484 17.7905 13.9241 17.8284C13.7064 17.3647 13.82 16.882 13.4793 16.5224C13.5171 16.5129 13.5739 16.5413 13.6118 16.5792C13.5739 16.5035 13.6212 16.371 13.432 16.4372L13.5077 16.5035C13.2711 16.7022 12.8547 16.3615 12.7033 16.3994C13.2805 16.352 12.7127 15.983 13.4414 15.9546C13.3846 15.9167 13.2805 15.8788 13.1575 15.9356C13.167 15.8505 13.2238 15.7937 13.3941 15.8221C13.1954 15.576 13.0345 15.7558 12.9399 15.5098C13.025 15.4719 13.0818 15.5098 13.1954 15.4908C12.9777 15.4341 12.76 15.3867 12.7411 15.1596C12.7979 15.1501 12.8547 15.0934 12.8831 15.1501C12.6938 14.8189 12.1733 14.8 12.1449 14.3741C12.5613 14.2795 12.2017 14.1943 12.4951 13.9956L12.2963 13.8631L12.1922 14.024C12.107 13.8536 11.7947 13.8536 11.8137 13.6549L12.0124 13.7022L11.7758 13.4372L11.7664 13.6738C11.5108 13.6076 11.3973 13.9199 11.3499 13.6643C11.4067 13.6833 11.2553 13.5129 11.3878 13.3142C11.2458 13.2953 11.0944 13.2858 11.0944 13.1249C11.1701 13.0303 11.4351 12.9356 11.4919 12.8788C11.1985 12.964 11.1985 12.5665 10.8673 12.6423C10.9525 12.6328 11.1039 12.5382 11.1323 12.5003L10.8862 12.5665C10.9052 12.453 10.9335 12.4246 11.066 12.3583C10.9714 12.1218 10.7348 12.6706 10.7348 12.311C10.7632 12.3205 10.7916 12.2921 10.8484 12.311C10.7727 12.0082 10.413 11.9136 10.3657 11.6202C10.6307 11.3647 10.5645 11.7716 10.7727 11.535C10.5171 11.2416 9.99664 11.0807 9.92093 10.7211L9.91146 10.7968C9.42881 10.9672 10.025 10.4561 9.75058 10.3994C9.7979 10.4277 10.0345 10.352 9.97771 10.3615C9.97771 10.1344 9.72219 10.0019 9.53291 9.67065L9.68433 9.72743C9.78843 9.6044 9.74111 9.40566 9.82629 9.28264C9.70326 9.22585 9.74111 9.15014 9.54238 9.16907C9.93985 9.00819 9.89253 8.81891 9.85468 8.57286C9.81682 8.33626 9.78843 8.07128 10.1575 8.00503C10.1386 8.05235 10.2143 8.16592 10.2238 8.12806L10.2711 7.74005C10.0629 7.6738 10.1291 7.73059 9.93985 7.72112C9.84521 7.62648 9.7979 7.48453 9.84522 7.38989C9.902 7.60756 10.1575 7.54131 10.2995 7.53185C10.2332 7.51292 10.1764 7.45614 10.1197 7.43721C10.555 7.43721 9.74111 7.21008 10.1007 7.08705L10.1954 7.1533C10.1859 7.03973 10.1007 6.87885 10.1859 6.79368C10.432 6.86939 10.2332 6.9451 10.413 7.0492C10.4698 6.90724 10.1386 6.54762 10.432 6.54762C10.4604 6.64226 10.413 6.72743 10.4509 6.8126C10.7821 6.82207 10.7253 6.77475 10.82 6.69904L10.8105 6.7085L11.0566 6.55708L10.9525 6.57601C10.4793 6.07443 11.0471 6.17853 10.82 5.73374C11.0282 6.16907 10.9998 5.89462 11.2269 6.06497C11.331 6.05551 11.454 6.01765 11.5108 6.0839C11.3783 5.85677 11.7664 6.01765 11.5865 5.68642C11.6717 5.73374 11.6622 5.58232 11.8421 5.73374C11.8705 5.56339 11.6906 5.67696 11.596 5.60125C11.473 5.2227 12.2301 5.35519 12.0881 4.82522C12.126 4.47507 11.9178 4.23847 11.9746 3.91671C12.1544 3.93563 12.1828 4.19115 12.1828 4.19115C12.3815 4.1533 12.4383 4.0492 12.4477 3.86939C12.4951 3.9451 12.5613 3.96402 12.6654 4.00188C12.7222 3.89778 12.4572 3.72743 12.6654 3.69904C12.7222 3.78421 12.8263 3.91671 12.8736 4.03027C12.902 3.87885 12.8547 3.66119 12.8831 3.5003C13.025 3.57601 13.0061 3.72743 13.0534 3.83153C13.1007 3.66119 13.2143 3.43406 13.0629 3.22585L12.9304 3.24478C12.9588 3.19746 13.1102 3.36781 13.1197 3.43406C13.1764 3.67065 12.9209 3.51923 12.8452 3.46245L12.8736 3.34888C12.4004 3.06497 12.6654 3.71797 12.514 3.85046L12.2679 3.52869L12.3815 3.89778C12.2774 3.86939 12.0881 3.74636 12.107 3.63279C11.861 3.62333 12.126 3.82207 11.8799 3.78421C11.8421 3.77475 11.8326 3.75582 11.8326 3.73689V3.92617C11.7853 3.85046 11.596 3.77475 11.7001 3.73689C11.3499 3.80314 11.6717 4.2574 11.3689 4.1533V4.09652C11.2553 4.47507 11.5771 4.29525 11.6906 4.72112L11.0093 4.44667L11.2269 4.64541C11.1985 4.6738 11.1323 4.72112 11.0471 4.63595C11.1323 4.86308 11.1607 4.69273 11.2648 4.86308C10.943 4.86308 11.085 5.34573 10.678 5.1186C10.82 5.29841 10.9146 5.07128 10.9335 5.31734C10.4887 5.09021 10.8768 5.55393 10.6023 5.56339C10.413 5.38358 10.6118 5.31734 10.3279 5.34573C10.6402 5.65803 10.0723 5.57286 10.0723 5.7432C10.3657 5.92301 10.0345 6.0839 10.0156 6.34888C9.92093 6.28264 9.63701 6.65172 9.41935 6.79368L9.38149 6.75582C9.6654 6.95456 9.50452 7.12491 9.49506 7.30472C9.31525 7.21008 9.249 7.14383 9.21115 7.02081L9.1449 7.16276C9.22061 7.24794 9.25846 7.31418 9.249 7.42775L9.03133 7.27633C8.95563 7.47506 9.12597 7.78737 8.86099 7.98611C9.08812 8.08074 9.5613 8.04289 9.61809 8.35519C9.49506 8.31734 9.27739 8.25109 9.25846 8.16592C9.26793 8.19431 9.33418 8.28895 9.25846 8.30787L9.08812 8.12806C8.95563 8.21324 9.23954 8.25109 9.18276 8.33626C9.00294 8.27002 9.03134 8.36465 8.89884 8.29841C8.88938 8.27002 9.00294 8.24163 8.94616 8.17538C8.87045 8.27002 8.7285 8.37412 8.57708 8.38358C8.68118 8.40251 8.81367 8.45929 8.81367 8.54447C8.77582 8.7716 8.57708 8.56339 8.45405 8.67696C8.56761 8.76213 8.40673 8.89462 8.68118 8.94194C8.66225 9.01765 8.53922 9.00819 8.45405 9.02712C8.54869 9.16907 8.44458 9.63279 8.74742 9.5003L8.76635 9.47191C8.76635 9.48137 8.77582 9.48137 8.77582 9.49084C9.0408 9.85992 8.68118 10.3236 8.92723 10.6738L8.84206 10.7022C9.01241 10.882 9.08812 11.147 9.34364 11.1943C9.37203 11.2511 9.25846 11.4025 9.1449 11.4309C9.28686 11.5445 9.38149 11.5066 9.37203 11.7905C9.1449 11.7243 9.27739 11.9136 9.18276 11.7053C9.22061 11.9325 9.11651 12.0555 9.4572 12.1123C9.21115 12.1691 9.28686 12.4057 9.40042 12.453L9.46667 12.2353C9.55184 12.311 9.58969 12.4057 9.61809 12.5003L9.32471 12.6139C9.23007 13.1817 10.2805 12.9072 9.91146 13.5129C10.1575 13.4845 9.92093 13.2385 10.1859 13.1817C10.2522 13.3615 9.97771 13.7779 10.0061 13.8252C9.99664 14.1375 10.5266 13.7779 10.5645 14.0713C10.6402 13.9861 10.8768 13.7968 11.0755 13.9104C11.1417 14.0902 10.7916 14.3552 10.6591 14.2984C10.6307 14.27 10.6496 14.2322 10.678 14.2132C10.6118 14.1848 10.5266 14.1375 10.4604 14.27L10.5645 14.2322C10.5171 14.3741 10.6591 14.5823 10.4698 14.6202C10.6307 14.6864 10.6591 14.5729 10.6591 14.4593C10.6402 14.7432 10.8389 14.7811 10.8673 15.0366C10.9052 14.9703 10.9998 14.8757 11.0187 14.9136C11.066 15.2921 11.2837 14.9514 11.4351 15.1407C11.3499 15.3394 11.0471 15.2826 11.2837 15.4341C11.2458 15.6139 11.0282 15.5949 10.9241 15.5855C11.2175 15.6801 10.9714 16.0019 10.9714 16.1154L10.8484 16.0587C10.9241 16.0965 10.943 16.1438 10.9619 16.1912L11.1417 16.0492C11.1323 16.1249 11.1512 16.1722 11.066 16.2101C11.2269 16.2101 11.3878 16.0113 11.6244 16.0587C11.5487 16.1817 11.8421 16.2574 11.5676 16.3994C11.5676 16.1154 11.3026 16.5318 11.1701 16.3426C11.2175 16.371 11.2364 16.4183 11.2175 16.4845C11.1891 16.5035 11.1607 16.494 11.1323 16.4845C10.9619 16.8063 11.4919 16.4656 11.5676 16.7211C11.3973 16.74 11.2837 16.8725 11.331 16.9009C11.3026 16.8063 11.5865 16.7684 11.738 16.8252C11.6528 17.024 11.8799 16.9766 11.8894 17.0713L11.9178 16.9577C12.0881 16.9482 12.0881 17.0429 12.1733 17.147C12.0503 17.1848 12.0597 17.0618 12.0124 17.1186C12.3342 17.1848 11.7853 17.4782 12.0029 17.6107C11.9083 17.7148 11.6906 17.6675 11.6244 17.7527C11.8705 17.9135 11.4257 17.9798 11.6149 18.1501C11.8326 18.0744 11.7758 18.065 12.0124 18.1975C11.9556 18.0839 11.8894 17.9798 11.8231 17.8757C11.9367 17.9325 12.0597 17.9987 12.1733 18.065C12.1638 17.9609 12.0124 17.8568 12.0408 17.7905C12.2395 17.8757 12.1828 17.8757 12.3626 17.8C12.0408 17.9798 12.5897 18.0839 12.372 18.2732L11.8137 18.2921C11.5676 18.5192 12.107 18.7085 11.9272 19.0113L12.0313 18.9262C12.249 18.9924 12.0408 19.1249 12.107 19.2385C11.9272 19.2006 11.8515 19.2479 11.7285 19.2574C11.861 19.2858 11.6717 19.4561 12.0219 19.5792L11.7474 19.6359C11.5771 19.8158 12.1544 20.0807 11.9746 20.2984C11.8231 20.147 11.6622 20.1754 11.596 19.9766C11.5581 20.0429 11.5014 20.0807 11.6244 20.147C11.5108 20.1281 11.738 20.4593 11.5487 20.4309C11.6055 20.5066 11.7569 20.6202 11.7001 20.6959C11.6623 20.6864 11.6244 20.6391 11.6244 20.6391C11.7096 20.6959 11.6339 20.8284 11.8515 20.8852C11.5203 20.8189 11.4446 20.9703 11.331 21.1028C11.2269 21.2448 11.1134 21.3962 10.8673 21.2637C10.7821 21.4341 10.6212 21.5949 10.4887 21.7085C10.4698 21.6517 10.4414 21.6328 10.4793 21.6233C10.1954 21.5855 10.6212 22.1533 10.29 22.1249C10.0345 21.9262 10.3373 21.9072 10.2143 21.8505C9.91146 21.33 9.96824 22.0587 9.6654 21.8031L9.68433 21.7558C9.49506 21.6044 9.46667 22.0871 9.23954 22.106C9.23954 22.106 9.23954 22.0492 9.22061 22.0208C9.16383 22.3615 8.88938 22.5318 8.67171 22.6454C8.70957 22.3994 8.75689 22.5035 8.68118 22.2669C8.58654 22.3142 8.76635 22.6549 8.56761 22.7495C8.48244 22.6265 8.33102 22.5224 8.30263 22.2574L8.47298 22.229C8.36888 21.8883 8.26477 22.2479 8.17014 22.2006L8.1796 22.0492C7.92408 22.0965 7.90515 22.4751 7.61178 22.4277L7.6307 22.5413C7.4225 22.8915 7.51714 22.3236 7.30894 22.5792L7.3184 22.2006C7.20484 22.2669 6.88307 22.494 6.6654 22.494C6.85468 22.2669 7.10074 22.1722 7.25216 22.0397C7.15752 22.0208 6.92093 22.0019 6.81682 22.1533C6.86414 22.1344 6.93985 22.0587 6.95878 22.1249C6.76951 22.371 6.54238 22.4656 6.33417 22.3804C6.62755 21.7274 5.87045 21.9924 6.00294 21.4151C5.55815 21.4624 5.47298 20.9514 5.15121 20.7243C4.89569 21.2448 5.04711 20.658 4.67802 21.1028C4.57392 21.0555 4.55499 21.0177 4.57392 20.9893C4.57392 20.8284 4.58339 20.6864 4.60231 20.5255C4.67802 20.3552 4.75373 20.5066 4.84837 20.412C4.73481 20.2227 4.96193 20.1754 4.99033 19.9766C4.85783 20.1375 4.71588 20.1281 4.70641 19.9861L4.61178 20.2889C4.17645 20.2606 4.81998 19.7874 4.40357 19.7495L4.60231 19.7117C4.4225 19.6549 4.29947 19.2763 3.81682 19.3804C3.85468 19.3236 3.97771 19.2101 4.04395 19.2479C3.92092 18.9167 3.20168 18.7369 3.36257 18.3394L3.50452 18.311C3.43828 18.2637 3.21115 18.2921 3.31525 18.1596C3.37203 18.1407 3.4572 18.1407 3.4572 18.1028C3.40042 18.0839 3.16383 18.0082 3.21115 17.8946L3.39096 17.923C3.4572 17.535 2.85152 17.4971 2.69064 17.1943C3.09758 17.1091 3.17329 16.8063 3.22061 16.6549H3.27739C3.26793 16.2385 2.85152 15.9735 2.68118 15.5571C3.11651 15.3016 2.87992 14.6864 3.18275 14.2984C3.09758 14.3552 2.86099 14.2511 2.82313 14.1754C2.91777 14.0902 2.57708 13.8631 2.94616 13.9293V13.9388C3.33417 13.9199 3.249 13.7117 3.29632 13.5602L2.80421 13.4467C3.58023 13.1817 2.76635 12.3016 3.46667 12.2448C3.37203 12.1123 3.40988 11.9987 3.31525 11.8662L3.57077 11.9514C3.71272 11.7053 3.78843 11.5823 3.83575 11.2416L3.99663 11.3741C4.07234 11.2038 3.3531 10.882 3.40042 10.7022L3.7979 10.7874C3.91146 10.4561 4.36572 10.2763 4.16698 9.82207C4.2143 9.85046 4.3184 9.90724 4.30894 9.96402C4.39411 9.80314 4.81998 9.49084 4.29947 9.31103C4.62124 9.46245 4.47928 9.00819 4.43197 8.7716L4.6591 8.91355C4.43197 8.62018 4.34679 8.57286 4.37518 8.33626C4.41304 8.29841 4.57392 8.39305 4.47928 8.42144C4.67802 8.3268 4.3184 8.18484 4.54553 8.06182L4.6591 8.21323C4.7632 8.06182 4.67802 8.03342 4.55499 7.84415C4.51714 7.69273 4.79159 7.57917 5.00925 7.68327C4.89569 7.58863 4.78212 7.39935 4.89569 7.34257C4.98086 7.38043 5.00925 7.43721 5.01872 7.47506C5.32156 7.31418 4.99979 6.92617 5.33102 6.89778C5.40673 6.9451 5.44458 6.95456 5.48244 6.95456C5.34995 7.14383 5.22692 7.29525 5.22692 7.27633C5.43512 7.40882 5.56761 7.27633 5.76635 7.57917C5.69064 7.3615 5.50137 6.91671 5.70957 6.83153C5.7285 6.841 5.75689 6.85046 5.79474 6.86939L5.80421 6.89778C5.85152 6.87885 5.85152 6.83153 5.84206 6.78421C5.89884 6.75582 5.94616 6.74636 5.98402 6.69904C6.15436 6.80314 6.20168 6.59494 6.25846 6.52869C6.05026 6.36781 6.16383 6.30156 5.91777 6.25424C5.94616 6.25424 5.92723 6.2921 5.89884 6.34888C5.89884 6.36781 5.88938 6.37727 5.89884 6.3962L5.87992 6.37727C5.85152 6.43406 5.80421 6.5003 5.75689 6.57601C5.69064 6.43406 5.64332 6.30156 5.8326 6.31103C5.71903 6.16907 5.61493 6.00819 5.56761 5.94194C5.94616 6.06497 6.25846 5.99872 6.4572 6.12175C6.52345 5.80945 6.81682 5.56339 6.58969 5.08074C6.59916 4.97664 6.76004 5.10913 6.83575 5.14699C6.83575 5.21324 6.78843 5.25109 6.82629 5.31734C6.84522 5.10913 7.12913 4.93879 6.92093 4.66434C7.18591 4.63595 7.05342 4.97664 7.22376 4.74005L7.27108 4.84415C8.02818 4.9104 7.41304 3.54762 8.35941 3.76529C8.30263 3.75582 8.27424 3.74636 8.23638 3.7085C8.97455 3.58548 9.38149 2.68642 10.2332 2.89462C10.4509 2.91355 10.3941 2.70535 10.4604 2.50661L10.5928 2.76213L10.6875 2.38358C10.9241 2.06182 11.3499 2.92301 11.6055 2.41197L11.5203 2.23216C11.6622 2.24163 11.9272 2.05235 11.9367 2.27002C11.9462 2.23216 11.9556 2.06182 12.0219 2.15645L12.0408 2.30787C12.1354 2.21324 12.2395 2.10913 12.3436 2.02396C12.6086 2.1186 12.3531 2.61071 12.7033 2.62964C12.8263 2.57286 13.0723 2.19431 13.025 2.09021C12.9682 2.08074 12.8831 1.99557 12.8736 1.85361L13.0061 1.7779C13.0345 1.33311 13.167 0.888315 12.7884 0.576012L12.5329 0.85046L12.4383 0.642258C12.514 0.632794 12.5802 0.62333 12.6559 0.62333C12.5234 0.424592 12.4477 0.613867 12.372 0.736895C12.3436 0.62333 12.3058 0.547621 12.249 0.509766C12.1733 0.661185 12.0976 0.793677 12.0313 0.945097C11.984 0.77475 12.107 0.594939 11.9272 0.519229C11.8326 0.727431 12.0787 0.888315 11.9083 1.03973C11.7664 0.85046 11.7758 0.680113 11.6623 0.869387C11.6244 0.755822 11.6433 0.680113 11.7001 0.62333C11.5865 0.77475 11.3689 0.736895 11.3405 0.973488C11.1701 0.746359 10.9335 1.12491 10.8578 0.717968C10.8389 0.822068 10.7064 1.08705 10.6023 1.13437C10.678 0.594939 10.1764 1.22901 10.0723 0.69904C10.0534 1.18169 9.58023 1.07759 9.40988 1.41828C9.40988 1.38043 9.40988 1.30472 9.44774 1.31418C9.27739 1.34257 9.18276 1.22901 9.05973 1.20062C9.18276 1.55078 9.00294 1.72112 8.98402 1.98611C8.65279 1.74951 8.89884 1.54131 8.7001 1.2574C8.8326 1.52238 8.52976 1.68327 8.7001 1.87254C8.46351 1.74005 8.52976 1.83469 8.32156 1.58863C8.51083 2.0145 8.23638 1.73059 8.26477 2.03342C7.9714 1.93879 7.99979 1.68327 7.8673 1.91986C7.69695 1.86308 7.80105 1.60756 7.80105 1.60756ZM4.33733 5.93248C4.35626 5.89462 4.37518 5.85677 4.38465 5.83784C4.37518 5.85677 4.36572 5.88516 4.33733 5.93248ZM4.09127 6.30156C4.12913 6.26371 4.16698 6.20693 4.20484 6.15014C4.29001 6.188 4.35626 6.25424 4.32786 6.2921C4.29947 6.23532 4.19537 6.2921 4.09127 6.30156ZM6.10704 6.65172C6.09758 6.71797 6.05026 6.7085 6.00294 6.68011C6.01241 6.65172 6.02187 6.62333 6.0408 6.57601L6.01241 6.54762C6.05026 6.58547 6.08812 6.61387 6.10704 6.65172Z" fill="#342B1D"/>
<path d="M5.89877 6.3484C5.89877 6.33894 5.8893 6.32947 5.89877 6.32001C5.87037 6.32001 5.85145 6.31055 5.83252 6.31055L5.8893 6.37679L5.89877 6.3484Z" fill="#342B1D"/>
<path d="M8.74726 9.49189L8.73779 9.50135C8.74726 9.50135 8.75672 9.49189 8.77565 9.48242C8.76618 9.49189 8.75672 9.49189 8.74726 9.49189Z" fill="#342B1D"/>
<path d="M1.13867 11.6961L1.20492 11.7055L1.1576 11.6582L1.13867 11.6961Z" fill="#342B1D"/>
<path d="M10.3091 7.53125C10.328 7.54071 10.3564 7.54071 10.3848 7.53125C10.3659 7.53125 10.3375 7.53125 10.3091 7.53125Z" fill="#342B1D"/>
<path d="M10.8198 6.69876L10.9712 6.62305C10.8955 6.65144 10.8482 6.67983 10.8198 6.69876Z" fill="#342B1D"/>
<path d="M11.3215 6.12063C11.2836 6.09224 11.2553 6.06385 11.2363 6.04492L11.3215 6.12063Z" fill="#342B1D"/>
<path d="M13.6211 16.5703C13.6211 16.5798 13.6306 16.5892 13.64 16.5987C13.7063 16.665 13.6779 16.6176 13.6211 16.5703Z" fill="#342B1D"/>
<path d="M11.3975 13.3239C11.4637 13.3334 11.5205 13.3429 11.5678 13.3618C11.5489 13.2956 11.53 13.2482 11.3975 13.3239Z" fill="#342B1D"/>
<path d="M13.3754 21.4902L13.3564 21.5186L13.3754 21.4902Z" fill="#342B1D"/>
<path d="M11.653 13.5127C11.6625 13.4276 11.6247 13.3897 11.5679 13.3613C11.5868 13.4181 11.5963 13.4844 11.653 13.5127Z" fill="#342B1D"/>
<path d="M13.3564 3.64107L13.3848 3.62214C13.3754 3.61268 13.3659 3.60321 13.3564 3.59375V3.64107Z" fill="#342B1D"/>
<path d="M13.3561 3.58443V3.53711C13.3467 3.54657 13.3372 3.5655 13.3561 3.58443Z" fill="#342B1D"/>
<path d="M13.3659 3.43359L13.3564 3.53769C13.3848 3.51877 13.4132 3.49984 13.3659 3.43359Z" fill="#342B1D"/>
<path d="M12.6182 4.30469L12.6844 4.37093C12.6749 4.35201 12.656 4.33308 12.6182 4.30469Z" fill="#342B1D"/>
<path d="M12.4574 4.5509C12.5236 4.51305 12.7318 4.54144 12.7413 4.42788L12.6845 4.37109C12.7697 4.49412 12.3722 4.39948 12.4574 4.5509Z" fill="#342B1D"/>
<path d="M10.7252 4.89148L10.9429 4.71166C10.8293 4.69274 10.6874 4.66435 10.7347 4.55078C10.2899 4.65488 10.9618 4.62649 10.7252 4.89148Z" fill="#342B1D"/>
<path d="M10.1479 5.50614C10.1857 5.35472 10.0249 5.43043 9.97754 5.39258C10.0059 5.51561 10.0154 5.55346 10.1479 5.50614Z" fill="#342B1D"/>
<path d="M9.09755 11.5254L8.87988 11.6295C8.96506 11.7147 8.95559 11.5822 9.09755 11.5254Z" fill="#342B1D"/>
<path d="M10.7445 11.8559L10.8202 11.6855L10.6025 11.7613L10.7445 11.8559Z" fill="#342B1D"/>
<path d="M9.64644 13.3431L9.59912 13.3242L9.76947 13.4283L9.64644 13.3431Z" fill="#342B1D"/>
<path d="M10.8389 20.9329L11.0565 21.1317C11.066 21.0465 10.8389 20.8004 10.8389 20.9329Z" fill="#342B1D"/>
<path d="M7.64972 22.258C7.62133 22.1065 7.53616 22.0024 7.46045 22.1349C7.53616 22.1728 7.60241 22.2958 7.64972 22.258Z" fill="#342B1D"/>
<path d="M3.21094 13.3241L3.29611 13.4187L3.23933 13.2578L3.21094 13.3241Z" fill="#342B1D"/>
<path d="M33.3151 2.84752C33.2773 2.77181 33.1353 2.64878 33.1069 2.73396L33.2867 2.99894L33.3151 2.84752Z" fill="#342B1D"/>
<path d="M32.5298 2.81838C32.5771 2.98872 32.6907 3.25371 32.9462 3.40513C32.7853 3.13068 32.8989 3.20639 32.7096 2.88462C32.738 2.79945 32.8799 2.85623 32.9557 2.94141C32.9178 2.8657 33.0881 2.90355 32.984 2.7332C32.738 2.63857 32.6339 2.72374 32.6907 2.96033C32.6055 2.94141 32.5582 2.8657 32.5298 2.81838Z" fill="#342B1D"/>
<path d="M28.1763 9.56655L28.2141 9.50977C28.1952 9.51923 28.1763 9.53816 28.1763 9.56655Z" fill="#342B1D"/>
<path d="M30.2395 14.2316C30.2111 14.2032 30.1827 14.2032 30.1543 14.2222C30.1922 14.2411 30.2205 14.2506 30.2395 14.2316Z" fill="#342B1D"/>
<path d="M30.3528 15.102C30.3528 15.0831 30.3528 15.0642 30.3528 15.0547C30.3244 15.0831 30.3244 15.102 30.3528 15.102Z" fill="#342B1D"/>
<path d="M28.1762 9.56641L28.0815 9.72729C28.1856 9.72729 28.1478 9.64212 28.1762 9.56641Z" fill="#342B1D"/>
<path d="M32.3689 4.11582C32.3784 4.08743 32.3689 4.04957 32.35 4.01172C32.35 4.04011 32.3405 4.05904 32.3311 4.07796L32.3689 4.11582Z" fill="#342B1D"/>
<path d="M28.5928 7.20115L28.6117 7.1633C28.5833 7.13491 28.5455 7.10652 28.5171 7.07812L28.5928 7.20115Z" fill="#342B1D"/>
<path d="M29.378 5.6582C29.3496 5.68659 29.5673 5.83801 29.6619 5.90426C29.5768 5.82855 29.5484 5.78123 29.5484 5.74338C29.501 5.71499 29.4443 5.68659 29.378 5.6582Z" fill="#342B1D"/>
<path d="M28.0531 8.38446C28.0153 8.375 27.9774 8.375 27.9585 8.375C27.9869 8.38446 28.0153 8.39393 28.0531 8.38446Z" fill="#342B1D"/>
<path d="M30.3149 0.679591C30.3149 0.698518 30.3244 0.707982 30.3244 0.726909C30.3339 0.698518 30.3244 0.670127 30.3149 0.679591Z" fill="#342B1D"/>
<path d="M32.501 1.75L32.4821 1.76893L32.4727 1.92035L32.501 1.75Z" fill="#342B1D"/>
<path d="M30.6273 16.4945C30.5895 16.4661 30.6084 16.4756 30.6273 16.4945V16.4945Z" fill="#342B1D"/>
<path d="M24.4665 20.582C24.4097 20.847 24.088 20.6483 24.0596 20.9795C24.1258 20.8943 24.4854 20.8092 24.4665 20.582Z" fill="#342B1D"/>
<path d="M32.3215 4.125C32.3121 4.14393 32.2932 4.16286 32.2837 4.17232C32.3026 4.16286 32.3215 4.14393 32.3215 4.125Z" fill="#342B1D"/>
<path d="M31.1099 19.2571C31.1572 19.2571 31.195 19.2571 31.2329 19.2571C31.2045 19.2476 31.1666 19.2476 31.1099 19.2571Z" fill="#342B1D"/>
<path d="M31.3846 17.0723L31.3657 17.1385C31.3846 17.1101 31.3846 17.0912 31.3846 17.0723Z" fill="#342B1D"/>
<path d="M31.0719 20.3652C31.0435 20.3747 31.0057 20.3652 31.0152 20.422C31.0246 20.422 31.0341 20.4315 31.053 20.4315C31.0246 20.3936 31.0152 20.3747 31.0719 20.3652Z" fill="#342B1D"/>
<path d="M30.3057 21.236L30.3624 21.2644L30.3814 21.2266L30.3057 21.236Z" fill="#342B1D"/>
<path d="M26.0469 2.92357C26.1226 2.96143 26.1888 3.00875 26.2551 3.06553C26.1131 2.93304 26.2551 2.7343 26.0469 2.92357Z" fill="#342B1D"/>
<path d="M32.2549 4.02148C32.3022 4.0688 32.3211 4.09719 32.3117 4.12559C32.3211 4.11612 32.3211 4.09719 32.3306 4.07827C32.3117 4.05934 32.2833 4.03095 32.2549 4.02148Z" fill="#342B1D"/>
<path d="M32.8228 21.5195L32.624 21.7561C32.6997 21.6993 32.766 21.6142 32.8228 21.5195Z" fill="#342B1D"/>
<path d="M20.6149 12.2166L20.596 12.1504C20.5865 12.1693 20.5865 12.1977 20.6149 12.2166Z" fill="#342B1D"/>
<path d="M32.0849 22.4465C31.9808 22.4181 31.9051 22.4181 31.8389 22.4275C31.8483 22.4465 31.8483 22.4749 31.8578 22.5032L32.0849 22.4465Z" fill="#342B1D"/>
<path d="M27.2772 1.60772C27.0595 1.73075 27.3529 1.95788 27.4097 2.15661C27.2204 2.39321 27.1636 2.01466 26.9838 1.91056C26.8703 2.0809 26.946 2.43106 26.8229 2.48784C26.7851 2.44999 26.7472 2.44053 26.7378 2.36482C26.7378 2.69605 26.293 2.70551 26.3308 3.11245C26.3024 3.09352 26.274 3.08406 26.2551 3.06513C26.3876 3.1787 26.5012 3.32065 26.5769 3.42475C26.5012 3.491 26.5674 3.70866 26.3971 3.55724C26.4538 3.51939 26.3971 3.45314 26.3687 3.37743L26.3497 3.51939C26.0658 3.33012 26.3971 3.33958 26.2456 3.1503C26.1415 3.36797 26.1415 3.72759 25.9617 3.76545C25.7251 3.54778 26.1794 3.43422 25.8198 3.35851L26.0942 3.2828C25.621 3.01781 26.2362 3.20709 25.7535 2.90425C25.4318 3.06513 25.5643 3.27333 25.252 3.44368C25.3182 3.62349 25.4507 3.62349 25.5169 3.8033C25.4128 4.3522 24.6841 3.491 24.7409 4.03989C24.8356 4.25756 25.11 4.55094 24.7882 4.58879L24.5706 4.28595C24.3245 4.50362 24.845 4.7686 24.4381 4.86324C24.3718 4.73075 24.5138 4.59825 24.4475 4.59825C24.0879 4.57933 24.5043 4.84431 24.4002 4.9768L24.1258 4.79699C23.946 5.09983 23.8986 5.53516 23.7378 5.87586C23.6715 5.80015 23.6242 5.69605 23.4917 5.70551C23.3497 6.18816 22.8955 6.51939 22.498 6.83169L22.6494 7.12507C22.6305 7.16292 22.5075 7.12507 22.4791 7.06829C22.2993 7.17239 22.6305 7.16292 22.6778 7.28595C22.6494 7.38059 22.4696 7.32381 22.4318 7.22917C22.4791 7.61718 22.4696 8.24179 22.0627 8.41213L22.0154 8.3175C21.8072 8.50677 22.4128 8.81907 22.0816 8.92317L22.0532 8.86639C21.7125 9.32065 21.7315 9.96418 21.2015 10.2197C21.5516 10.4279 20.8513 10.6834 21.3718 10.8916C21.0122 11.0998 20.946 10.9863 20.6337 11.3648C20.5769 11.4784 20.9176 11.6298 20.9365 11.7907L20.6526 11.715L20.8986 11.9894L20.539 12.0083L20.5769 12.1598C20.6053 12.1124 20.7283 12.0746 20.8135 12.103C20.8892 12.3396 20.4917 12.5667 20.3498 12.5478C20.3876 12.7371 20.4444 12.9169 20.4917 13.1061C20.3781 13.0777 20.3498 12.9831 20.293 12.8979C20.539 13.2292 19.9807 12.8979 20.2078 13.1913C20.2835 13.1724 20.3781 13.2386 20.4349 13.2576C20.2362 13.3522 20.1983 13.6456 20.2456 13.8727L20.0469 13.8065C19.9523 14.1945 20.0564 14.6487 20.0469 15.0935C20.1415 14.9326 20.4917 14.9894 20.5201 15.1124L20.2078 15.1598C20.3971 15.2449 20.3308 15.0273 20.558 15.1976C20.5201 15.3585 20.2078 15.3017 20.1037 15.2071L20.2078 15.4058C20.1132 15.4153 20.0658 15.368 19.9523 15.3585C20.1415 15.4342 19.6494 15.7181 19.9807 15.8317L19.886 15.8506C19.905 16.3049 20.0374 16.5036 20.0942 16.8727C20.3592 16.8443 20.3214 16.9957 20.5485 17.062C20.5012 17.327 20.3592 17.6771 20.4633 17.9894C20.6526 18.1787 20.6999 17.9989 20.8797 18.0557C20.6526 18.1314 20.7567 18.4437 20.5485 18.3301C20.7094 18.6897 20.7472 18.8033 21.1163 19.1818C21.192 19.0967 21.2015 19.021 21.2961 19.021C21.3624 19.0872 21.2772 19.2386 21.1636 19.2765L21.1352 19.267C21.4192 19.4468 21.3813 19.797 21.4002 20.1472C21.4097 20.4973 21.457 20.838 21.7977 20.8759L21.7598 20.8664C21.9207 20.9421 22.0816 21.0178 22.2425 21.0841C22.3466 21.2733 22.0154 21.0935 21.9964 21.3112C22.621 21.4531 22.4696 21.9736 22.9712 22.0777C22.7157 22.8538 23.8797 22.797 24.0217 23.3932L24.0879 23.2323C24.2772 23.1472 24.1636 23.3837 24.2204 23.4689C24.2772 23.3459 24.1826 23.2702 24.2961 23.2323C24.7788 23.3932 25.1952 23.6487 25.6778 23.9042C26.1605 24.1692 26.6904 24.3964 27.2393 24.491C27.6463 24.5383 27.457 23.6393 27.9302 24.0083L27.8166 24.3301C28.5453 23.9232 29.4065 24.1124 30.0027 23.5257C29.9933 23.6109 30.0217 23.696 29.9554 23.7244C30.192 23.8759 30.5138 23.4973 30.4191 23.3175C30.5327 23.2796 30.5232 23.45 30.6274 23.4973C30.845 23.5352 30.8356 23.0525 31.0248 23.1945C31.0532 23.2134 31.0248 23.2796 31.0059 23.3175C31.0343 23.1661 31.4412 23.062 31.2046 22.9011C31.5169 22.8254 31.5643 22.4752 31.8292 22.4374C31.7251 22.1251 32.2835 22.1818 31.9996 21.8601C32.3024 22.1535 32.6053 21.6708 32.5201 21.3964C32.5958 21.5194 32.7188 21.3301 32.8324 21.491C32.9554 21.3017 32.9744 21.0841 32.7567 21.0178C33.069 20.961 33.069 20.7244 33.0501 20.5352C33.0311 20.3364 33.0122 20.185 33.3529 20.1755C33.3056 19.4942 33.2109 18.9453 33.1068 18.4342C33.5422 18.4531 33.1352 19.002 33.5706 19.021C33.4286 18.4721 33.0595 18.2165 33.1163 17.7434C33.1636 17.6109 33.3056 17.7907 33.3813 17.8285C33.1636 17.3648 33.2772 16.8822 32.9365 16.5225C32.9744 16.5131 33.0311 16.5415 33.069 16.5793C33.0311 16.5036 33.0785 16.3711 32.8892 16.4374L32.9649 16.5036C32.7283 16.7024 32.3119 16.3617 32.1605 16.3995C32.7283 16.3522 32.1699 15.9831 32.8986 15.9547C32.8419 15.9169 32.7378 15.879 32.6147 15.9358C32.6242 15.8506 32.681 15.7938 32.8513 15.8222C32.6526 15.5762 32.4917 15.756 32.3971 15.5099C32.4822 15.4721 32.539 15.5099 32.6526 15.491C32.4349 15.4342 32.2173 15.3869 32.1983 15.1598C32.2551 15.1503 32.3119 15.0935 32.3403 15.1503C32.151 14.8191 31.6305 14.8001 31.6021 14.3743C32.0185 14.2796 31.6589 14.1945 31.9523 13.9957L31.7535 13.8632L31.6494 14.0241C31.5643 13.8538 31.252 13.8538 31.2709 13.655L31.4696 13.7024L31.233 13.4374L31.2236 13.674C30.968 13.6077 30.8545 13.92 30.8072 13.6645C30.8639 13.6834 30.7125 13.5131 30.845 13.3143C30.7031 13.2954 30.5516 13.286 30.5516 13.1251C30.6274 13.0304 30.8923 12.9358 30.9491 12.879C30.6557 12.9642 30.6557 12.5667 30.3245 12.6424C30.4097 12.633 30.5611 12.5383 30.5895 12.5005L30.3434 12.5667C30.3624 12.4531 30.3908 12.4248 30.5232 12.3585C30.4286 12.1219 30.192 12.6708 30.192 12.3112C30.2204 12.3207 30.2488 12.2923 30.3056 12.3112C30.2299 12.0083 29.8703 11.9137 29.8229 11.6203C30.0879 11.3648 30.0217 11.7718 30.2299 11.5352C29.9744 11.2418 29.4538 11.0809 29.3781 10.7213L29.3687 10.797C28.886 10.9673 29.4822 10.4563 29.2078 10.3995C29.2551 10.4279 29.4917 10.3522 29.4349 10.3617C29.4349 10.1345 29.1794 10.002 28.9901 9.67081L29.1226 9.6992C29.2267 9.57617 29.1794 9.37743 29.2646 9.25441C29.1415 9.19762 29.1794 9.12191 28.9807 9.14084C29.3781 8.97996 29.3308 8.79068 29.293 8.54463C29.2551 8.30803 29.2267 8.04305 29.5958 7.9768C29.5769 8.02412 29.6526 8.13769 29.6621 8.09983L29.7472 7.73075C29.539 7.6645 29.6053 7.72128 29.416 7.71182C29.3214 7.61718 29.274 7.47523 29.3214 7.38059C29.3781 7.59825 29.6337 7.53201 29.7756 7.52254C29.7094 7.50362 29.6526 7.44683 29.5958 7.42791C30.0311 7.42791 29.2173 7.20078 29.5769 7.07775L29.6715 7.144C29.6621 7.03043 29.5769 6.86955 29.6621 6.78437C29.9081 6.86008 29.7094 6.93579 29.8892 7.03989C29.946 6.89794 29.6147 6.53832 29.9081 6.53832C29.9365 6.63295 29.8892 6.71813 29.927 6.8033C30.2583 6.81276 30.2015 6.76545 30.2961 6.68974L30.2867 6.6992L30.5327 6.54778L30.4286 6.56671C29.9554 6.06513 30.5232 6.16923 30.2961 5.72444C30.5043 6.15977 30.4759 5.88532 30.7031 6.05567C30.8072 6.0462 30.9302 6.00835 30.987 6.07459C30.8545 5.84747 31.2425 6.00835 31.0627 5.67712C31.1479 5.72444 31.1384 5.57302 31.3182 5.72444C31.3466 5.55409 31.1668 5.66765 31.0721 5.59194C30.9491 5.2134 31.7062 5.34589 31.5643 4.81592C31.6021 4.46576 31.3939 4.22917 31.4507 3.9074C31.6305 3.92633 31.6589 4.18185 31.6589 4.18185C31.8576 4.144 31.9144 4.03989 31.9239 3.86008C31.9712 3.93579 32.0374 3.95472 32.1415 3.99258C32.1983 3.88847 31.9333 3.71813 32.1415 3.68974C32.1983 3.77491 32.3024 3.9074 32.3497 4.02097C32.3781 3.86955 32.3308 3.65188 32.3592 3.491C32.5012 3.56671 32.4822 3.71813 32.5296 3.82223C32.5769 3.65188 32.6904 3.42475 32.539 3.21655L32.4065 3.23548C32.4349 3.18816 32.5863 3.35851 32.5958 3.42475C32.6526 3.66135 32.3971 3.50993 32.3214 3.45314L32.3497 3.33958C31.8766 3.05567 32.1415 3.70866 31.9901 3.84116L31.7441 3.51939L31.8576 3.88847C31.7535 3.86008 31.5643 3.73706 31.5832 3.62349C31.3371 3.61403 31.6021 3.81276 31.3561 3.77491C31.3182 3.76545 31.3087 3.74652 31.3087 3.72759V3.91687C31.2614 3.84116 31.0721 3.76545 31.1762 3.72759C30.8261 3.79384 31.1479 4.2481 30.845 4.144V4.09668C30.7315 4.47523 31.0532 4.29541 31.1668 4.72128L30.4854 4.44683L30.7031 4.64557C30.6747 4.67396 30.6084 4.72128 30.5232 4.63611C30.6084 4.86324 30.6368 4.69289 30.7409 4.86324C30.4191 4.86324 30.5611 5.34589 30.1542 5.11876C30.3056 5.29857 30.3908 5.07144 30.4097 5.3175C29.9649 5.09037 30.3529 5.55409 30.0785 5.56355C29.8892 5.38374 30.0879 5.3175 29.804 5.34589C30.1163 5.65819 29.5485 5.57302 29.5485 5.74336C29.8419 5.92317 29.5106 6.08406 29.4917 6.34904C29.3971 6.2828 29.1132 6.65188 28.8955 6.79384L28.8482 6.76545C29.1321 6.96418 28.9712 7.13453 28.9712 7.31434C28.7914 7.2197 28.7251 7.15346 28.6873 7.03043L28.6116 7.16292C28.6968 7.2481 28.7251 7.31434 28.7157 7.42791L28.498 7.27649C28.4223 7.47523 28.5927 7.78753 28.3277 7.98627C28.5548 8.0809 29.028 8.04305 29.0848 8.35535C28.9617 8.3175 28.7441 8.25125 28.7251 8.16608C28.7346 8.19447 28.8009 8.28911 28.7251 8.30803L28.5548 8.12822C28.4223 8.2134 28.7062 8.25125 28.6494 8.33642C28.4696 8.27018 28.498 8.36482 28.3655 8.29857C28.3561 8.27018 28.4696 8.24179 28.4128 8.17554C28.3371 8.27018 28.1952 8.37428 28.0438 8.38374C28.1479 8.40267 28.2803 8.45945 28.2803 8.54463C28.233 8.77176 28.0438 8.56355 27.9113 8.67712C28.0248 8.76229 27.8639 8.89478 28.1384 8.9421C28.1384 9.01781 28.0059 9.00835 27.9302 9.02728C28.0248 9.16923 27.9207 9.63295 28.2236 9.50046L28.2425 9.47207C28.2425 9.48153 28.252 9.48153 28.252 9.491C28.5169 9.86008 28.1573 10.3238 28.4034 10.674L28.3182 10.7024C28.4886 10.8822 28.5643 11.1472 28.8198 11.1945C28.8482 11.2513 28.7346 11.4027 28.621 11.4311C28.763 11.5446 28.8576 11.5068 28.8482 11.7907C28.621 11.7244 28.7535 11.9137 28.6589 11.7055C28.6968 11.9326 28.5927 12.0557 28.9333 12.1124C28.6873 12.1692 28.763 12.4058 28.8766 12.4531L28.9428 12.2355C29.028 12.3112 29.0658 12.4058 29.0942 12.5005L28.8009 12.6235C28.7062 13.1913 29.7567 12.9169 29.3876 13.5225C29.6337 13.4942 29.3971 13.2481 29.6621 13.1913C29.7283 13.3711 29.4538 13.7875 29.4822 13.8348C29.4728 14.1472 30.0027 13.7875 30.0406 14.0809C30.1163 13.9957 30.3529 13.8065 30.5516 13.92C30.6179 14.0998 30.2677 14.3648 30.1352 14.308C30.1068 14.2796 30.1258 14.2418 30.1542 14.2229C30.0879 14.1945 30.0027 14.1472 29.9365 14.2796L30.0406 14.2418C29.9933 14.3837 30.1352 14.5919 29.946 14.6298C30.1068 14.696 30.1352 14.5825 30.1352 14.4689C30.1163 14.7528 30.315 14.7907 30.3434 15.0462C30.3813 14.98 30.4759 14.8853 30.4949 14.9232C30.5422 15.3017 30.7598 14.961 30.9113 15.1503C30.8261 15.349 30.5232 15.2923 30.7598 15.4437C30.722 15.6235 30.5043 15.6046 30.4002 15.5951C30.6936 15.6897 30.4475 16.0115 30.4475 16.1251L30.3245 16.0683C30.4002 16.1061 30.4191 16.1535 30.4381 16.2008L30.6179 16.0588C30.6084 16.1345 30.6274 16.1819 30.5422 16.2197C30.7031 16.2197 30.8639 16.021 31.1005 16.0683C31.0248 16.1913 31.3182 16.267 31.0438 16.409C31.0438 16.1251 30.7788 16.5415 30.6463 16.3522C30.6936 16.3806 30.7125 16.4279 30.6936 16.4942C30.6652 16.5131 30.6368 16.5036 30.6084 16.4942C30.4381 16.8159 30.968 16.4752 31.0438 16.7307C30.8734 16.7497 30.7598 16.8822 30.8072 16.9106C30.7788 16.8159 31.0627 16.7781 31.2141 16.8348C31.1289 17.0336 31.3561 16.9863 31.3655 17.0809L31.3939 16.9673C31.5643 16.9579 31.5643 17.0525 31.6494 17.1566C31.5264 17.1945 31.5359 17.0714 31.4885 17.1282C31.8103 17.1945 31.2614 17.4878 31.4791 17.6203C31.3844 17.7244 31.1668 17.6771 31.1005 17.7623C31.3466 17.9232 30.9018 17.9894 31.0911 18.1598C31.3087 18.0841 31.252 18.0746 31.4885 18.2071C31.4318 18.0935 31.3655 17.9894 31.2993 17.8853C31.4128 17.9421 31.5359 18.0083 31.6494 18.0746C31.64 17.9705 31.4885 17.8664 31.5169 17.8001C31.7157 17.8853 31.6589 17.8853 31.8387 17.8096C31.5169 17.9894 32.0658 18.0935 31.8482 18.2828L31.2898 18.3017C31.0438 18.5289 31.5832 18.7181 31.4034 19.021L31.5075 18.9358C31.7251 19.002 31.5169 19.1345 31.5832 19.2481C31.4034 19.2102 31.3277 19.2576 31.2046 19.267C31.3371 19.2954 31.1479 19.4658 31.498 19.5888L31.2236 19.6456C31.0532 19.8254 31.6305 20.0904 31.4507 20.308C31.2993 20.1566 31.1384 20.185 31.0721 19.9863C31.0343 20.0525 30.9775 20.0904 31.1005 20.1566C30.987 20.1377 31.2141 20.4689 31.0248 20.4405C31.0816 20.5162 31.233 20.6298 31.1762 20.7055C31.1384 20.696 31.1005 20.6487 31.1005 20.6487C31.1857 20.7055 31.11 20.838 31.3371 20.8948C31.0059 20.8285 30.9302 20.98 30.8166 21.1124C30.7125 21.2544 30.599 21.4058 30.3529 21.2733C30.2677 21.4437 30.1068 21.6046 29.9744 21.7181C29.9554 21.6613 29.927 21.6424 29.9649 21.633C29.681 21.5951 30.1068 22.1629 29.7756 22.1345C29.5201 21.9358 29.8229 21.9169 29.6999 21.8601C29.3971 21.3396 29.4538 22.0683 29.151 21.8128L29.1699 21.7654C28.9807 21.614 28.9523 22.0967 28.7251 22.1156C28.7251 22.1156 28.7251 22.0588 28.7062 22.0304C28.6494 22.3711 28.375 22.5415 28.1573 22.655C28.1952 22.409 28.2425 22.5131 28.1668 22.2765C28.0721 22.3238 28.252 22.6645 28.0532 22.7591C27.968 22.6361 27.8166 22.532 27.7882 22.267L27.9586 22.2386C27.8356 21.9074 27.7315 22.267 27.6368 22.2102L27.6463 22.0588C27.3908 22.1061 27.3718 22.4847 27.0785 22.4374L27.0974 22.5509C26.8892 22.9011 26.9838 22.3333 26.7756 22.5888L26.7851 22.2102C26.6715 22.2765 26.3497 22.5036 26.1321 22.5036C26.3214 22.2765 26.5674 22.1819 26.7188 22.0494C26.6242 22.0304 26.3876 22.0115 26.2835 22.1629C26.3308 22.144 26.4065 22.0683 26.4255 22.1345C26.2362 22.3806 26.0091 22.4752 25.8009 22.3901C26.0942 21.7371 25.3371 22.002 25.4696 21.4248C25.0248 21.4721 24.9397 20.961 24.6179 20.7339C24.3624 21.2544 24.5138 20.6677 24.1447 21.1124C24.0406 21.0651 24.0217 21.0273 24.0406 20.9989C24.0406 20.838 24.0501 20.696 24.069 20.5352C24.1447 20.3648 24.2204 20.5162 24.315 20.4216C24.2015 20.2323 24.4286 20.185 24.457 19.9863C24.3245 20.1472 24.1826 20.1377 24.1731 19.9957L24.0785 20.2986C23.6431 20.2702 24.2867 19.797 23.8703 19.7591L24.069 19.7213C23.8892 19.6645 23.7662 19.2859 23.2835 19.3901C23.3214 19.3333 23.4444 19.2197 23.5106 19.2576C23.3876 18.9263 22.6684 18.7465 22.8292 18.349L22.9712 18.3207C22.905 18.2733 22.6778 18.3017 22.7819 18.1692C22.8387 18.1503 22.9239 18.1503 22.9239 18.1124C22.8671 18.0935 22.6305 18.0178 22.6778 17.9042L22.8576 17.9326C22.9239 17.5446 22.3182 17.5068 22.1573 17.2039C22.5643 17.1188 22.64 16.8159 22.6873 16.6645H22.7441C22.7346 16.2481 22.3182 15.9831 22.1479 15.5667C22.5832 15.3112 22.3466 14.696 22.6494 14.308C22.5643 14.3648 22.3277 14.2607 22.2898 14.185C22.3845 14.0998 22.0438 13.8727 22.4128 13.9389L22.4034 13.9768C22.7914 13.9579 22.7062 13.7497 22.7535 13.5983L22.2614 13.4847C23.0374 13.2197 22.2236 12.3396 22.9239 12.2828C22.8292 12.1503 22.8671 12.0367 22.7725 11.9042L23.028 11.9894C23.1699 11.7434 23.2456 11.6203 23.293 11.2796L23.4539 11.4121C23.5296 11.2418 22.8103 10.92 22.8576 10.7402L23.2551 10.8254C23.3687 10.4942 23.8229 10.3143 23.6242 9.86008C23.6715 9.88847 23.7756 9.94526 23.7662 10.002C23.8419 9.85062 24.2677 9.54778 23.7472 9.36797C24.069 9.50993 23.927 9.06513 23.8703 8.81907L24.0974 8.96103C23.8703 8.66765 23.7851 8.62034 23.8135 8.38374C23.8703 8.35535 24.0217 8.44053 23.927 8.46892C24.1258 8.37428 23.7662 8.23232 23.9933 8.10929L24.1068 8.26071C24.2109 8.10929 24.1258 8.0809 24.0027 7.90109C23.9649 7.74967 24.2393 7.63611 24.457 7.74021C24.3434 7.64557 24.2299 7.4563 24.3434 7.39952C24.4286 7.43737 24.457 7.49415 24.4665 7.53201C24.7693 7.37112 24.4475 6.98311 24.7788 6.95472C24.8545 7.00204 24.8923 7.0115 24.9302 7.0115C24.7977 7.20078 24.6747 7.3522 24.6747 7.33327C24.8829 7.46576 25.0154 7.33327 25.2141 7.63611C25.1384 7.41844 24.9491 6.97365 25.1573 6.88847C25.1857 6.89794 25.2046 6.89794 25.2425 6.91687L25.252 6.94526C25.2993 6.92633 25.2993 6.87901 25.2898 6.83169C25.3561 6.8033 25.4034 6.79384 25.4412 6.75598C25.6116 6.86008 25.6589 6.65188 25.7157 6.58564C25.498 6.42475 25.6116 6.35851 25.3655 6.31119C25.3939 6.31119 25.375 6.34904 25.3466 6.40582C25.3466 6.42475 25.3371 6.43422 25.3466 6.45314L25.3277 6.43422C25.2898 6.491 25.252 6.55724 25.2046 6.63295C25.1384 6.491 25.1005 6.35851 25.2803 6.36797C25.1762 6.22601 25.0721 6.07459 25.0248 5.99888C25.4034 6.12191 25.7157 6.05567 25.9144 6.1787C25.9807 5.86639 26.274 5.62034 26.0469 5.13769C26.0564 5.03359 26.2173 5.16608 26.293 5.20393C26.293 5.27018 26.2456 5.30803 26.2835 5.37428C26.3024 5.16608 26.5863 4.99573 26.3781 4.72128C26.6431 4.69289 26.5106 5.03359 26.681 4.79699L26.7283 4.90109C27.4854 4.9768 26.8703 3.61403 27.8166 3.83169C27.7598 3.82223 27.7315 3.81276 27.6841 3.77491C28.4223 3.65188 28.8292 2.75283 29.681 2.96103C29.8986 2.97996 29.8419 2.77176 29.9081 2.57302L30.0406 2.82854L30.1352 2.44999C30.3718 2.12822 30.7977 2.98942 31.0532 2.47838L30.968 2.29857C31.11 2.30803 31.375 2.11876 31.3844 2.33642C31.3939 2.29857 31.4034 2.12822 31.4696 2.22286L31.4885 2.37428C31.5832 2.27964 31.6873 2.17554 31.7914 2.09037C32.0564 2.185 31.8009 2.67712 32.151 2.69605C32.274 2.63926 32.5201 2.26071 32.4728 2.15661C32.416 2.14715 32.3308 2.06198 32.3214 1.92002L32.4538 1.84431C32.4822 1.39952 32.6147 0.954721 32.2362 0.642418L31.9807 0.916866L31.886 0.708664C31.9617 0.6992 32.028 0.689737 32.1037 0.689737C31.9712 0.490998 31.8955 0.680273 31.8198 0.803301C31.7914 0.689737 31.7535 0.614027 31.6968 0.576172C31.621 0.727591 31.5453 0.860084 31.4791 1.0115C31.4318 0.841156 31.5548 0.661345 31.375 0.585636C31.2803 0.793837 31.5264 0.954721 31.3561 1.10614C31.2141 0.92633 31.2236 0.755983 31.1005 0.945257C31.0627 0.831692 31.0816 0.755983 31.1384 0.6992C31.0248 0.85062 30.8072 0.812765 30.7788 1.04936C30.6084 0.822229 30.3718 1.20078 30.2961 0.793837C30.2772 0.897938 30.1447 1.16292 30.0406 1.21024C30.1163 0.670809 29.6147 1.30488 29.5106 0.77491C29.4917 1.25756 29.0185 1.15346 28.8482 1.49415C28.8482 1.4563 28.8482 1.38059 28.886 1.39005C28.7251 1.40898 28.6305 1.30488 28.498 1.26702C28.621 1.61718 28.4412 1.78753 28.4223 2.05251C28.1005 1.81592 28.3371 1.60772 28.1384 1.32381C28.2709 1.58879 27.968 1.74967 28.1384 1.93895C27.9113 1.80646 27.9775 1.90109 27.7693 1.6645C27.9586 2.09037 27.6841 1.79699 27.7125 2.10929C27.4191 2.01466 27.4475 1.75914 27.315 1.99573C27.1731 1.86324 27.2772 1.60772 27.2772 1.60772ZM23.8135 5.93264C23.8324 5.88532 23.8513 5.85693 23.8608 5.82854C23.8513 5.85693 23.8419 5.88532 23.8135 5.93264ZM23.5674 6.30172C23.6053 6.26387 23.6431 6.20709 23.681 6.1503C23.7662 6.18816 23.8324 6.25441 23.804 6.29226C23.7662 6.23548 23.6715 6.29226 23.5674 6.30172ZM25.5832 6.65188C25.5737 6.72759 25.5264 6.70866 25.4696 6.68027C25.4791 6.65188 25.498 6.62349 25.5075 6.57617L25.4886 6.54778C25.5264 6.58564 25.5643 6.61403 25.5832 6.65188Z" fill="#342B1D"/>
<path d="M25.3748 6.3484C25.3748 6.33894 25.3654 6.32947 25.3748 6.32001C25.3464 6.32001 25.3275 6.31055 25.3086 6.31055L25.3654 6.37679L25.3748 6.3484Z" fill="#342B1D"/>
<path d="M28.2141 9.48993L28.2046 9.4994C28.2141 9.48993 28.2235 9.48047 28.2424 9.48047C28.233 9.48993 28.233 9.48993 28.2141 9.48993Z" fill="#342B1D"/>
<path d="M20.6147 11.6961L20.6715 11.7055L20.6337 11.6582L20.6147 11.6961Z" fill="#342B1D"/>
<path d="M29.7852 7.53125C29.8041 7.54071 29.8325 7.54071 29.8609 7.53125C29.8419 7.53125 29.8135 7.53125 29.7852 7.53125Z" fill="#342B1D"/>
<path d="M30.2964 6.69876L30.4478 6.62305C30.3721 6.65144 30.3248 6.67983 30.2964 6.69876Z" fill="#342B1D"/>
<path d="M30.7883 6.12258C30.7504 6.09419 30.7221 6.0658 30.7031 6.04688L30.7883 6.12258Z" fill="#342B1D"/>
<path d="M33.0879 16.5703C33.0879 16.5798 33.0974 16.5892 33.1068 16.5987C33.1825 16.665 33.1447 16.6176 33.0879 16.5703Z" fill="#342B1D"/>
<path d="M30.8735 13.3239C30.9398 13.3334 30.9966 13.3429 31.0439 13.3618C31.025 13.2956 30.9966 13.2482 30.8735 13.3239Z" fill="#342B1D"/>
<path d="M32.8511 21.4922H32.8417L32.8228 21.5206L32.8511 21.4922Z" fill="#342B1D"/>
<path d="M31.1291 13.5127C31.1386 13.4276 31.1007 13.3897 31.0439 13.3613C31.0534 13.4181 31.0629 13.4844 31.1291 13.5127Z" fill="#342B1D"/>
<path d="M32.8228 3.64302L32.8511 3.62409C32.8417 3.61463 32.8322 3.60517 32.8228 3.5957V3.64302Z" fill="#342B1D"/>
<path d="M32.8322 3.58638V3.53906C32.8228 3.54853 32.8133 3.56745 32.8322 3.58638Z" fill="#342B1D"/>
<path d="M32.842 3.43359L32.8325 3.53769C32.8514 3.51877 32.8798 3.49984 32.842 3.43359Z" fill="#342B1D"/>
<path d="M32.0942 4.30469L32.1605 4.37093C32.151 4.35201 32.1226 4.33308 32.0942 4.30469Z" fill="#342B1D"/>
<path d="M31.9239 4.5509C31.9902 4.51305 32.1984 4.54144 32.2078 4.42788L32.151 4.37109C32.2457 4.49412 31.8387 4.39948 31.9239 4.5509Z" fill="#342B1D"/>
<path d="M30.2013 4.89148L30.419 4.71166C30.3054 4.69274 30.1634 4.66435 30.2108 4.55078C29.766 4.65488 30.4379 4.62649 30.2013 4.89148Z" fill="#342B1D"/>
<path d="M29.624 5.50614C29.6618 5.35472 29.5009 5.43043 29.4536 5.39258C29.482 5.51561 29.4915 5.55346 29.624 5.50614Z" fill="#342B1D"/>
<path d="M28.5643 11.5254L28.3467 11.6295C28.4319 11.7147 28.4319 11.5822 28.5643 11.5254Z" fill="#342B1D"/>
<path d="M30.2206 11.8559L30.2963 11.6855L30.0786 11.7613L30.2206 11.8559Z" fill="#342B1D"/>
<path d="M29.1227 13.3431L29.0659 13.3242L29.2363 13.4283L29.1227 13.3431Z" fill="#342B1D"/>
<path d="M30.3149 20.9329L30.5326 21.1317C30.5421 21.0465 30.3149 20.8004 30.3149 20.9329Z" fill="#342B1D"/>
<path d="M27.1258 22.258C27.0974 22.1065 27.0122 22.0024 26.9365 22.1349C27.0028 22.1728 27.0785 22.2958 27.1258 22.258Z" fill="#342B1D"/>
<path d="M22.6875 13.3241L22.7727 13.4187L22.7159 13.2578L22.6875 13.3241Z" fill="#342B1D"/>
</g>
<defs>
<clipPath id="clip0_3513_19826">
<rect width="33.1798" height="24" fill="white" transform="translate(0.410156 0.5)"/>
</clipPath>
</defs>
</svg>
